<?xml version="1.0" encoding="utf-8"?>
<!-- Generator: Adobe Illustrator 25.0.1, SVG Export Plug-In . SVG Version: 6.00 Build 0)  -->
<svg version="1.1" id="Laag_1" xmlns="http://www.w3.org/2000/svg" xmlns:xlink="http://www.w3.org/1999/xlink" x="0px" y="0px"
	 viewBox="0 0 243.7 55.2" style="enable-background:new 0 0 243.7 55.2;" xml:space="preserve">
<style type="text/css">
	.st0{fill-rule:evenodd;clip-rule:evenodd;fill:#FFFFFF;}
	.st1{filter:url(#Adobe_OpacityMaskFilter);}
	.st2{mask:url(#mask-2_2_);fill-rule:evenodd;clip-rule:evenodd;fill:#FFFFFF;}
	.st3{filter:url(#Adobe_OpacityMaskFilter_1_);}
	.st4{mask:url(#mask-4_8_);fill-rule:evenodd;clip-rule:evenodd;fill:#FFFFFF;}
	.st5{filter:url(#Adobe_OpacityMaskFilter_2_);}
	.st6{mask:url(#mask-4_7_);fill-rule:evenodd;clip-rule:evenodd;fill:#FFFFFF;}
	.st7{filter:url(#Adobe_OpacityMaskFilter_3_);}
	.st8{mask:url(#mask-4_6_);fill-rule:evenodd;clip-rule:evenodd;fill:#FFFFFF;}
	.st9{filter:url(#Adobe_OpacityMaskFilter_4_);}
	.st10{mask:url(#mask-4_5_);fill-rule:evenodd;clip-rule:evenodd;fill:#FFFFFF;}
</style>
<g id="Group" transform="translate(73.000000, 45.000000)">
	<g id="Group-5" transform="translate(0.000000, 0.142241)">
		<path id="Fill-1" class="st0" d="M-69.7-8.3l9.3,15.1c1.2,1.8,3.8,2.7,5.3,2c1.5-0.7,2.3-2.8,1.2-5.6L-58.4-11
			c-2.1-5.4-1.1-8.8,1-11.4l9.1-9.4c2.6-2.9,2.1-6.7-1.1-9.2c0,0,0.1,0,0.1-0.1c1.3-1.7,5.2-1.1,6.1,0.9c0.4,0.9,1.9,0.4,2.6-0.3
			c0.7-0.7,0.7-1.8,0-2.4c-1.4-1.3-3.5-1.3-5.4-1.3c-1.2,0-7.3,0-8.8,0c-2.5,0-5.2,1.6-6.7,4.1l-8.3,13.5c-1.7,2.8-2.6,6-2.6,9.1
			C-72.3-14.2-71.5-11.1-69.7-8.3"/>
		<path id="Fill-3" class="st0" d="M-14.5-26.9L-23.9-42c-1.2-1.8-3.8-2.7-5.3-2c-1.5,0.7-2.3,2.8-1.2,5.6l4.5,14.1
			c2.1,5.4,1.1,8.8-1,11.4l-9.1,9.4c-2.6,2.9-2.1,6.7,1.1,9.2c0,0-0.1,0-0.1,0.1C-36.2,7.5-40.1,6.9-41,5c-0.4-0.9-1.9-0.4-2.6,0.3
			c-0.7,0.7-0.7,1.8,0,2.4C-42.3,9-40.1,9-38.3,9c1.2,0,7.3,0,8.8,0c2.5,0,5.2-1.6,6.7-4.1l8.3-13.5c1.7-2.8,2.6-6,2.6-9.1
			C-11.9-21-12.8-24.1-14.5-26.9"/>
	</g>
</g>
<g id="Group-11" transform="translate(75.000000, 12.142241)">
	<g id="Group-3" transform="translate(0.000000, 0.348714)">
		<g id="Clip-2">
		</g>
		<defs>
			<filter id="Adobe_OpacityMaskFilter" filterUnits="userSpaceOnUse" x="0.7" y="0.7" width="27.2" height="28.7">
				<feColorMatrix  type="matrix" values="1 0 0 0 0  0 1 0 0 0  0 0 1 0 0  0 0 0 1 0"/>
			</filter>
		</defs>
		<mask maskUnits="userSpaceOnUse" x="0.7" y="0.7" width="27.2" height="28.7" id="mask-2_2_">
			<g class="st1">
				<polygon id="path-1_2_" class="st0" points="0.7,0.7 27.8,0.7 27.8,29.4 0.7,29.4 				"/>
			</g>
		</mask>
		<path id="Fill-1_1_" class="st2" d="M8.1,27.5c-2.3-1.2-4.1-2.9-5.4-5.1c-1.3-2.2-2-4.6-2-7.4s0.7-5.2,2-7.4
			C4,5.5,5.8,3.8,8.1,2.5c2.3-1.2,4.9-1.8,7.8-1.8c2.5,0,4.8,0.4,6.9,1.3c2,0.9,3.7,2.2,5.1,3.9l-5,4.5c-1.8-2.2-4-3.2-6.5-3.2
			c-1.5,0-2.8,0.3-4,1s-2.1,1.6-2.7,2.8c-0.6,1.2-1,2.6-1,4.1c0,1.5,0.3,2.9,1,4.1c0.6,1.2,1.6,2.1,2.7,2.8c1.2,0.7,2.5,1,4,1
			c2.6,0,4.7-1.1,6.5-3.2l5,4.5c-1.3,1.7-3,3-5.1,3.9c-2,0.9-4.3,1.3-6.9,1.3C13,29.4,10.4,28.8,8.1,27.5"/>
	</g>
	<polygon id="Fill-4" class="st0" points="63.2,1.6 63.2,29.2 55.4,29.2 55.4,18.4 44.7,18.4 44.7,29.2 36.9,29.2 36.9,1.6 
		44.7,1.6 44.7,12 55.4,12 55.4,1.6 	"/>
	<g id="Clip-7">
	</g>
	<defs>
		<filter id="Adobe_OpacityMaskFilter_1_" filterUnits="userSpaceOnUse" x="75.9" y="1.6" width="7.8" height="27.6">
			<feColorMatrix  type="matrix" values="1 0 0 0 0  0 1 0 0 0  0 0 1 0 0  0 0 0 1 0"/>
		</filter>
	</defs>
	<mask maskUnits="userSpaceOnUse" x="75.9" y="1.6" width="7.8" height="27.6" id="mask-4_8_">
		<g class="st3">
			<polygon id="path-3_8_" class="st0" points="0.7,29.7 167.4,29.7 167.4,1.1 0.7,1.1 			"/>
		</g>
	</mask>
	<polygon id="Fill-6" class="st4" points="75.9,29.2 83.8,29.2 83.8,1.6 75.9,1.6 	"/>
	<defs>
		<filter id="Adobe_OpacityMaskFilter_2_" filterUnits="userSpaceOnUse" x="96.5" y="1.6" width="21.1" height="27.6">
			<feColorMatrix  type="matrix" values="1 0 0 0 0  0 1 0 0 0  0 0 1 0 0  0 0 0 1 0"/>
		</filter>
	</defs>
	<mask maskUnits="userSpaceOnUse" x="96.5" y="1.6" width="21.1" height="27.6" id="mask-4_7_">
		<g class="st5">
			<polygon id="path-3_7_" class="st0" points="0.7,29.7 167.4,29.7 167.4,1.1 0.7,1.1 			"/>
		</g>
	</mask>
	<polygon id="Fill-8" class="st6" points="96.5,1.6 104.3,1.6 104.3,23 117.5,23 117.5,29.2 96.5,29.2 	"/>
	<defs>
		<filter id="Adobe_OpacityMaskFilter_3_" filterUnits="userSpaceOnUse" x="125.4" y="1.6" width="7.8" height="27.6">
			<feColorMatrix  type="matrix" values="1 0 0 0 0  0 1 0 0 0  0 0 1 0 0  0 0 0 1 0"/>
		</filter>
	</defs>
	<mask maskUnits="userSpaceOnUse" x="125.4" y="1.6" width="7.8" height="27.6" id="mask-4_6_">
		<g class="st7">
			<polygon id="path-3_6_" class="st0" points="0.7,29.7 167.4,29.7 167.4,1.1 0.7,1.1 			"/>
		</g>
	</mask>
	<polygon id="Fill-9" class="st8" points="125.4,29.2 133.2,29.2 133.2,1.6 125.4,1.6 	"/>
	<defs>
		<filter id="Adobe_OpacityMaskFilter_4_" filterUnits="userSpaceOnUse" x="142.5" y="1.6" width="24.8" height="27.6">
			<feColorMatrix  type="matrix" values="1 0 0 0 0  0 1 0 0 0  0 0 1 0 0  0 0 0 1 0"/>
		</filter>
	</defs>
	<mask maskUnits="userSpaceOnUse" x="142.5" y="1.6" width="24.8" height="27.6" id="mask-4_5_">
		<g class="st9">
			<polygon id="path-3_5_" class="st0" points="0.7,29.7 167.4,29.7 167.4,1.1 0.7,1.1 			"/>
		</g>
	</mask>
	<polygon id="Fill-10" class="st10" points="151,7.8 142.5,7.8 142.5,1.6 167.4,1.6 167.4,7.8 158.9,7.8 158.9,29.2 151,29.2 	"/>
</g>
</svg>
