<?xml version="1.0" encoding="utf-8"?>
<!-- Generator: Adobe Illustrator 22.1.0, SVG Export Plug-In . SVG Version: 6.00 Build 0)  -->
<svg version="1.1" xmlns="http://www.w3.org/2000/svg" xmlns:xlink="http://www.w3.org/1999/xlink" x="0px" y="0px"
	 viewBox="0 0 242 225.2" style="enable-background:new 0 0 242 225.2;" xml:space="preserve">
<style type="text/css">
	.st0{fill:#0E7194;}
	.st1{fill:#FFFFFF;}
</style>
<g id="Calque_1">
	<path class="st0" d="M971.9-755.3l21.7,29c26.3,0,47.7,21.4,47.7,47.7c0,26.3-16.9,49.7-46.9,46.1c-8.9-1.7-16.8-9.2-16.9-18.2
		v-47.4l0-0.1v-7.1c0-7.3-1.6-14.1-4.3-20.4c-3.5-7.8-8.9-14.6-15.7-19.6c-8.4-6.3-18.8-10.1-30.1-10.1c-27.7,0-50.1,22.4-50.1,50.1
		c0,1.3,0.2,51.1,0.2,52c0,11.7-9.5,21.1-21.1,21.1c-10.8,0-19.7-8.1-20.9-18.6v-47.4v-47.2h-29.1v92c0,7.3,1.6,14.1,4.3,20.4
		c7.8,17.5,25.3,29.7,45.7,29.7c27.7,0,50.1-22.4,50.1-50.1c0-2.2-0.2-50.9-0.2-52c0-11.7,9.5-21.1,21.1-21.1
		c10.8,0,19.7,8.1,20.9,18.6v47.4l0,0.1v7.1c0,7.3,1.6,14.1,4.3,20.4c3.2,7.1,8,13.5,14.1,18.4c6,4.8,12.5,8,20,9.8
		c6.8,1.6,13.9,1.9,20.9,1.1c7-0.8,13.8-2.7,20.2-5.6c6.5-2.9,12.5-6.8,17.8-11.5c1.9-1.6,3.6-3.4,5.3-5.2c2.8-3,5.3-6.3,7.5-9.8
		c8.1-13.1,11.3-28.4,11.3-43.6c0-38.6-28.8-70.5-66.1-75.4C1000.4-755.1,975.3-755.3,971.9-755.3"/>
	<path class="st0" d="M820.6-790.8c-9,0-16.4,7.3-16.4,16.4c0,9,7.3,16.4,16.4,16.4c9,0,16.4-7.3,16.4-16.4
		C837-783.5,829.6-790.8,820.6-790.8"/>
</g>
<g id="iad-logo">
	<g>
		<path class="st0" d="M815.7-172.2l7.2,9.5c8.7,0,15.7,7,15.7,15.7c0,8.7-5.6,16.4-15.5,15.2c-2.9-0.6-5.5-3-5.6-6v-15.6l0,0v-2.3
			c0-2.4-0.5-4.7-1.4-6.7c-1.1-2.6-2.9-4.8-5.2-6.5c-2.8-2.1-6.2-3.3-9.9-3.3c-9.1,0-16.5,7.4-16.5,16.5c0,0.4,0.1,16.8,0.1,17.1
			c0,3.8-3.1,7-7,7c-3.6,0-6.5-2.7-6.9-6.1v-15.6v-15.5h-9.6v30.3c0,2.4,0.5,4.7,1.4,6.7c2.6,5.8,8.3,9.8,15.1,9.8
			c9.1,0,16.5-7.4,16.5-16.5c0-0.7-0.1-16.8-0.1-17.1c0-3.8,3.1-7,7-7c3.6,0,6.5,2.7,6.9,6.1v15.6l0,0v2.3c0,2.4,0.5,4.7,1.4,6.7
			c1,2.3,2.6,4.4,4.6,6.1c2,1.6,4.1,2.7,6.6,3.2c2.3,0.5,4.6,0.6,6.9,0.4c2.3-0.3,4.5-0.9,6.6-1.8c2.1-1,4.1-2.2,5.9-3.8
			c0.6-0.5,1.2-1.1,1.7-1.7c0.9-1,1.7-2.1,2.5-3.2c2.7-4.3,3.7-9.4,3.7-14.4c0-12.7-9.5-23.2-21.8-24.8
			C825.1-172.1,816.8-172.2,815.7-172.2"/>
		<path class="st0" d="M765.9-183.9c-3,0-5.4,2.4-5.4,5.4c0,3,2.4,5.4,5.4,5.4c3,0,5.4-2.4,5.4-5.4
			C771.2-181.5,768.8-183.9,765.9-183.9"/>
	</g>
</g>
<g id="logo_x5F_fiche_x5F_technique">
	<g>
		<path class="st1" d="M150.8,35.8l18.5,24.7c22.5,0,40.7,18.2,40.7,40.7c0,22.5-14.4,42.3-40,39.3c-7.6-1.5-14.4-7.8-14.4-15.5
			V84.5l0-0.1v-6c0-6.2-1.3-12.1-3.7-17.4c-3-6.7-7.6-12.4-13.3-16.7c-7.1-5.4-16-8.6-25.6-8.6c-23.6,0-42.7,19.1-42.7,42.7
			c0,1.1,0.1,43.5,0.1,44.4c0,9.9-8.1,18-18,18c-9.2,0-16.8-6.9-17.9-15.8V84.5V44.3H9.6v78.5c0,6.2,1.3,12.1,3.7,17.4
			c6.7,14.9,21.6,25.3,39,25.3c23.6,0,42.7-19.1,42.7-42.7c0-1.8-0.1-43.4-0.1-44.4c0-9.9,8.1-18,18-18c9.2,0,16.8,6.9,17.9,15.8
			v40.4l0,0.1v6c0,6.2,1.3,12.1,3.7,17.4c2.7,6.1,6.9,11.5,12,15.7c5.1,4.1,10.7,6.9,17.1,8.3c5.8,1.3,11.9,1.6,17.8,1
			c5.9-0.7,11.8-2.3,17.2-4.7c5.5-2.5,10.7-5.8,15.2-9.8c1.6-1.4,3.1-2.9,4.5-4.4c2.4-2.6,4.5-5.4,6.4-8.4
			c6.9-11.1,9.6-24.2,9.6-37.2c0-32.9-24.5-60.1-56.3-64.3C175.1,35.9,153.7,35.8,150.8,35.8"/>
		<path class="st1" d="M21.8,5.5c-7.7,0-14,6.3-14,14c0,7.7,6.3,14,14,14c7.7,0,14-6.3,14-14C35.7,11.8,29.5,5.5,21.8,5.5"/>
	</g>
</g>
<g id="logo">
	<g>
		<path class="st1" d="M815.7-20.2l7.2,9.5c8.7,0,15.7,7,15.7,15.7c0,8.7-5.6,16.4-15.5,15.2c-2.9-0.6-5.5-3-5.6-6V-1.4l0,0v-2.3
			c0-2.4-0.5-4.7-1.4-6.7c-1.1-2.6-2.9-4.8-5.2-6.5c-2.8-2.1-6.2-3.3-9.9-3.3c-9.1,0-16.5,7.4-16.5,16.5c0,0.4,0.1,16.8,0.1,17.1
			c0,3.8-3.1,7-7,7c-3.6,0-6.5-2.7-6.9-6.1V-1.4v-15.5h-9.6v30.3c0,2.4,0.5,4.7,1.4,6.7c2.6,5.8,8.3,9.8,15.1,9.8
			c9.1,0,16.5-7.4,16.5-16.5c0-0.7-0.1-16.8-0.1-17.1c0-3.8,3.1-7,7-7c3.6,0,6.5,2.7,6.9,6.1v15.6l0,0v2.3c0,2.4,0.5,4.7,1.4,6.7
			c1,2.3,2.6,4.4,4.6,6.1c2,1.6,4.1,2.7,6.6,3.2c2.3,0.5,4.6,0.6,6.9,0.4c2.3-0.3,4.5-0.9,6.6-1.8c2.1-1,4.1-2.2,5.9-3.8
			c0.6-0.5,1.2-1.1,1.7-1.7c0.9-1,1.7-2.1,2.5-3.2c2.7-4.3,3.7-9.4,3.7-14.4c0-12.7-9.5-23.2-21.8-24.8
			C825.1-20.1,816.8-20.2,815.7-20.2"/>
		<path class="st1" d="M765.9-31.9c-3,0-5.4,2.4-5.4,5.4c0,3,2.4,5.4,5.4,5.4c3,0,5.4-2.4,5.4-5.4C771.2-29.5,768.8-31.9,765.9-31.9
			"/>
	</g>
</g>
<g id="fallback_x5F_fr">
	<rect x="1455.9" y="-405" class="st0" width="958" height="960"/>
	<g>
		<path class="st1" d="M2053.6-207.5l73.7,98.4c89.4,0,161.9,72.5,161.9,161.9c0,89.4-57.4,168.5-159.3,156.6
			c-30.3-5.9-57.1-31.2-57.4-61.7v-161l-0.1-0.2v-24c0-24.6-5.3-48-14.7-69.1c-11.8-26.5-30.2-49.4-53.1-66.7
			c-28.4-21.4-63.8-34.1-102.1-34.1c-93.9,0-169.9,76.1-169.9,169.9c0,4.6,0.5,173.3,0.5,176.6c0,39.6-32.1,71.6-71.6,71.6
			c-36.6,0-66.8-27.5-71.1-63v-161v-160h-98.8V139c0,24.6,5.3,48,14.7,69.1c26.5,59.4,86,100.8,155.2,100.8
			c93.9,0,169.9-76.1,169.9-169.9c0-7.4-0.5-172.6-0.5-176.6c0-39.6,32.1-71.6,71.6-71.6c36.6,0,66.8,27.5,71.1,63v161l0.1,0.2v24
			c0,24.6,5.3,48,14.7,69.1c10.8,24.1,27.3,45.7,47.8,62.4c20.2,16.4,42.5,27.3,68,33.1c23.2,5.3,47.2,6.5,70.9,3.9
			c23.6-2.7,46.8-9.1,68.5-18.8c22-9.8,42.4-23,60.4-38.9c6.3-5.6,12.3-11.4,18-17.6c9.4-10.3,17.9-21.5,25.3-33.3
			c27.5-44.3,38.4-96.3,38.4-148c0-131.1-97.7-239.4-224.2-256C2150.2-206.7,2065.1-207.5,2053.6-207.5"/>
		<path class="st1" d="M1539.9-327.9c-30.7,0-55.6,24.9-55.6,55.6c0,30.7,24.9,55.6,55.6,55.6c30.7,0,55.6-24.9,55.6-55.6
			C1595.5-302.9,1570.6-327.9,1539.9-327.9"/>
		<text transform="matrix(1 0 0 1 1491.5392 423.6735)"><tspan x="0" y="0" class="st1" style="font-family:'AvenirNext-Regular'; font-size:115.6156px;">www.</tspan><tspan x="279.2" y="0" class="st1" style="font-family:'AvenirNext-Bold'; font-size:115.6156px;">iad</tspan><tspan x="427.2" y="0" class="st1" style="font-family:'AvenirNext-Regular'; font-size:115.6156px;">france.fr</tspan></text>
	</g>
</g>
<g id="fallback_x5F_pt">
	<rect x="1455.9" y="700" class="st0" width="958" height="960"/>
	<g>
		<path class="st1" d="M2053.6,886.2l73.7,98.4c89.4,0,161.9,72.5,161.9,161.9c0,89.4-57.4,168.5-159.3,156.6
			c-30.3-5.9-57.1-31.2-57.4-61.7v-161l-0.1-0.2v-24c0-24.6-5.3-48-14.7-69.1c-11.8-26.5-30.2-49.4-53.1-66.7
			c-28.4-21.4-63.8-34.1-102.1-34.1c-93.9,0-169.9,76.1-169.9,169.9c0,4.6,0.5,173.3,0.5,176.6c0,39.6-32.1,71.6-71.6,71.6
			c-36.6,0-66.8-27.5-71.1-63v-161v-160h-98.8v312.4c0,24.6,5.3,48,14.7,69.1c26.5,59.4,86,100.8,155.2,100.8
			c93.9,0,169.9-76.1,169.9-169.9c0-7.4-0.5-172.6-0.5-176.6c0-39.6,32.1-71.6,71.6-71.6c36.6,0,66.8,27.5,71.1,63v161l0.1,0.2v24
			c0,24.6,5.3,48,14.7,69.1c10.8,24.1,27.3,45.7,47.8,62.4c20.2,16.4,42.5,27.3,68,33.1c23.2,5.3,47.2,6.5,70.9,3.9
			c23.6-2.7,46.8-9.1,68.5-18.8c22-9.8,42.4-23,60.4-38.9c6.3-5.6,12.3-11.4,18-17.6c9.4-10.3,17.9-21.5,25.3-33.3
			c27.5-44.3,38.4-96.3,38.4-148c0-131.1-97.7-239.4-224.2-256C2150.2,887,2065.1,886.2,2053.6,886.2"/>
		<path class="st1" d="M1539.9,765.9c-30.7,0-55.6,24.9-55.6,55.6c0,30.7,24.9,55.6,55.6,55.6c30.7,0,55.6-24.9,55.6-55.6
			C1595.5,790.8,1570.6,765.9,1539.9,765.9"/>
		<text transform="matrix(1 0 0 1 1491.5393 1530.4918)"><tspan x="0" y="0" class="st1" style="font-family:'AvenirNext-Bold'; font-size:130.9341px;">iad</tspan><tspan x="167.6" y="0" class="st1" style="font-family:'AvenirNext-Regular'; font-size:130.9341px;">portugal.pt</tspan></text>
	</g>
</g>
<g id="about_x5F_us_x5F_logo">
	<circle class="st0" cx="143.5" cy="-283" r="68.5"/>
	<g>
		<path class="st1" d="M101.9-316.6c-3.2,0-5.9,2.6-5.9,5.9c0,3.2,2.6,5.9,5.9,5.9c3.2,0,5.9-2.6,5.9-5.9
			C107.7-314,105.1-316.6,101.9-316.6"/>
		<path class="st1" d="M156-303.9l7.8,10.4c9.4,0,17.1,7.6,17.1,17.1c0,9.4-6,17.8-16.8,16.5c-3.2-0.6-6-3.3-6.1-6.5v-17l0,0v-2.5
			c0-2.6-0.6-5.1-1.5-7.3c-1.2-2.8-3.2-5.2-5.6-7c-3-2.3-6.7-3.6-10.8-3.6c-9.9,0-17.9,8-17.9,17.9c0,0.5,0.1,18.3,0.1,18.6
			c0,4.2-3.4,7.6-7.6,7.6c-3.9,0-7-2.9-7.5-6.6v-17v-16.9H96.8v32.9c0,2.6,0.6,5.1,1.5,7.3c2.8,6.3,9.1,10.6,16.4,10.6
			c9.9,0,17.9-8,17.9-17.9c0-0.8-0.1-18.2-0.1-18.6c0-4.2,3.4-7.6,7.6-7.6c3.9,0,7,2.9,7.5,6.6v17l0,0v2.5c0,2.6,0.6,5.1,1.5,7.3
			c1.1,2.5,2.9,4.8,5,6.6c2.1,1.7,4.5,2.9,7.2,3.5c2.4,0.6,5,0.7,7.5,0.4c2.5-0.3,4.9-1,7.2-2c2.3-1,4.5-2.4,6.4-4.1
			c0.7-0.6,1.3-1.2,1.9-1.9c1-1.1,1.9-2.3,2.7-3.5c2.9-4.7,4-10.2,4-15.6c0-13.8-10.3-25.2-23.6-27
			C166.2-303.8,157.2-303.9,156-303.9"/>
	</g>
	<g>
		<path class="st1" d="M13.3,178.8c0-2.4,2-4.3,4.6-4.3c2.6,0,4.6,1.8,4.6,4.1c0,2.5-1.9,4.5-4.6,4.5
			C15.3,183.1,13.3,181.2,13.3,178.8z M14.3,188.1h7.2v30.7h-7.2V188.1z"/>
		<path class="st1" d="M56.7,200.9v18h-6.8v-3.7c-1.7,2.6-5.1,4.1-9.7,4.1c-7,0-11.5-3.9-11.5-9.2c0-5.1,3.5-9.1,12.8-9.1h7.9v-0.5
			c0-4.2-2.5-6.7-7.7-6.7c-3.5,0-7,1.2-9.3,3l-2.8-5.2c3.3-2.5,8.1-3.8,13-3.8C51.6,187.8,56.7,192,56.7,200.9z M49.5,209.3v-3.6
			h-7.4c-4.9,0-6.2,1.8-6.2,4.1c0,2.6,2.2,4.3,5.9,4.3C45.2,214,48.3,212.4,49.5,209.3z"/>
		<path class="st1" d="M96.3,176.2v42.7h-6.9v-4c-2.4,2.9-6,4.4-10.2,4.4c-8.9,0-15.5-6.2-15.5-15.8s6.6-15.7,15.5-15.7
			c4,0,7.5,1.3,9.9,4.1v-15.8H96.3z M89.2,203.5c0-5.9-4-9.6-9.1-9.6c-5.2,0-9.1,3.7-9.1,9.6s4,9.6,9.1,9.6
			C85.2,213.1,89.2,209.4,89.2,203.5z"/>
		<path class="st1" d="M125.7,217.2c-1.7,1.4-4.3,2.1-6.9,2.1c-6.7,0-10.6-3.6-10.6-10.4v-14.8h-5.1v-5.8h5.1v-7h7.2v7h8.2v5.8h-8.2
			v14.6c0,3,1.5,4.6,4.3,4.6c1.5,0,2.9-0.4,4-1.3L125.7,217.2z"/>
		<path class="st1" d="M159.3,205.8h-24.1c0.9,4.5,4.6,7.4,10,7.4c3.5,0,6.2-1.1,8.3-3.3l3.9,4.4c-2.8,3.3-7.1,5-12.4,5
			c-10.3,0-17-6.6-17-15.8c0-9.1,6.7-15.7,15.9-15.7c9,0,15.5,6.3,15.5,15.9C159.4,204.3,159.4,205.1,159.3,205.8z M135.2,201h17.4
			c-0.6-4.4-4-7.5-8.7-7.5C139.3,193.6,135.9,196.5,135.2,201z"/>
		<path class="st1" d="M163.8,203.5c0-9.2,6.9-15.7,16.6-15.7c6,0,10.8,2.5,13.1,7.1l-5.5,3.2c-1.8-2.9-4.6-4.3-7.7-4.3
			c-5.3,0-9.3,3.7-9.3,9.6c0,6,4,9.6,9.3,9.6c3,0,5.8-1.3,7.7-4.3l5.5,3.2c-2.4,4.6-7.1,7.2-13.1,7.2
			C170.7,219.3,163.8,212.7,163.8,203.5z"/>
		<path class="st1" d="M229.8,201.3v17.6h-7.2v-16.7c0-5.5-2.7-8.1-7.3-8.1c-5.1,0-8.6,3.1-8.6,9.3v15.5h-7.2v-42.7h7.2v15.5
			c2.4-2.5,6-3.9,10.2-3.9C224.3,187.8,229.8,192,229.8,201.3z"/>
	</g>
</g>
</svg>
