<svg xmlns="http://www.w3.org/2000/svg" viewBox="0 0 386.94 290.82"><defs><style>.cls-1,.cls-2{fill:#fff;}.cls-2{font-size:109.4px;font-family:OpenSans-Bold, Open Sans;font-weight:700;}</style></defs><title>logo iad tech</title><g id="Calque_1" data-name="Calque 1"><g id="_Groupe_" data-name="&lt;Groupe&gt;"><path id="_Tracé_transparent_" data-name="&lt;Tracé transparent&gt;" class="cls-1" d="M147.38,106.85a19.15,19.15,0,0,0-.43,3.65,14.44,14.44,0,0,0,.31,3.28,11.5,11.5,0,0,0,1.05,2.88,10.28,10.28,0,0,0,1.77,2.44,11.92,11.92,0,0,0,2.65,2.07,16.64,16.64,0,0,0,3.42,1.48,23.47,23.47,0,0,0,4.13.89,34.3,34.3,0,0,0,4.77.28,69.28,69.28,0,0,0,25.18-4.8,61.21,61.21,0,0,0,20.08-12.94A58.48,58.48,0,0,0,223.6,86.59a62,62,0,0,0,4.73-24.47,55.3,55.3,0,0,0-1.44-12.33,53.59,53.59,0,0,0-4.13-11.49,55,55,0,0,0-6.68-10.37A59.59,59.59,0,0,0,207,19a70.39,70.39,0,0,0-12.23-7.76A85.35,85.35,0,0,0,180.38,5.6a106.54,106.54,0,0,0-16.26-3.33,131.42,131.42,0,0,0-16.65-1H146.2A140.45,140.45,0,0,0,125,3a128.87,128.87,0,0,0-19.93,4.85,115.34,115.34,0,0,0-18.15,7.75A101.2,101.2,0,0,0,71,26.12,88.39,88.39,0,0,0,57.19,39.93a78,78,0,0,0-9.78,15.83,76.79,76.79,0,0,0-5.68,17.57,84.9,84.9,0,0,0-1.49,19.08c.43,13.68,3.5,25.1,8.47,34.53a64.4,64.4,0,0,0,19.86,22.58,83.54,83.54,0,0,0,27,12.32,115.56,115.56,0,0,0,30,3.65,112,112,0,0,0,16.52-1.4,122.61,122.61,0,0,0,18.19-4.34A110.42,110.42,0,0,0,178.67,152a90.52,90.52,0,0,0,16.94-11.71l-2.94-3.46a98.85,98.85,0,0,1-13.23,8.11,95.77,95.77,0,0,1-14.12,5.82,96.83,96.83,0,0,1-14.95,3.54,105.87,105.87,0,0,1-15.77,1.25c-14,.09-25.89-1.93-35.76-5.5a65.27,65.27,0,0,1-24-14.85,60.33,60.33,0,0,1-13.66-20.92,70.86,70.86,0,0,1-4.73-23.68,80.61,80.61,0,0,1,5.7-33,73.58,73.58,0,0,1,18-26.11,84.17,84.17,0,0,1,28.52-17.24,110,110,0,0,1,37-6.41,93.53,93.53,0,0,1,28.37,3.92,68,68,0,0,1,22.24,11.43,52.52,52.52,0,0,1,14.53,17.69,51.12,51.12,0,0,1,5.28,22.61A74.45,74.45,0,0,1,213,86.75a47.5,47.5,0,0,1-8.7,16.21,36.25,36.25,0,0,1-12.17,9.53,32.32,32.32,0,0,1-13.67,3.17,13.12,13.12,0,0,1-2-.14,8.55,8.55,0,0,1-1.76-.43,7.25,7.25,0,0,1-1.51-.72,6.53,6.53,0,0,1-1.24-1,7.47,7.47,0,0,1-1.56-2.5,12.43,12.43,0,0,1-.73-3.41,23.65,23.65,0,0,1,.11-4.39,49.5,49.5,0,0,1,.92-5.44c1.14-5.79,2.31-11.46,3.48-16.89s2.32-10.63,3.43-15.44S179.7,56,180.68,52.1s1.87-7.32,2.63-10.07c-.76,0-1.45-.06-2.09-.12s-1.26-.14-1.85-.23-1.18-.2-1.78-.32-1.22-.24-1.88-.38l-.58-.13c-1-.24-2.28-.5-3.69-.74s-3-.47-4.53-.67-3.14-.37-4.59-.49-2.79-.18-3.87-.17a71.56,71.56,0,0,0-13.51,1.48,92,92,0,0,0-13.78,3.92,88.21,88.21,0,0,0-12.81,5.9,62.19,62.19,0,0,0-10.59,7.41,66.25,66.25,0,0,0-9.1,9.9A62.85,62.85,0,0,0,92,78.61a60.22,60.22,0,0,0-4.11,12.13,56.48,56.48,0,0,0-1.35,12.63,39.94,39.94,0,0,0,.46,6,29.51,29.51,0,0,0,1.26,5.16,20.82,20.82,0,0,0,2,4.24A14.64,14.64,0,0,0,93,121.94a11,11,0,0,0,1.54,1.12,10.31,10.31,0,0,0,1.63.81,11,11,0,0,0,1.7.49,9.23,9.23,0,0,0,1.74.15,34.79,34.79,0,0,0,12.06-2.7A75.55,75.55,0,0,0,124.83,115a98.19,98.19,0,0,0,12.31-9.36,69.55,69.55,0,0,0,9.48-10.21l.67-.92,1.11.48.58.24,1,.41-.23.94Zm-3.93-15.09a74.16,74.16,0,0,1-9.15,9.46,43.92,43.92,0,0,1-8.61,5.93,16.48,16.48,0,0,1-7.09,2.08h0a5.6,5.6,0,0,1-1.79-.29,5.46,5.46,0,0,1-2.16-1.38,8.15,8.15,0,0,1-1.82-3.15,18.7,18.7,0,0,1-.86-5.65,71.26,71.26,0,0,1,1-13.91,66.69,66.69,0,0,1,3.25-12A59.49,59.49,0,0,1,120.91,63a45.85,45.85,0,0,1,5.35-7.31,40.18,40.18,0,0,1,4.64-4.13,32.07,32.07,0,0,1,4.87-3.07,25.76,25.76,0,0,1,4.94-1.91,19.47,19.47,0,0,1,4.82-.69h.29a36.15,36.15,0,0,1,4,.18,25.37,25.37,0,0,1,3.51.6,17.82,17.82,0,0,1,3,1,12.13,12.13,0,0,1,2.4,1.41l.56.44-.09.65c-.24,1.74-.62,3.76-1.1,6s-1,4.64-1.68,7.17-1.32,5.17-2,7.83-1.46,5.34-2.19,8A94.43,94.43,0,0,1,143.45,91.76Z" transform="translate(2 0.01)"/><path id="_Tracé_transparent_2" data-name="&lt;Tracé transparent&gt;" class="cls-1" d="M372.88,63.35a96.36,96.36,0,0,0-3.69-16.92,70.87,70.87,0,0,0-6.34-14.35A57.5,57.5,0,0,0,342.2,11.36a72,72,0,0,0-14.39-6.42,97.28,97.28,0,0,0-17.06-3.79A136.64,136.64,0,0,0,292.5,0h-80l.1,11.66.26.19.26.2.26.2.26.2a69,69,0,0,1,10.5,10.34,63.46,63.46,0,0,1,7.69,11.93,61.24,61.24,0,0,1,4.73,13.19,63.15,63.15,0,0,1,1.65,14.14,73.14,73.14,0,0,1-1.59,15.58A67.38,67.38,0,0,1,231.82,92,65.54,65.54,0,0,1,224,104.72a68.15,68.15,0,0,1-10.66,10.9l.37,50.6h73.79a147.86,147.86,0,0,0,19.93-1.83,105.6,105.6,0,0,0,17.36-3.88,78.79,78.79,0,0,0,14.74-6.95,65.49,65.49,0,0,0,12.08-9.51,60.43,60.43,0,0,0,9.47-11.4,71,71,0,0,0,6.88-14A92.4,92.4,0,0,0,372.26,102a129.39,129.39,0,0,0,1.64-19.22A135.14,135.14,0,0,0,372.88,63.35ZM318.39,82.91q-.06,9.89-.62,18.27t-1.57,15.23a100.58,100.58,0,0,1-2.51,12.16,48,48,0,0,1-3.44,9.09,29.07,29.07,0,0,1-4.85,6.83,26,26,0,0,1-6.43,4.9,30.79,30.79,0,0,1-8,3,44.42,44.42,0,0,1-9.54,1l-14.4.09h-1.4v-1.2l0-139.23V11.82H267l14.7-.12a44.27,44.27,0,0,1,9.78.93,30.85,30.85,0,0,1,8.16,3,26.16,26.16,0,0,1,6.5,5,29,29,0,0,1,4.82,7,48.23,48.23,0,0,1,3.34,9.27,100.38,100.38,0,0,1,2.35,12.38q.93,6.95,1.36,15.41T318.39,82.91Z" transform="translate(2 0.01)"/><polygon id="_Tracé_" data-name="&lt;Tracé&gt;" class="cls-1" points="54.8 0.01 2 0.01 2 22.82 55.43 22.82 54.8 0.01"/><path id="_Tracé_2" data-name="&lt;Tracé&gt;" class="cls-1" d="M46.18,140.05A73.65,73.65,0,0,1,38,126.11a82.58,82.58,0,0,1-5.27-15.92,96.6,96.6,0,0,1-2.19-17.71,92.66,92.66,0,0,1,1-17.4,85.8,85.8,0,0,1,4.24-16.43,84.5,84.5,0,0,1,7.39-15.22,87.91,87.91,0,0,1,8.56-11.62H0V166.22H57.69l-.42-14.36A72.77,72.77,0,0,1,46.18,140.05Z" transform="translate(2 0.01)"/></g></g><g id="Calque_3" data-name="Calque 3"><text class="cls-2" transform="translate(0 258.77) scale(1.39 1)">TECH</text></g></svg>