<?xml version="1.0" encoding="UTF-8"?>
<svg version="1.1" xmlns="http://www.w3.org/2000/svg" width="50px" height="50px" viewBox="60 60 110 110" xmlns:xlink="http://www.w3.org/1999/xlink">
    <!-- Generator: Sketch 51.2 (57519) - http://www.bohemiancoding.com/sketch -->
    <title>Combined Shape</title>
    <desc>Created with Sketch.</desc>
    <defs>
        <path d="M0,0 L220,0 C220,33.8290179 220,64.8482329 220,93.0576451 C220,121.267057 220,163.581176 220,220 L0,220 L0,0 Z" id="path-1"></path>
    </defs>
    <g id="Components" stroke="none" stroke-width="1" fill="none" fill-rule="evenodd">
        <g id="Combined-Shape">
            <mask id="mask-2" fill="white">
                <use xlink:href="#path-1"></use>
            </mask>
            <g id="Mask"></g>
            <path d="M-77.3782233,243.252996 L274.621777,243.252996 L274.621777,246.746763 L-77.3782233,246.746763 L-77.3782233,243.252996 Z M-77.3782233,258.800259 L274.621777,258.800259 L274.621777,262.294026 L-77.3782233,262.294026 L-77.3782233,258.800259 Z M-77.3782233,274.347522 L274.621777,274.347522 L274.621777,277.841289 L-77.3782233,277.841289 L-77.3782233,274.347522 Z M-77.3782233,227.705733 L274.621777,227.705733 L274.621777,231.1995 L-77.3782233,231.1995 L-77.3782233,227.705733 Z M-77.3782233,212.15847 L274.621777,212.15847 L274.621777,215.652237 L-77.3782233,215.652237 L-77.3782233,212.15847 Z M-77.3782233,196.611208 L274.621777,196.611208 L274.621777,200.104975 L-77.3782233,200.104975 L-77.3782233,196.611208 Z M-77.3782233,181.063945 L274.621777,181.063945 L274.621777,184.557712 L-77.3782233,184.557712 L-77.3782233,181.063945 Z M-77.3782233,165.516682 L274.621777,165.516682 L274.621777,169.010449 L-77.3782233,169.010449 L-77.3782233,165.516682 Z M-77.3782233,149.969419 L274.621777,149.969419 L274.621777,153.463186 L-77.3782233,153.463186 L-77.3782233,149.969419 Z M-77.3782233,134.422156 L274.621777,134.422156 L274.621777,137.915923 L-77.3782233,137.915923 L-77.3782233,134.422156 Z M-77.3782233,118.874893 L274.621777,118.874893 L274.621777,122.36866 L-77.3782233,122.36866 L-77.3782233,118.874893 Z M-77.3782233,103.32763 L274.621777,103.32763 L274.621777,106.821397 L-77.3782233,106.821397 L-77.3782233,103.32763 Z M-77.3782233,87.7803675 L274.621777,87.7803675 L274.621777,91.2741344 L-77.3782233,91.2741344 L-77.3782233,87.7803675 Z M-77.3782233,72.2331046 L274.621777,72.2331046 L274.621777,75.7268715 L-77.3782233,75.7268715 L-77.3782233,72.2331046 Z M-77.3782233,56.6858417 L274.621777,56.6858417 L274.621777,60.1796087 L-77.3782233,60.1796087 L-77.3782233,56.6858417 Z M-77.3782233,41.1385789 L274.621777,41.1385789 L274.621777,44.6323458 L-77.3782233,44.6323458 L-77.3782233,41.1385789 Z M-77.3782233,25.591316 L274.621777,25.591316 L274.621777,29.0850829 L-77.3782233,29.0850829 L-77.3782233,25.591316 Z M-77.3782233,10.0440531 L274.621777,10.0440531 L274.621777,13.5378201 L-77.3782233,13.5378201 L-77.3782233,10.0440531 Z M-77.3782233,-5.50320975 L274.621777,-5.50320975 L274.621777,-2.00944282 L-77.3782233,-2.00944282 L-77.3782233,-5.50320975 Z M-77.3782233,-21.0504726 L274.621777,-21.0504726 L274.621777,-17.5567057 L-77.3782233,-17.5567057 L-77.3782233,-21.0504726 Z M-77.3782233,-36.5977355 L274.621777,-36.5977355 L274.621777,-33.1039686 L-77.3782233,-33.1039686 L-77.3782233,-36.5977355 Z" fill="rgba(18,18,18,0.25)" mask="url(#mask-2)" transform="translate(98.621777, 120.621777) rotate(-45.000000) translate(-98.621777, -120.621777) "></path>
        </g>
    </g>
</svg>