<?xml version="1.0" encoding="UTF-8"?><svg id="a" xmlns="http://www.w3.org/2000/svg" viewBox="0 0 700 248"><defs><style>.b{fill:#89df00;}.c{fill:#858585;}.d{fill:#24ae1d;}</style></defs><path class="d" d="m65.55,128.63c-20.36-19.87-31.31-81.31-3.45-109.02C72.29,9.44,85.34,2.6,99.53,0c-4.73,5.5-7.35,12.5-7.37,19.75,0,12.73,2.88,24.8,37.68,63.22,28.21,31.26,35.66,48.7,35.56,82.01-.02,5.53-.69,11.03-2,16.4-.5-16.81-7.34-32.81-19.15-44.83-32.72-32.96-63.19-47.64-67.52-80.12-5.13,32.28,25.44,49.95,59.18,81.41h0c20.21,18.97,24.36,48.18,13.34,72.08-3.26,7.13-7.78,13.63-13.34,19.17-25.3,25.2-66.32,25.2-91.63,0,0,0,0,0,0,0-.94-.92-2.48-2.61-3.23-3.47-10.38-11.59-17.15-26.63-20.03-44.37C15.61,146.09,3.41,136.1,0,132.72c21.84,0,29.63,31.08,31.19,44.29,2.1,14.76,7.33,29.53,18.03,41.43l.14.16.16.16c15.5,15.33,40.54,15.24,55.93-.19,7.38-7.4,11.52-17.42,11.49-27.86.27-10.42-3.96-20.45-11.62-27.55-20.7-18.09-26.69-21.74-39.77-34.53Z"/><path class="b" d="m99.81,168.73c5.92,5.78,9.26,13.69,9.28,21.94.15,17.41-13.9,31.64-31.38,31.79-8.52.07-16.7-3.27-22.71-9.29-31.71-35.45-9.74-101.64-9.74-101.64,13.54,32.62,24.1,26.85,54.55,57.2Z"/><path class="c" d="m225.51,65.33h17.31v155.17h-17.31V65.33Zm43.35,29.96s0,.03,0,.04c.01,6.47,5.29,11.7,11.78,11.69,6.49-.01,11.75-5.26,11.74-11.73-.01-6.47-5.29-11.7-11.78-11.69-6.45.08-11.66,5.27-11.74,11.69Zm3.09,125.2h17.31v-94.82h-17.31v94.82Zm79.74-97.31c-12.54.02-24.84,3.36-35.66,9.66l7.21,14.36s14.02-7.98,28.45-7.98c7.55,0,24.04,2.67,24.04,22.36v5.15c-8.61-5.25-18.55-7.96-28.65-7.8-21.44,0-37.72,13.13-37.72,31.6,0,20.47,18.35,32.44,35.46,32.44,12.76,0,24.76-6.01,32.36-16.22v13.75h15.87v-62.38c0-17.66-13.38-34.91-41.35-34.93Zm-3.09,84.59c-10.72,0-21.86-4.91-21.86-17.24,0-9.86,9.2-17.24,24.04-17.24,8.79-.19,17.46,2.16,24.94,6.76v13.45s-10.3,14.26-27.13,14.26Zm58.1-66.43h18.57v51.87c0,20.93,15.05,29.76,28.65,29.76,5.57,0,11.56-1.24,19.79-5.75l-6.39-14.16c-3.24,2.22-7,3.56-10.92,3.89-9.28,0-13.8-5.33-13.8-14.56v-51.11h29.65v-15.6h-29.67v-28.95h-17.33v28.95h-18.55v15.66Zm127-18.13c-18.13,0-26.59,17.04-26.59,17.04v-14.56h-16.03v94.82h17.31v-65.25s6.79-15.96,21.84-15.96c3.75-.19,7.5.49,10.94,1.99l6.39-15.6c-4.44-1.64-9.13-2.48-13.86-2.47Zm30.45-31.76c-.87,2.49-.87,5.19,0,7.68,2.13,6.1,8.82,9.32,14.95,7.2,6.12-2.12,9.36-8.78,7.23-14.88s-8.82-9.32-14.95-7.2c-3.39,1.18-6.05,3.83-7.23,7.2Zm2.44,129.05h17.31v-94.82h-17.31v94.82Zm83.26-97.27c-28.31.56-49.2,23.6-47.94,52.33,1.08,26.68,23.27,47.68,50.09,47.4,28.31-.56,49.2-23.6,47.94-52.31-1.07-26.69-23.26-47.7-50.09-47.42Zm1.08,83.79c-19.17,0-31.75-15.18-31.75-33.91s12.58-33.91,31.75-33.91,31.73,15.22,31.73,33.91-12.56,33.91-31.73,33.91Z"/></svg>