<?xml version="1.0" encoding="UTF-8"?>
<svg id="Layer_1" data-name="Layer 1" xmlns="http://www.w3.org/2000/svg" xmlns:xlink="http://www.w3.org/1999/xlink" viewBox="0 0 600 600">
  <defs>
    <style>
      .cls-1 {
        fill: url(#radial-gradient);
      }

      .cls-1, .cls-2, .cls-3, .cls-4 {
        stroke-width: 0px;
      }

      .cls-2 {
        fill: #24ae1d;
      }

      .cls-3 {
        fill: #111;
      }

      .cls-4 {
        fill: #89df00;
      }
    </style>
    <radialGradient id="radial-gradient" cx="387.15" cy="384.7" fx="387.15" fy="384.7" r="875.83" gradientTransform="translate(5.86 -1.41) scale(.98)" gradientUnits="userSpaceOnUse">
      <stop offset="0" stop-color="#89df00" stop-opacity=".16"/>
      <stop offset=".74" stop-color="#00c1db" stop-opacity="0"/>
    </radialGradient>
  </defs>
  <rect class="cls-3" width="600" height="600" rx="16" ry="16"/>
  <g>
    <rect class="cls-1" x="4" y="4" width="592" height="592" rx="12" ry="12"/>
    <path class="cls-4" d="M584,8c4.41,0,8,3.59,8,8v568c0,4.41-3.59,8-8,8H16c-4.41,0-8-3.59-8-8V16c0-4.41,3.59-8,8-8h568M584,0H16C7.16,0,0,7.16,0,16v568c0,8.84,7.16,16,16,16h568c8.84,0,16-7.16,16-16V16c0-8.84-7.16-16-16-16h0Z"/>
  </g>
  <path class="cls-2" d="M267.98,303.28c-32.19-31.69-49.52-129.7-5.45-173.89,16.1-16.22,36.75-27.14,59.18-31.28-7.48,8.78-11.62,19.94-11.66,31.5,0,20.3,4.56,39.55,59.6,100.84,44.61,49.86,56.4,77.67,56.24,130.81-.03,8.81-1.1,17.59-3.17,26.16-.8-26.81-11.61-52.33-30.29-71.5-51.74-52.57-99.93-75.98-106.77-127.79-8.11,51.48,40.24,79.68,93.59,129.85h0c31.97,30.26,38.53,76.84,21.1,114.96-5.15,11.38-12.3,21.74-21.1,30.58-40.01,40.19-104.89,40.2-144.91.01,0,0,0,0-.01-.01-1.49-1.46-3.93-4.17-5.1-5.54-16.41-18.49-27.12-42.48-31.68-70.77-8.55-56.1-27.85-72.04-33.24-77.42,34.53,0,46.86,49.57,49.33,70.64,3.33,23.55,11.6,47.09,28.52,66.09l.22.25.25.25c24.51,24.44,64.11,24.31,88.45-.31,11.68-11.81,18.21-27.79,18.17-44.43.43-16.62-6.26-32.62-18.38-43.94-32.73-28.86-42.2-34.68-62.89-55.08Z"/>
  <path class="cls-4" d="M322.16,367.23c9.36,9.22,14.65,21.83,14.67,35,.24,27.76-21.98,50.47-49.63,50.71-13.47.12-26.42-5.22-35.92-14.81-50.15-56.54-15.4-162.12-15.4-162.12,21.42,52.02,38.12,42.83,86.27,91.23Z"/>
</svg>