<?xml version="1.0" encoding="UTF-8"?>
<svg id="Layer_1" data-name="Layer 1" xmlns="http://www.w3.org/2000/svg" viewBox="0 0 600 907.32">
  <defs>
    <style>
      .cls-1 {
        fill: #24ae1d;
      }

      .cls-1, .cls-2 {
        stroke-width: 0px;
      }

      .cls-2 {
        fill: #89df00;
      }
    </style>
  </defs>
  <path class="cls-1" d="M237.79,470.61c-73.84-72.69-113.59-297.49-12.5-398.87C262.23,34.53,309.58,9.5,361.04,0c-17.17,20.14-26.65,45.75-26.74,72.26,0,46.56,10.47,90.72,136.7,231.29,102.32,114.37,129.36,178.16,129,300.04-.08,20.21-2.51,40.35-7.27,59.99-1.83-61.49-26.63-120.03-69.48-164-118.68-120.57-229.21-174.29-244.91-293.11-18.6,118.09,92.3,182.76,214.68,297.85h0c73.33,69.41,88.37,176.26,48.4,263.7-11.82,26.1-28.21,49.86-48.4,70.14-91.78,92.19-240.59,92.2-332.38.03-.01-.01-.02-.02-.03-.03-3.42-3.36-9.01-9.56-11.7-12.7-37.65-42.4-62.21-97.44-72.67-162.32C56.61,534.47,12.35,497.91,0,485.57c79.21,0,107.48,113.71,113.15,162.03,7.63,54.01,26.6,108.02,65.41,151.59l.51.58.58.58c56.22,56.07,147.05,55.76,202.88-.7,26.79-27.09,41.77-63.74,41.67-101.92,1-38.11-14.36-74.82-42.15-100.79-75.07-66.2-96.8-79.55-144.26-126.34Z"/>
  <path class="cls-2" d="M362.06,617.31c21.47,21.15,33.59,50.08,33.65,80.28.55,63.69-50.42,115.76-113.83,116.31-30.9.27-60.6-11.98-82.39-33.98-115.04-129.7-35.32-371.86-35.32-371.86,49.13,119.33,87.43,98.24,197.89,209.25Z"/>
</svg>