<svg version="1.1" xmlns="http://www.w3.org/2000/svg" viewBox="0 0 815.25 141" width="1630.5" height="282">
  <!-- svg-source:excalidraw -->
  
  <defs>
    <style>
      @font-face {
        font-family: "Virgil";
        src: url("https://excalidraw.com/Virgil.woff2");
      }
      @font-face {
        font-family: "Cascadia";
        src: url("https://excalidraw.com/Cascadia.woff2");
      }
    </style>
  </defs>
  <rect x="0" y="0" width="815.25" height="141" fill="#ffffff"></rect><g stroke-linecap="round" transform="translate(10 34) rotate(0 139.00000000000006 48.5)"><path d="M5.8 6.37 C5.8 6.37, 5.8 6.37, 5.8 6.37 M5.8 6.37 C5.8 6.37, 5.8 6.37, 5.8 6.37 M0.29 18.8 C4.85 17.05, 7.01 10.74, 14.72 2.2 M0.29 18.8 C3.2 15.56, 10.4 8.23, 14.72 2.2 M0.68 24.44 C7.89 12.04, 14.55 11.56, 20.37 1.8 M0.68 24.44 C7.2 16.6, 15.73 6.84, 20.37 1.8 M0.42 30.84 C6.1 24.41, 17.7 18.15, 26.01 1.41 M0.42 30.84 C10.45 20.63, 19.14 8.49, 26.01 1.41 M0.16 37.24 C12.91 25.28, 18.35 15.81, 31 1.77 M0.16 37.24 C8.96 26.8, 20.73 15.33, 31 1.77 M0.56 42.88 C10.63 32.82, 23.98 14.46, 36.64 1.37 M0.56 42.88 C10.44 31.02, 19.25 16.93, 36.64 1.37 M0.29 49.28 C8.38 33.72, 26.16 21.82, 41.63 1.73 M0.29 49.28 C13.77 37.92, 25.11 25.64, 41.63 1.73 M0.69 54.92 C20.03 32.09, 35.92 11.86, 47.27 1.34 M0.69 54.92 C15.63 36.44, 32 17.79, 47.27 1.34 M0.43 61.32 C6.64 50.34, 21.92 38.24, 52.26 1.7 M0.43 61.32 C21.28 40.87, 41.39 15.22, 52.26 1.7 M0.17 67.72 C11.65 58.66, 26 45.08, 57.9 1.31 M0.17 67.72 C17.95 46.63, 37.34 26.26, 57.9 1.31 M0.56 73.36 C12.3 54.9, 28.78 39.88, 62.89 1.67 M0.56 73.36 C11.49 59.8, 26.69 43.05, 62.89 1.67 M0.95 79.01 C18.93 52.18, 41.98 25.82, 67.87 2.03 M0.95 79.01 C16.77 62.37, 30.09 49.01, 67.87 2.03 M2.66 83.14 C29.22 52.97, 48.86 24.99, 73.52 1.63 M2.66 83.14 C28.31 56.95, 49.59 25.94, 73.52 1.63 M4.37 87.27 C21.8 65.67, 45.55 44.81, 78.5 1.99 M4.37 87.27 C24.33 64.07, 46.57 35.64, 78.5 1.99 M6.07 91.41 C30.37 63.98, 56.12 29.43, 84.15 1.6 M6.07 91.41 C26.33 64.87, 46.86 39.79, 84.15 1.6 M9.75 93.28 C39.06 56.62, 74.02 19.94, 89.13 1.96 M9.75 93.28 C30.09 66.74, 54.81 42.44, 89.13 1.96 M13.42 95.15 C37.54 63.77, 63.48 35.49, 94.78 1.56 M13.42 95.15 C40.55 64.67, 69.09 31.36, 94.78 1.56 M16.44 97.77 C34.81 79.26, 46.8 55.19, 99.76 1.92 M16.44 97.77 C46.74 62.52, 75.17 27.85, 99.76 1.92 M21.43 98.13 C46 69.54, 65.26 44.63, 104.75 2.28 M21.43 98.13 C43.89 71.12, 67.97 47.7, 104.75 2.28 M27.07 97.74 C47.3 67.93, 71.82 47.23, 110.39 1.89 M27.07 97.74 C55.44 66.43, 82.36 32.7, 110.39 1.89 M32.06 98.1 C62.19 58.8, 94.13 29.26, 115.38 2.25 M32.06 98.1 C59.43 70.08, 82.81 40.16, 115.38 2.25 M37.7 97.7 C62.45 71.32, 89.18 37.41, 121.02 1.85 M37.7 97.7 C63.74 69.1, 86.54 43.78, 121.02 1.85 M42.69 98.06 C70.58 63.65, 99.95 34.1, 126.01 2.21 M42.69 98.06 C72 64.39, 100.87 31.07, 126.01 2.21 M47.68 98.42 C61.69 79.46, 85.84 49.49, 131.65 1.82 M47.68 98.42 C76 67.15, 107.87 29.32, 131.65 1.82 M53.32 98.03 C85.13 68.78, 106.48 31.14, 136.64 2.18 M53.32 98.03 C78.65 68.73, 103.44 40.21, 136.64 2.18 M58.31 98.39 C85.24 67.6, 119.68 28.72, 141.63 2.54 M58.31 98.39 C86.64 67.8, 113.09 34.89, 141.63 2.54 M63.95 97.99 C86.72 69.25, 115.53 42.23, 147.27 2.14 M63.95 97.99 C95.86 62.05, 126.3 25.38, 147.27 2.14 M68.94 98.35 C87.36 76.84, 108.94 48.55, 152.26 2.5 M68.94 98.35 C88.49 75.15, 107.51 52.68, 152.26 2.5 M74.58 97.96 C103.15 61.56, 140.21 19.75, 157.9 2.11 M74.58 97.96 C92.22 76.19, 109.78 55.69, 157.9 2.11 M79.57 98.32 C109.55 68.23, 137.26 29.09, 162.89 2.47 M79.57 98.32 C113.44 61.24, 146 24.01, 162.89 2.47 M85.21 97.92 C115.67 65.06, 141.48 29.6, 168.53 2.07 M85.21 97.92 C109.7 71.75, 132.69 41.26, 168.53 2.07 M90.2 98.28 C111.85 75.08, 127.67 45.13, 173.52 2.43 M90.2 98.28 C113.49 69.21, 139.17 40.22, 173.52 2.43 M95.18 98.64 C117.28 72.78, 145.16 45.31, 178.5 2.8 M95.18 98.64 C125.25 63.51, 152.56 27.95, 178.5 2.8 M100.83 98.25 C116.78 82.56, 135.77 60.49, 184.15 2.4 M100.83 98.25 C133.28 61.01, 167.73 22.11, 184.15 2.4 M105.82 98.61 C137.72 66.01, 169.51 32.97, 189.13 2.76 M105.82 98.61 C124.02 80.07, 141.58 60.35, 189.13 2.76 M111.46 98.21 C139.89 66.94, 173.59 28.01, 194.78 2.37 M111.46 98.21 C137.49 69.94, 159.84 41.01, 194.78 2.37 M116.45 98.57 C142.21 71.91, 162.69 39.17, 199.76 2.73 M116.45 98.57 C141.96 70.22, 167.12 42.64, 199.76 2.73 M122.09 98.18 C155.72 66.66, 182.24 30.9, 205.41 2.33 M122.09 98.18 C151.43 65.98, 177.06 34.69, 205.41 2.33 M127.08 98.54 C161.2 61.22, 191.81 24.9, 210.39 2.69 M127.08 98.54 C155.26 65.4, 184.61 31.26, 210.39 2.69 M132.06 98.9 C168.35 59.22, 193.78 23.81, 215.38 3.05 M132.06 98.9 C151.65 77.34, 172.27 55.23, 215.38 3.05 M137.71 98.51 C153.58 77.98, 173.55 57.39, 221.02 2.66 M137.71 98.51 C163.22 73.98, 187.63 45.28, 221.02 2.66 M142.69 98.87 C164.02 75.48, 185.14 47.81, 226.01 3.02 M142.69 98.87 C160.96 78.48, 184.72 53.9, 226.01 3.02 M148.34 98.47 C171.99 77.55, 189.34 47.66, 231.65 2.62 M148.34 98.47 C176.2 65.25, 207.95 30.46, 231.65 2.62 M153.32 98.83 C181.16 66.23, 206.85 36.27, 236.64 2.98 M153.32 98.83 C189.41 59.97, 222.31 23.73, 236.64 2.98 M158.97 98.44 C181.85 77.24, 202.53 49.66, 242.29 2.59 M158.97 98.44 C193.68 57.57, 227.53 20.87, 242.29 2.59 M163.95 98.8 C185.54 75.48, 206.22 55.18, 247.27 2.95 M163.95 98.8 C184.86 78.63, 203.54 52.86, 247.27 2.95 M168.94 99.16 C195.69 71.74, 212.78 44.47, 252.92 2.55 M168.94 99.16 C197.27 65.91, 225.12 35.83, 252.92 2.55 M174.58 98.76 C201.95 69.7, 227.62 38.19, 257.9 2.91 M174.58 98.76 C196.35 72.76, 221.48 45.56, 257.9 2.91 M179.57 99.12 C201.92 69.65, 230.41 34.93, 264.2 1.76 M179.57 99.12 C208.91 63.68, 238.47 31.35, 264.2 1.76 M185.21 98.73 C201.53 72.87, 223.05 56.02, 267.88 3.63 M185.21 98.73 C203.95 74.88, 223.53 51.62, 267.88 3.63 M190.2 99.09 C204.86 80.28, 220.32 62.07, 270.89 6.26 M190.2 99.09 C208.83 76.36, 231.55 52.07, 270.89 6.26 M195.84 98.69 C217.88 69.12, 236.14 45.75, 273.91 8.88 M195.84 98.69 C219.28 73.57, 239.8 46.99, 273.91 8.88 M200.83 99.05 C219.17 73.43, 244.6 51.39, 276.93 11.51 M200.83 99.05 C223.75 72, 248.73 41.29, 276.93 11.51 M205.82 99.41 C224.12 75.69, 245.98 51.71, 278.64 15.64 M205.82 99.41 C224.84 79.89, 238.78 59.76, 278.64 15.64 M211.46 99.02 C228.21 77.19, 247.55 56.7, 279.69 20.53 M211.46 99.02 C231.23 74.86, 252.98 53.75, 279.69 20.53 M216.45 99.38 C230.09 85.44, 240.37 64.6, 279.43 26.93 M216.45 99.38 C228.83 86.04, 243.29 70.54, 279.43 26.93 M222.09 98.98 C232.76 81.42, 244.17 67.31, 279.82 32.57 M222.09 98.98 C244.27 75.14, 264.39 51.03, 279.82 32.57 M227.08 99.34 C243.24 84.43, 254.12 71.73, 279.56 38.97 M227.08 99.34 C240.69 83.73, 258.53 67.01, 279.56 38.97 M232.72 98.95 C239.21 87.33, 255.88 75.59, 279.3 45.37 M232.72 98.95 C246.4 81.15, 264.57 65.35, 279.3 45.37 M237.71 99.31 C252.9 80.33, 268.77 64.63, 279.04 51.76 M237.71 99.31 C250.72 84.48, 261.36 72.17, 279.04 51.76 M243.35 98.91 C254.67 86.24, 257.07 81.48, 279.43 57.41 M243.35 98.91 C254.73 84.61, 266.66 71.94, 279.43 57.41 M248.34 99.28 C260.39 88.13, 266.53 77.42, 279.17 63.8 M248.34 99.28 C256.94 91, 266.46 80.3, 279.17 63.8 M254.64 98.13 C260.06 89.72, 272.67 83.17, 278.91 70.2 M254.64 98.13 C261.03 90.23, 267.9 82.89, 278.91 70.2 M261.59 96.22 C266.95 86.04, 273.6 84.89, 278.65 76.6 M261.59 96.22 C266.18 92.09, 273.23 83.56, 278.65 76.6" stroke="#ced4da" stroke-width="0.5" fill="none"></path><path d="M24.25 0 M24.25 0 C98.72 1.18, 179.78 2.06, 253.75 0 M24.25 0 C101.37 -3.32, 174.53 -4.73, 253.75 0 M253.75 0 C268.04 2.01, 278.56 6.32, 278 24.25 M253.75 0 C269.21 3.58, 279.28 8.27, 278 24.25 M278 24.25 C275.73 37.53, 275.99 59.67, 278 72.75 M278 24.25 C278.1 33.76, 277.76 44.55, 278 72.75 M278 72.75 C278.16 87.83, 273.33 93.05, 253.75 97 M278 72.75 C276.33 87.6, 266.17 99.08, 253.75 97 M253.75 97 C177.52 94.28, 107.12 94.98, 24.25 97 M253.75 97 C202.72 94.61, 149.68 95.09, 24.25 97 M24.25 97 C8.54 95.81, 1.24 86.06, 0 72.75 M24.25 97 C8.04 101, 3.11 85.49, 0 72.75 M0 72.75 C-0.2 54.6, -3.35 34.93, 0 24.25 M0 72.75 C-0.43 52.84, 0.76 35.47, 0 24.25 M0 24.25 C-1.33 6.31, 5.64 -3.19, 24.25 0 M0 24.25 C-0.31 10.75, 3.99 0.44, 24.25 0" stroke="#000000" stroke-width="1" fill="none"></path></g><g transform="translate(29.5 62.5) rotate(0 123.5 17.5)"><text x="123.5" y="25" font-family="Virgil, Segoe UI Emoji" font-size="28px" fill="#000000" text-anchor="middle" style="white-space: pre;" direction="ltr">sbt-github-actions</text></g><g stroke-linecap="round"><g transform="translate(291.1364738843299 77.47121855493543) rotate(0 84.96626316410209 0.3974660528517404)"><path d="M1.22 1.04 C29.73 1.68, 143 2.7, 171.49 2.39 M-1.56 -0.87 C26.46 -0.87, 140.11 -1.97, 168.74 -1.56" stroke="#000000" stroke-width="1" fill="none"></path></g><g transform="translate(291.1364738843299 77.47121855493543) rotate(0 84.96626316410209 0.3974660528517404)"><path d="M142.02 7.34 C152.35 4.85, 156.64 -0.38, 171.27 -3.57 M140.25 10.66 C151.45 6.82, 157.78 3.49, 168.99 -1.83" stroke="#000000" stroke-width="1" fill="none"></path></g><g transform="translate(291.1364738843299 77.47121855493543) rotate(0 84.96626316410209 0.3974660528517404)"><path d="M142.04 -13.18 C152.14 -9.2, 156.43 -7.96, 171.27 -3.57 M140.27 -9.86 C151.27 -6.86, 157.59 -3.35, 168.99 -1.83" stroke="#000000" stroke-width="1" fill="none"></path></g></g><g stroke-linecap="round" transform="translate(487.4042252239278 60.71365817603106) rotate(0 153.54313025223405 32.23870768786401)"><path d="M1.36 0.41 L306.03 0.72 L305.92 64.15 L-0.79 63.58" stroke="none" stroke-width="0" fill="#868e96"></path><path d="M0.95 1.06 C80.77 0.46, 162.74 0.3, 307.17 -1.05 M-0.23 -0.27 C66.75 0.4, 132.78 1.09, 307.41 0.26 M308.01 0.64 C307.98 22.78, 307.42 45.02, 306.31 63.88 M306.39 -0.45 C307.21 23.71, 306.04 45.92, 307.78 63.78 M306.03 63.3 C192.27 67.54, 74.85 66.59, -0.48 64.14 M307.35 63.91 C211.06 64.09, 114.69 63.78, 0.19 63.88 M-1.5 64.25 C-1.08 44.97, -0.94 24.5, -0.55 -0.7 M-0.09 64.62 C0.29 48.17, 0.46 32.2, 1 0.19" stroke="#000000" stroke-width="1" fill="none"></path></g><g stroke-linecap="round" transform="translate(476.9118579426622 48.4725630145395) rotate(0 153.54313025223405 32.23870768786401)"><path d="M0.41 -1.06 L307.81 -1.17 L306.76 63.68 L-0.9 62.64" stroke="none" stroke-width="0" fill="#ced4da"></path><path d="M1.06 -0.62 C94.94 -1.5, 190.23 -1.38, 306.03 -1.22 M-0.27 0.61 C101.74 1.2, 204.31 1.02, 307.35 0.44 M307.73 0.93 C306.51 19.36, 305.44 37.22, 306.49 65.58 M306.64 0.66 C308.34 13.4, 307.66 28.52, 306.39 65.26 M305.91 65.67 C207.93 62.63, 106.47 62.38, -0.34 64.68 M306.52 64.79 C241.39 65.57, 174.97 65.48, -0.59 64.47 M-0.23 63.31 C-0.44 45, -1.62 27.02, -0.7 -0.87 M0.14 64.77 C0.43 45.55, 1.01 26.69, 0.19 0.68" stroke="#000000" stroke-width="1" fill="none"></path></g><g stroke-linecap="round" transform="translate(464.564902612849 37.21114930066136) rotate(0 153.54313025223405 32.23870768786401)"><path d="M-1.06 0.72 L305.92 -0.33 L306.29 63.58 L-1.83 64.96" stroke="none" stroke-width="0" fill="#eeeeee"></path><path d="M-0.62 -0.5 C78.74 -2.29, 157.65 -2.68, 305.87 0.46 M0.61 -0.13 C85.24 1.38, 169.81 1.08, 307.53 -0.04 M308.01 -0.54 C307.75 17.38, 306.61 37.38, 308.18 62.79 M307.75 0.82 C306.13 23.74, 307.33 46.5, 307.86 64.75 M308.28 65.83 C191.04 63.08, 74.96 62.33, 0.2 63.25 M307.4 64.88 C226.13 62.83, 144.8 62.15, -0.01 64.38 M-1.17 64.26 C-0.54 41.51, -0.07 20.63, -0.87 0.02 M0.3 64.72 C0.53 47.86, 1.06 29.77, 0.68 0.2" stroke="#000000" stroke-width="1" fill="none"></path></g><g transform="translate(531.3119328459229 42.60096352676146) rotate(0 87 30.208333333333343)"><text x="87" y="21.208333333333343" font-family="Virgil, Segoe UI Emoji" font-size="24.16666666666667px" fill="#000000" text-anchor="middle" style="white-space: pre;" direction="ltr">GitHub Actions</text><text x="87" y="51.416666666666686" font-family="Virgil, Segoe UI Emoji" font-size="24.16666666666667px" fill="#000000" text-anchor="middle" style="white-space: pre;" direction="ltr"> Yaml Files</text></g><g transform="translate(305 10) rotate(0 67.5 17.5)"><text x="0" y="25" font-family="Virgil, Segoe UI Emoji" font-size="28px" fill="#000000" text-anchor="start" style="white-space: pre;" direction="ltr">generates</text></g><g transform="translate(342 42) rotate(0 29 17.5)"><text x="0" y="25" font-family="Virgil, Segoe UI Emoji" font-size="28px" fill="#000000" text-anchor="start" style="white-space: pre;" direction="ltr">files</text></g><g stroke-linecap="round" transform="translate(721.75 26.75) rotate(0 41.75 41.75)"><path d="M29.5 1.82 C36.73 -0.85, 48.29 -0.79, 55.79 1.86 C63.28 4.5, 69.82 11.28, 74.48 17.7 C79.13 24.12, 83.31 32.4, 83.71 40.39 C84.12 48.37, 81.41 58.86, 76.91 65.61 C72.41 72.35, 64.36 78.02, 56.74 80.85 C49.12 83.68, 38.98 84.34, 31.18 82.6 C23.38 80.87, 15.11 76.32, 9.92 70.44 C4.73 64.56, 1 55.4, 0.06 47.33 C-0.89 39.27, 0.54 29.23, 4.24 22.05 C7.94 14.87, 17.33 7.67, 22.28 4.25 C27.22 0.82, 31.08 2.22, 33.92 1.5 C36.76 0.79, 39.1 -0.58, 39.32 -0.03 M53.09 2.06 C60.26 3.28, 66.97 7.8, 71.85 13.91 C76.72 20.03, 81.07 30.57, 82.35 38.74 C83.63 46.92, 83.43 56.37, 79.52 62.96 C75.61 69.55, 66.46 74.89, 58.88 78.28 C51.29 81.66, 41.61 84.31, 34.01 83.27 C26.41 82.24, 18.99 77.41, 13.28 72.07 C7.57 66.72, 1.41 59.11, -0.24 51.21 C-1.9 43.32, -0.25 31.98, 3.34 24.68 C6.93 17.38, 14.4 11.6, 21.31 7.39 C28.21 3.19, 39.8 0.46, 44.76 -0.56 C49.73 -1.58, 49.77 0.96, 51.12 1.27 C52.47 1.58, 52.85 0.68, 52.88 1.29" stroke="none" stroke-width="0" fill="#868e96"></path><path d="M56.96 1.59 C64.34 3.88, 71.45 11.42, 75.87 18.25 C80.3 25.07, 83.39 34.71, 83.5 42.55 C83.6 50.39, 81.1 58.86, 76.49 65.29 C71.88 71.73, 63.45 78.4, 55.84 81.17 C48.23 83.94, 38.57 84.05, 30.82 81.91 C23.08 79.77, 14.54 74.22, 9.35 68.32 C4.17 62.41, 0.48 54.52, -0.31 46.5 C-1.1 38.48, 0.71 27.3, 4.61 20.19 C8.52 13.08, 15.88 6.95, 23.11 3.81 C30.33 0.68, 42.11 1.39, 47.97 1.37 C53.83 1.35, 56.48 2.93, 58.26 3.68 C60.05 4.43, 58.86 5.37, 58.68 5.88 M40.27 0.12 C48.15 -0.1, 59.99 3.78, 66.77 8.28 C73.55 12.79, 78.18 19.67, 80.94 27.17 C83.71 34.66, 85.37 45.78, 83.36 53.25 C81.35 60.71, 75.28 66.95, 68.87 71.97 C62.45 77, 52.9 82.17, 44.87 83.4 C36.85 84.64, 27.41 83.08, 20.73 79.38 C14.05 75.68, 8.03 68.71, 4.81 61.22 C1.6 53.73, 0.3 42.34, 1.47 34.45 C2.63 26.56, 6.49 19.5, 11.83 13.87 C17.16 8.25, 28.48 3.26, 33.48 0.73 C38.47 -1.81, 40.27 -1.24, 41.82 -1.36 C43.37 -1.47, 42.64 -1.08, 42.77 0.02" stroke="#000000" stroke-width="1" fill="none"></path></g><g stroke-linecap="round"><g transform="translate(775.4214374073813 45.275016763941494) rotate(0 -14.521553274814778 22.922324472895696)" fill-rule="evenodd"><path d="M-26.54 -1.68 L-20.82 3.61 L-15.92 -1.09 L-3.94 0.02 L4.54 -1.58 L4.95 1.61 L5.48 4.53 L8.47 15.65 L7.14 22.94 L5.33 27.78 L-6.04 32.82 L-1.15 35.52 L-3.4 47.7 L-17.29 50.31 L-18.79 42.23 L-25.53 41.23 L-29.69 41.56 L-35.53 33.31 L-34.91 31.81 L-24.94 37.82 L-19.4 35.3 L-15.43 32.05 L-25.83 28.51 L-29.39 23.58 L-31.15 14.92 L-26.8 6.68 L-28.3 3.05 L-25.61 -3.68" stroke="none" stroke-width="0" fill="#fff" fill-rule="evenodd"></path><path d="M-28.43 -1.51 C-27.91 -1.4, -25.65 -2.42, -24.21 -2.02 C-22.76 -1.63, -20.93 0.29, -19.76 0.84 C-18.58 1.38, -19.33 1.07, -17.14 1.24 C-14.95 1.41, -9 1.93, -6.6 1.86 C-4.19 1.78, -3.63 1.18, -2.72 0.79 C-1.82 0.4, -2.01 0.21, -1.16 -0.49 C-0.32 -1.19, 1.65 -3.44, 2.34 -3.42 C3.02 -3.4, 2.86 -1.66, 2.96 -0.35 C3.05 0.96, 2.47 3.48, 2.93 4.42 C3.38 5.36, 4.98 3.56, 5.71 5.31 C6.44 7.06, 7.23 11.57, 7.32 14.9 C7.41 18.24, 6.81 23.09, 6.26 25.34 C5.71 27.58, 5.35 27.43, 4.02 28.38 C2.69 29.32, -0.29 30.67, -1.72 31.01 C-3.15 31.34, -4.14 30.28, -4.56 30.38 C-4.97 30.49, -4.3 31.09, -4.2 31.66 C-4.09 32.22, -4.26 31.7, -3.95 33.77 C-3.65 35.83, -2.73 41.68, -2.36 44.07 C-2 46.45, -1.5 47.12, -1.78 48.07 C-2.05 49.03, -1.83 49.65, -4.03 49.8 C-6.23 49.95, -12.56 49.49, -14.97 48.98 C-17.38 48.48, -18.05 48.07, -18.49 46.77 C-18.94 45.47, -17.49 41.83, -17.67 41.19 C-17.84 40.56, -18.48 42.59, -19.54 42.98 C-20.59 43.37, -22.28 43.95, -23.99 43.53 C-25.7 43.12, -28.63 41.73, -29.78 40.47 C-30.94 39.21, -30.15 37.08, -30.92 35.97 C-31.69 34.87, -33.18 34.37, -34.39 33.84 C-35.6 33.3, -38.25 32.91, -38.18 32.76 C-38.12 32.62, -35.4 32.69, -34.01 32.97 C-32.62 33.25, -30.87 33.91, -29.85 34.47 C-28.84 35.02, -28.88 35.64, -27.93 36.3 C-26.98 36.95, -25.34 38.02, -24.14 38.38 C-22.94 38.74, -21.88 38.8, -20.73 38.44 C-19.58 38.09, -17.55 36.82, -17.25 36.26 C-16.94 35.69, -19.03 35.81, -18.9 35.05 C-18.77 34.28, -17.14 32.17, -16.48 31.67 C-15.82 31.17, -14.18 32.33, -14.95 32.06 C-15.71 31.79, -19.1 30.68, -21.08 30.06 C-23.05 29.44, -25.47 29.12, -26.8 28.34 C-28.13 27.56, -28.45 27.44, -29.06 25.4 C-29.67 23.35, -30.4 19.16, -30.47 16.06 C-30.54 12.95, -30.04 8.77, -29.48 6.78 C-28.92 4.79, -27.23 4.85, -27.11 4.12 C-27 3.4, -28.64 3.68, -28.78 2.41 C-28.91 1.15, -28.09 -2.68, -27.93 -3.46 M-26.71 -2.11 C-25.81 -1.86, -23 -1.67, -21.88 -1.06 C-20.77 -0.45, -20.83 0.93, -20.01 1.54 C-19.2 2.15, -18.96 2.39, -16.97 2.59 C-14.98 2.79, -10.12 3.25, -8.07 2.74 C-6.02 2.22, -5.87 0.25, -4.64 -0.48 C-3.41 -1.22, -1.65 -1.13, -0.69 -1.7 C0.28 -2.27, 0.27 -4.45, 1.15 -3.89 C2.03 -3.33, 4.23 0.26, 4.6 1.66 C4.98 3.06, 3.23 3.84, 3.38 4.51 C3.53 5.18, 4.55 4.06, 5.51 5.7 C6.47 7.33, 9.04 11.1, 9.14 14.32 C9.24 17.54, 7.05 22.67, 6.1 25.02 C5.15 27.37, 4.79 27.41, 3.45 28.41 C2.11 29.42, -0.25 30.56, -1.94 31.06 C-3.64 31.55, -6.13 31.18, -6.72 31.37 C-7.3 31.55, -6.21 31.8, -5.46 32.18 C-4.71 32.56, -2.5 32.12, -2.21 33.63 C-1.91 35.14, -3.92 39.11, -3.7 41.23 C-3.48 43.35, -0.67 45.02, -0.9 46.33 C-1.13 47.64, -2.87 48.89, -5.09 49.1 C-7.31 49.31, -11.88 47.59, -14.22 47.59 C-16.55 47.59, -18.82 50.38, -19.12 49.12 C-19.41 47.86, -15.66 40.96, -15.98 40.03 C-16.31 39.1, -19.38 42.91, -21.05 43.53 C-22.72 44.16, -24.71 44.36, -25.98 43.78 C-27.24 43.21, -27.51 41.06, -28.63 40.09 C-29.76 39.11, -31.78 39.28, -32.72 37.92 C-33.67 36.55, -33.59 32.88, -34.31 31.89 C-35.04 30.9, -37.01 32.01, -37.08 31.96 C-37.15 31.91, -35.99 31.43, -34.73 31.59 C-33.46 31.74, -30.89 32.25, -29.51 32.89 C-28.14 33.53, -27.63 34.36, -26.45 35.44 C-25.28 36.52, -23.61 38.95, -22.46 39.36 C-21.31 39.76, -20.54 38.19, -19.53 37.87 C-18.53 37.55, -16.76 38.04, -16.41 37.43 C-16.07 36.82, -17.6 35.3, -17.47 34.2 C-17.34 33.1, -15.95 31.59, -15.61 30.81 C-15.27 30.03, -14.86 29.61, -15.43 29.52 C-16.01 29.42, -17.16 30.3, -19.08 30.23 C-21 30.17, -25.47 30.41, -26.98 29.12 C-28.49 27.83, -27.37 24.6, -28.15 22.49 C-28.93 20.38, -31.41 18.84, -31.64 16.44 C-31.87 14.04, -30.71 10.18, -29.55 8.07 C-28.39 5.96, -25.05 5.19, -24.68 3.77 C-24.3 2.35, -26.53 0.31, -27.28 -0.45 C-28.02 -1.21, -29.09 -0.25, -29.12 -0.81" stroke="#000000" stroke-width="1" fill="none"></path></g></g></svg>