<svg version="1.1" xmlns="http://www.w3.org/2000/svg" viewBox="0 0 726.5 120.5" width="1453" height="241">
  <!-- svg-source:excalidraw -->
  
  <defs>
    <style>
      @font-face {
        font-family: "Virgil";
        src: url("https://excalidraw.com/Virgil.woff2");
      }
      @font-face {
        font-family: "Cascadia";
        src: url("https://excalidraw.com/Cascadia.woff2");
      }
    </style>
  </defs>
  <rect x="0" y="0" width="726.5" height="120.5" fill="#ffffff"></rect><g stroke-linecap="round" transform="translate(497.5 10) rotate(0 109.5 48.5)"><path d="M5.8 6.37 C5.8 6.37, 5.8 6.37, 5.8 6.37 M5.8 6.37 C5.8 6.37, 5.8 6.37, 5.8 6.37 M0.29 18.8 C1.47 18.89, 6.67 13.42, 14.72 2.2 M0.29 18.8 C7.59 13.52, 12.7 4.93, 14.72 2.2 M0.68 24.44 C4.87 17.11, 10.67 16.86, 20.37 1.8 M0.68 24.44 C4.94 21.33, 7.6 14.54, 20.37 1.8 M0.42 30.84 C9 24.13, 11.67 18.15, 26.01 1.41 M0.42 30.84 C7.29 21.7, 17.77 10.55, 26.01 1.41 M0.16 37.24 C10.25 30.85, 16.37 16.36, 31 1.77 M0.16 37.24 C9.88 27.94, 16.41 15.76, 31 1.77 M0.56 42.88 C11.1 36.56, 18.63 25.24, 36.64 1.37 M0.56 42.88 C12.51 31.01, 23.49 15.92, 36.64 1.37 M0.29 49.28 C18.03 29.64, 35.51 7.97, 41.63 1.73 M0.29 49.28 C9.5 37.07, 18.36 27.08, 41.63 1.73 M0.69 54.92 C12.1 43.57, 29.55 25.11, 47.27 1.34 M0.69 54.92 C10.05 43.15, 24.07 31.13, 47.27 1.34 M0.43 61.32 C16.59 43.95, 28.19 30.13, 52.26 1.7 M0.43 61.32 C10.57 47.47, 23.14 34.91, 52.26 1.7 M0.17 67.72 C18.04 56.21, 31.1 33.62, 57.24 2.06 M0.17 67.72 C18.55 47.34, 37.01 24.4, 57.24 2.06 M0.56 73.36 C19.5 50.54, 41.49 31.5, 62.89 1.67 M0.56 73.36 C20.83 54.54, 38.84 33.53, 62.89 1.67 M0.95 79.01 C24.4 49.17, 49.58 25.94, 67.87 2.03 M0.95 79.01 C23.48 50.9, 47.6 24.8, 67.87 2.03 M2.66 83.14 C22.8 62.87, 45.29 31.05, 73.52 1.63 M2.66 83.14 C33.48 52, 59.68 19.13, 73.52 1.63 M4.37 87.27 C25.67 62.24, 47.42 38.47, 78.5 1.99 M4.37 87.27 C22.62 65.83, 38.69 47.17, 78.5 1.99 M6.07 91.41 C29.89 64.43, 54.23 41.79, 84.15 1.6 M6.07 91.41 C33.95 61.21, 58.09 31.92, 84.15 1.6 M9.75 93.28 C32.97 67, 50.93 41.64, 89.13 1.96 M9.75 93.28 C35.36 61.76, 62.71 28.12, 89.13 1.96 M13.42 95.15 C32.22 73.89, 47.83 55.56, 94.12 2.32 M13.42 95.15 C39.06 69.27, 62.61 41.11, 94.12 2.32 M16.44 97.77 C44.35 66.65, 71.06 35.18, 99.76 1.92 M16.44 97.77 C37.3 70.69, 61.32 41.49, 99.76 1.92 M21.43 98.13 C48.9 66.46, 68.44 47.22, 104.75 2.28 M21.43 98.13 C39.92 70.66, 63.37 45.63, 104.75 2.28 M27.07 97.74 C56.54 63.29, 91.53 27.27, 110.39 1.89 M27.07 97.74 C55.71 65.13, 82.86 30.75, 110.39 1.89 M32.06 98.1 C60.53 67.58, 93.97 31.19, 115.38 2.25 M32.06 98.1 C67.94 60.58, 98.66 23.19, 115.38 2.25 M37.7 97.7 C68.43 62.27, 99.59 29.56, 120.37 2.61 M37.7 97.7 C65.73 64.48, 94.7 32.88, 120.37 2.61 M42.69 98.06 C69.73 70.09, 93.21 36.83, 126.01 2.21 M42.69 98.06 C64.12 70.18, 89.45 41.65, 126.01 2.21 M47.68 98.42 C75.5 66.59, 104 39.34, 131 2.57 M47.68 98.42 C72.48 65.8, 100.42 32.68, 131 2.57 M53.32 98.03 C84.57 67.9, 113.31 33.37, 136.64 2.18 M53.32 98.03 C78.44 69.74, 101.32 42.56, 136.64 2.18 M58.31 98.39 C81.05 72.99, 95.71 51.28, 141.63 2.54 M58.31 98.39 C90.33 65.98, 116.99 32.11, 141.63 2.54 M63.95 97.99 C86.09 77.65, 101.08 51.59, 147.27 2.14 M63.95 97.99 C94.4 61.19, 125.82 27.73, 147.27 2.14 M68.94 98.35 C96.43 66, 131.74 26.52, 152.26 2.5 M68.94 98.35 C94.87 74.36, 116.83 44.5, 152.26 2.5 M73.92 98.71 C94.25 68.94, 124.4 42.26, 157.24 2.86 M73.92 98.71 C99.25 67.65, 123.26 37.66, 157.24 2.86 M79.57 98.32 C104.28 72.33, 126.59 41.07, 162.89 2.47 M79.57 98.32 C104.39 70.62, 129.61 39.32, 162.89 2.47 M84.55 98.68 C119.95 61.85, 152.84 21.44, 167.87 2.83 M84.55 98.68 C105.38 72.94, 130.19 49.47, 167.87 2.83 M90.2 98.28 C112.25 76.16, 125.55 56.98, 173.52 2.43 M90.2 98.28 C113.98 71.52, 138.52 42.13, 173.52 2.43 M95.18 98.64 C126.23 63.15, 156.18 32.33, 178.5 2.8 M95.18 98.64 C129.08 63.75, 160.8 25.49, 178.5 2.8 M100.83 98.25 C120.86 69.72, 142.99 43.43, 183.49 3.16 M100.83 98.25 C120.67 72.7, 142.63 50.34, 183.49 3.16 M105.82 98.61 C132.05 67.54, 161.57 36.29, 189.13 2.76 M105.82 98.61 C123.19 76.17, 141.58 53.24, 189.13 2.76 M110.8 98.97 C140.84 74.6, 163.33 43.44, 194.12 3.12 M110.8 98.97 C131.44 73.14, 153.67 48.6, 194.12 3.12 M116.45 98.57 C141.5 73.32, 164.72 41.88, 199.76 2.73 M116.45 98.57 C145.04 64.38, 176.55 28.77, 199.76 2.73 M121.43 98.93 C154.37 65.55, 182.94 33.58, 206.06 1.58 M121.43 98.93 C144.23 70.85, 167.1 45.21, 206.06 1.58 M127.08 98.54 C145.47 73.07, 172.51 49.71, 209.08 4.2 M127.08 98.54 C150.64 70.16, 178.44 42.37, 209.08 4.2 M132.06 98.9 C149.99 78.42, 161.78 58.88, 212.1 6.83 M132.06 98.9 C163.03 64.58, 192.47 28.29, 212.1 6.83 M137.71 98.51 C163.69 71.07, 188.24 41.19, 215.12 9.45 M137.71 98.51 C155.54 76.14, 175.5 57.68, 215.12 9.45 M142.69 98.87 C159.5 83.16, 173.14 59.72, 218.14 12.07 M142.69 98.87 C165.49 66.8, 190.1 37.73, 218.14 12.07 M147.68 99.23 C168.57 77.59, 186.09 52.24, 219.85 16.21 M147.68 99.23 C168.61 75.01, 187.07 54.64, 219.85 16.21 M153.32 98.83 C169.5 77.4, 184.78 63.74, 220.9 21.1 M153.32 98.83 C166 81.73, 182.02 64.71, 220.9 21.1 M158.31 99.19 C168.95 81.09, 183.33 70.17, 221.29 26.74 M158.31 99.19 C183.7 73.15, 204.63 46.54, 221.29 26.74 M163.95 98.8 C183.2 79.15, 204.65 52.43, 221.03 33.14 M163.95 98.8 C183.4 73.67, 206.53 49.98, 221.03 33.14 M168.94 99.16 C183.51 83.49, 197.91 65.86, 220.77 39.53 M168.94 99.16 C179.66 85.42, 194.54 70.56, 220.77 39.53 M173.93 99.52 C183.44 82.59, 204.77 65.93, 220.51 45.93 M173.93 99.52 C186.88 86.29, 201.3 69.23, 220.51 45.93 M179.57 99.12 C187.57 86.27, 201.77 78.46, 220.9 51.58 M179.57 99.12 C191.19 86.61, 201.49 75.8, 220.9 51.58 M184.56 99.48 C194.98 88.09, 205.58 76.13, 220.64 57.97 M184.56 99.48 C193.4 84.17, 207.92 74.8, 220.64 57.97 M190.2 99.09 C198.35 88.33, 213.09 73.8, 220.38 64.37 M190.2 99.09 C199.38 88.13, 210.79 77.88, 220.38 64.37 M196.5 97.94 C204.53 85.67, 212.59 79.37, 220.12 70.77 M196.5 97.94 C203.82 89.75, 209.5 83.46, 220.12 70.77 M202.8 96.79 C210.23 93.14, 210.21 90.48, 220.51 76.41 M202.8 96.79 C206.87 90.71, 214.37 84.32, 220.51 76.41" stroke="#ced4da" stroke-width="0.5" fill="none"></path><path d="M24.25 0 M24.25 0 C74.97 -0.85, 119.51 -4.24, 194.75 0 M24.25 0 C81.7 2.23, 139.43 2.04, 194.75 0 M194.75 0 C210.26 1.82, 220.37 4.4, 219 24.25 M194.75 0 C210.62 -4.16, 214.92 7.71, 219 24.25 M219 24.25 C219.38 36.66, 216.45 45.45, 219 72.75 M219 24.25 C220.68 35.49, 219.98 46.57, 219 72.75 M219 72.75 C218.1 91.7, 209.49 94.35, 194.75 97 M219 72.75 C223.48 88.94, 206.63 101.17, 194.75 97 M194.75 97 C141.55 95.44, 83.97 102.02, 24.25 97 M194.75 97 C131.08 99.45, 72.49 99.92, 24.25 97 M24.25 97 C4.1 94.82, 0.38 89.1, 0 72.75 M24.25 97 C3.69 96.14, -2.8 85.77, 0 72.75 M0 72.75 C-3.34 54.87, 2.07 44.86, 0 24.25 M0 72.75 C-2.35 61.54, 0.11 46.97, 0 24.25 M0 24.25 C0.67 8.34, 6.48 0.5, 24.25 0 M0 24.25 C-4.07 9.06, 7.77 3.69, 24.25 0" stroke="#000000" stroke-width="1" fill="none"></path></g><g transform="translate(508.5 29.5) rotate(0 101 35)"><text x="101" y="25" font-family="Virgil, Segoe UI Emoji" font-size="28px" fill="#000000" text-anchor="middle" style="white-space: pre;" direction="ltr">GitHub Actions</text><text x="101" y="60" font-family="Virgil, Segoe UI Emoji" font-size="28px" fill="#000000" text-anchor="middle" style="white-space: pre;" direction="ltr">Yaml</text></g><g stroke-linecap="round" transform="translate(10 13.5) rotate(0 139.00000000000006 48.5)"><path d="M5.8 6.37 C5.8 6.37, 5.8 6.37, 5.8 6.37 M5.8 6.37 C5.8 6.37, 5.8 6.37, 5.8 6.37 M0.29 18.8 C4.85 17.05, 7.01 10.74, 14.72 2.2 M0.29 18.8 C3.2 15.56, 10.4 8.23, 14.72 2.2 M0.68 24.44 C7.89 12.04, 14.55 11.56, 20.37 1.8 M0.68 24.44 C7.2 16.6, 15.73 6.84, 20.37 1.8 M0.42 30.84 C6.1 24.41, 17.7 18.15, 26.01 1.41 M0.42 30.84 C10.45 20.63, 19.14 8.49, 26.01 1.41 M0.16 37.24 C12.91 25.28, 18.35 15.81, 31 1.77 M0.16 37.24 C8.96 26.8, 20.73 15.33, 31 1.77 M0.56 42.88 C10.63 32.82, 23.98 14.46, 36.64 1.37 M0.56 42.88 C10.44 31.02, 19.25 16.93, 36.64 1.37 M0.29 49.28 C8.38 33.72, 26.16 21.82, 41.63 1.73 M0.29 49.28 C13.77 37.92, 25.11 25.64, 41.63 1.73 M0.69 54.92 C20.03 32.09, 35.92 11.86, 47.27 1.34 M0.69 54.92 C15.63 36.44, 32 17.79, 47.27 1.34 M0.43 61.32 C6.64 50.34, 21.92 38.24, 52.26 1.7 M0.43 61.32 C21.28 40.87, 41.39 15.22, 52.26 1.7 M0.17 67.72 C11.65 58.66, 26 45.08, 57.9 1.31 M0.17 67.72 C17.95 46.63, 37.34 26.26, 57.9 1.31 M0.56 73.36 C12.3 54.9, 28.78 39.88, 62.89 1.67 M0.56 73.36 C11.49 59.8, 26.69 43.05, 62.89 1.67 M0.95 79.01 C18.93 52.18, 41.98 25.82, 67.87 2.03 M0.95 79.01 C16.77 62.37, 30.09 49.01, 67.87 2.03 M2.66 83.14 C29.22 52.97, 48.86 24.99, 73.52 1.63 M2.66 83.14 C28.31 56.95, 49.59 25.94, 73.52 1.63 M4.37 87.27 C21.8 65.67, 45.55 44.81, 78.5 1.99 M4.37 87.27 C24.33 64.07, 46.57 35.64, 78.5 1.99 M6.07 91.41 C30.37 63.98, 56.12 29.43, 84.15 1.6 M6.07 91.41 C26.33 64.87, 46.86 39.79, 84.15 1.6 M9.75 93.28 C39.06 56.62, 74.02 19.94, 89.13 1.96 M9.75 93.28 C30.09 66.74, 54.81 42.44, 89.13 1.96 M13.42 95.15 C37.54 63.77, 63.48 35.49, 94.78 1.56 M13.42 95.15 C40.55 64.67, 69.09 31.36, 94.78 1.56 M16.44 97.77 C34.81 79.26, 46.8 55.19, 99.76 1.92 M16.44 97.77 C46.74 62.52, 75.17 27.85, 99.76 1.92 M21.43 98.13 C46 69.54, 65.26 44.63, 104.75 2.28 M21.43 98.13 C43.89 71.12, 67.97 47.7, 104.75 2.28 M27.07 97.74 C47.3 67.93, 71.82 47.23, 110.39 1.89 M27.07 97.74 C55.44 66.43, 82.36 32.7, 110.39 1.89 M32.06 98.1 C62.19 58.8, 94.13 29.26, 115.38 2.25 M32.06 98.1 C59.43 70.08, 82.81 40.16, 115.38 2.25 M37.7 97.7 C62.45 71.32, 89.18 37.41, 121.02 1.85 M37.7 97.7 C63.74 69.1, 86.54 43.78, 121.02 1.85 M42.69 98.06 C70.58 63.65, 99.95 34.1, 126.01 2.21 M42.69 98.06 C72 64.39, 100.87 31.07, 126.01 2.21 M47.68 98.42 C61.69 79.46, 85.84 49.49, 131.65 1.82 M47.68 98.42 C76 67.15, 107.87 29.32, 131.65 1.82 M53.32 98.03 C85.13 68.78, 106.48 31.14, 136.64 2.18 M53.32 98.03 C78.65 68.73, 103.44 40.21, 136.64 2.18 M58.31 98.39 C85.24 67.6, 119.68 28.72, 141.63 2.54 M58.31 98.39 C86.64 67.8, 113.09 34.89, 141.63 2.54 M63.95 97.99 C86.72 69.25, 115.53 42.23, 147.27 2.14 M63.95 97.99 C95.86 62.05, 126.3 25.38, 147.27 2.14 M68.94 98.35 C87.36 76.84, 108.94 48.55, 152.26 2.5 M68.94 98.35 C88.49 75.15, 107.51 52.68, 152.26 2.5 M74.58 97.96 C103.15 61.56, 140.21 19.75, 157.9 2.11 M74.58 97.96 C92.22 76.19, 109.78 55.69, 157.9 2.11 M79.57 98.32 C109.55 68.23, 137.26 29.09, 162.89 2.47 M79.57 98.32 C113.44 61.24, 146 24.01, 162.89 2.47 M85.21 97.92 C115.67 65.06, 141.48 29.6, 168.53 2.07 M85.21 97.92 C109.7 71.75, 132.69 41.26, 168.53 2.07 M90.2 98.28 C111.85 75.08, 127.67 45.13, 173.52 2.43 M90.2 98.28 C113.49 69.21, 139.17 40.22, 173.52 2.43 M95.18 98.64 C117.28 72.78, 145.16 45.31, 178.5 2.8 M95.18 98.64 C125.25 63.51, 152.56 27.95, 178.5 2.8 M100.83 98.25 C116.78 82.56, 135.77 60.49, 184.15 2.4 M100.83 98.25 C133.28 61.01, 167.73 22.11, 184.15 2.4 M105.82 98.61 C137.72 66.01, 169.51 32.97, 189.13 2.76 M105.82 98.61 C124.02 80.07, 141.58 60.35, 189.13 2.76 M111.46 98.21 C139.89 66.94, 173.59 28.01, 194.78 2.37 M111.46 98.21 C137.49 69.94, 159.84 41.01, 194.78 2.37 M116.45 98.57 C142.21 71.91, 162.69 39.17, 199.76 2.73 M116.45 98.57 C141.96 70.22, 167.12 42.64, 199.76 2.73 M122.09 98.18 C155.72 66.66, 182.24 30.9, 205.41 2.33 M122.09 98.18 C151.43 65.98, 177.06 34.69, 205.41 2.33 M127.08 98.54 C161.2 61.22, 191.81 24.9, 210.39 2.69 M127.08 98.54 C155.26 65.4, 184.61 31.26, 210.39 2.69 M132.06 98.9 C168.35 59.22, 193.78 23.81, 215.38 3.05 M132.06 98.9 C151.65 77.34, 172.27 55.23, 215.38 3.05 M137.71 98.51 C153.58 77.98, 173.55 57.39, 221.02 2.66 M137.71 98.51 C163.22 73.98, 187.63 45.28, 221.02 2.66 M142.69 98.87 C164.02 75.48, 185.14 47.81, 226.01 3.02 M142.69 98.87 C160.96 78.48, 184.72 53.9, 226.01 3.02 M148.34 98.47 C171.99 77.55, 189.34 47.66, 231.65 2.62 M148.34 98.47 C176.2 65.25, 207.95 30.46, 231.65 2.62 M153.32 98.83 C181.16 66.23, 206.85 36.27, 236.64 2.98 M153.32 98.83 C189.41 59.97, 222.31 23.73, 236.64 2.98 M158.97 98.44 C181.85 77.24, 202.53 49.66, 242.29 2.59 M158.97 98.44 C193.68 57.57, 227.53 20.87, 242.29 2.59 M163.95 98.8 C185.54 75.48, 206.22 55.18, 247.27 2.95 M163.95 98.8 C184.86 78.63, 203.54 52.86, 247.27 2.95 M168.94 99.16 C195.69 71.74, 212.78 44.47, 252.92 2.55 M168.94 99.16 C197.27 65.91, 225.12 35.83, 252.92 2.55 M174.58 98.76 C201.95 69.7, 227.62 38.19, 257.9 2.91 M174.58 98.76 C196.35 72.76, 221.48 45.56, 257.9 2.91 M179.57 99.12 C201.92 69.65, 230.41 34.93, 264.2 1.76 M179.57 99.12 C208.91 63.68, 238.47 31.35, 264.2 1.76 M185.21 98.73 C201.53 72.87, 223.05 56.02, 267.88 3.63 M185.21 98.73 C203.95 74.88, 223.53 51.62, 267.88 3.63 M190.2 99.09 C204.86 80.28, 220.32 62.07, 270.89 6.26 M190.2 99.09 C208.83 76.36, 231.55 52.07, 270.89 6.26 M195.84 98.69 C217.88 69.12, 236.14 45.75, 273.91 8.88 M195.84 98.69 C219.28 73.57, 239.8 46.99, 273.91 8.88 M200.83 99.05 C219.17 73.43, 244.6 51.39, 276.93 11.51 M200.83 99.05 C223.75 72, 248.73 41.29, 276.93 11.51 M205.82 99.41 C224.12 75.69, 245.98 51.71, 278.64 15.64 M205.82 99.41 C224.84 79.89, 238.78 59.76, 278.64 15.64 M211.46 99.02 C228.21 77.19, 247.55 56.7, 279.69 20.53 M211.46 99.02 C231.23 74.86, 252.98 53.75, 279.69 20.53 M216.45 99.38 C230.09 85.44, 240.37 64.6, 279.43 26.93 M216.45 99.38 C228.83 86.04, 243.29 70.54, 279.43 26.93 M222.09 98.98 C232.76 81.42, 244.17 67.31, 279.82 32.57 M222.09 98.98 C244.27 75.14, 264.39 51.03, 279.82 32.57 M227.08 99.34 C243.24 84.43, 254.12 71.73, 279.56 38.97 M227.08 99.34 C240.69 83.73, 258.53 67.01, 279.56 38.97 M232.72 98.95 C239.21 87.33, 255.88 75.59, 279.3 45.37 M232.72 98.95 C246.4 81.15, 264.57 65.35, 279.3 45.37 M237.71 99.31 C252.9 80.33, 268.77 64.63, 279.04 51.76 M237.71 99.31 C250.72 84.48, 261.36 72.17, 279.04 51.76 M243.35 98.91 C254.67 86.24, 257.07 81.48, 279.43 57.41 M243.35 98.91 C254.73 84.61, 266.66 71.94, 279.43 57.41 M248.34 99.28 C260.39 88.13, 266.53 77.42, 279.17 63.8 M248.34 99.28 C256.94 91, 266.46 80.3, 279.17 63.8 M254.64 98.13 C260.06 89.72, 272.67 83.17, 278.91 70.2 M254.64 98.13 C261.03 90.23, 267.9 82.89, 278.91 70.2 M261.59 96.22 C266.95 86.04, 273.6 84.89, 278.65 76.6 M261.59 96.22 C266.18 92.09, 273.23 83.56, 278.65 76.6" stroke="#ced4da" stroke-width="0.5" fill="none"></path><path d="M24.25 0 M24.25 0 C98.72 1.18, 179.78 2.06, 253.75 0 M24.25 0 C101.37 -3.32, 174.53 -4.73, 253.75 0 M253.75 0 C268.04 2.01, 278.56 6.32, 278 24.25 M253.75 0 C269.21 3.58, 279.28 8.27, 278 24.25 M278 24.25 C275.73 37.53, 275.99 59.67, 278 72.75 M278 24.25 C278.1 33.76, 277.76 44.55, 278 72.75 M278 72.75 C278.16 87.83, 273.33 93.05, 253.75 97 M278 72.75 C276.33 87.6, 266.17 99.08, 253.75 97 M253.75 97 C177.52 94.28, 107.12 94.98, 24.25 97 M253.75 97 C202.72 94.61, 149.68 95.09, 24.25 97 M24.25 97 C8.54 95.81, 1.24 86.06, 0 72.75 M24.25 97 C8.04 101, 3.11 85.49, 0 72.75 M0 72.75 C-0.2 54.6, -3.35 34.93, 0 24.25 M0 72.75 C-0.43 52.84, 0.76 35.47, 0 24.25 M0 24.25 C-1.33 6.31, 5.64 -3.19, 24.25 0 M0 24.25 C-0.31 10.75, 3.99 0.44, 24.25 0" stroke="#000000" stroke-width="1" fill="none"></path></g><g transform="translate(29.5 42) rotate(0 123.5 17.5)"><text x="123.5" y="25" font-family="Virgil, Segoe UI Emoji" font-size="28px" fill="#000000" text-anchor="middle" style="white-space: pre;" direction="ltr">sbt-github-actions</text></g><g stroke-linecap="round"><g transform="translate(289 58.33297564027191) rotate(0 106.00204879984256 1.0982981175755526)"><path d="M1.22 1.04 C36.75 1.81, 178.06 3.37, 213.56 3.19 M-1.56 -0.87 C33.47 -0.74, 175.17 -1.3, 210.81 -0.76" stroke="#000000" stroke-width="1" fill="none"></path></g><g transform="translate(289 58.33297564027191) rotate(0 106.00204879984256 1.0982981175755526)"><path d="M184.06 8.04 C194.39 5.58, 198.7 0.39, 213.34 -2.76 M182.29 11.36 C193.49 7.56, 199.84 4.26, 211.06 -1.02" stroke="#000000" stroke-width="1" fill="none"></path></g><g transform="translate(289 58.33297564027191) rotate(0 106.00204879984256 1.0982981175755526)"><path d="M184.15 -12.48 C194.24 -8.47, 198.51 -7.19, 213.34 -2.76 M182.38 -9.16 C193.36 -6.12, 199.68 -2.58, 211.06 -1.02" stroke="#000000" stroke-width="1" fill="none"></path></g></g></svg>