<svg xmlns="http://www.w3.org/2000/svg" viewBox="0 0 1474 506" enable-background="new 0 0 1474 506"><path fill="#0E1131" d="M1453.5 478h-201c-2.8 0-5.1-2.3-5.1-5.1v-310.8c0-2.8 2.3-5.1 5.1-5.1h201c2.8 0 5.1 2.3 5.1 5.1v310.9c-.1 2.8-2.3 5-5.1 5zm-196-10.1h190.9v-300.7h-190.9v300.7z"/><path fill="#0E1131" d="M1430.3 167.2c-2.8 0-5.1-2.3-5.1-5.1v-35.5h-144.4v35.5c0 2.8-2.3 5.1-5.1 5.1s-5.1-2.3-5.1-5.1v-40.5c0-2.8 2.3-5.1 5.1-5.1h154.6c2.8 0 5.1 2.3 5.1 5.1v40.5c-.1 2.8-2.3 5.1-5.1 5.1z"/><path fill="#0E1131" d="M1377.7 283.4h-54.2c-1.8 0-3.5-1-4.4-2.5l-27.1-46.9c-.9-1.6-.9-3.5 0-5.1l27.1-46.9c.9-1.6 2.6-2.5 4.4-2.5h54.2c1.8 0 3.5 1 4.4 2.5l27.1 46.9c.9 1.6.9 3.5 0 5.1l-27.1 46.9c-.9 1.5-2.6 2.5-4.4 2.5zm-51.2-10.1h48.3l24.2-41.9-24.2-41.9h-48.3l-24.2 41.9 24.2 41.9z"/><path fill="#0E1131" d="M1350.6 283.4c-2.8 0-5.1-2.3-5.1-5.1v-93.9c0-2.8 2.3-5.1 5.1-5.1s5.1 2.3 5.1 5.1v93.9c0 2.8-2.3 5.1-5.1 5.1z"/><path fill="#0E1131" d="M1404.8 236.5h-108.4c-2.8 0-5.1-2.3-5.1-5.1s2.3-5.1 5.1-5.1h108.4c2.8 0 5.1 2.3 5.1 5.1s-2.3 5.1-5.1 5.1z"/><path fill="#0E1131" d="M1392.5 215.1h-83.7c-2.8 0-5.1-2.3-5.1-5.1s2.3-5.1 5.1-5.1h83.7c2.8 0 5.1 2.3 5.1 5.1-.1 2.8-2.3 5.1-5.1 5.1z"/><path fill="#0E1131" d="M1392.5 256.2h-83.7c-2.8 0-5.1-2.3-5.1-5.1s2.3-5.1 5.1-5.1h83.7c2.8 0 5.1 2.3 5.1 5.1s-2.3 5.1-5.1 5.1z"/><path fill="#0E1131" d="M1430.5 418.3h-152.6c-2.8 0-5.1-2.3-5.1-5.1v-71c0-2.8 2.3-5.1 5.1-5.1h152.6c2.8 0 5.1 2.3 5.1 5.1v71c-.1 2.9-2.3 5.1-5.1 5.1zm-147.6-10.1h142.5v-60.8h-142.5v60.8z"/><path fill="#0E1131" d="M1430.5 382.9h-152.6c-2.8 0-5.1-2.3-5.1-5.1s2.3-5.1 5.1-5.1h152.6c2.8 0 5.1 2.3 5.1 5.1-.1 2.8-2.3 5.1-5.1 5.1z"/><path fill="#0E1131" d="M1391 418.3c-2.8 0-5.1-2.3-5.1-5.1v-71c0-2.8 2.3-5.1 5.1-5.1s5.1 2.3 5.1 5.1v71c0 2.9-2.3 5.1-5.1 5.1z"/><path fill="#0E1131" d="M1317.3 418.3c-2.8 0-5.1-2.3-5.1-5.1v-71c0-2.8 2.3-5.1 5.1-5.1s5.1 2.3 5.1 5.1v71c-.1 2.9-2.3 5.1-5.1 5.1z"/><path fill="#0E1131" d="M1354.2 418.3c-2.8 0-5.1-2.3-5.1-5.1v-71c0-2.8 2.3-5.1 5.1-5.1s5.1 2.3 5.1 5.1v71c-.1 2.9-2.3 5.1-5.1 5.1z"/><path fill="#0E1131" d="M1252.5 478h-201c-2.8 0-5.1-2.3-5.1-5.1v-310.8c0-2.8 2.3-5.1 5.1-5.1h201c2.8 0 5.1 2.3 5.1 5.1v310.9c-.1 2.8-2.3 5-5.1 5zm-196-10.1h190.9v-300.7h-190.9v300.7z"/><path fill="#0E1131" d="M1229.2 167.2c-2.8 0-5.1-2.3-5.1-5.1v-35.5h-144.4v35.5c0 2.8-2.3 5.1-5.1 5.1s-5.1-2.3-5.1-5.1v-40.5c0-2.8 2.3-5.1 5.1-5.1h154.6c2.8 0 5.1 2.3 5.1 5.1v40.5c0 2.8-2.3 5.1-5.1 5.1z"/><path fill="#0E1131" d="M1176.7 283.4h-54.2c-1.8 0-3.5-1-4.4-2.5l-27.1-46.9c-.9-1.6-.9-3.5 0-5.1l27.1-46.9c.9-1.6 2.6-2.5 4.4-2.5h54.2c1.8 0 3.5 1 4.4 2.5l27.1 46.9c.9 1.6.9 3.5 0 5.1l-27.1 46.9c-.9 1.5-2.6 2.5-4.4 2.5zm-51.3-10.1h48.3l24.2-41.9-24.2-41.9h-48.3l-24.2 41.9 24.2 41.9z"/><path fill="#0E1131" d="M1149.6 283.4c-2.8 0-5.1-2.3-5.1-5.1v-93.9c0-2.8 2.3-5.1 5.1-5.1s5.1 2.3 5.1 5.1v93.9c0 2.8-2.3 5.1-5.1 5.1z"/><path fill="#0E1131" d="M1203.8 236.5h-108.4c-2.8 0-5.1-2.3-5.1-5.1s2.3-5.1 5.1-5.1h108.4c2.8 0 5.1 2.3 5.1 5.1s-2.3 5.1-5.1 5.1z"/><path fill="#0E1131" d="M1191.5 215.1h-83.7c-2.8 0-5.1-2.3-5.1-5.1s2.3-5.1 5.1-5.1h83.7c2.8 0 5.1 2.3 5.1 5.1-.1 2.8-2.3 5.1-5.1 5.1z"/><path fill="#0E1131" d="M1191.5 256.2h-83.7c-2.8 0-5.1-2.3-5.1-5.1s2.3-5.1 5.1-5.1h83.7c2.8 0 5.1 2.3 5.1 5.1s-2.3 5.1-5.1 5.1z"/><path fill="#0E1131" d="M1229.4 418.3h-152.6c-2.8 0-5.1-2.3-5.1-5.1v-71c0-2.8 2.3-5.1 5.1-5.1h152.6c2.8 0 5.1 2.3 5.1 5.1v71c0 2.9-2.3 5.1-5.1 5.1zm-147.5-10.1h142.5v-60.8h-142.5v60.8z"/><path fill="#0E1131" d="M1229.4 382.9h-152.6c-2.8 0-5.1-2.3-5.1-5.1s2.3-5.1 5.1-5.1h152.6c2.8 0 5.1 2.3 5.1 5.1s-2.3 5.1-5.1 5.1z"/><path fill="#0E1131" d="M1190 418.3c-2.8 0-5.1-2.3-5.1-5.1v-71c0-2.8 2.3-5.1 5.1-5.1s5.1 2.3 5.1 5.1v71c0 2.9-2.3 5.1-5.1 5.1z"/><path fill="#0E1131" d="M1116.3 418.3c-2.8 0-5.1-2.3-5.1-5.1v-71c0-2.8 2.3-5.1 5.1-5.1s5.1 2.3 5.1 5.1v71c-.1 2.9-2.3 5.1-5.1 5.1z"/><path fill="#0E1131" d="M1153.1 418.3c-2.8 0-5.1-2.3-5.1-5.1v-71c0-2.8 2.3-5.1 5.1-5.1s5.1 2.3 5.1 5.1v71c0 2.9-2.3 5.1-5.1 5.1z"/><path fill="#0E1131" d="M1006.4 478c-2.8 0-5.1-2.3-5.1-5.1v-449.3h-532v449.4c0 2.8-2.3 5.1-5.1 5.1s-5.1-2.3-5.1-5.1v-454.5c0-2.8 2.3-5.1 5.1-5.1h542.3c2.8 0 5.1 2.3 5.1 5.1v454.5c-.1 2.8-2.4 5-5.2 5z"/><path fill="#0E1131" d="M972.7 146.9h-466.3c-2.8 0-5.1-2.3-5.1-5.1v-55.7c0-2.8 2.3-5.1 5.1-5.1h466.2c2.8 0 5.1 2.3 5.1 5.1v55.7c0 2.8-2.2 5.1-5 5.1zm-461.2-10.1h456.1v-45.6h-456.1v45.6z"/><path fill="#0E1131" d="M940.6 367.4h-402.1c-2.8 0-5.1-2.3-5.1-5.1v-195.1h-10.1c-2.8 0-5.1-2.3-5.1-5.1v-20.3c0-2.8 2.3-5.1 5.1-5.1s5.1 2.3 5.1 5.1v15.2h10.1c2.8 0 5.1 2.3 5.1 5.1v195.1h391.9v-195.1c0-2.8 2.3-5.1 5.1-5.1h10.1v-15.2c0-2.8 2.3-5.1 5.1-5.1s5.1 2.3 5.1 5.1v20.3c0 2.8-2.3 5.1-5.1 5.1h-10.1v195.1c-.1 2.8-2.3 5.1-5.1 5.1z"/><path fill="#0E1131" d="M878.1 167.2c-2.8 0-5.1-2.3-5.1-5.1v-20.3c0-2.8 2.3-5.1 5.1-5.1s5.1 2.3 5.1 5.1v20.3c-.1 2.8-2.3 5.1-5.1 5.1z"/><path fill="#0E1131" d="M893.3 167.2h-15.2c-2.8 0-5.1-2.3-5.1-5.1s2.3-5.1 5.1-5.1h15.2c2.8 0 5.1 2.3 5.1 5.1-.1 2.8-2.3 5.1-5.1 5.1z"/><path fill="#0E1131" d="M893.3 367.4c-2.8 0-5.1-2.3-5.1-5.1v-200.2c0-2.8 2.3-5.1 5.1-5.1s5.1 2.3 5.1 5.1v200.2c-.1 2.8-2.3 5.1-5.1 5.1z"/><path fill="#0E1131" d="M602.7 167.2c-2.8 0-5.1-2.3-5.1-5.1v-20.3c0-2.8 2.3-5.1 5.1-5.1s5.1 2.3 5.1 5.1v20.3c0 2.8-2.3 5.1-5.1 5.1z"/><path fill="#0E1131" d="M602.7 167.2h-15.2c-2.8 0-5.1-2.3-5.1-5.1s2.3-5.1 5.1-5.1h15.2c2.8 0 5.1 2.3 5.1 5.1s-2.3 5.1-5.1 5.1z"/><path fill="#0E1131" d="M587.5 367.4c-2.8 0-5.1-2.3-5.1-5.1v-200.2c0-2.8 2.3-5.1 5.1-5.1s5.1 2.3 5.1 5.1v200.2c0 2.8-2.3 5.1-5.1 5.1z"/><path fill="#0E1131" d="M955.8 398.6h-432.5c-2.8 0-5.1-2.3-5.1-5.1v-31.3c0-2.8 2.3-5.1 5.1-5.1h432.5c2.8 0 5.1 2.3 5.1 5.1v31.3c-.1 2.9-2.3 5.1-5.1 5.1zm-427.4-10.1h422.3v-21.1h-422.3v21.1z"/><path fill="#0E1131" d="M972.7 429.9h-466.3c-2.8 0-5.1-2.3-5.1-5.1v-31.3c0-2.8 2.3-5.1 5.1-5.1h466.2c2.8 0 5.1 2.3 5.1 5.1v31.3c0 2.8-2.2 5.1-5 5.1zm-461.2-10.2h456.1v-21.1h-456.1v21.1z"/><path fill="#0E1131" d="M989.6 461.1h-508c-2.8 0-5.1-2.3-5.1-5.1v-31.3c0-2.8 2.3-5.1 5.1-5.1h507.9c2.8 0 5.1 2.3 5.1 5.1v31.3c0 2.9-2.2 5.1-5 5.1zm-502.9-10.1h497.8v-21.1h-497.8v21.1z"/><path fill="#0E1131" d="M1006.4 492.4h-542.2c-2.8 0-5.1-2.3-5.1-5.1v-31.3c0-2.8 2.3-5.1 5.1-5.1h542.3c2.8 0 5.1 2.3 5.1 5.1v31.3c-.1 2.8-2.4 5.1-5.2 5.1zm-537.1-10.2h532.1v-21.1h-532.1v21.1z"/><path fill="#0E1131" d="M972.7 429.9c-2.8 0-5.1-2.3-5.1-5.1v-31.3c0-2.8 2.3-5.1 5.1-5.1s5.1 2.3 5.1 5.1v31.3c-.1 2.8-2.3 5.1-5.1 5.1z"/><path fill="#0E1131" d="M1051.4 478h-45c-2.8 0-5.1-2.3-5.1-5.1v-331c0-2.8 2.3-5.1 5.1-5.1h68.2c2.8 0 5.1 2.3 5.1 5.1v20.3c0 2.8-2.3 5.1-5.1 5.1s-5.1-2.3-5.1-5.1v-15.2h-58.1v321h39.9c2.8 0 5.1 2.3 5.1 5.1.1 2.7-2.2 4.9-5 4.9z"/><path fill="#0E1131" d="M218.2 478h-201c-2.8 0-5.1-2.3-5.1-5.1v-310.8c0-2.8 2.3-5.1 5.1-5.1h201c2.8 0 5.1 2.3 5.1 5.1v310.9c0 2.8-2.3 5-5.1 5zm-196-10.1h190.9v-300.7h-190.9v300.7z"/><path fill="#0E1131" d="M195 167.2c-2.8 0-5.1-2.3-5.1-5.1v-35.5h-144.4v35.5c0 2.8-2.3 5.1-5.1 5.1s-5.1-2.3-5.1-5.1v-40.5c0-2.8 2.3-5.1 5.1-5.1h154.6c2.8 0 5.1 2.3 5.1 5.1v40.5c-.1 2.8-2.3 5.1-5.1 5.1z"/><path fill="#0E1131" d="M147.1 283.4h-54.2c-1.8 0-3.5-1-4.4-2.5l-27.1-46.9c-.9-1.6-.9-3.5 0-5.1l27.1-46.9c.9-1.6 2.6-2.5 4.4-2.5h54.2c1.8 0 3.5 1 4.4 2.5l27.1 46.9c.9 1.6.9 3.5 0 5.1l-27.1 46.9c-.9 1.5-2.6 2.5-4.4 2.5zm-51.3-10.1h48.3l24.2-41.9-24.2-41.9h-48.3l-24.2 41.9 24.2 41.9z"/><path fill="#0E1131" d="M120 283.4c-2.8 0-5.1-2.3-5.1-5.1v-93.9c0-2.8 2.3-5.1 5.1-5.1s5.1 2.3 5.1 5.1v93.9c0 2.8-2.3 5.1-5.1 5.1z"/><path fill="#0E1131" d="M174.2 236.5h-108.4c-2.8 0-5.1-2.3-5.1-5.1s2.3-5.1 5.1-5.1h108.4c2.8 0 5.1 2.3 5.1 5.1s-2.3 5.1-5.1 5.1z"/><path fill="#0E1131" d="M161.9 215.1h-83.7c-2.8 0-5.1-2.3-5.1-5.1s2.3-5.1 5.1-5.1h83.7c2.8 0 5.1 2.3 5.1 5.1-.1 2.8-2.3 5.1-5.1 5.1z"/><path fill="#0E1131" d="M161.9 256.2h-83.7c-2.8 0-5.1-2.3-5.1-5.1s2.3-5.1 5.1-5.1h83.7c2.8 0 5.1 2.3 5.1 5.1s-2.3 5.1-5.1 5.1z"/><path fill="#0E1131" d="M192.8 418.3h-152.6c-2.8 0-5.1-2.3-5.1-5.1v-71c0-2.8 2.3-5.1 5.1-5.1h152.6c2.8 0 5.1 2.3 5.1 5.1v71c-.1 2.9-2.3 5.1-5.1 5.1zm-147.6-10.1h142.5v-60.8h-142.5v60.8z"/><path fill="#0E1131" d="M192.8 382.9h-152.6c-2.8 0-5.1-2.3-5.1-5.1s2.3-5.1 5.1-5.1h152.6c2.8 0 5.1 2.3 5.1 5.1-.1 2.8-2.3 5.1-5.1 5.1z"/><path fill="#0E1131" d="M79.6 418.3c-2.8 0-5.1-2.3-5.1-5.1v-71c0-2.8 2.3-5.1 5.1-5.1s5.1 2.3 5.1 5.1v71c0 2.9-2.3 5.1-5.1 5.1z"/><path fill="#0E1131" d="M153.4 418.3c-2.8 0-5.1-2.3-5.1-5.1v-71c0-2.8 2.3-5.1 5.1-5.1s5.1 2.3 5.1 5.1v71c-.1 2.9-2.3 5.1-5.1 5.1z"/><path fill="#0E1131" d="M116.5 418.3c-2.8 0-5.1-2.3-5.1-5.1v-71c0-2.8 2.3-5.1 5.1-5.1s5.1 2.3 5.1 5.1v71c-.1 2.9-2.3 5.1-5.1 5.1z"/><path fill="#0E1131" d="M419.2 478h-201c-2.8 0-5.1-2.3-5.1-5.1v-310.8c0-2.8 2.3-5.1 5.1-5.1h201c2.8 0 5.1 2.3 5.1 5.1v310.9c0 2.8-2.3 5-5.1 5zm-195.9-10.1h190.9v-300.7h-190.9v300.7z"/><path fill="#0E1131" d="M396 167.2c-2.8 0-5.1-2.3-5.1-5.1v-35.5h-144.4v35.5c0 2.8-2.3 5.1-5.1 5.1s-5.1-2.3-5.1-5.1v-40.5c0-2.8 2.3-5.1 5.1-5.1h154.6c2.8 0 5.1 2.3 5.1 5.1v40.5c-.1 2.8-2.3 5.1-5.1 5.1z"/><path fill="#0E1131" d="M348.1 283.4h-54.2c-1.8 0-3.5-1-4.4-2.5l-27.1-46.9c-.9-1.6-.9-3.5 0-5.1l27.1-46.9c.9-1.6 2.6-2.5 4.4-2.5h54.2c1.8 0 3.5 1 4.4 2.5l27.1 46.9c.9 1.6.9 3.5 0 5.1l-27.1 46.9c-.9 1.5-2.6 2.5-4.4 2.5zm-51.2-10.1h48.3l24.2-41.9-24.2-41.9h-48.3l-24.2 41.9 24.2 41.9z"/><path fill="#0E1131" d="M321 283.4c-2.8 0-5.1-2.3-5.1-5.1v-93.9c0-2.8 2.3-5.1 5.1-5.1s5.1 2.3 5.1 5.1v93.9c0 2.8-2.3 5.1-5.1 5.1z"/><path fill="#0E1131" d="M375.2 236.5h-108.4c-2.8 0-5.1-2.3-5.1-5.1s2.3-5.1 5.1-5.1h108.4c2.8 0 5.1 2.3 5.1 5.1s-2.3 5.1-5.1 5.1z"/><path fill="#0E1131" d="M362.9 215.1h-83.7c-2.8 0-5.1-2.3-5.1-5.1s2.3-5.1 5.1-5.1h83.7c2.8 0 5.1 2.3 5.1 5.1-.1 2.8-2.3 5.1-5.1 5.1z"/><path fill="#0E1131" d="M362.9 256.2h-83.7c-2.8 0-5.1-2.3-5.1-5.1s2.3-5.1 5.1-5.1h83.7c2.8 0 5.1 2.3 5.1 5.1s-2.3 5.1-5.1 5.1z"/><path fill="#0E1131" d="M393.8 418.3h-152.6c-2.8 0-5.1-2.3-5.1-5.1v-71c0-2.8 2.3-5.1 5.1-5.1h152.6c2.8 0 5.1 2.3 5.1 5.1v71c0 2.9-2.3 5.1-5.1 5.1zm-147.5-10.1h142.5v-60.8h-142.5v60.8z"/><path fill="#0E1131" d="M393.8 382.9h-152.6c-2.8 0-5.1-2.3-5.1-5.1s2.3-5.1 5.1-5.1h152.6c2.8 0 5.1 2.3 5.1 5.1s-2.3 5.1-5.1 5.1z"/><path fill="#0E1131" d="M280.6 418.3c-2.8 0-5.1-2.3-5.1-5.1v-71c0-2.8 2.3-5.1 5.1-5.1s5.1 2.3 5.1 5.1v71c0 2.9-2.3 5.1-5.1 5.1z"/><path fill="#0E1131" d="M354.4 418.3c-2.8 0-5.1-2.3-5.1-5.1v-71c0-2.8 2.3-5.1 5.1-5.1s5.1 2.3 5.1 5.1v71c0 2.9-2.3 5.1-5.1 5.1z"/><path fill="#0E1131" d="M317.5 418.3c-2.8 0-5.1-2.3-5.1-5.1v-71c0-2.8 2.3-5.1 5.1-5.1s5.1 2.3 5.1 5.1v71c0 2.9-2.3 5.1-5.1 5.1z"/><path fill="#0E1131" d="M464.2 478h-45c-2.8 0-5.1-2.3-5.1-5.1s2.3-5.1 5.1-5.1h39.9v-321h-58.1v15.2c0 2.8-2.3 5.1-5.1 5.1s-5.1-2.3-5.1-5.1v-20.3c0-2.8 2.3-5.1 5.1-5.1h68.2c2.8 0 5.1 2.3 5.1 5.1v331.3c.1 2.8-2.2 5-5 5z"/><path fill="#0E1131" d="M795.6 366h-110.2c-1.8 0-3.5-1-4.4-2.5l-55-95.4c-.9-1.6-.9-3.5 0-5.1l55.1-95.4c.9-1.6 2.6-2.5 4.4-2.5h110.1c1.8 0 3.5 1 4.4 2.5l55.1 95.4c.9 1.6.9 3.5 0 5.1l-55.1 95.4c-1 1.6-2.6 2.5-4.4 2.5zm-107.2-10.1h104.3l52.1-90.3-52.1-90.3h-104.3l-52.1 90.3 52.1 90.3z"/><path fill="#0E1131" d="M697.9 366c-2.8 0-5.1-2.3-5.1-5.1v-190.7c0-2.8 2.3-5.1 5.1-5.1s5.1 2.3 5.1 5.1v190.8c-.1 2.8-2.3 5-5.1 5z"/><path fill="#0E1131" d="M782.3 366c-2.8 0-5.1-2.3-5.1-5.1v-190.7c0-2.8 2.3-5.1 5.1-5.1s5.1 2.3 5.1 5.1v190.8c0 2.8-2.3 5-5.1 5z"/><path fill="#0E1131" d="M697.9 270.7h-67.5c-2.8 0-5.1-2.3-5.1-5.1s2.3-5.1 5.1-5.1h67.5c2.8 0 5.1 2.3 5.1 5.1-.1 2.8-2.3 5.1-5.1 5.1z"/><path fill="#0E1131" d="M850.6 270.7h-68.3c-2.8 0-5.1-2.3-5.1-5.1s2.3-5.1 5.1-5.1h68.3c2.8 0 5.1 2.3 5.1 5.1s-2.3 5.1-5.1 5.1z"/><path fill="#0E1131" d="M697.9 227.2h-42.4c-2.8 0-5.1-2.3-5.1-5.1s2.3-5.1 5.1-5.1h42.4c2.8 0 5.1 2.3 5.1 5.1s-2.3 5.1-5.1 5.1z"/><path fill="#0E1131" d="M825.5 227.2h-40.9c-2.8 0-5.1-2.3-5.1-5.1s2.3-5.1 5.1-5.1h40.9c2.8 0 5.1 2.3 5.1 5.1s-2.3 5.1-5.1 5.1z"/><path fill="#0E1131" d="M697.9 310.7h-42.4c-2.8 0-5.1-2.3-5.1-5.1s2.3-5.1 5.1-5.1h42.4c2.8 0 5.1 2.3 5.1 5.1-.1 2.8-2.3 5.1-5.1 5.1z"/><path fill="#0E1131" d="M825.5 310.7h-43.2c-2.8 0-5.1-2.3-5.1-5.1s2.3-5.1 5.1-5.1h43.2c2.8 0 5.1 2.3 5.1 5.1s-2.3 5.1-5.1 5.1z"/><path fill="#0E1131" d="M741.5 286c-6.2 0-11.3-5.1-11.3-11.3s5.1-11.3 11.3-11.3 11.3 5.1 11.3 11.3-5.1 11.3-11.3 11.3zm0-12.4c-.6 0-1.1.5-1.1 1.1 0 .6.5 1.1 1.1 1.1.6 0 1.1-.5 1.1-1.1 0-.6-.5-1.1-1.1-1.1z"/><path d="M591.8 41.6c0-1.7 1.4-3.1 3.1-3.1h.6c1.5 0 2.4.7 3.2 1.8l12 15.8v-14.7c0-1.7 1.4-3.1 3.1-3.1 1.7 0 3.1 1.4 3.1 3.1v22.6c0 1.7-1.4 3.1-3.1 3.1h-.2c-1.5 0-2.4-.7-3.2-1.8l-12.5-16.4v15.2c0 1.7-1.4 3.1-3.1 3.1-1.7 0-3.1-1.4-3.1-3.1v-22.5zm30.7 11.3c0-8.1 6.4-14.7 15.1-14.7 8.8 0 15 6.5 15 14.6v.1c0 8.1-6.4 14.7-15.1 14.7-8.7-.2-15-6.7-15-14.7zm23.7 0c0-4.9-3.6-9-8.6-9s-8.5 4-8.5 8.8v.1c0 4.9 3.6 8.9 8.6 8.9s8.5-4 8.5-8.8zm12-11.2c0-1.7 1.4-3.1 3.1-3.1h7.9c8.9 0 15.1 6.1 15.1 14.1v.1c0 8-6.2 14.2-15.1 14.2h-7.9c-1.7 0-3.1-1.4-3.1-3.1v-22.2zm11.1 19.6c5.1 0 8.5-3.4 8.5-8.5v-.1c0-5-3.4-8.6-8.5-8.6h-4.8v17.1h4.8zm20.6 2.5v-22.1c0-1.7 1.4-3.1 3.1-3.1h15.7c1.5 0 2.8 1.3 2.8 2.8 0 1.5-1.3 2.8-2.8 2.8h-12.6v5.8h10.9c1.5 0 2.8 1.3 2.8 2.8s-1.3 2.8-2.8 2.8h-10.8v6h12.8c1.5 0 2.8 1.3 2.8 2.8 0 1.5-1.3 2.8-2.8 2.8h-15.9c-1.8-.2-3.2-1.6-3.2-3.4zm26.6.2c-.7-.5-1.2-1.4-1.2-2.3 0-1.6 1.3-2.9 2.9-2.9.8 0 1.4.3 1.8.6 2.1 1.6 4.5 2.6 7.3 2.6 2.6 0 4.1-1 4.1-2.7v-.1c0-1.6-1-2.4-5.7-3.6-5.7-1.5-9.4-3-9.4-8.7v-.1c0-5.1 4.1-8.6 9.9-8.6 3.4 0 6.4.9 9 2.5.7.4 1.4 1.3 1.4 2.5 0 1.6-1.3 2.9-2.9 2.9-.6 0-1.1-.2-1.6-.4-2.1-1.2-4-1.9-6-1.9-2.4 0-3.6 1.1-3.6 2.5v.1c0 1.9 1.2 2.5 6.1 3.7 5.8 1.5 9 3.6 9 8.5v.1c0 5.6-4.3 8.8-10.4 8.8-3.7-.1-7.5-1.3-10.7-3.5zm25.3-11.1c0-8.1 6.1-14.7 14.8-14.7 4.3 0 7.1 1.1 9.5 2.9.6.5 1.2 1.4 1.2 2.5 0 1.7-1.4 3-3.1 3-.9 0-1.4-.3-1.9-.6-1.7-1.3-3.6-2-5.8-2-4.8 0-8.2 4-8.2 8.8v.1c0 4.9 3.4 8.9 8.2 8.9 2.6 0 4.4-.8 6.2-2.2.5-.4 1.1-.7 1.9-.7 1.6 0 2.9 1.3 2.9 2.9 0 1-.5 1.7-1.1 2.2-2.6 2.2-5.6 3.6-10.1 3.6-8.3-.2-14.5-6.6-14.5-14.7zm31.2-11.4c0-1.7 1.4-3.1 3.1-3.1 1.7 0 3.1 1.4 3.1 3.1v8.3h11.5v-8.3c0-1.7 1.4-3.1 3.1-3.1s3.1 1.4 3.1 3.1v22.6c0 1.7-1.4 3.1-3.1 3.1s-3.1-1.4-3.1-3.1v-8.5h-11.5v8.5c0 1.7-1.4 3.1-3.1 3.1-1.7 0-3.1-1.4-3.1-3.1v-22.6zm29.5 11.4c0-8.1 6.4-14.7 15.1-14.7 8.8 0 15 6.5 15 14.6v.1c0 8.1-6.4 14.7-15.1 14.7-8.7-.2-15-6.7-15-14.7zm23.7 0c0-4.9-3.6-9-8.6-9s-8.5 4-8.5 8.8v.1c0 4.9 3.6 8.9 8.6 8.9s8.5-4 8.5-8.8zm10.8 0c0-8.1 6.4-14.7 15.1-14.7 8.8 0 15 6.5 15 14.6v.1c0 8.1-6.4 14.7-15.1 14.7-8.7-.2-15-6.7-15-14.7zm23.6 0c0-4.9-3.6-9-8.6-9s-8.5 4-8.5 8.8v.1c0 4.9 3.6 8.9 8.6 8.9s8.5-4 8.5-8.8zm12.1-11.4c0-1.7 1.4-3.1 3.1-3.1 1.7 0 3.1 1.4 3.1 3.1v19.8h11.5c1.6 0 2.8 1.3 2.8 2.8s-1.3 2.8-2.8 2.8h-14.7c-1.7 0-3.1-1.4-3.1-3.1v-22.3z" fill="#0E1131"/><path fill="#0E1131" d="M940 119h-404.3c-2.8 0-5.1-2.3-5.1-5.1s2.3-5.1 5.1-5.1h404.3c2.8 0 5.1 2.3 5.1 5.1s-2.3 5.1-5.1 5.1z"/><path fill="#0E1131" d="M241.2 146.9h-46.2c-2.8 0-5.1-2.3-5.1-5.1s2.3-5.1 5.1-5.1h46.2c2.8 0 5.1 2.3 5.1 5.1s-2.3 5.1-5.1 5.1z"/><path fill="#0E1131" d="M1275.6 146.9h-46.2c-2.8 0-5.1-2.3-5.1-5.1s2.3-5.1 5.1-5.1h46.2c2.8 0 5.1 2.3 5.1 5.1s-2.3 5.1-5.1 5.1z"/></svg>