<?xml version="1.0" encoding="UTF-8" standalone="no"?>
<svg
   xmlns:dc="http://purl.org/dc/elements/1.1/"
   xmlns:cc="http://creativecommons.org/ns#"
   xmlns:rdf="http://www.w3.org/1999/02/22-rdf-syntax-ns#"
   xmlns:svg="http://www.w3.org/2000/svg"
   xmlns="http://www.w3.org/2000/svg"
   width="32.541531mm"
   height="28.767139mm"
   viewBox="0 0 32.541531 28.767139"
   version="1.1"
   id="svg74">
  <defs
     id="defs68" />
  <metadata
     id="metadata71">
    <rdf:RDF>
      <cc:Work
         rdf:about="">
        <dc:format>image/svg+xml</dc:format>
        <dc:type
           rdf:resource="http://purl.org/dc/dcmitype/StillImage" />
        <dc:title></dc:title>
      </cc:Work>
    </rdf:RDF>
  </metadata>
  <g
     id="layer1"
     transform="translate(0.57882289,0.61143075)">
    <g
       id="g48"
       transform="matrix(0.35277777,0,0,-0.35277777,1.744111,18.463674)">
      <path
         d="m 0,0 13.37,-21.474 c 1.71,-2.595 5.448,-3.806 7.557,-2.827 2.11,0.978 3.332,3.939 1.69,8.042 L 16.204,3.926 c -2.976,7.744 -1.505,12.57 1.449,16.193 l 12.993,13.427 c 3.774,4.195 2.975,9.509 -1.606,13.087 0.039,0.024 0.079,0.048 0.108,0.084 1.928,2.394 7.421,1.515 8.78,-1.221 0.624,-1.257 2.696,-0.539 3.735,0.407 1.039,0.947 1.056,2.498 0.039,3.465 -1.953,1.856 -5.022,1.823 -7.705,1.818 C 32.23,51.183 23.512,51.171 21.398,51.133 17.789,51.067 13.929,48.919 11.784,45.217 L -0.051,25.958 C -2.526,21.951 -3.759,17.461 -3.75,12.972 -3.742,8.484 -2.491,3.998 0,0"
         style="fill:#ca2c29;fill-opacity:1;fill-rule:nonzero;stroke:none"
         id="path50" />
    </g>
    <g
       id="g52"
       transform="matrix(0.35277777,0,0,-0.35277777,29.639772,9.0806041)">
      <path
         d="m 0,0 -13.37,21.474 c -1.71,2.595 -5.448,3.806 -7.558,2.827 -2.109,-0.978 -3.331,-3.939 -1.689,-8.042 l 6.413,-20.185 c 2.976,-7.744 1.505,-12.57 -1.449,-16.193 l -12.993,-13.427 c -3.774,-4.195 -2.976,-9.509 1.606,-13.087 -0.039,-0.024 -0.079,-0.048 -0.108,-0.084 -1.928,-2.394 -7.421,-1.515 -8.78,1.221 -0.625,1.257 -2.696,0.539 -3.736,-0.407 -1.038,-0.947 -1.055,-2.498 -0.039,-3.465 1.954,-1.856 5.023,-1.823 7.706,-1.818 1.767,0.003 10.485,0.015 12.599,0.053 3.609,0.066 7.468,2.214 9.614,5.916 l 11.835,19.259 c 2.474,4.007 3.708,8.497 3.699,12.986 C 3.741,-8.484 2.491,-3.998 0,0"
         style="fill:#ca2c29;fill-opacity:1;fill-rule:nonzero;stroke:none"
         id="path54" />
    </g>
  </g>
</svg>
