<?xml version="1.0" encoding="utf-8"?>
<!-- Generator: Adobe Illustrator 21.1.0, SVG Export Plug-In . SVG Version: 6.00 Build 0)  -->
<svg version="1.1" id="Layer_1" xmlns="http://www.w3.org/2000/svg" xmlns:xlink="http://www.w3.org/1999/xlink" x="0px" y="0px"
	 viewBox="0 0 1248.1 328.9" style="enable-background:new 0 0 1248.1 328.9;" xml:space="preserve">
<title>SPACE4-LOGO</title>
<rect x="0" y="0" width="1222.3" height="28.5"/>
<rect x="26.5" y="300.4" width="1154.4" height="28.5"/>
<rect width="28.5" height="328.9"/>
<rect x="1193.8" y="0" width="28.5" height="150.2"/>
<path d="M96.5,196.7l26.2-6.7c1.9,18.3,14.9,26.4,30.5,26.4c15.7,0,24.2-8.3,24.2-18.7c0-30.5-71.1-20.3-71.1-68.1
	c0-26,21.1-40.6,45.9-40.6c18.1,0,34.6,7.9,44.7,25.8l-21.9,13.4c-5.1-10-13.8-15.7-23.7-15.7c-10.4,0-18.5,6.3-18.5,15.7
	c0,27.7,71.1,18.3,71.1,67.1c0,27.8-23,44.5-51.1,44.5C126.7,239.9,101.2,225.6,96.5,196.7z"/>
<path d="M314.1,91h46.1c29.9,0,51.9,15.7,51.9,43.5c0,27.5-21.9,42.5-51.9,42.5h-19.9v60.9h-26.2L314.1,91z M360.2,152.4
	c18.1,0,25.7-6.2,25.7-17.9c0-12-7.8-18.8-25.7-18.8h-19.9v36.7L360.2,152.4z"/>
<path d="M581.3,91h19.8l58.5,146.9h-28.5L619.8,206h-57.1l-11.4,31.9h-28.8L581.3,91z M610.8,183.4l-19.5-53.7l-19.7,53.7H610.8z"/>
<path d="M769.9,164.6c0-40.2,22.6-75.8,70.9-75.8c29.1,0,52.4,14.8,64.3,42.2l-24.6,9.8c-5.5-19.3-20.7-26.8-39.8-26.8
	c-31.1,0-44.5,22.4-44.5,49.6c0,29.2,13.4,51.6,44.9,51.6c18.9,0,31.9-7.5,39.8-27.2l24.4,10c-11.6,27.5-35,42.3-64.3,42.3
	C792.7,240.2,769.9,204.9,769.9,164.6z"/>
<path d="M1015.7,91h97.7v24.2h-71.3v37.1h66.4v24.2h-66.4V213h71.3v25h-97.7V91z"/>
<path d="M1191.5,289.4h-77.4v-17.5l79.7-111.3h28.4v101.3h25.9v27.5h-25.9v39.6h-30.7V289.4z M1191.5,261.9v-54.9l-39.1,54.9
	L1191.5,261.9z"/>
<path d="M1380.1,282.6h-77.4V265l79.7-111.3h28.4V255h25.9v27.5h-25.9v39.6h-30.7V282.6z M1380.1,255v-54.9L1341,255L1380.1,255z"/>
</svg>
