<?xml version="1.0" encoding="utf-8"?>
<!-- Generator: Adobe Illustrator 21.0.2, SVG Export Plug-In . SVG Version: 6.00 Build 0)  -->
<svg version="1.1" id="Layer_1" xmlns="http://www.w3.org/2000/svg" xmlns:xlink="http://www.w3.org/1999/xlink" x="0px" y="0px"
	 viewBox="0 0 83 96" style="enable-background:new 0 0 83 96;" xml:space="preserve">
<style type="text/css">
	.st0{fill:#1E1E1E;}
</style>
<path id="Path_804" class="st0" d="M30.8,38.3v13.6l11.8,6.8l10.8-6.2l-11.3-6.4c-0.5-0.3-0.6-0.9-0.3-1.4c0.3-0.5,0.9-0.6,1.4-0.4
	l11.3,6.4V38.3l-11.8-6.8L30.8,38.3z"/>
<path id="Path_805" class="st0" d="M36.9,27.6l-11.8-6.8L14.3,27l11.3,6.4c0.5,0.3,0.7,0.9,0.4,1.4c-0.2,0.3-0.5,0.5-0.9,0.5
	c-0.2,0-0.4,0-0.5-0.1l-11.3-6.4v12.5L25.1,48l3.7-2.1v-8.2c0-0.4,0.2-0.7,0.5-0.9l7.6-4.4L36.9,27.6z"/>
<path id="Path_806" class="st0" d="M48.5,27.6v4.9l7.5,4.3c0.3,0.2,0.5,0.5,0.5,0.9v8.1l3.8,2.2l10.8-6.2l-11.3-6.4
	c-0.5-0.3-0.6-0.9-0.3-1.4c0.3-0.5,0.9-0.6,1.4-0.4L72.1,40V27.6l-11.8-6.8L48.5,27.6z"/>
<path id="Path_807" class="st0" d="M38.9,27v4.3l3.2-1.8c0.3-0.2,0.7-0.2,1,0l3.3,1.9V27c0-0.4,0.2-0.7,0.5-0.9l7.5-4.3v-5.3
	L42.7,9.6l-10.8,6.2l11.3,6.4c0.5,0.3,0.7,0.9,0.4,1.4c-0.2,0.3-0.5,0.5-0.9,0.5c-0.2,0-0.4,0-0.5-0.1l-11.3-6.5v4.1l7.6,4.4
	C38.7,26.3,38.9,26.6,38.9,27z"/>
<path id="Path_808" class="st0" d="M18.6,73.6c-0.9-0.2-1.8-0.2-2.7,0c-1.3,0.2-2.2,1.3-2.2,2.5v4c0,1.3,1,2.4,2.3,2.6
	c0.9,0.2,1.8,0.2,2.7,0l0.3-0.1v0c1.1-0.3,1.9-1.3,2-2.4v-0.4h-1.6v0.4c0,0.6-0.7,0.9-1,1l-0.1,0c-0.6,0.2-1.2,0.2-1.9,0
	c-0.5-0.1-1.1-0.4-1.1-1v-3.9c0-0.6,0.7-0.9,1.1-1c0.6-0.2,1.3-0.2,1.9,0c0.4,0.1,1.1,0.4,1.1,1v0.4h1.6v-0.4
	C20.8,74.9,19.9,73.8,18.6,73.6z"/>
<path id="Path_809" class="st0" d="M33.4,79.9c0,1.8-4,1.7-4,0.1v-6.5h-1.6v6.5c0,1.9,1.8,2.8,3.6,2.8c0.7,0,1.4-0.2,2-0.5v0.4H35
	v-9.2h-1.6L33.4,79.9z"/>
<path id="Path_810" class="st0" d="M47.1,73.9c-1.2-0.4-2.5-0.4-3.6,0.2v-4.3h-1.6v12.9h1.6v-0.5c0.7,0.4,1.5,0.6,2.3,0.6
	c0.4,0,0.8,0,1.2-0.1c1.3-0.2,2.2-1.2,2.3-2.5v-3.8C49.1,75.2,48.3,74.2,47.1,73.9z M43.5,76.3c0-0.7,1-1.1,2-1.1
	c0.5,0,1,0.1,1.4,0.3c0.3,0.2,0.5,0.5,0.5,0.9v3.9c0,0.6-0.7,0.9-1.1,1c-0.3,0.1-0.6,0.1-0.9,0.1c-0.7,0-2-0.3-2-1.5L43.5,76.3
	L43.5,76.3z"/>
<g>
	<rect id="Rectangle_1109" x="56" y="69.9" class="st0" width="1.7" height="2.3"/>
	<rect id="Rectangle_1110" x="56.1" y="73.5" class="st0" width="1.6" height="9.2"/>
</g>
<path id="Path_811" class="st0" d="M72,74.1v-0.5h-1.7l-4,3.7v-7.4h-1.6v12.9h1.6v-3c0-0.2,0-0.4,0.2-0.6c0.8-0.7,1.9-0.8,2.9-0.5
	c0.4,0.1,0.9,0.4,0.9,1v3h1.6v-3.1c0-0.7-0.4-1.4-0.9-1.8c-0.6-0.5-1.4-0.7-2.2-0.8l3.1-2.9L72,74.1z M70.6,79.7L70.6,79.7
	L70.6,79.7l-0.4,0L70.6,79.7z"/>
</svg>
