<?xml version="1.0" encoding="UTF-8" standalone="no"?>
<svg width="980px" height="150px" viewBox="0 0 980 150" version="1.1" xmlns="http://www.w3.org/2000/svg" xmlns:xlink="http://www.w3.org/1999/xlink">
    <defs></defs>
    <g stroke="none" stroke-width="1" fill="none" fill-rule="evenodd">
        <g transform="translate(-1.000000, -1.000000)" fill="#47848F">
            <g transform="translate(204.000000, 36.000000)">
                <path d="M3.34,85 L57.266,85 C58.8,85 60.098,83.702 60.098,82.168 C60.098,80.634 58.8,79.336 57.266,79.336 L6.408,79.336 L6.408,46.178 L51.366,46.178 C52.9,46.178 54.198,44.88 54.198,43.346 C54.198,41.812 52.9,40.514 51.366,40.514 L6.408,40.514 L6.408,8.064 L56.676,8.064 C58.21,8.064 59.508,6.766 59.508,5.232 C59.508,3.698 58.21,2.4 56.676,2.4 L3.34,2.4 C1.688,2.4 0.272,3.816 0.272,5.468 L0.272,81.932 C0.272,83.584 1.688,85 3.34,85 L3.34,85 Z M97.5377076,81.932 C97.5377076,83.584 98.9537076,85 100.605708,85 L149.811708,85 C151.345708,85 152.643708,83.702 152.643708,82.168 C152.643708,80.634 151.345708,79.336 149.811708,79.336 L103.673708,79.336 L103.673708,4.996 C103.673708,3.344 102.257708,1.928 100.605708,1.928 C98.9537076,1.928 97.5377076,3.344 97.5377076,4.996 L97.5377076,81.932 Z M191.853415,85 L245.779415,85 C247.313415,85 248.611415,83.702 248.611415,82.168 C248.611415,80.634 247.313415,79.336 245.779415,79.336 L194.921415,79.336 L194.921415,46.178 L239.879415,46.178 C241.413415,46.178 242.711415,44.88 242.711415,43.346 C242.711415,41.812 241.413415,40.514 239.879415,40.514 L194.921415,40.514 L194.921415,8.064 L245.189415,8.064 C246.723415,8.064 248.021415,6.766 248.021415,5.232 C248.021415,3.698 246.723415,2.4 245.189415,2.4 L191.853415,2.4 C190.201415,2.4 188.785415,3.816 188.785415,5.468 L188.785415,81.932 C188.785415,83.584 190.201415,85 191.853415,85 L191.853415,85 Z M323.457123,86.416 C337.263123,86.416 346.349123,81.342 354.727123,73.554 C355.199123,73.082 355.671123,72.374 355.671123,71.43 C355.671123,69.896 354.255123,68.48 352.721123,68.48 C351.777123,68.48 351.069123,68.952 350.597123,69.424 C342.809123,76.858 334.903123,80.87 323.693123,80.87 C303.987123,80.87 288.765123,64.586 288.765123,43.7 L288.765123,43.464 C288.765123,22.696 303.751123,6.53 323.575123,6.53 C335.139123,6.53 343.045123,11.014 349.889123,17.268 C350.361123,17.74 351.187123,18.094 352.013123,18.094 C353.665123,18.094 355.199123,16.678 355.199123,15.026 C355.199123,13.964 354.609123,13.138 354.019123,12.548 C345.995123,5.704 337.381123,0.984 323.693123,0.984 C299.857123,0.984 282.393123,20.336 282.393123,43.7 L282.393123,43.936 C282.393123,67.654 299.857123,86.416 323.457123,86.416 L323.457123,86.416 Z M414.23283,82.404 C414.23283,84.056 415.64883,85.472 417.30083,85.472 C418.95283,85.472 420.36883,84.056 420.36883,82.404 L420.36883,8.064 L446.80083,8.064 C448.33483,8.064 449.63283,6.766 449.63283,5.232 C449.63283,3.698 448.33483,2.4 446.80083,2.4 L387.80083,2.4 C386.26683,2.4 384.96883,3.698 384.96883,5.232 C384.96883,6.766 386.26683,8.064 387.80083,8.064 L414.23283,8.064 L414.23283,82.404 Z M486.010538,82.404 C486.010538,84.056 487.426538,85.472 489.078538,85.472 C490.730538,85.472 492.146538,84.056 492.146538,82.404 L492.146538,50.78 L519.168538,50.78 L544.538538,83.82 C545.246538,84.764 546.072538,85.472 547.252538,85.472 C548.904538,85.472 550.438538,83.938 550.438538,82.286 C550.438538,81.578 550.084538,80.87 549.494538,80.162 L526.012538,49.718 C539.936538,47.83 550.202538,39.924 550.202538,26.118 L550.202538,25.882 C550.202538,19.982 547.842538,14.436 543.948538,10.542 C538.992538,5.586 530.850538,2.4 520.702538,2.4 L489.078538,2.4 C487.426538,2.4 486.010538,3.816 486.010538,5.468 L486.010538,82.404 Z M492.146538,45.234 L492.146538,8.064 L520.348538,8.064 C535.334538,8.064 544.066538,15.026 544.066538,26.118 L544.066538,26.354 C544.066538,38.272 533.800538,45.234 519.994538,45.234 L492.146538,45.234 Z M627.290245,86.416 C652.306245,86.416 668.944245,66.238 668.944245,43.7 L668.944245,43.464 C668.944245,20.926 652.542245,0.984 627.526245,0.984 C602.510245,0.984 585.872245,21.162 585.872245,43.7 L585.872245,43.936 C585.872245,66.474 602.274245,86.416 627.290245,86.416 L627.290245,86.416 Z M627.526245,80.87 C607.112245,80.87 592.244245,64.114 592.244245,43.7 L592.244245,43.464 C592.244245,23.05 606.876245,6.53 627.290245,6.53 C647.704245,6.53 662.572245,23.286 662.572245,43.7 L662.572245,43.936 C662.572245,64.35 647.940245,80.87 627.526245,80.87 L627.526245,80.87 Z M708.035953,82.522 C708.035953,84.174 709.333953,85.472 710.985953,85.472 C712.637953,85.472 713.935953,84.174 713.935953,82.522 L713.935953,11.368 L770.693953,83.348 C771.637953,84.528 772.581953,85.354 773.761953,85.354 L774.233953,85.354 C775.649953,85.354 776.711953,84.174 776.711953,82.758 L776.711953,4.878 C776.711953,3.226 775.413953,1.928 773.761953,1.928 C772.109953,1.928 770.811953,3.226 770.811953,4.878 L770.811953,74.498 L715.115953,3.816 C714.289953,2.754 713.345953,2.046 712.047953,2.046 L711.103953,2.046 C709.451953,2.046 708.035953,3.462 708.035953,5.114 L708.035953,82.522 Z"></path>
            </g>
            <g transform="translate(0.699997, 0.400002)">
                <path d="M49.1266117,32.7678207 C29.6225024,29.215471 14.2013759,32.9334829 8.05524688,43.5788906 C3.46886775,51.5227323 4.77984702,62.0549428 11.2346334,73.313229 C11.784031,74.2714753 13.0062179,74.6029127 13.9644642,74.0535151 C14.9227105,73.5041175 15.2541479,72.2819306 14.7047503,71.3236842 C8.89020489,61.1820912 7.75877926,52.0923876 11.5193485,45.5788906 C16.6249641,36.7357049 30.3803417,33.4193028 48.4098692,36.7030819 C49.4965616,36.9010048 50.5379481,36.1805149 50.735871,35.0938225 C50.933794,34.0071302 50.2133041,32.9657437 49.1266117,32.7678207 L49.1266117,32.7678207 Z M21.3774192,86.9975982 C29.2637932,95.6641388 39.5095099,103.792918 51.1941736,110.539062 C79.4867375,126.873781 109.60617,131.239854 124.450276,121.118296 C125.362885,120.496027 125.598252,119.251763 124.975984,118.339154 C124.353715,117.426545 123.10945,117.191177 122.196841,117.813446 C108.911542,126.872121 80.3002617,122.724668 53.1941736,107.07496 C41.8587362,100.530443 31.9375168,92.6591138 24.3358707,84.3054681 C23.5924595,83.4885142 22.3275337,83.4288961 21.5105799,84.1723074 C20.6936261,84.9157186 20.634008,86.1806443 21.3774192,86.9975982 L21.3774192,86.9975982 Z"></path>
                <path d="M119.715028,84.5645564 C132.485847,69.4778279 136.944975,54.3039723 130.811502,43.6804851 C126.298377,35.8635227 116.757502,31.7364946 104.07783,31.5715943 C102.973354,31.5572305 102.066355,32.4409411 102.051991,33.5454172 C102.037627,34.6498933 102.921338,35.5568923 104.025814,35.5712561 C115.42958,35.7195631 123.64924,39.2750828 127.3474,45.6804851 C132.441983,54.504561 128.465433,68.0362633 116.661994,81.980183 C115.948339,82.823255 116.053252,84.0852315 116.896324,84.7988865 C117.739396,85.5125415 119.001373,85.4076283 119.715028,84.5645564 L119.715028,84.5645564 Z M86.8941729,33.4337961 C75.3472476,35.9077753 63.0565872,40.7449031 51.2528293,47.5598059 C22.0460997,64.4223191 2.99388753,89.2866992 5.63992146,107.315628 C5.80031644,108.40849 6.81628192,109.164404 7.90914387,109.004009 C9.00200581,108.843614 9.75791963,107.827648 9.59752465,106.734786 C7.24812559,90.7269991 25.3077559,67.1580032 53.2528293,51.0239075 C64.7034124,44.4129103 76.6040539,39.7292788 87.732172,37.3450308 C88.8122297,37.1136238 89.5001969,36.0504715 89.2687899,34.9704139 C89.0373828,33.8903562 87.9742306,33.202389 86.8941729,33.4337961 L86.8941729,33.4337961 Z"></path>
                <path d="M39.5781566,119.814969 C46.2553365,138.460057 57.1791975,149.939723 69.4627023,149.939723 C78.4212923,149.939723 86.7097444,143.832927 93.173031,133.08146 C93.7421303,132.134782 93.4360422,130.906001 92.4893639,130.336902 C91.5426857,129.767803 90.3139052,130.073891 89.7448058,131.020569 C83.9362601,140.682896 76.8014285,145.939723 69.4627023,145.939723 C59.2591023,145.939723 49.5159822,135.700874 43.3439572,118.46636 C42.9715492,117.426463 41.8266497,116.885356 40.7867525,117.257764 C39.7468554,117.630172 39.2057486,118.775072 39.5781566,119.814969 L39.5781566,119.814969 Z M100.569304,116.167782 C104.025952,105.121643 105.882448,92.3789056 105.882448,79.1002312 C105.882448,45.9661542 94.2856748,17.4033342 77.7676045,10.0688089 C76.758081,9.62054985 75.5763148,10.0755445 75.1280557,11.0850679 C74.6797966,12.0945914 75.1347913,13.2763576 76.1443147,13.7246167 C90.8764366,20.2661265 101.882448,47.373902 101.882448,79.1002312 C101.882448,91.9827075 100.084575,104.323064 96.7518499,114.973193 C96.4219733,116.027354 97.0091217,117.149338 98.0632826,117.479214 C99.1174435,117.809091 100.239428,117.221943 100.569304,116.167782 L100.569304,116.167782 Z"></path>
                <path d="M138.23701,114.208372 C138.23701,108.921713 133.951325,104.636028 128.664666,104.636028 C123.378006,104.636028 119.092321,108.921713 119.092321,114.208372 C119.092321,119.495032 123.378006,123.780716 128.664666,123.780716 C133.951325,123.780716 138.23701,119.495032 138.23701,114.208372 L138.23701,114.208372 Z M134.23701,114.208372 C134.23701,117.285893 131.742186,119.780716 128.664666,119.780716 C125.587145,119.780716 123.092321,117.285893 123.092321,114.208372 C123.092321,111.130852 125.587145,108.636028 128.664666,108.636028 C131.742186,108.636028 134.23701,111.130852 134.23701,114.208372 L134.23701,114.208372 Z"></path>
                <path d="M10.1230622,123.780716 C15.4097219,123.780716 19.6954063,119.495032 19.6954063,114.208372 C19.6954063,108.921713 15.4097219,104.636028 10.1230622,104.636028 C4.83640249,104.636028 0.550718038,108.921713 0.550718038,114.208372 C0.550718038,119.495032 4.83640249,123.780716 10.1230622,123.780716 L10.1230622,123.780716 Z M10.1230622,119.780716 C7.04554149,119.780716 4.55071804,117.285893 4.55071804,114.208372 C4.55071804,111.130852 7.04554149,108.636028 10.1230622,108.636028 C13.2005829,108.636028 15.6954063,111.130852 15.6954063,114.208372 C15.6954063,117.285893 13.2005829,119.780716 10.1230622,119.780716 L10.1230622,119.780716 Z"></path>
                <path d="M69.4627023,19.8330832 C74.749362,19.8330832 79.0350464,15.5473987 79.0350464,10.2607391 C79.0350464,4.97407937 74.749362,0.688394921 69.4627023,0.688394921 C64.1760426,0.688394921 59.8903582,4.97407937 59.8903582,10.2607391 C59.8903582,15.5473987 64.1760426,19.8330832 69.4627023,19.8330832 L69.4627023,19.8330832 Z M69.4627023,15.8330832 C66.3851816,15.8330832 63.8903582,13.3382597 63.8903582,10.2607391 C63.8903582,7.18321837 66.3851816,4.68839492 69.4627023,4.68839492 C72.540223,4.68839492 75.0350464,7.18321837 75.0350464,10.2607391 C75.0350464,13.3382597 72.540223,15.8330832 69.4627023,15.8330832 L69.4627023,15.8330832 Z"></path>
                <path d="M70.9248064,85.8696781 C67.1859596,86.677522 63.5024446,84.3014176 62.6930199,80.5625709 C61.8867569,76.8237241 64.2612803,73.1402091 68.0001271,72.3307843 C71.7389739,71.5229405 75.4224889,73.8990448 76.2319137,77.6378916 C77.0397575,81.3767383 74.6636532,85.0602533 70.9248064,85.8696781 Z"></path>
            </g>
        </g>
    </g>
</svg>