<?xml version="1.0" encoding="UTF-8" standalone="no"?>
<!DOCTYPE svg PUBLIC "-//W3C//DTD SVG 1.1//EN"
 "http://www.w3.org/Graphics/SVG/1.1/DTD/svg11.dtd">
<!-- Generated by graphviz version 2.26.3 (20100126.1600)
 -->
<!-- Title: blockchain Pages: 1 -->
<svg width="450pt" height="107pt"
 viewBox="0.00 0.00 450.00 106.90" xmlns="http://www.w3.org/2000/svg" xmlns:xlink="http://www.w3.org/1999/xlink">
<g id="graph1" class="graph" transform="scale(0.722311 0.722311) rotate(0) translate(4 144)">
<title>blockchain</title>
<polygon fill="white" stroke="white" points="-4,5 -4,-144 620,-144 620,5 -4,5"/>
<text text-anchor="middle" x="307.5" y="-8.4" font-family="Sans" font-size="14.00">Creating A P2PKH Public Key Hash To Receive Payment</text>
<g id="graph2" class="cluster"><title>cluster_bob</title>
<polygon fill="none" stroke="black" stroke-width="1.75" points="8,-41 8,-124 334,-124 334,-41 8,-41"/>
<text text-anchor="middle" x="171" y="-107.4" font-family="Sans" font-size="14.00">Bob&#39;s Computer</text>
</g>
<g id="graph3" class="cluster"><title>cluster_alice</title>
<polygon fill="none" stroke="black" stroke-width="1.75" points="354,-33 354,-132 485,-132 485,-33 354,-33"/>
<text text-anchor="middle" x="419.5" y="-115.4" font-family="Sans" font-size="14.00">Alice&#39;s Computer</text>
</g>
<g id="graph4" class="cluster"><title>cluster_tx1</title>
<polygon fill="none" stroke="black" stroke-width="1.75" points="505,-33 505,-132 607,-132 607,-33 505,-33"/>
<text text-anchor="middle" x="556" y="-115.4" font-family="Sans" font-size="14.00">TX 1</text>
</g>
<!-- private_key -->
<g id="node2" class="node"><title>private_key</title>
<polygon fill="none" stroke="black" stroke-width="1.75" points="82,-91 16,-91 16,-49 82,-49 82,-91"/>
<text text-anchor="middle" x="49" y="-74.4" font-family="Sans" font-size="14.00">Private</text>
<text text-anchor="middle" x="49" y="-57.4" font-family="Sans" font-size="14.00">Key</text>
</g>
<!-- full_public_key -->
<g id="node3" class="node"><title>full_public_key</title>
<polygon fill="none" stroke="black" stroke-width="1.75" points="204,-91 118,-91 118,-49 204,-49 204,-91"/>
<text text-anchor="middle" x="161" y="-74.4" font-family="Sans" font-size="14.00">Full</text>
<text text-anchor="middle" x="161" y="-57.4" font-family="Sans" font-size="14.00">Public Key</text>
</g>
<!-- private_key&#45;&gt;full_public_key -->
<g id="edge5" class="edge"><title>private_key&#45;&gt;full_public_key</title>
<path fill="none" stroke="black" stroke-width="1.75" d="M82.3005,-70C90.272,-70 98.9822,-70 107.61,-70"/>
<polygon fill="black" stroke="black" points="107.65,-73.5001 117.65,-70 107.65,-66.5001 107.65,-73.5001"/>
</g>
<!-- pubkey_hash -->
<g id="node4" class="node"><title>pubkey_hash</title>
<polygon fill="none" stroke="black" stroke-width="1.75" points="326,-91 240,-91 240,-49 326,-49 326,-91"/>
<text text-anchor="middle" x="283" y="-74.4" font-family="Sans" font-size="14.00">Public Key</text>
<text text-anchor="middle" x="283" y="-57.4" font-family="Sans" font-size="14.00">Hash</text>
</g>
<!-- full_public_key&#45;&gt;pubkey_hash -->
<g id="edge6" class="edge"><title>full_public_key&#45;&gt;pubkey_hash</title>
<path fill="none" stroke="black" stroke-width="1.75" d="M204.013,-70C212.395,-70 221.275,-70 229.938,-70"/>
<polygon fill="black" stroke="black" points="229.965,-73.5001 239.965,-70 229.965,-66.5001 229.965,-73.5001"/>
</g>
<!-- spender_pubkey_hash -->
<g id="node6" class="node"><title>spender_pubkey_hash</title>
<polygon fill="none" stroke="black" stroke-width="1.75" points="462,-99.5 376,-99.5 376,-40.5 462,-40.5 462,-99.5"/>
<text text-anchor="middle" x="419" y="-82.9" font-family="Sans" font-size="14.00">Copy Of</text>
<text text-anchor="middle" x="419" y="-65.9" font-family="Sans" font-size="14.00">Public Key</text>
<text text-anchor="middle" x="419" y="-48.9" font-family="Sans" font-size="14.00">Hash</text>
</g>
<!-- pubkey_hash&#45;&gt;spender_pubkey_hash -->
<g id="edge7" class="edge"><title>pubkey_hash&#45;&gt;spender_pubkey_hash</title>
<path fill="none" stroke="black" stroke-width="1.75" d="M326.031,-70C338.558,-70 352.397,-70 365.486,-70"/>
<polygon fill="black" stroke="black" points="365.782,-73.5001 375.782,-70 365.782,-66.5001 365.782,-73.5001"/>
</g>
<!-- tx1_pubkey_hash -->
<g id="node8" class="node"><title>tx1_pubkey_hash</title>
<polygon fill="none" stroke="black" stroke-width="1.75" points="599,-99.5 513,-99.5 513,-40.5 599,-40.5 599,-99.5"/>
<text text-anchor="middle" x="556" y="-82.9" font-family="Sans" font-size="14.00">Copy Of</text>
<text text-anchor="middle" x="556" y="-65.9" font-family="Sans" font-size="14.00">Public Key</text>
<text text-anchor="middle" x="556" y="-48.9" font-family="Sans" font-size="14.00">Hash</text>
</g>
<!-- spender_pubkey_hash&#45;&gt;tx1_pubkey_hash -->
<g id="edge8" class="edge"><title>spender_pubkey_hash&#45;&gt;tx1_pubkey_hash</title>
<path fill="none" stroke="black" stroke-width="1.75" d="M462.348,-70C475.216,-70 489.46,-70 502.874,-70"/>
<polygon fill="black" stroke="black" points="502.934,-73.5001 512.934,-70 502.934,-66.5001 502.934,-73.5001"/>
</g>
</g>
</svg>
