<?xml version="1.0" encoding="UTF-8" standalone="no"?>
<!DOCTYPE svg PUBLIC "-//W3C//DTD SVG 1.1//EN"
 "http://www.w3.org/Graphics/SVG/1.1/DTD/svg11.dtd">
<!-- Generated by graphviz version 2.26.3 (20100126.1600)
 -->
<!-- Title: blockchain Pages: 1 -->
<svg width="450pt" height="104pt"
 viewBox="0.00 0.00 450.00 103.90" xmlns="http://www.w3.org/2000/svg" xmlns:xlink="http://www.w3.org/1999/xlink">
<g id="graph1" class="graph" transform="scale(0.702028 0.702028) rotate(0) translate(4 144)">
<title>blockchain</title>
<polygon fill="white" stroke="white" points="-4,5 -4,-144 638,-144 638,5 -4,5"/>
<text text-anchor="middle" x="316.5" y="-8.4" font-family="Times Roman,serif" font-size="14.00">Creating A P2SH Redeem Script Hash To Receive Payment</text>
<g id="graph2" class="cluster"><title>cluster_bob</title>
<polygon fill="none" stroke="black" stroke-width="1.75" points="8,-41 8,-124 390,-124 390,-41 8,-41"/>
<text text-anchor="middle" x="199" y="-107.4" font-family="Times Roman,serif" font-size="14.00">Bob&#39;s Computer</text>
</g>
<g id="graph3" class="cluster"><title>cluster_alice</title>
<polygon fill="none" stroke="black" stroke-width="1.75" points="398,-33 398,-132 529,-132 529,-33 398,-33"/>
<text text-anchor="middle" x="463.5" y="-115.4" font-family="Times Roman,serif" font-size="14.00">Alice&#39;s Computer</text>
</g>
<g id="graph4" class="cluster"><title>cluster_tx1</title>
<polygon fill="none" stroke="black" stroke-width="1.75" points="537,-33 537,-132 625,-132 625,-33 537,-33"/>
<text text-anchor="middle" x="581" y="-115.4" font-family="Times Roman,serif" font-size="14.00">TX 1</text>
</g>
<!-- private_key -->
<g id="node2" class="node"><title>private_key</title>
<polygon fill="none" stroke="black" stroke-width="1.75" points="82,-91 16,-91 16,-49 82,-49 82,-91"/>
<text text-anchor="middle" x="49" y="-74.4" font-family="Times Roman,serif" font-size="14.00">Private</text>
<text text-anchor="middle" x="49" y="-57.4" font-family="Times Roman,serif" font-size="14.00">Key</text>
</g>
<!-- full_public_key -->
<g id="node3" class="node"><title>full_public_key</title>
<polygon fill="none" stroke="black" stroke-width="1.75" points="182,-91 96,-91 96,-49 182,-49 182,-91"/>
<text text-anchor="middle" x="139" y="-74.4" font-family="Times Roman,serif" font-size="14.00">Full</text>
<text text-anchor="middle" x="139" y="-57.4" font-family="Times Roman,serif" font-size="14.00">Public Key</text>
</g>
<!-- private_key&#45;&gt;full_public_key -->
<g id="edge5" class="edge"><title>private_key&#45;&gt;full_public_key</title>
<path fill="none" stroke="black" stroke-width="1.75" d="M82.0016,-70C83.2715,-70 84.5551,-70 85.848,-70"/>
<polygon fill="black" stroke="black" points="85.8679,-73.5001 95.8679,-70 85.8679,-66.5001 85.8679,-73.5001"/>
</g>
<!-- redeemScript -->
<g id="node4" class="node"><title>redeemScript</title>
<polygon fill="none" stroke="black" stroke-width="1.75" points="312,-88 196,-88 196,-52 312,-52 312,-88"/>
<text text-anchor="middle" x="254" y="-65.9" font-family="Times Roman,serif" font-size="14.00">Redeem Script</text>
</g>
<!-- full_public_key&#45;&gt;redeemScript -->
<g id="edge6" class="edge"><title>full_public_key&#45;&gt;redeemScript</title>
<path fill="none" stroke="black" stroke-width="1.75" d="M182.149,-70C183.264,-70 184.387,-70 185.516,-70"/>
<polygon fill="black" stroke="black" points="185.785,-73.5001 195.785,-70 185.785,-66.5001 185.785,-73.5001"/>
</g>
<!-- script_hash -->
<g id="node5" class="node"><title>script_hash</title>
<polygon fill="none" stroke="black" stroke-width="1.75" points="382,-91 326,-91 326,-49 382,-49 382,-91"/>
<text text-anchor="middle" x="354" y="-74.4" font-family="Times Roman,serif" font-size="14.00">Script</text>
<text text-anchor="middle" x="354" y="-57.4" font-family="Times Roman,serif" font-size="14.00">Hash</text>
</g>
<!-- redeemScript&#45;&gt;script_hash -->
<g id="edge7" class="edge"><title>redeemScript&#45;&gt;script_hash</title>
<path fill="none" stroke="black" stroke-width="1.75" d="M312.17,-70C313.331,-70 314.485,-70 315.63,-70"/>
<polygon fill="black" stroke="black" points="315.637,-73.5001 325.637,-70 315.637,-66.5001 315.637,-73.5001"/>
</g>
<!-- spender_script_hash -->
<g id="node7" class="node"><title>spender_script_hash</title>
<polygon fill="none" stroke="black" stroke-width="1.75" points="498,-99.5 428,-99.5 428,-40.5 498,-40.5 498,-99.5"/>
<text text-anchor="middle" x="463" y="-82.9" font-family="Times Roman,serif" font-size="14.00">Copy Of</text>
<text text-anchor="middle" x="463" y="-65.9" font-family="Times Roman,serif" font-size="14.00">Script</text>
<text text-anchor="middle" x="463" y="-48.9" font-family="Times Roman,serif" font-size="14.00">Hash</text>
</g>
<!-- script_hash&#45;&gt;spender_script_hash -->
<g id="edge8" class="edge"><title>script_hash&#45;&gt;spender_script_hash</title>
<path fill="none" stroke="black" stroke-width="1.75" d="M382.07,-70C392.706,-70 405.113,-70 416.972,-70"/>
<polygon fill="black" stroke="black" points="417.194,-73.5001 427.194,-70 417.194,-66.5001 417.194,-73.5001"/>
</g>
<!-- tx1_script_hash -->
<g id="node9" class="node"><title>tx1_script_hash</title>
<polygon fill="none" stroke="black" stroke-width="1.75" points="616,-99.5 546,-99.5 546,-40.5 616,-40.5 616,-99.5"/>
<text text-anchor="middle" x="581" y="-82.9" font-family="Times Roman,serif" font-size="14.00">Copy Of</text>
<text text-anchor="middle" x="581" y="-65.9" font-family="Times Roman,serif" font-size="14.00">Script</text>
<text text-anchor="middle" x="581" y="-48.9" font-family="Times Roman,serif" font-size="14.00">Hash</text>
</g>
<!-- spender_script_hash&#45;&gt;tx1_script_hash -->
<g id="edge9" class="edge"><title>spender_script_hash&#45;&gt;tx1_script_hash</title>
<path fill="none" stroke="black" stroke-width="1.75" d="M498.724,-70C510.161,-70 522.988,-70 535.05,-70"/>
<polygon fill="black" stroke="black" points="535.397,-73.5001 545.397,-70 535.397,-66.5001 535.397,-73.5001"/>
</g>
</g>
</svg>
