<?xml version="1.0" encoding="UTF-8" standalone="no"?>
<!DOCTYPE svg PUBLIC "-//W3C//DTD SVG 1.1//EN"
 "http://www.w3.org/Graphics/SVG/1.1/DTD/svg11.dtd">
<!-- Generated by graphviz version 2.26.3 (20100126.1600)
 -->
<!-- Title: blockchain Pages: 1 -->
<svg width="450pt" height="239pt"
 viewBox="0.00 0.00 450.00 238.71" xmlns="http://www.w3.org/2000/svg" xmlns:xlink="http://www.w3.org/1999/xlink">
<g id="graph1" class="graph" transform="scale(0.806452 0.806452) rotate(0) translate(4 292)">
<title>blockchain</title>
<polygon fill="white" stroke="white" points="-4,5 -4,-292 555,-292 555,5 -4,5"/>
<text text-anchor="middle" x="275" y="-25.4" font-family="Sans" font-size="14.00"> </text>
<text text-anchor="middle" x="275" y="-8.4" font-family="Sans" font-size="14.00">Spending A P2PKH Output</text>
<g id="graph2" class="cluster"><title>cluster_tx2</title>
<polygon fill="none" stroke="black" stroke-width="1.75" points="208,-50 208,-280 352,-280 352,-50 208,-50"/>
</g>
<g id="graph3" class="cluster"><title>cluster_tx1</title>
<polygon fill="none" stroke="black" stroke-width="1.75" points="8,-50 8,-127 150,-127 150,-50 8,-50"/>
<text text-anchor="middle" x="79" y="-110.4" font-family="Sans" font-size="14.00">TX 1 Output</text>
</g>
<g id="graph4" class="cluster"><title>cluster_bob</title>
<polygon fill="none" stroke="black" stroke-width="1.75" points="410,-142 410,-262 542,-262 542,-142 410,-142"/>
<text text-anchor="middle" x="476" y="-245.4" font-family="Sans" font-size="14.00">Bob&#39;s Computer</text>
</g>
<!-- scriptSig -->
<g id="node2" class="node"><title>scriptSig</title>
<text text-anchor="middle" x="280" y="-249.9" font-family="Sans" font-size="14.00">Signature Script</text>
</g>
<!-- tx2_signature -->
<g id="node3" class="node"><title>tx2_signature</title>
<polygon fill="none" stroke="black" stroke-width="1.75" points="322,-229 238,-229 238,-193 322,-193 322,-229"/>
<text text-anchor="middle" x="280" y="-206.9" font-family="Sans" font-size="14.00">Signature</text>
</g>
<!-- private_key -->
<g id="node10" class="node"><title>private_key</title>
<polygon fill="none" stroke="black" stroke-width="1.75" points="523,-229 429,-229 429,-193 523,-193 523,-229"/>
<text text-anchor="middle" x="476" y="-206.9" font-family="Sans" font-size="14.00">Private Key</text>
</g>
<!-- tx2_signature&#45;&gt;private_key -->
<g id="edge10" class="edge"><title>tx2_signature&#45;&gt;private_key</title>
<path fill="none" stroke="black" stroke-width="1.75" stroke-dasharray="5,2" d="M332.259,-211C362.059,-211 399.134,-211 428.166,-211"/>
<polygon fill="black" stroke="black" points="332.047,-207.5 322.047,-211 332.047,-214.5 332.047,-207.5"/>
</g>
<!-- tx2_full_public_key -->
<g id="node4" class="node"><title>tx2_full_public_key</title>
<polygon fill="none" stroke="black" stroke-width="1.75" points="337,-186 223,-186 223,-150 337,-150 337,-186"/>
<text text-anchor="middle" x="280" y="-163.9" font-family="Sans" font-size="14.00">Full Public Key</text>
</g>
<!-- full_public_key -->
<g id="node11" class="node"><title>full_public_key</title>
<polygon fill="none" stroke="black" stroke-width="1.75" points="533,-186 419,-186 419,-150 533,-150 533,-186"/>
<text text-anchor="middle" x="476" y="-163.9" font-family="Sans" font-size="14.00">Full Public Key</text>
</g>
<!-- tx2_full_public_key&#45;&gt;full_public_key -->
<g id="edge8" class="edge"><title>tx2_full_public_key&#45;&gt;full_public_key</title>
<path fill="none" stroke="black" stroke-width="1.75" d="M347.771,-168C370.757,-168 396.203,-168 418.328,-168"/>
<polygon fill="black" stroke="black" points="347.746,-164.5 337.746,-168 347.746,-171.5 347.746,-164.5"/>
</g>
<!-- script -->
<g id="node5" class="node"><title>script</title>
<text text-anchor="middle" x="280" y="-126.4" font-family="Sans" font-size="14.00"> </text>
<text text-anchor="middle" x="280" y="-109.4" font-family="Sans" font-size="14.00">Pubkey Script</text>
</g>
<!-- tx2_pubkey_hash -->
<g id="node6" class="node"><title>tx2_pubkey_hash</title>
<polygon fill="none" stroke="black" stroke-width="1.75" points="342,-94 218,-94 218,-58 342,-58 342,-94"/>
<text text-anchor="middle" x="280" y="-71.9" font-family="Sans" font-size="14.00">Public Key Hash</text>
</g>
<!-- tx1_pubkey_hash -->
<g id="node8" class="node"><title>tx1_pubkey_hash</title>
<polygon fill="none" stroke="black" stroke-width="1.75" points="141,-94 17,-94 17,-58 141,-58 141,-94"/>
<text text-anchor="middle" x="79" y="-71.9" font-family="Sans" font-size="14.00">Public Key Hash</text>
</g>
<!-- tx1_pubkey_hash&#45;&gt;tx2_pubkey_hash -->
<g id="edge5" class="edge"><title>tx1_pubkey_hash&#45;&gt;tx2_pubkey_hash</title>
<path fill="none" stroke="black" stroke-width="1.75" d="M141.771,-76C162.554,-76 185.854,-76 207.318,-76"/>
<polygon fill="black" stroke="black" points="207.36,-79.5001 217.36,-76 207.36,-72.5001 207.36,-79.5001"/>
</g>
</g>
</svg>
