<?xml version="1.0" encoding="UTF-8" standalone="no"?>
<!DOCTYPE svg PUBLIC "-//W3C//DTD SVG 1.1//EN"
 "http://www.w3.org/Graphics/SVG/1.1/DTD/svg11.dtd">
<!-- Generated by graphviz version 2.26.3 (20100126.1600)
 -->
<!-- Title: tx_overview Pages: 1 -->
<svg width="450pt" height="189pt"
 viewBox="0.00 0.00 450.00 189.14" xmlns="http://www.w3.org/2000/svg" xmlns:xlink="http://www.w3.org/1999/xlink">
<g id="graph1" class="graph" transform="scale(0.703125 0.703125) rotate(0) translate(4 265)">
<title>tx_overview</title>
<polygon fill="white" stroke="white" points="-4,5 -4,-265 637,-265 637,5 -4,5"/>
<text text-anchor="middle" x="316" y="-8.4" font-family="Sans" font-size="14.00">Overview Of Transaction Spending</text>
<g id="graph2" class="cluster"><title>cluster_tx0</title>
<polygon fill="none" stroke="black" stroke-width="0" points="185,-154 185,-253 494,-253 494,-154 185,-154"/>
</g>
<g id="graph3" class="cluster"><title>cluster_outputs</title>
<polygon fill="none" stroke="black" stroke-width="1.75" points="193,-162 193,-245 486,-245 486,-162 193,-162"/>
<text text-anchor="middle" x="339.5" y="-228.4" font-family="Sans" font-size="14.00">Example Output Paying A Pubkey Script</text>
</g>
<g id="graph4" class="cluster"><title>cluster_tx1</title>
<polygon fill="none" stroke="black" stroke-width="0" points="104,-33 104,-132 476,-132 476,-33 104,-33"/>
</g>
<g id="graph5" class="cluster"><title>cluster_inputs</title>
<polygon fill="none" stroke="black" stroke-width="1.75" points="112,-41 112,-124 468,-124 468,-41 112,-41"/>
<text text-anchor="middle" x="290" y="-49.4" font-family="Sans" font-size="14.00">Example Input Spending The Example Output</text>
</g>
<!-- tx1_label -->
<g id="node1" class="node"><title>tx1_label</title>
<text text-anchor="middle" x="48" y="-99.4" font-family="Sans" font-size="14.00">Transaction</text>
<text text-anchor="middle" x="48" y="-82.4" font-family="Sans" font-size="14.00">1</text>
</g>
<!-- tx0_label -->
<g id="node2" class="node"><title>tx0_label</title>
<text text-anchor="middle" x="48" y="-195.4" font-family="Sans" font-size="14.00">Transaction</text>
<text text-anchor="middle" x="48" y="-178.4" font-family="Sans" font-size="14.00">0</text>
</g>
<!-- tx0_label&#45;&gt;tx1_label -->
<!-- txid -->
<g id="node17" class="node"><title>txid</title>
<polygon fill="none" stroke="black" stroke-width="1.75" points="216,-116 120,-116 120,-74 216,-74 216,-116"/>
<text text-anchor="middle" x="168" y="-99.4" font-family="Sans" font-size="14.00">Transaction</text>
<text text-anchor="middle" x="168" y="-82.4" font-family="Sans" font-size="14.00">Identifier</text>
</g>
<!-- tx0_label&#45;&gt;txid -->
<g id="edge14" class="edge"><title>tx0_label&#45;&gt;txid</title>
<path fill="none" stroke="black" stroke-width="1.75" stroke-dasharray="5,2" d="M74.3345,-169.932C91.8413,-155.927 115.002,-137.399 133.912,-122.271"/>
<polygon fill="black" stroke="black" points="136.105,-124.998 141.727,-116.018 131.732,-119.532 136.105,-124.998"/>
</g>
<!-- tx1_notshown -->
<g id="node4" class="node"><title>tx1_notshown</title>
<text text-anchor="middle" x="564" y="-107.9" font-family="Sans" font-size="14.00">Not Shown:</text>
<text text-anchor="middle" x="564" y="-90.9" font-family="Sans" font-size="14.00">Version, Outputs,</text>
<text text-anchor="middle" x="564" y="-73.9" font-family="Sans" font-size="14.00">Locktime</text>
</g>
<!-- tx0_notshown -->
<g id="node5" class="node"><title>tx0_notshown</title>
<text text-anchor="middle" x="564" y="-203.9" font-family="Sans" font-size="14.00">Not Shown:</text>
<text text-anchor="middle" x="564" y="-186.9" font-family="Sans" font-size="14.00">Version, Inputs,</text>
<text text-anchor="middle" x="564" y="-169.9" font-family="Sans" font-size="14.00">Locktime</text>
</g>
<!-- tx0_notshown&#45;&gt;tx1_notshown -->
<!-- pubkey_script -->
<g id="node9" class="node"><title>pubkey_script</title>
<polygon fill="none" stroke="black" stroke-width="1.75" points="451,-212 385,-212 385,-170 451,-170 451,-212"/>
<text text-anchor="middle" x="418" y="-195.4" font-family="Sans" font-size="14.00">Pubkey</text>
<text text-anchor="middle" x="418" y="-178.4" font-family="Sans" font-size="14.00">Script</text>
</g>
<!-- signature_script -->
<g id="node16" class="node"><title>signature_script</title>
<polygon fill="none" stroke="black" stroke-width="1.75" points="460,-116 376,-116 376,-74 460,-74 460,-116"/>
<text text-anchor="middle" x="418" y="-99.4" font-family="Sans" font-size="14.00">Signature</text>
<text text-anchor="middle" x="418" y="-82.4" font-family="Sans" font-size="14.00">Script</text>
</g>
<!-- pubkey_script&#45;&gt;signature_script -->
<g id="edge10" class="edge"><title>pubkey_script&#45;&gt;signature_script</title>
<path fill="none" stroke="black" stroke-width="1.75" stroke-dasharray="5,2" d="M418,-169.694C418,-157.017 418,-140.697 418,-126.547"/>
<polygon fill="black" stroke="black" points="421.5,-126.246 418,-116.246 414.5,-126.246 421.5,-126.246"/>
</g>
<!-- amount -->
<g id="node10" class="node"><title>amount</title>
<polygon fill="none" stroke="black" stroke-width="1.75" points="380,-212 298,-212 298,-170 380,-170 380,-212"/>
<text text-anchor="middle" x="339" y="-195.4" font-family="Sans" font-size="14.00">Amount</text>
<text text-anchor="middle" x="339" y="-178.4" font-family="Sans" font-size="14.00">(satoshis)</text>
</g>
<!-- output0_label -->
<g id="node11" class="node"><title>output0_label</title>
<text text-anchor="middle" x="253" y="-195.4" font-family="Sans" font-size="14.00">Output 0</text>
<text text-anchor="middle" x="253" y="-178.4" font-family="Sans" font-size="14.00">(Implied)</text>
</g>
<!-- index -->
<g id="node14" class="node"><title>index</title>
<polygon fill="none" stroke="black" stroke-width="1.75" points="286,-116 220,-116 220,-74 286,-74 286,-116"/>
<text text-anchor="middle" x="253" y="-99.4" font-family="Sans" font-size="14.00">Output</text>
<text text-anchor="middle" x="253" y="-82.4" font-family="Sans" font-size="14.00">Index</text>
</g>
<!-- output0_label&#45;&gt;index -->
<g id="edge12" class="edge"><title>output0_label&#45;&gt;index</title>
<path fill="none" stroke="black" stroke-width="1.75" stroke-dasharray="5,2" d="M253,-169.694C253,-157.017 253,-140.697 253,-126.547"/>
<polygon fill="black" stroke="black" points="256.5,-126.246 253,-116.246 249.5,-126.246 256.5,-126.246"/>
</g>
<!-- sequence -->
<g id="node15" class="node"><title>sequence</title>
<polygon fill="none" stroke="black" stroke-width="1.75" points="372,-116 290,-116 290,-74 372,-74 372,-116"/>
<text text-anchor="middle" x="331" y="-99.4" font-family="Sans" font-size="14.00">Sequence</text>
<text text-anchor="middle" x="331" y="-82.4" font-family="Sans" font-size="14.00">Number</text>
</g>
</g>
</svg>
