<?xml version="1.0" encoding="UTF-8" standalone="no"?>
<!DOCTYPE svg PUBLIC "-//W3C//DTD SVG 1.1//EN"
 "http://www.w3.org/Graphics/SVG/1.1/DTD/svg11.dtd">
<!-- Generated by graphviz version 2.26.3 (20100126.1600)
 -->
<!-- Title: _anonymous_0 Pages: 1 -->
<svg width="450pt" height="143pt"
 viewBox="0.00 0.00 450.00 143.02" xmlns="http://www.w3.org/2000/svg" xmlns:xlink="http://www.w3.org/1999/xlink">
<g id="graph1" class="graph" transform="scale(0.697674 0.697674) rotate(0) translate(4 201)">
<title>_anonymous_0</title>
<polygon fill="white" stroke="white" points="-4,5 -4,-201 642,-201 642,5 -4,5"/>
<text text-anchor="middle" x="318.5" y="-8.4" font-family="Sans" font-size="14.00">A Soft Fork: &#160;Blocks Violating New Rules Are Made Stale By The Upgraded Mining Majority</text>
<g id="graph2" class="cluster"><title>cluster_honest</title>
</g>
<g id="graph3" class="cluster"><title>cluster_attack</title>
</g>
<!-- invis1 -->
<g id="node1" class="node"><title>invis1</title>
<text text-anchor="middle" x="48.5" y="-90.4" font-family="Sans" font-size="14.00">Blocks</text>
<text text-anchor="middle" x="48.5" y="-73.4" font-family="Sans" font-size="14.00">From</text>
<text text-anchor="middle" x="48.5" y="-56.4" font-family="Sans" font-size="14.00">Upgraded</text>
<text text-anchor="middle" x="48.5" y="-39.4" font-family="Sans" font-size="14.00">Nodes</text>
</g>
<!-- invis0 -->
<g id="node2" class="node"><title>invis0</title>
<text text-anchor="middle" x="48.5" y="-173.4" font-family="Sans" font-size="14.00">Blocks</text>
<text text-anchor="middle" x="48.5" y="-156.4" font-family="Sans" font-size="14.00">From Non&#45;</text>
<text text-anchor="middle" x="48.5" y="-139.4" font-family="Sans" font-size="14.00">Upgraded</text>
<text text-anchor="middle" x="48.5" y="-122.4" font-family="Sans" font-size="14.00">Nodes</text>
</g>
<!-- block0 -->
<g id="node4" class="node"><title>block0</title>
<polygon fill="none" stroke="black" stroke-width="1.75" points="193.5,-181.5 125.5,-181.5 125.5,-122.5 193.5,-122.5 193.5,-181.5"/>
<text text-anchor="middle" x="159.5" y="-164.9" font-family="Sans" font-size="14.00">Follows</text>
<text text-anchor="middle" x="159.5" y="-147.9" font-family="Sans" font-size="14.00">Old</text>
<text text-anchor="middle" x="159.5" y="-130.9" font-family="Sans" font-size="14.00">Rules</text>
</g>
<!-- invis0&#45;&gt;block0 -->
<g id="edge6" class="edge"><title>invis0&#45;&gt;block0</title>
<path fill="none" stroke="black" stroke-width="1.75" stroke-dasharray="5,2" d="M93.0084,-152C100.305,-152 107.867,-152 115.16,-152"/>
<polygon fill="black" stroke="black" points="115.236,-155.5 125.236,-152 115.236,-148.5 115.236,-155.5"/>
</g>
<!-- block1 -->
<g id="node5" class="node"><title>block1</title>
<polygon fill="none" stroke="black" stroke-width="1.75" points="275.5,-181.5 207.5,-181.5 207.5,-122.5 275.5,-122.5 275.5,-181.5"/>
<text text-anchor="middle" x="241.5" y="-164.9" font-family="Sans" font-size="14.00">Follows</text>
<text text-anchor="middle" x="241.5" y="-147.9" font-family="Sans" font-size="14.00">Old</text>
<text text-anchor="middle" x="241.5" y="-130.9" font-family="Sans" font-size="14.00">Rules</text>
</g>
<!-- block0&#45;&gt;block1 -->
<g id="edge8" class="edge"><title>block0&#45;&gt;block1</title>
<path fill="none" stroke="black" stroke-width="1.75" d="M193.8,-152C194.919,-152 196.045,-152 197.175,-152"/>
<polygon fill="black" stroke="black" points="197.337,-155.5 207.337,-152 197.337,-148.5 197.337,-155.5"/>
</g>
<!-- block2_1 -->
<g id="node6" class="node"><title>block2_1</title>
<polygon fill="lightgrey" stroke="black" stroke-width="1.75" points="426.5,-181.5 290.5,-181.5 290.5,-122.5 426.5,-122.5 426.5,-181.5"/>
<text text-anchor="middle" x="358.5" y="-164.9" font-family="Sans" font-size="14.00">Follows Old Rules</text>
<text text-anchor="middle" x="358.5" y="-147.9" font-family="Sans" font-size="14.00">But Violates</text>
<text text-anchor="middle" x="358.5" y="-130.9" font-family="Sans" font-size="14.00">New Rules</text>
</g>
<!-- block1&#45;&gt;block2_1 -->
<g id="edge13" class="edge"><title>block1&#45;&gt;block2_1</title>
<path fill="none" stroke="black" stroke-width="1.75" d="M275.656,-152C276.946,-152 278.255,-152 279.58,-152"/>
<polygon fill="black" stroke="black" points="279.999,-155.5 289.999,-152 279.999,-148.5 279.999,-155.5"/>
</g>
<!-- block2 -->
<g id="node10" class="node"><title>block2</title>
<polygon fill="none" stroke="black" stroke-width="1.75" points="403.5,-99.5 313.5,-99.5 313.5,-40.5 403.5,-40.5 403.5,-99.5"/>
<text text-anchor="middle" x="358.5" y="-82.9" font-family="Sans" font-size="14.00">Follows</text>
<text text-anchor="middle" x="358.5" y="-65.9" font-family="Sans" font-size="14.00">Old &amp; New</text>
<text text-anchor="middle" x="358.5" y="-48.9" font-family="Sans" font-size="14.00">Rules</text>
</g>
<!-- block1&#45;&gt;block2 -->
<g id="edge9" class="edge"><title>block1&#45;&gt;block2</title>
<path fill="none" stroke="black" stroke-width="1.75" d="M275.523,-124.375C280.165,-120.81 284.911,-117.267 289.5,-114 294.245,-110.622 299.241,-107.197 304.284,-103.827"/>
<polygon fill="black" stroke="black" points="306.358,-106.652 312.781,-98.2264 302.506,-100.808 306.358,-106.652"/>
</g>
<!-- block4 -->
<g id="node8" class="node"><title>block4</title>
<polygon fill="none" stroke="black" stroke-width="1.75" points="617.5,-181.5 549.5,-181.5 549.5,-122.5 617.5,-122.5 617.5,-181.5"/>
<text text-anchor="middle" x="583.5" y="-164.9" font-family="Sans" font-size="14.00">Follows</text>
<text text-anchor="middle" x="583.5" y="-147.9" font-family="Sans" font-size="14.00">Old</text>
<text text-anchor="middle" x="583.5" y="-130.9" font-family="Sans" font-size="14.00">Rules</text>
</g>
<!-- block2_1&#45;&gt;block4 -->
<!-- block3 -->
<g id="node11" class="node"><title>block3</title>
<polygon fill="none" stroke="black" stroke-width="1.75" points="532.5,-99.5 442.5,-99.5 442.5,-40.5 532.5,-40.5 532.5,-99.5"/>
<text text-anchor="middle" x="487.5" y="-82.9" font-family="Sans" font-size="14.00">Follows</text>
<text text-anchor="middle" x="487.5" y="-65.9" font-family="Sans" font-size="14.00">Old &amp; New</text>
<text text-anchor="middle" x="487.5" y="-48.9" font-family="Sans" font-size="14.00">Rules</text>
</g>
<!-- block2&#45;&gt;block3 -->
<g id="edge10" class="edge"><title>block2&#45;&gt;block3</title>
<path fill="none" stroke="black" stroke-width="1.75" d="M404.344,-70C413.183,-70 422.534,-70 431.651,-70"/>
<polygon fill="black" stroke="black" points="431.804,-73.5001 441.804,-70 431.804,-66.5001 431.804,-73.5001"/>
</g>
<!-- block3&#45;&gt;block4 -->
<g id="edge11" class="edge"><title>block3&#45;&gt;block4</title>
<path fill="none" stroke="black" stroke-width="1.75" d="M523.732,-99.0918C529.712,-104.016 535.812,-109.115 541.5,-114 542.321,-114.705 543.148,-115.419 543.981,-116.141"/>
<polygon fill="black" stroke="black" points="541.724,-118.817 551.549,-122.781 546.34,-113.555 541.724,-118.817"/>
</g>
</g>
</svg>
