<?xml version="1.0" encoding="UTF-8" standalone="no"?>
<!DOCTYPE svg PUBLIC "-//W3C//DTD SVG 1.1//EN"
 "http://www.w3.org/Graphics/SVG/1.1/DTD/svg11.dtd">
<!-- Generated by graphviz version 2.26.3 (20100126.1600)
 -->
<!-- Title: _anonymous_0 Pages: 1 -->
<svg width="450pt" height="110pt"
 viewBox="0.00 0.00 450.00 110.20" xmlns="http://www.w3.org/2000/svg" xmlns:xlink="http://www.w3.org/1999/xlink">
<g id="graph1" class="graph" transform="scale(0.765306 0.765306) rotate(0) translate(4 140)">
<title>_anonymous_0</title>
<polygon fill="white" stroke="white" points="-4,5 -4,-140 585,-140 585,5 -4,5"/>
<text text-anchor="middle" x="290" y="-8.4" font-family="Sans" font-size="14.00">Pool&#45;Based Bitcoin Mining Workflow</text>
<!-- p2pnetwork -->
<g id="node1" class="node"><title>p2pnetwork</title>
<polygon fill="none" stroke="black" points="77,-100 1,-100 1,-58 77,-58 77,-100"/>
<text text-anchor="middle" x="39" y="-83.4" font-family="Sans" font-size="14.00">P2P</text>
<text text-anchor="middle" x="39" y="-66.4" font-family="Sans" font-size="14.00">Network</text>
</g>
<!-- pool0 -->
<g id="node4" class="node"><title>pool0</title>
<polygon fill="none" stroke="black" points="232,-100 170,-100 170,-58 232,-58 232,-100"/>
<text text-anchor="middle" x="201" y="-83.4" font-family="Sans" font-size="14.00">Mining</text>
<text text-anchor="middle" x="201" y="-66.4" font-family="Sans" font-size="14.00">Pool</text>
</g>
<!-- p2pnetwork&#45;&gt;pool0 -->
<g id="edge4" class="edge"><title>p2pnetwork&#45;&gt;pool0</title>
<path fill="none" stroke="black" d="M77.803,-79C102.457,-79 134.346,-79 159.503,-79"/>
<polygon fill="black" stroke="black" points="159.831,-82.5001 169.831,-79 159.831,-75.5001 159.831,-82.5001"/>
<text text-anchor="middle" x="124" y="-83.4" font-family="Sans" font-size="14.00">TXes→</text>
</g>
<!-- asic0 -->
<g id="node2" class="node"><title>asic0</title>
<polygon fill="none" stroke="black" points="580,-97 526,-97 526,-61 580,-61 580,-97"/>
<text text-anchor="middle" x="553" y="-74.9" font-family="Sans" font-size="14.00">ASIC</text>
</g>
<!-- software -->
<g id="node3" class="node"><title>software</title>
<polygon fill="none" stroke="black" points="418,-100 338,-100 338,-58 418,-58 418,-100"/>
<text text-anchor="middle" x="378" y="-83.4" font-family="Sans" font-size="14.00">Mining</text>
<text text-anchor="middle" x="378" y="-66.4" font-family="Sans" font-size="14.00">Software</text>
</g>
<!-- asic0&#45;&gt;software -->
<g id="edge10" class="edge"><title>asic0&#45;&gt;software</title>
<path fill="none" stroke="black" d="M537.765,-60.7181C524.71,-45.0522 508,-25 508,-25 508,-25 436,-25 436,-25 436,-25 422.132,-37.9116 407.958,-51.1078"/>
<polygon fill="black" stroke="black" points="405.524,-48.5917 400.59,-57.9676 410.294,-53.715 405.524,-48.5917"/>
<text text-anchor="middle" x="472" y="-63.4" font-family="Sans" font-size="14.00">←Headers</text>
<text text-anchor="middle" x="472" y="-46.4" font-family="Sans" font-size="14.00">Below</text>
<text text-anchor="middle" x="472" y="-29.4" font-family="Sans" font-size="14.00">Target</text>
</g>
<!-- software&#45;&gt;asic0 -->
<g id="edge8" class="edge"><title>software&#45;&gt;asic0</title>
<path fill="none" stroke="black" d="M418.283,-83.1672C428.18,-84.191 436,-85 436,-85 436,-85 508,-85 508,-85 508,-85 511.085,-84.5886 515.64,-83.9813"/>
<polygon fill="black" stroke="black" points="516.336,-87.4197 525.785,-82.6286 515.41,-80.4811 516.336,-87.4197"/>
<text text-anchor="middle" x="472" y="-123.4" font-family="Sans" font-size="14.00">Block</text>
<text text-anchor="middle" x="472" y="-106.4" font-family="Sans" font-size="14.00">Headers &amp;</text>
<text text-anchor="middle" x="472" y="-89.4" font-family="Sans" font-size="14.00">Targets→</text>
</g>
<!-- software&#45;&gt;pool0 -->
<g id="edge12" class="edge"><title>software&#45;&gt;pool0</title>
<path fill="none" stroke="black" d="M337.717,-60.9421C327.82,-56.5055 320,-53 320,-53 320,-53 250,-53 250,-53 250,-53 246.279,-54.9745 240.888,-57.8352"/>
<polygon fill="black" stroke="black" points="239.225,-54.7549 232.032,-62.5338 242.506,-60.9383 239.225,-54.7549"/>
<text text-anchor="middle" x="285" y="-57.4" font-family="Sans" font-size="14.00">←Shares</text>
</g>
<!-- pool0&#45;&gt;p2pnetwork -->
<g id="edge6" class="edge"><title>pool0&#45;&gt;p2pnetwork</title>
<path fill="none" stroke="black" d="M169.968,-62.5338C160.243,-57.3739 152,-53 152,-53 152,-53 96,-53 96,-53 96,-53 92.3058,-54.6851 86.7984,-57.1972"/>
<polygon fill="black" stroke="black" points="85.2967,-54.0352 77.6511,-61.3697 88.2018,-60.4039 85.2967,-54.0352"/>
<text text-anchor="middle" x="124" y="-57.4" font-family="Sans" font-size="14.00">←Blocks</text>
</g>
<!-- pool0&#45;&gt;software -->
<g id="edge2" class="edge"><title>pool0&#45;&gt;software</title>
<path fill="none" stroke="black" d="M232.237,-79C258.629,-79 296.93,-79 327.648,-79"/>
<polygon fill="black" stroke="black" points="327.746,-82.5001 337.746,-79 327.746,-75.5001 327.746,-82.5001"/>
<text text-anchor="middle" x="285" y="-100.4" font-family="Sans" font-size="14.00">Prototype</text>
<text text-anchor="middle" x="285" y="-83.4" font-family="Sans" font-size="14.00">Block→</text>
</g>
</g>
</svg>
