<?xml version="1.0" encoding="UTF-8" standalone="no"?>
<!DOCTYPE svg PUBLIC "-//W3C//DTD SVG 1.1//EN"
 "http://www.w3.org/Graphics/SVG/1.1/DTD/svg11.dtd">
<!-- Generated by graphviz version 2.26.3 (20100126.1600)
 -->
<!-- Title: _anonymous_0 Pages: 1 -->
<svg width="450pt" height="107pt"
 viewBox="0.00 0.00 450.00 107.28" xmlns="http://www.w3.org/2000/svg" xmlns:xlink="http://www.w3.org/1999/xlink">
<g id="graph1" class="graph" transform="scale(0.745033 0.745033) rotate(0) translate(4 140)">
<title>_anonymous_0</title>
<polygon fill="white" stroke="white" points="-4,5 -4,-140 601,-140 601,5 -4,5"/>
<text text-anchor="middle" x="298" y="-8.4" font-family="Sans" font-size="14.00">Solo Bitcoin Mining Workflow</text>
<!-- p2pnetwork -->
<g id="node1" class="node"><title>p2pnetwork</title>
<polygon fill="none" stroke="black" points="77,-100 1,-100 1,-58 77,-58 77,-100"/>
<text text-anchor="middle" x="39" y="-83.4" font-family="Sans" font-size="14.00">P2P</text>
<text text-anchor="middle" x="39" y="-66.4" font-family="Sans" font-size="14.00">Network</text>
</g>
<!-- pool0 -->
<g id="node4" class="node"><title>pool0</title>
<polygon fill="none" stroke="black" points="241,-97 171,-97 171,-61 241,-61 241,-97"/>
<text text-anchor="middle" x="206" y="-74.9" font-family="Sans" font-size="14.00">bitcoind</text>
</g>
<!-- p2pnetwork&#45;&gt;pool0 -->
<g id="edge4" class="edge"><title>p2pnetwork&#45;&gt;pool0</title>
<path fill="none" stroke="black" d="M77.7329,-79C102.292,-79 134.187,-79 160.027,-79"/>
<polygon fill="black" stroke="black" points="160.328,-82.5001 170.328,-79 160.328,-75.5001 160.328,-82.5001"/>
<text text-anchor="middle" x="124" y="-83.4" font-family="Sans" font-size="14.00">TXes→</text>
</g>
<!-- asic0 -->
<g id="node2" class="node"><title>asic0</title>
<polygon fill="none" stroke="black" points="596,-97 542,-97 542,-61 596,-61 596,-97"/>
<text text-anchor="middle" x="569" y="-74.9" font-family="Sans" font-size="14.00">ASIC</text>
</g>
<!-- software -->
<g id="node3" class="node"><title>software</title>
<polygon fill="none" stroke="black" points="434,-100 354,-100 354,-58 434,-58 434,-100"/>
<text text-anchor="middle" x="394" y="-83.4" font-family="Sans" font-size="14.00">Mining</text>
<text text-anchor="middle" x="394" y="-66.4" font-family="Sans" font-size="14.00">Software</text>
</g>
<!-- asic0&#45;&gt;software -->
<g id="edge10" class="edge"><title>asic0&#45;&gt;software</title>
<path fill="none" stroke="black" d="M553.765,-60.7181C540.71,-45.0522 524,-25 524,-25 524,-25 452,-25 452,-25 452,-25 438.132,-37.9116 423.958,-51.1078"/>
<polygon fill="black" stroke="black" points="421.524,-48.5917 416.59,-57.9676 426.294,-53.715 421.524,-48.5917"/>
<text text-anchor="middle" x="488" y="-63.4" font-family="Sans" font-size="14.00">←Headers</text>
<text text-anchor="middle" x="488" y="-46.4" font-family="Sans" font-size="14.00">Below</text>
<text text-anchor="middle" x="488" y="-29.4" font-family="Sans" font-size="14.00">Target</text>
</g>
<!-- software&#45;&gt;asic0 -->
<g id="edge8" class="edge"><title>software&#45;&gt;asic0</title>
<path fill="none" stroke="black" d="M434.283,-83.1672C444.18,-84.191 452,-85 452,-85 452,-85 524,-85 524,-85 524,-85 527.085,-84.5886 531.64,-83.9813"/>
<polygon fill="black" stroke="black" points="532.336,-87.4197 541.785,-82.6286 531.41,-80.4811 532.336,-87.4197"/>
<text text-anchor="middle" x="488" y="-123.4" font-family="Sans" font-size="14.00">Block</text>
<text text-anchor="middle" x="488" y="-106.4" font-family="Sans" font-size="14.00">Headers &amp;</text>
<text text-anchor="middle" x="488" y="-89.4" font-family="Sans" font-size="14.00">Targets→</text>
</g>
<!-- software&#45;&gt;pool0 -->
<g id="edge12" class="edge"><title>software&#45;&gt;pool0</title>
<path fill="none" stroke="black" d="M353.717,-60.9421C343.82,-56.5055 336,-53 336,-53 336,-53 260,-53 260,-53 260,-53 256.28,-54.7909 250.794,-57.4326"/>
<polygon fill="black" stroke="black" points="249.21,-54.3107 241.718,-61.8024 252.246,-60.6177 249.21,-54.3107"/>
<text text-anchor="middle" x="298" y="-57.4" font-family="Sans" font-size="14.00">←Blocks</text>
</g>
<!-- pool0&#45;&gt;p2pnetwork -->
<g id="edge6" class="edge"><title>pool0&#45;&gt;p2pnetwork</title>
<path fill="none" stroke="black" d="M170.282,-61.8024C160.24,-56.9673 152,-53 152,-53 152,-53 96,-53 96,-53 96,-53 92.3058,-54.6851 86.7984,-57.1972"/>
<polygon fill="black" stroke="black" points="85.2967,-54.0352 77.6511,-61.3697 88.2018,-60.4039 85.2967,-54.0352"/>
<text text-anchor="middle" x="124" y="-57.4" font-family="Sans" font-size="14.00">←Blocks</text>
</g>
<!-- pool0&#45;&gt;software -->
<g id="edge2" class="edge"><title>pool0&#45;&gt;software</title>
<path fill="none" stroke="black" d="M241.804,-79C270.644,-79 311.532,-79 343.667,-79"/>
<polygon fill="black" stroke="black" points="343.767,-82.5001 353.767,-79 343.767,-75.5001 343.767,-82.5001"/>
<text text-anchor="middle" x="298" y="-100.4" font-family="Sans" font-size="14.00">Block</text>
<text text-anchor="middle" x="298" y="-83.4" font-family="Sans" font-size="14.00">Template→</text>
</g>
</g>
</svg>
