<?xml version="1.0" encoding="utf-8"?>
<!-- Generator: Adobe Illustrator 19.2.1, SVG Export Plug-In . SVG Version: 6.00 Build 0)  -->
<svg version="1.1" id="Layer_1" xmlns="http://www.w3.org/2000/svg" xmlns:xlink="http://www.w3.org/1999/xlink" x="0px" y="0px"
	 viewBox="0 0 1910.1 1476" style="enable-background:new 0 0 1910.1 1476;" xml:space="preserve">
<style type="text/css">
	.st0{fill:#FFFFFF;}
</style>
<g>
	<g>
		<g>
			<path class="st0" d="M421.4,718.2c0-55.5-45-100.5-100.5-100.5s-100.5,45-100.5,100.5c0,44,28.3,81.5,67.8,95
				c2.4-1.7,5.2-3.9,5.2-7.5c0-5.5-0.1-19.7-0.1-19.7s-4.4,0.7-10.6,0.7c-15.7,0-20.6-10-23-15.5c-3.1-7.3-7.1-10.7-11.3-13.4
				c-2.6-1.7-3.2-3.6-0.2-4.2c13.9-2.6,17.4,15.7,26.7,18.6c6.6,2.1,15.1,1.2,19.4-1.5c0.6-5.6,4.6-10.4,8-12.9
				c-23.6-2.3-37.6-10.4-44.8-23.5l-0.8-1.5l-1.8-4.2l-0.5-1.5c-2.3-6.6-3.3-14.3-3.3-22.8c0-15.1,4.7-20.8,11.1-28.8
				c-4.9-17.2,1.7-29,1.7-29s10.2-2.1,29.5,11.6c10.5-4.5,38.3-4.8,51.5-1c8.1-5.3,22.9-12.9,28.9-10.8c1.6,2.6,5.1,10.1,2.1,26.7
				c2,3.6,12.6,11.4,12.6,33.3c-0.2,8.1-1,14.9-2.6,20.7l-0.9,3c0,0-0.5,1.4-1,2.7l-0.6,1.5c-7,15.3-21.3,21-44.5,23.4
				c7.5,4.7,9.7,10.6,9.7,26.6c0,16-0.2,18.1-0.2,21.8c0,3.2,2.6,5.6,5,7.3C392.9,799.8,421.4,762.3,421.4,718.2z"/>
		</g>
	</g>
	<g>
		<path class="st0" d="M251.9,858.7c0-11.2,8.2-18.5,18.4-18.5c6.4,0,10.8,2.8,13.9,6.7l-3.5,2.3c-2.3-2.9-6.1-4.9-10.4-4.9
			c-7.8,0-13.8,6-13.8,14.6c0,8.5,6,14.6,13.8,14.6c4.3,0,7.8-2,9.7-3.9v-7.3h-12.4v-4h16.8v12.9c-3.3,3.8-8.2,6.2-14.1,6.2
			C260.1,877.3,251.9,869.8,251.9,858.7z"/>
		<path class="st0" d="M288.6,844.3c0-1.5,1.2-2.7,2.7-2.7s2.7,1.2,2.7,2.7c0,1.5-1.2,2.7-2.7,2.7S288.6,845.8,288.6,844.3z
			 M289.3,876.6v-25.9h4v25.9H289.3z"/>
		<path class="st0" d="M300.1,871.2v-17h-4.3v-3.5h4.3v-7.1h4.1v7.1h5.3v3.5h-5.3v16.1c0,1.9,0.9,3.3,2.6,3.3c1.2,0,2.2-0.5,2.7-1.1
			l1.2,3.1c-1,1-2.5,1.7-4.8,1.7C302,877.2,300.1,875,300.1,871.2z"/>
		<path class="st0" d="M330.5,876.6v-17.1c0-4.6-2.3-5.9-5.9-5.9c-3.1,0-6.1,1.9-7.6,4v19h-4v-35.8h4v13.6c1.8-2.2,5.3-4.4,9.2-4.4
			c5.4,0,8.3,2.6,8.3,8.3v18.3H330.5z"/>
		<path class="st0" d="M357.9,876.6v-3.7c-2,2.3-5.4,4.3-9.2,4.3c-5.4,0-8.3-2.7-8.3-8.3v-18.3h4v17.1c0,4.6,2.3,5.9,5.9,5.9
			c3.1,0,6.1-1.8,7.6-3.9v-19.1h4v25.9H357.9z"/>
		<path class="st0" d="M367.9,876.6v-35.8h4v13.8c2.1-2.8,5.3-4.6,8.8-4.6c6.8,0,11.6,5.3,11.6,13.6c0,8.4-4.8,13.6-11.6,13.6
			c-3.7,0-6.8-1.9-8.8-4.5v3.9H367.9z M379.7,873.6c5.2,0,8.3-4.2,8.3-10s-3.1-10-8.3-10c-3.2,0-6.4,1.9-7.8,4.2v11.8
			C373.3,871.8,376.5,873.6,379.7,873.6z"/>
	</g>
</g>
<g>
	<g>
		<g>
			<circle class="st0" cx="945" cy="717.8" r="23.5"/>
		</g>
		<g>
			<path class="st0" d="M848.8,692.8c0,0.3-0.3,0.9-0.3,1.1c0,2.6,2,4.8,4.8,4.8h40c2,0,3.4-1.1,4.3-2.8
				c8.2-18.1,26.4-30.3,47.1-30.3c28.6,0,51.9,23.3,51.9,51.9s-23.3,51.9-51.9,51.9c-21,0-38.8-12.5-47.1-30.1
				c-0.9-2-2.3-3.1-4.3-3.1h-40c-2.6,0-4.8,2-4.8,4.8c0,0.3,0,0.9,0.3,1.1c11.1,43.1,49.9,74.9,96.1,74.9
				c54.7,0,99.2-44.5,99.2-99.2c0-54.7-44.5-99.2-99.2-99.2C898.7,618.5,859.9,650.3,848.8,692.8z"/>
		</g>
	</g>
	<g>
		<path class="st0" d="M865.6,857.9c0-11,8.1-18.5,18.4-18.5c6.3,0,10.7,3,13.6,7.1l-3.7,2.1c-2-3.1-5.8-5.2-9.9-5.2
			c-7.8,0-13.8,6-13.8,14.6c0,8.5,6,14.6,13.8,14.6c4.1,0,7.8-2.2,9.9-5.2l3.8,2c-3,4.1-7.3,7.1-13.6,7.1
			C873.7,876.4,865.6,868.9,865.6,857.9z"/>
		<path class="st0" d="M900.3,843.4c0-1.5,1.2-2.7,2.7-2.7s2.7,1.2,2.7,2.7c0,1.5-1.2,2.7-2.7,2.7S900.3,844.9,900.3,843.4z
			 M901,875.7v-25.9h4v25.9H901z"/>
		<path class="st0" d="M911,875.7v-25.9h4v4.1c2.1-2.7,5.1-4.7,8.7-4.7v4.1c-0.5-0.1-1-0.1-1.6-0.1c-2.5,0-5.9,2-7.1,4.1v18.4H911z"
			/>
		<path class="st0" d="M925,862.7c0-7.7,5.2-13.6,12.9-13.6c4.7,0,7.5,1.9,9.5,4.5l-2.7,2.4c-1.7-2.4-3.9-3.3-6.6-3.3
			c-5.5,0-9,4.2-9,10s3.5,10,9,10c2.7,0,4.9-1.1,6.6-3.4l2.7,2.5c-2,2.6-4.8,4.5-9.5,4.5C930.3,876.4,925,870.4,925,862.7z"/>
		<path class="st0" d="M951.1,875.7v-35.8h4v35.8H951.1z"/>
		<path class="st0" d="M959.5,862.7c0-7.5,5.4-13.6,12.8-13.6c7.8,0,12.5,6.1,12.5,13.9v1h-21c0.3,4.9,3.7,9,9.3,9
			c3,0,6-1.2,8.1-3.3l1.9,2.6c-2.6,2.6-6.1,4-10.3,4C965,876.4,959.5,870.9,959.5,862.7z M972.2,852.5c-5.5,0-8.3,4.7-8.5,8.6h17
			C980.7,857.3,978.1,852.5,972.2,852.5z"/>
		<path class="st0" d="M987.8,857.9c0-11,8.1-18.5,18.4-18.5c6.3,0,10.7,3,13.6,7.1l-3.7,2.1c-2-3.1-5.8-5.2-9.9-5.2
			c-7.8,0-13.8,6-13.8,14.6c0,8.5,6,14.6,13.8,14.6c4.1,0,7.8-2.2,9.9-5.2l3.8,2c-3,4.1-7.3,7.1-13.6,7.1
			C995.9,876.4,987.8,868.9,987.8,857.9z"/>
		<path class="st0" d="M1023.4,875.7v-35.8h4.5v35.8H1023.4z"/>
	</g>
</g>
<g>
	<g>
		<g>
			<path class="st0" d="M1497.2,878.9l-13.6-16.1l-3.6,4.1v12h-4.5V843h4.5v18.5l15.8-18.5h5.6l-14.9,17l16.3,18.9H1497.2z"/>
			<path class="st0" d="M1522,878.9v-3.7c-2,2.3-5.4,4.3-9.2,4.3c-5.4,0-8.3-2.7-8.3-8.3v-18.3h4V870c0,4.6,2.3,5.9,5.9,5.9
				c3.1,0,6.1-1.8,7.6-3.9v-19.1h4v25.9H1522z"/>
			<path class="st0" d="M1532,878.9V843h4v13.8c2.1-2.8,5.3-4.6,8.8-4.6c6.8,0,11.6,5.3,11.6,13.6c0,8.4-4.8,13.6-11.6,13.6
				c-3.7,0-6.8-1.9-8.8-4.5v3.9H1532z M1543.8,875.9c5.2,0,8.3-4.2,8.3-10c0-5.7-3.1-10-8.3-10c-3.2,0-6.4,1.9-7.8,4.2v11.8
				C1537.4,874.1,1540.6,875.9,1543.8,875.9z"/>
			<path class="st0" d="M1559.2,865.9c0-7.5,5.4-13.6,12.8-13.6c7.8,0,12.5,6.1,12.5,13.9v1h-21c0.3,4.9,3.7,9,9.3,9
				c3,0,6-1.2,8.1-3.3l1.9,2.6c-2.6,2.6-6.1,4-10.3,4C1564.7,879.5,1559.2,874,1559.2,865.9z M1571.9,855.6c-5.5,0-8.3,4.7-8.5,8.6
				h17C1580.4,860.4,1577.8,855.6,1571.9,855.6z"/>
			<path class="st0" d="M1588.8,878.9v-25.9h4v4.1c2.1-2.7,5.1-4.7,8.7-4.7v4.1c-0.5-0.1-1-0.1-1.6-0.1c-2.5,0-5.9,2-7.1,4.1v18.4
				H1588.8z"/>
			<path class="st0" d="M1622,878.9v-17c0-4.6-2.4-6-5.9-6c-3.2,0-6.1,1.9-7.7,4v19h-4v-25.9h4v3.8c1.8-2.2,5.4-4.4,9.3-4.4
				c5.4,0,8.2,2.7,8.2,8.4v18.2H1622z"/>
			<path class="st0" d="M1630.4,865.9c0-7.5,5.4-13.6,12.8-13.6c7.8,0,12.5,6.1,12.5,13.9v1h-21c0.3,4.9,3.7,9,9.3,9
				c3,0,6-1.2,8.1-3.3l1.9,2.6c-2.6,2.6-6.1,4-10.3,4C1635.9,879.5,1630.4,874,1630.4,865.9z M1643.1,855.6c-5.5,0-8.3,4.7-8.5,8.6
				h17C1651.6,860.4,1649,855.6,1643.1,855.6z"/>
			<path class="st0" d="M1660.8,873.4v-17h-4.3v-3.5h4.3v-7.1h4.1v7.1h5.3v3.5h-5.3v16.1c0,1.9,0.9,3.3,2.6,3.3
				c1.2,0,2.2-0.5,2.7-1.1l1.2,3.1c-1,1-2.5,1.7-4.8,1.7C1662.7,879.5,1660.8,877.3,1660.8,873.4z"/>
			<path class="st0" d="M1672.1,865.9c0-7.5,5.4-13.6,12.8-13.6c7.8,0,12.5,6.1,12.5,13.9v1h-21c0.3,4.9,3.7,9,9.3,9
				c3,0,6-1.2,8.1-3.3l1.9,2.6c-2.6,2.6-6.1,4-10.3,4C1677.7,879.5,1672.1,874,1672.1,865.9z M1684.9,855.6c-5.5,0-8.3,4.7-8.5,8.6
				h17C1693.4,860.4,1690.8,855.6,1684.9,855.6z"/>
			<path class="st0" d="M1699.5,875.4l2-2.9c1.7,2,5,3.7,8.5,3.7c4,0,6.2-1.9,6.2-4.5c0-6.3-16.1-2.4-16.1-12c0-4.1,3.4-7.5,9.6-7.5
				c4.5,0,7.6,1.7,9.6,3.8l-1.9,2.8c-1.6-1.9-4.4-3.3-7.7-3.3c-3.5,0-5.7,1.8-5.7,4.1c0,5.6,16.1,1.9,16.1,12
				c0,4.4-3.5,7.8-10.2,7.8C1705.7,879.5,1702.2,878.2,1699.5,875.4z"/>
		</g>
	</g>
	<g>
		<g>
			<path class="st0" d="M1596.2,621.8c1.9,0,3.8,0.4,5.6,1.2l68.8,32.8c3.5,1.8,6.3,5,7.1,8.8l17,73.8c1,3.9,0,8-2.6,11.1
				l-47.6,59.1c-2.4,3.1-6.3,4.9-10.2,4.9H1558c-3.9,0-7.7-1.8-10.2-4.9l-47.6-59.1c-2.4-3.1-3.4-7.2-2.6-11.1l17-73.8
				c1-3.9,3.5-7.2,7.1-8.8l68.8-32.9C1592.2,622.2,1594.3,621.8,1596.2,621.8L1596.2,621.8z M1596.2,615.4c-2.9,0-5.7,0.7-8.4,1.9
				l-68.8,32.9c-5.4,2.6-9.2,7.3-10.6,13.2l-17,73.8c-1.4,5.8,0,11.8,3.8,16.6l47.6,59.1c3.7,4.6,9.2,7.2,15.1,7.2h76.3
				c5.8,0,11.4-2.6,15.1-7.2l47.6-59.1c3.8-4.6,5.2-10.7,3.8-16.6l-17-73.8c-1.4-5.8-5.2-10.6-10.6-13.2l-68.5-32.9
				C1601.9,616.1,1599,615.4,1596.2,615.4z"/>
		</g>
		<g>
			<path class="st0" d="M1665.1,732.6C1665,732.6,1665,732.6,1665.1,732.6h-0.1c-0.1,0-0.3,0-0.3-0.1c-0.3,0-0.5-0.1-0.8-0.1
				c-1-0.1-1.8-0.3-2.6-0.3c-0.4,0-0.8,0-1.4-0.1h-0.1c-2.9-0.3-5.2-0.5-7.3-1.2c-1-0.4-1.2-1-1.5-1.5c0-0.1-0.1-0.1-0.1-0.3
				l-1.8-0.5c0.8-6.4,0.5-12.9-1-19.2c-1.5-6.3-4.1-12.4-7.6-17.8l1.4-1.2v-0.3c0-0.7,0.1-1.4,0.7-2c1.6-1.5,3.7-2.7,6.1-4.2
				c0.4-0.3,0.8-0.4,1.2-0.7c0.8-0.4,1.5-0.8,2.3-1.4c0.1-0.1,0.4-0.3,0.7-0.5c0.1-0.1,0.3-0.1,0.3-0.3c1.9-1.6,2.3-4.3,1-6.1
				c-0.7-1-1.9-1.5-3.1-1.5c-1.1,0-2,0.4-3,1.1l-0.3,0.3c-0.3,0.1-0.4,0.4-0.7,0.5c-0.7,0.7-1.2,1.2-1.8,1.9c-0.3,0.3-0.5,0.7-1,1
				c-1.9,2-3.7,3.7-5.4,4.9c-0.4,0.3-0.8,0.4-1.2,0.4c-0.3,0-0.5,0-0.8-0.1h-0.3l-1.6,1.1c-1.8-1.9-3.7-3.5-5.6-5.2
				c-8.2-6.4-18.1-10.3-28.4-11.3l-0.1-1.8l-0.3-0.3c-0.4-0.4-1-0.8-1.1-1.8c-0.1-2.2,0.1-4.6,0.4-7.3v-0.1c0-0.4,0.1-1,0.3-1.4
				c0.1-0.8,0.3-1.6,0.4-2.6v-1.2c0-2.4-1.9-4.5-4.2-4.5c-1.1,0-2.2,0.5-3,1.4c-0.8,0.8-1.2,1.9-1.2,3.1v1.1c0,1,0.1,1.8,0.4,2.6
				c0.1,0.4,0.1,0.8,0.3,1.4v0.1c0.3,2.7,0.7,5.2,0.4,7.3c-0.1,1-0.7,1.4-1.1,1.8l-0.3,0.3l-0.1,1.8c-2.4,0.3-4.9,0.5-7.3,1.1
				c-10.5,2.3-19.7,7.6-26.9,15.2l-1.4-1h-0.3c-0.3,0-0.5,0.1-0.8,0.1c-0.4,0-0.8-0.1-1.2-0.4c-1.8-1.2-3.5-3-5.4-5
				c-0.3-0.3-0.5-0.7-1-1c-0.5-0.7-1.1-1.2-1.8-1.9c-0.1-0.1-0.4-0.3-0.7-0.5c-0.1-0.1-0.3-0.1-0.3-0.3c-0.8-0.7-1.9-1.1-3-1.1
				c-1.2,0-2.4,0.5-3.1,1.5c-1.4,1.8-1,4.5,1,6.1c0.1,0,0.1,0.1,0.3,0.1c0.3,0.1,0.4,0.4,0.7,0.5c0.8,0.5,1.5,1,2.3,1.4
				c0.4,0.1,0.8,0.4,1.2,0.7c2.4,1.5,4.5,2.7,6.1,4.2c0.7,0.7,0.7,1.4,0.7,2v0.3l1.4,1.2c-0.3,0.4-0.5,0.7-0.7,1.1
				c-6.8,10.7-9.4,23.4-7.6,35.9l-1.8,0.5c0,0.1-0.1,0.1-0.1,0.3c-0.3,0.5-0.7,1.1-1.5,1.5c-2,0.7-4.5,1-7.3,1.2h-0.1
				c-0.4,0-1,0-1.4,0.1c-0.8,0-1.6,0.1-2.6,0.3c-0.3,0-0.5,0.1-0.8,0.1c-0.1,0-0.3,0-0.4,0.1c-2.4,0.5-3.9,2.9-3.5,5
				c0.4,1.9,2.2,3.1,4.3,3.1c0.4,0,0.7,0,1.1-0.1c0.1,0,0.3,0,0.3-0.1c0.3,0,0.5-0.1,0.8-0.1c1-0.3,1.6-0.5,2.4-1
				c0.4-0.1,0.8-0.4,1.2-0.5h0.1c2.6-1,4.9-1.8,7.1-2h0.3c0.8,0,1.4,0.4,1.8,0.7c0.1,0,0.1,0.1,0.3,0.1l1.9-0.3
				c3.3,10.1,9.5,19,17.8,25.6c1.9,1.5,3.8,2.7,5.8,3.9l-0.8,1.8c0,0.1,0.1,0.1,0.1,0.3c0.3,0.5,0.5,1.2,0.3,2.2
				c-0.8,2-2,4.1-3.5,6.4v0.1c-0.3,0.4-0.5,0.7-0.8,1.1c-0.5,0.7-1,1.4-1.5,2.2c-0.1,0.1-0.3,0.4-0.4,0.7c0,0.1-0.1,0.3-0.1,0.3
				c-1.1,2.3-0.3,4.9,1.8,5.8c0.5,0.3,1.1,0.4,1.6,0.4c1.6,0,3.3-1.1,4.1-2.6c0-0.1,0.1-0.3,0.1-0.3c0.1-0.3,0.3-0.5,0.4-0.7
				c0.4-1,0.5-1.6,0.8-2.4l0.4-1.2c1-2.7,1.6-4.9,2.9-6.8c0.5-0.8,1.2-1,1.8-1.2c0.1,0,0.1,0,0.3-0.1l1-1.8c6,2.3,12.5,3.5,19,3.5
				c3.9,0,8-0.4,11.8-1.4c2.4-0.5,4.8-1.2,7.1-2l0.8,1.5c0.1,0,0.1,0,0.3,0.1c0.7,0.1,1.2,0.4,1.8,1.2c1.1,1.9,1.9,4.2,2.9,6.8v0.1
				l0.4,1.2c0.3,0.8,0.4,1.6,0.8,2.4c0.1,0.3,0.3,0.4,0.4,0.7c0,0.1,0.1,0.3,0.1,0.3c0.8,1.6,2.4,2.6,4.1,2.6c0.5,0,1.1-0.1,1.6-0.4
				c1-0.5,1.8-1.4,2-2.4c0.3-1.1,0.3-2.3-0.3-3.4c0-0.1-0.1-0.1-0.1-0.3c-0.1-0.3-0.3-0.5-0.4-0.7c-0.4-0.8-1-1.5-1.5-2.2
				c-0.3-0.4-0.5-0.7-0.8-1.1V777c-1.5-2.3-2.9-4.3-3.5-6.4c-0.3-1,0-1.5,0.1-2.2c0-0.1,0.1-0.1,0.1-0.3l-0.7-1.6
				c7.2-4.2,13.3-10.2,17.9-17.5c2.4-3.8,4.3-8,5.7-12.2l1.6,0.3c0.1,0,0.1-0.1,0.3-0.1c0.5-0.3,1-0.7,1.8-0.7h0.3
				c2.2,0.3,4.5,1.1,7.1,2h0.1c0.4,0.1,0.8,0.4,1.2,0.5c0.8,0.4,1.5,0.7,2.4,1c0.3,0,0.5,0.1,0.8,0.1c0.1,0,0.3,0,0.4,0.1
				c0.4,0.1,0.7,0.1,1.1,0.1c2,0,3.8-1.4,4.3-3.1C1669,735.4,1667.5,733.3,1665.1,732.6L1665.1,732.6z M1602.2,725.9l-6,2.9l-6-2.9
				l-1.5-6.4l4.1-5.2h6.7l4.1,5.2L1602.2,725.9L1602.2,725.9z M1637.6,711.8c1.1,4.5,1.4,9.1,1,13.7l-20.8-6c-1.9-0.5-3-2.4-2.6-4.3
				c0.1-0.5,0.4-1.1,0.8-1.5l16.4-14.8C1634.8,702.7,1636.6,707,1637.6,711.8L1637.6,711.8z M1625.9,690.7l-17.8,12.6
				c-1.5,1-3.5,0.7-4.8-0.8c-0.4-0.4-0.5-1-0.7-1.5l-1.2-22.2C1610.7,679.9,1619.4,684.1,1625.9,690.7L1625.9,690.7z M1586.5,679.6
				c1.5-0.3,2.9-0.5,4.3-0.8l-1.2,21.7c-0.1,1.9-1.6,3.5-3.7,3.5c-0.5,0-1.2-0.1-1.6-0.4l-18.1-12.9
				C1571.8,685.1,1578.8,681.3,1586.5,679.6L1586.5,679.6z M1559.7,698.9l16.2,14.4c1.5,1.2,1.6,3.5,0.4,5c-0.4,0.5-1,1-1.6,1.1
				l-21.1,6.1C1552.8,716.3,1554.9,706.9,1559.7,698.9L1559.7,698.9z M1556.1,735.7l21.6-3.7c1.8-0.1,3.4,1.1,3.8,2.9
				c0.1,0.8,0.1,1.5-0.1,2.2l-8.3,20C1565.5,752.2,1559.3,744.7,1556.1,735.7L1556.1,735.7z M1605.7,762.8c-3.1,0.7-6.3,1.1-9.5,1.1
				c-4.8,0-9.4-0.8-13.7-2.2l10.7-19.4c1.1-1.2,2.9-1.8,4.3-1c0.6,0.4,1.2,0.9,1.6,1.5l10.5,18.9
				C1608.4,762.1,1607.1,762.3,1605.7,762.8L1605.7,762.8z M1632.2,743.9c-3.4,5.4-7.9,9.8-13,13.2l-8.6-20.5
				c-0.4-1.6,0.3-3.4,1.9-4.2c0.5-0.3,1.2-0.4,1.9-0.4l21.8,3.7C1635.3,738.6,1634,741.3,1632.2,743.9L1632.2,743.9z"/>
		</g>
	</g>
</g>
<g>
	<g>
		<rect x="463.7" y="739.7" class="st0" width="318.4" height="2.4"/>
	</g>
</g>
<g>
	<g>
		<rect x="1097.8" y="739.7" class="st0" width="318.4" height="2.4"/>
	</g>
</g>
<g>
	<g>
		<rect x="1602.1" y="438.2" class="st0" width="2.4" height="159.2"/>
	</g>
	<g>
		<polygon class="st0" points="1591.5,442.8 1603.8,430.5 1615.5,442.8 		"/>
	</g>
	<g>
		<polygon class="st0" points="1416.2,728.9 1428.5,741.2 1416.2,752.9 		"/>
	</g>
	<g>
		<polygon class="st0" points="466.1,752.9 453.9,740.6 466.1,728.9 		"/>
	</g>
</g>
<g>
	<g>
		<g>
			<path class="st0" d="M899.2,1313.2l2.7-3.4c2.3,2.7,6.2,5.2,11.2,5.2c6.4,0,8.4-3.4,8.4-6.2c0-9.2-21.2-4.1-21.2-16.9
				c0-5.9,5.3-10,12.4-10c5.4,0,9.7,1.9,12.7,5l-2.7,3.3c-2.7-3-6.4-4.3-10.4-4.3c-4.2,0-7.4,2.3-7.4,5.7c0,8.1,21.2,3.4,21.2,16.8
				c0,5.2-3.5,10.5-13.2,10.5C906.8,1318.9,902.2,1316.5,899.2,1313.2z"/>
			<path class="st0" d="M930.5,1318.2v-35.8h4v35.8H930.5z"/>
			<path class="st0" d="M956.7,1318.2v-3c-2.1,2.4-5.1,3.6-8.6,3.6c-4.4,0-9-3-9-8.6c0-5.9,4.6-8.5,9-8.5c3.5,0,6.5,1.1,8.6,3.5
				v-4.7c0-3.4-2.8-5.4-6.6-5.4c-3.1,0-5.6,1.1-8,3.6l-1.9-2.8c2.8-2.9,6.1-4.3,10.4-4.3c5.5,0,10,2.5,10,8.8v17.8H956.7z
				 M956.7,1312.7v-4.9c-1.6-2.1-4.3-3.2-7.1-3.2c-3.8,0-6.4,2.4-6.4,5.6c0,3.3,2.6,5.7,6.4,5.7
				C952.4,1316,955.2,1314.9,956.7,1312.7z"/>
			<path class="st0" d="M965.2,1305.2c0-7.7,5.2-13.6,12.9-13.6c4.7,0,7.5,1.9,9.5,4.5l-2.7,2.4c-1.7-2.4-3.9-3.3-6.6-3.3
				c-5.5,0-9,4.2-9,10s3.5,10,9,10c2.7,0,4.9-1.1,6.6-3.4l2.7,2.5c-2,2.6-4.8,4.5-9.5,4.5C970.4,1318.9,965.2,1312.9,965.2,1305.2z"
				/>
			<path class="st0" d="M1008.9,1318.2l-9.3-11.7l-4.4,4.2v7.4h-4v-35.8h4v23.7l13.6-13.8h5.1l-11.5,11.8l11.5,14.2H1008.9z"/>
		</g>
	</g>
	<g id="Layer_2">
		<g>
			<g>
				
					<rect x="942.5" y="1154.2" transform="matrix(0.9482 -0.3176 0.3176 0.9482 -321.1394 363.929)" class="st0" width="26.2" height="25.3"/>
			</g>
			<g>
				<g>
					
						<rect x="942.5" y="1154.2" transform="matrix(0.9482 -0.3176 0.3176 0.9482 -321.1394 363.929)" class="st0" width="26.2" height="25.3"/>
				</g>
				<g>
					<path class="st0" d="M1041,1141.1c-19.2-64.1-46.9-79-111-59.8c-64.1,19.2-79,46.9-59.8,111c19.2,64.1,46.9,79,111,59.8
						C1045.3,1232.9,1060.2,1205.2,1041,1141.1z M1008.7,1182.7l-12.1,4l4.2,12.5c1.6,5.1-1,10.6-6.1,12.2c-1,0.3-2.2,0.6-3.3,0.4
						c-3.9-0.1-7.6-2.7-8.9-6.6l-4.2-12.5l-24.9,8.3l4.2,12.5c1.6,5.1-1,10.6-6.1,12.2c-1,0.3-2.2,0.6-3.3,0.4
						c-3.9-0.1-7.6-2.7-8.9-6.6l-4.2-12.5l-12.1,4c-1,0.3-2.2,0.6-3.3,0.4c-3.9-0.1-7.6-2.7-8.9-6.6c-1.6-5.1,1-10.6,6.1-12.2
						l12.1-4l-8-24l-12.1,4c-1,0.3-2.2,0.6-3.3,0.4c-3.9-0.1-7.6-2.7-8.9-6.6c-1.6-5.1,1-10.6,6.1-12.2l12.1-4l-4.2-12.5
						c-1.6-5.1,1-10.6,6.1-12.2s10.6,1,12.2,6.1l4.2,12.5l24.9-8.3l-4.2-12.5c-1.6-5.1,1-10.6,6.1-12.2s10.6,1,12.2,6.1l4.2,12.5
						l12.1-4c5.1-1.6,10.6,1,12.2,6.1s-1,10.6-6.1,12.2l-12.1,4l8,24l12.1-4c5.1-1.6,10.6,1,12.2,6.1
						C1016.4,1175.6,1013.7,1181.1,1008.7,1182.7z"/>
				</g>
			</g>
		</g>
	</g>
</g>
<g>
	<g>
		
			<rect x="563.6" y="744.2" transform="matrix(0.4706 -0.8823 0.8823 0.4706 -601.5782 1038.6094)" class="st0" width="2.4" height="552.8"/>
	</g>
</g>
<g>
	<g>
		
			<rect x="1048.5" y="1019.4" transform="matrix(0.8824 -0.4705 0.4705 0.8824 -324.396 743.3878)" class="st0" width="552.8" height="2.4"/>
	</g>
</g>
<g>
	<g>
		<g>
			<polygon class="st0" points="1562.6,191 1603.7,215.8 1646,191 1604.3,168.9 			"/>
		</g>
		<g>
			<polygon class="st0" points="1558,197.8 1558,246.4 1599.1,271.6 1599.1,222.8 			"/>
		</g>
		<g>
			<polygon class="st0" points="1650.1,197.8 1650.1,246.4 1609,271.6 1609,222.8 			"/>
		</g>
		<g>
			<rect x="1601.9" y="127" class="st0" width="4.8" height="47.7"/>
		</g>
		<g>
			
				<rect x="1661.8" y="232.6" transform="matrix(0.5444 -0.8389 0.8389 0.5444 544.9078 1511.8921)" class="st0" width="4.8" height="43.4"/>
		</g>
		<g>
			
				<rect x="1523.4" y="253.3" transform="matrix(0.8672 -0.498 0.498 0.8672 77.8115 803.131)" class="st0" width="42" height="4.8"/>
		</g>
		<g>
			<path class="st0" d="M1601.4,325.3c-1.3,0-2.6-0.3-3.7-1l-81.8-48.8c-2.2-1.3-3.5-3.7-3.5-6.2v-94.6c0-2.5,1.3-4.8,3.4-6.1
				l84.7-53.5c2.3-1.5,5.3-1.5,7.7,0l83.1,51.6c2.1,1.3,3.4,3.6,3.4,6.1v98.8c0,2.7-1.5,5.1-3.8,6.4l-86,46.5
				C1603.8,325.1,1602.6,325.3,1601.4,325.3z M1526.8,265.2l74.7,44.6l78.6-42.5v-90.5l-75.9-47l-77.5,48.9V265.2z"/>
		</g>
	</g>
	<g>
		<g>
			<path class="st0" d="M1558.9,357.9c0-11.2,8.2-18.5,18.4-18.5c6.4,0,10.8,2.8,13.9,6.7l-3.5,2.3c-2.3-2.9-6.1-4.9-10.4-4.9
				c-7.8,0-13.8,6-13.8,14.6c0,8.5,6,14.6,13.8,14.6c4.3,0,7.8-2,9.7-3.9v-7.3h-12.4v-4h16.8v12.9c-3.3,3.8-8.2,6.2-14.1,6.2
				C1567.1,376.5,1558.9,369.1,1558.9,357.9z"/>
			<path class="st0" d="M1618.2,375.8l-13.6-16.1l-3.6,4.1v12h-4.5V340h4.5v18.5l15.8-18.5h5.6l-14.9,17l16.3,18.9H1618.2z"/>
			<path class="st0" d="M1626.6,375.8V340h23.5v4h-19v11.6h18.6v4h-18.6v12.4h19v4H1626.6z"/>
		</g>
	</g>
</g>
<g>
	<polygon class="st0" points="813.3,1139.5 818.2,1156.6 801.5,1161 	"/>
</g>
<g>
	<polygon class="st0" points="1091.9,1161.1 1075,1155.9 1080.3,1139.5 	"/>
</g>
</svg>
