<?xml version="1.0" encoding="UTF-8"?>
<svg width="852px" height="576px" viewBox="0 0 852 576" version="1.1" xmlns="http://www.w3.org/2000/svg" xmlns:xlink="http://www.w3.org/1999/xlink">
    <!-- Generator: Sketch 43.2 (39069) - http://www.bohemiancoding.com/sketch -->
    <title>Artboard</title>
    <desc>Created with Sketch.</desc>
    <defs></defs>
    <g id="Page-1" stroke="none" stroke-width="1" fill="none" fill-rule="evenodd">
        <g id="Artboard">
            <g id="Group" transform="translate(38.000000, 0.000000)" fill="#FFFFFF">
                <path d="M50.9319328,0.374789916 C22.9092437,0.374789916 0.185714286,23.0932773 0.185714286,51.1201681 C0.185714286,73.5411765 14.7260504,92.5630252 34.8890756,99.2731092 C37.4252101,99.7428571 38.3563025,98.1722689 38.3563025,96.8319328 C38.3563025,95.6218487 38.3092437,91.6243697 38.287395,87.3840336 C24.1697479,90.4537815 21.1907563,81.3966387 21.1907563,81.3966387 C18.8823529,75.5310924 15.5563025,73.9714286 15.5563025,73.9714286 C10.9521008,70.8218487 15.9033613,70.8865546 15.9033613,70.8865546 C20.9991597,71.2436975 23.6823529,76.1159664 23.6823529,76.1159664 C28.2084034,83.8739496 35.5537815,81.6310924 38.4495798,80.3344538 C38.905042,77.0554622 40.2201681,74.8151261 41.6714286,73.5487395 C30.4,72.2655462 18.5512605,67.9142857 18.5512605,48.4697479 C18.5512605,42.9294118 20.5336134,38.402521 23.7798319,34.8487395 C23.2529412,33.5697479 21.5159664,28.4092437 24.2714286,21.4193277 C24.2714286,21.4193277 28.5327731,20.0554622 38.2302521,26.6210084 C42.2781513,25.4966387 46.6193277,24.9327731 50.9319328,24.9134454 C55.2445378,24.9327731 59.5890756,25.4966387 63.6445378,26.6210084 C73.3302521,20.0554622 77.5857143,21.4193277 77.5857143,21.4193277 C80.3478992,28.4092437 78.610084,33.5697479 78.0831933,34.8487395 C81.3369748,38.402521 83.3058824,42.9294118 83.3058824,48.4697479 C83.3058824,67.9605042 71.4344538,72.2521008 60.1344538,73.5084034 C61.9546218,75.0831933 63.5764706,78.1714286 63.5764706,82.9058824 C63.5764706,89.694958 63.5176471,95.1596639 63.5176471,96.8319328 C63.5176471,98.1823529 64.4310924,99.7647059 67.0033613,99.2663866 C87.1554622,92.5487395 101.677311,73.5336134 101.677311,51.1201681 C101.677311,23.0932773 78.9571429,0.374789916 50.9319328,0.374789916" id="Fill-51"></path>
                <path d="M19.4058824,73.2344538 C19.2941176,73.487395 18.897479,73.5621849 18.5361345,73.3890756 C18.1680672,73.2235294 17.9613445,72.8798319 18.0806723,72.6268908 C18.189916,72.3672269 18.587395,72.2957983 18.9546218,72.4680672 C19.3235294,72.6344538 19.5336134,72.9815126 19.4058824,73.2344538" id="Fill-52"></path>
                <path d="M21.4613445,75.5268908 C21.2193277,75.7512605 20.7462185,75.6470588 20.4252101,75.292437 C20.0932773,74.9386555 20.0310924,74.4655462 20.2764706,74.2378151 C20.5260504,74.0134454 20.9848739,74.1184874 21.3176471,74.4722689 C21.6495798,74.8302521 21.7142857,75.3 21.4613445,75.5268908" id="Fill-53"></path>
                <path d="M23.4621849,78.4495798 C23.1512605,78.6655462 22.6428571,78.4630252 22.3285714,78.0117647 C22.0176471,77.5605042 22.0176471,77.0193277 22.3352941,76.802521 C22.6504202,76.5857143 23.1512605,76.7806723 23.4697479,77.2285714 C23.7798319,77.6865546 23.7798319,78.2285714 23.4621849,78.4495798" id="Fill-54"></path>
                <path d="M26.2033613,81.2731092 C25.9252101,81.5798319 25.3327731,81.497479 24.8991597,81.0789916 C24.4554622,80.6697479 24.3319328,80.0890756 24.6109244,79.7823529 C24.892437,79.4747899 25.4882353,79.5613445 25.9252101,79.9764706 C26.3655462,80.3848739 26.5,80.9697479 26.2033613,81.2731092" id="Fill-55"></path>
                <path d="M29.9848739,82.912605 C29.8621849,83.310084 29.2915966,83.4907563 28.7168067,83.3218487 C28.1428571,83.1478992 27.7672269,82.6823529 27.8831933,82.2806723 C28.002521,81.8806723 28.5756303,81.692437 29.1546218,81.8731092 C29.7277311,82.0462185 30.1042017,82.5084034 29.9848739,82.912605" id="Fill-56"></path>
                <path d="M34.1378151,83.2168067 C34.1521008,83.6352941 33.6647059,83.9823529 33.0613445,83.9890756 C32.4546218,84.0033613 31.9638655,83.6647059 31.9571429,83.2529412 C31.9571429,82.8302521 32.4336134,82.4865546 33.0403361,82.4764706 C33.6436975,82.4647059 34.1378151,82.8008403 34.1378151,83.2168067" id="Fill-57"></path>
                <path d="M38.002521,82.5588235 C38.0747899,82.9672269 37.6554622,83.3865546 37.0563025,83.497479 C36.4672269,83.6058824 35.9218487,83.3537815 35.8470588,82.9487395 C35.7739496,82.5302521 36.2008403,82.1109244 36.7890756,82.002521 C37.3890756,81.8983193 37.9260504,82.1436975 38.002521,82.5588235" id="Fill-58"></path>
            </g>
            <g id="Group-5" transform="translate(718.000000, 0.000000)" fill-rule="nonzero" fill="#FFFFFF">
                <g id="Group-2">
                    <path d="M37.1472081,50.4716981 C37.1472081,43.8296226 42.5583756,38.4493396 49.2385787,38.4493396 C55.9086294,38.4493396 61.319797,43.8296226 61.319797,50.4716981 C61.319797,57.1036792 55.9086294,62.4839623 49.2385787,62.4839623 C42.5685279,62.4839623 37.1472081,57.1036792 37.1472081,50.4716981 Z M49.2385787,0 C25.5431472,0 5.66497462,16.1408491 0.0609137056,37.9648113 C0.0203045685,38.1263208 0,38.2878302 0,38.4493396 C0,39.7817925 1.08629442,40.8517925 2.41624365,40.8517925 L22.8730964,40.8517925 C23.8477157,40.8517925 24.680203,40.2764151 25.0659898,39.4486792 L25.0761421,39.4486792 C29.2791878,30.3536792 38.5177665,24.0245283 49.2385787,24.0245283 C63.9187817,24.0245283 75.8274112,35.8651887 75.8274112,50.4616038 C75.8274112,65.0580189 63.9187817,76.8986792 49.2385787,76.8986792 C38.5076142,76.8986792 29.2690355,70.5796226 25.0761421,61.4745283 L25.0659898,61.4745283 C24.680203,60.6467925 23.8477157,60.0714151 22.8730964,60.0714151 L2.41624365,60.0714151 C1.08629442,60.0714151 0,61.1515094 0,62.4738679 C0,62.6353774 0.0304568528,62.7968868 0.0609137056,62.9583962 C5.65482234,84.7924528 25.5431472,100.943396 49.2385787,100.943396 C77.2690355,100.943396 100,78.3421698 100,50.4716981 C100,22.6012264 77.2690355,0 49.2385787,0 Z" id="mark_1_"></path>
                </g>
            </g>
            <g id="Group-8" transform="translate(41.000000, 433.000000)" fill-rule="nonzero" fill="#FFFFFF">
                <g id="Download">
                    <path d="M72.5543478,0 L34.5496894,41.3793103 L9.21440217,21.8413793 L0,27.6413793 L0,75.862069 L9.21440217,81.6068966 L34.5496894,62.0689655 L72.5543478,100 L96.7391304,89.6551724 L96.7391304,12.6448276 L72.5543478,6.12536841e-15 L72.5543478,0 Z M10.3649068,65.5172414 L10.3649068,34.4827586 L24.1847826,51.7241379 L10.3649068,65.5172414 Z M48.3695652,51.7241379 L72.5543478,31.0344828 L72.5543478,72.4137931 L48.3695652,51.7241379 Z" id="Shape"></path>
                </g>
            </g>
            <path d="M126.251888,242.155639 C125.680116,240.355159 124.307863,238.892269 122.592546,237.992029 L87.7144511,221.56265 C86.7996159,221.11253 85.7704262,221 84.8555909,221 C83.9407556,221 82.9115659,221 81.9967306,221.22506 L47.1186353,237.766969 C45.4033192,238.554679 44.1454206,240.017569 43.688003,241.930579 L35.1114222,278.952948 C34.768359,280.865958 35.2257766,282.778968 36.3693207,284.354388 L60.4981014,313.724717 C61.8703543,315.075077 63.8143793,315.975317 65.7584043,316.087847 L104.181486,316.087847 C106.239866,316.312907 108.183891,315.412667 109.441789,313.724717 L133.57057,284.354388 C134.714114,282.778968 135.171532,280.865958 134.942823,278.952948 L126.251888,242.155639 Z" id="Shape" stroke="#FFFFFF" stroke-width="5" fill-rule="nonzero"></path>
            <path d="M120.756267,277.875026 L120.756267,277.875026 C120.642455,277.875026 120.528643,277.875026 120.528643,277.761967 C120.528643,277.648908 120.30102,277.648908 120.073396,277.648908 C119.618149,277.535849 119.162902,277.535849 118.707655,277.535849 C118.480032,277.535849 118.252408,277.535849 118.024785,277.422791 L117.910973,277.422791 C116.659044,277.309732 115.293303,277.083614 114.041374,276.744438 C113.699938,276.631379 113.358503,276.292202 113.244691,275.953026 C113.358503,275.953026 113.244691,275.953026 113.244691,275.953026 L113.244691,275.953026 L112.334197,275.726908 C112.789444,272.448202 112.561821,269.056436 111.87895,265.77773 C111.082268,262.499024 109.716527,259.333376 107.895539,256.506905 L108.57841,255.828552 L108.57841,255.828552 L108.57841,255.715493 C108.57841,255.376317 108.692221,254.924081 108.919845,254.697964 C109.944151,253.793493 110.968456,253.11514 112.106574,252.436787 L112.106574,252.436787 C112.334197,252.323728 112.561821,252.210669 112.789444,252.09761 C113.244691,251.871493 113.586127,251.645375 114.041374,251.419257 C114.155185,251.306199 114.268997,251.306199 114.382809,251.19314 C114.496621,251.080081 114.382809,251.080081 114.382809,250.967022 L114.382809,250.967022 C115.407115,250.17561 115.634738,248.818904 114.838056,247.801375 C114.496621,247.349139 113.81375,247.009963 113.244691,247.009963 C112.675633,247.009963 112.106574,247.23608 111.651327,247.575257 L111.651327,247.575257 L111.537515,247.688316 C111.423703,247.801375 111.309892,247.914433 111.19608,247.914433 C110.854645,248.25361 110.513209,248.592786 110.285586,248.931963 C110.171774,249.158081 109.944151,249.271139 109.830339,249.384198 L109.830339,249.384198 C109.033657,250.288669 108.009351,251.19314 106.985045,251.871493 C106.757422,251.984552 106.529798,252.09761 106.302175,252.09761 C106.188363,252.09761 105.96074,252.09761 105.846928,251.984552 L105.733116,251.984552 L104.822622,252.549846 C103.912128,251.645375 102.887822,250.740904 101.977328,249.836434 C97.7662938,246.557727 92.5309535,244.522668 87.1818014,243.957374 L87.0679896,243.052903 L87.0679896,243.052903 L87.0679896,243.165962 C86.7265544,242.939844 86.6127426,242.600668 86.4989309,242.261491 C86.4989309,241.017844 86.4989309,239.774197 86.7265544,238.417491 L86.7265544,238.304432 C86.7265544,238.078314 86.8403661,237.852197 86.8403661,237.626079 C86.9541779,237.173844 86.9541779,236.721608 87.0679896,236.269373 L87.0679896,235.59102 L87.0679896,235.59102 C87.1818014,234.460431 86.2713074,233.329843 85.1331899,233.216784 C84.4503195,233.103725 83.767449,233.442902 83.1983903,234.008196 C82.7431433,234.460431 82.5155198,235.025726 82.5155198,235.59102 L82.5155198,235.59102 L82.5155198,236.156314 C82.5155198,236.608549 82.6293315,237.060785 82.7431433,237.51302 C82.856955,237.739138 82.856955,237.965255 82.856955,238.191373 L82.856955,238.304432 C83.0845785,239.548079 83.0845785,240.791726 83.0845785,242.148433 C82.9707668,242.487609 82.856955,242.826786 82.5155198,243.052903 L82.5155198,243.279021 L82.5155198,243.279021 L82.401708,244.183492 C81.1497788,244.296551 79.8978496,244.522668 78.5321086,244.748786 C73.1829566,245.879374 68.2890515,248.705845 64.5332638,252.662905 L63.8503933,252.210669 L63.7365816,252.210669 C63.6227698,252.210669 63.5089581,252.323728 63.2813346,252.323728 C63.0537111,252.323728 62.8260876,252.210669 62.5984641,252.09761 C61.5741584,251.306199 60.5498527,250.401728 59.7531705,249.497257 L59.7531705,249.497257 C59.6393587,249.271139 59.4117352,249.158081 59.2979235,249.045022 C58.9564882,248.705845 58.7288647,248.366669 58.3874295,248.027492 C58.2736178,247.914433 58.159806,247.914433 58.0459943,247.801375 C57.9321825,247.688316 57.9321825,247.688316 57.9321825,247.688316 L57.9321825,247.688316 C57.4769355,247.349139 56.9078768,247.123022 56.3388181,247.123022 C55.6559476,247.123022 55.0868889,247.349139 54.7454536,247.914433 C54.0625831,248.931963 54.2902066,250.288669 55.2007006,251.080081 L55.2007006,251.080081 C55.3145124,251.080081 55.3145124,251.19314 55.3145124,251.19314 C55.3145124,251.19314 55.5421358,251.419257 55.6559476,251.419257 C55.9973828,251.645375 56.4526298,251.871493 56.9078768,252.09761 C57.1355003,252.210669 57.3631238,252.323728 57.5907473,252.436787 L57.5907473,252.436787 C58.7288647,253.11514 59.8669822,253.793493 60.7774762,254.697964 C61.0050997,254.924081 61.2327232,255.376317 61.1189114,255.715493 L61.1189114,255.602435 L61.1189114,255.602435 L61.8017819,256.280788 C61.6879702,256.506905 61.5741584,256.619964 61.4603467,256.846082 C57.9321825,262.385965 56.4526298,268.943378 57.4769355,275.387732 L56.5664416,275.613849 L56.5664416,275.613849 C56.5664416,275.726908 56.4526298,275.726908 56.4526298,275.726908 C56.3388181,276.066085 55.9973828,276.292202 55.6559476,276.51832 C54.4040184,276.857496 53.1520892,277.083614 51.7863482,277.196673 L51.7863482,277.196673 C51.5587247,277.196673 51.3311012,277.196673 51.1034777,277.309732 C50.6482307,277.309732 50.1929838,277.422791 49.7377368,277.422791 C49.623925,277.422791 49.5101133,277.535849 49.2824898,277.535849 C49.168678,277.535849 49.168678,277.535849 49.0548663,277.648908 L49.0548663,277.648908 C47.8029371,277.875026 47.0062549,279.005614 47.2338783,280.249262 L47.2338783,280.249262 C47.4615018,281.266791 48.4858076,281.945144 49.5101133,281.832085 C49.7377368,281.832085 49.8515485,281.832085 50.079172,281.719027 L50.079172,281.719027 C50.1929838,281.719027 50.1929838,281.719027 50.1929838,281.605968 C50.1929838,281.492909 50.534419,281.605968 50.6482307,281.605968 C51.1034777,281.492909 51.5587247,281.266791 51.90016,281.153732 C52.1277834,281.040674 52.3554069,280.927615 52.5830304,280.927615 L52.6968422,280.927615 C53.9487714,280.475379 55.0868889,280.136203 56.4526298,279.910085 L56.5664416,279.910085 C56.9078768,279.910085 57.249312,280.023144 57.4769355,280.249262 C57.5907473,280.249262 57.5907473,280.36232 57.5907473,280.36232 L57.5907473,280.36232 L58.615053,280.249262 C60.3222292,285.449968 63.5089581,290.085381 67.9476162,293.477146 C68.9719219,294.268558 69.8824159,294.946911 71.0205334,295.512205 L70.4514746,296.303617 L70.4514746,296.303617 C70.4514746,296.416676 70.5652864,296.416676 70.5652864,296.416676 C70.7929099,296.755852 70.7929099,297.208088 70.6790981,297.547264 C70.2238511,298.677853 69.5409807,299.808441 68.8581102,300.825971 L68.8581102,300.939029 C68.7442984,301.165147 68.6304867,301.278206 68.4028632,301.504324 C68.1752397,301.730441 67.9476162,302.182677 67.606181,302.634912 C67.4923692,302.747971 67.4923692,302.86103 67.3785575,302.974088 C67.3785575,302.974088 67.3785575,303.087147 67.2647457,303.087147 L67.2647457,303.087147 C66.695687,304.217736 67.150934,305.574442 68.1752397,306.139736 C68.4028632,306.252795 68.7442984,306.365854 68.9719219,306.365854 C69.8824159,306.365854 70.6790981,305.800559 71.1343451,305.009148 L71.1343451,305.009148 C71.1343451,305.009148 71.1343451,304.896089 71.2481569,304.896089 C71.2481569,304.78303 71.3619686,304.669971 71.4757804,304.556912 C71.5895921,304.104677 71.8172156,303.7655 71.9310273,303.313265 L72.1586508,302.634912 L72.1586508,302.634912 C72.5000861,301.391265 73.0691448,300.260676 73.6382035,299.130088 C73.865827,298.790911 74.2072623,298.564794 74.5486975,298.451735 C74.6625093,298.451735 74.6625093,298.451735 74.6625093,298.338676 L74.6625093,298.338676 L75.1177562,297.434205 C78.3044852,298.677853 81.6050258,299.243147 85.0193782,299.243147 C87.0679896,299.243147 89.1166011,299.017029 91.1652125,298.451735 C92.4171417,298.225617 93.6690709,297.773382 94.8071884,297.434205 L95.2624354,298.225617 L95.2624354,298.225617 C95.3762471,298.225617 95.3762471,298.225617 95.3762471,298.338676 C95.7176824,298.451735 96.0591176,298.677853 96.2867411,299.017029 C96.8557998,300.147617 97.4248586,301.278206 97.7662938,302.521853 L97.7662938,302.634912 L97.9939173,303.313265 C98.107729,303.7655 98.2215408,304.217736 98.4491643,304.556912 C98.562976,304.669971 98.562976,304.78303 98.6767878,304.896089 C98.6767878,304.896089 98.6767878,305.009148 98.7905995,305.009148 L98.7905995,305.009148 C99.2458465,305.800559 100.042529,306.365854 100.953023,306.365854 C101.294458,306.365854 101.522081,306.252795 101.863517,306.139736 C102.318764,305.913618 102.774011,305.461383 102.887822,304.896089 C103.001634,304.330795 103.001634,303.7655 102.774011,303.200206 L102.774011,303.200206 C102.774011,303.087147 102.660199,303.087147 102.660199,303.087147 C102.660199,302.974088 102.546387,302.86103 102.432575,302.747971 C102.204952,302.295735 101.977328,301.956559 101.635893,301.617382 C101.522081,301.391265 101.40827,301.278206 101.180646,301.052088 L101.180646,300.825971 C100.383964,299.808441 99.8149052,298.677853 99.3596583,297.547264 C99.2458465,297.208088 99.2458465,296.755852 99.47347,296.416676 C99.47347,296.303617 99.5872818,296.303617 99.5872818,296.303617 L99.5872818,296.303617 L99.2458465,295.399146 C105.050246,291.894322 109.488904,286.467498 111.537515,280.023144 L112.448009,280.136203 L112.448009,280.136203 C112.561821,280.136203 112.561821,280.023144 112.561821,280.023144 C112.789444,279.797026 113.13088,279.683967 113.472315,279.683967 L113.586127,279.683967 C114.838056,279.910085 116.089985,280.249262 117.228102,280.701497 L117.341914,280.701497 C117.569538,280.814556 117.797161,280.927615 118.024785,280.927615 C118.480032,281.153732 118.821467,281.37985 119.276714,281.492909 C119.390526,281.492909 119.504337,281.605968 119.731961,281.605968 C119.845773,281.605968 119.845773,281.605968 119.959584,281.719027 L119.959584,281.719027 C120.187208,281.832085 120.30102,281.832085 120.528643,281.832085 C121.552949,281.832085 122.463443,281.153732 122.804878,280.249262 C122.691066,279.005614 121.780572,278.101144 120.756267,277.875026 Z M87.8646719,274.370202 L84.7917547,275.839967 L81.7188375,274.370202 L80.9221553,271.091496 L83.0845785,268.378083 L86.4989309,268.378083 L88.6613541,271.091496 L87.8646719,274.370202 Z M106.415987,267.021377 C106.985045,269.395613 107.098857,271.769849 106.871234,274.144084 L96.0591176,271.091496 L96.0591176,271.091496 C95.0348119,270.865378 94.4657532,269.847848 94.6933767,268.830319 C94.8071884,268.491142 94.9210001,268.265025 95.1486236,268.038907 L103.684505,260.350906 C104.936434,262.385965 105.846928,264.647142 106.415987,267.021377 Z M100.270152,256.167729 L90.937589,262.725141 C90.1409068,263.177377 89.0027893,263.064318 88.4337306,262.272906 C88.2061071,262.046788 88.0922954,261.820671 88.0922954,261.481494 L87.4094249,250.062551 C92.4171417,250.627846 96.8557998,252.775964 100.270152,256.167729 L100.270152,256.167729 Z M79.6702261,250.401728 L81.946461,249.949493 L81.3774023,261.255377 L81.3774023,261.255377 C81.3774023,262.272906 80.4669083,263.064318 79.4426026,263.064318 C79.1011674,263.064318 78.8735439,262.951259 78.5321086,262.8382 L69.0857337,256.167729 C72.0448391,253.341258 75.686815,251.306199 79.6702261,250.401728 Z M65.785193,260.350906 L74.2072623,267.812789 L74.2072623,267.812789 C75.0039445,268.491142 75.1177562,269.621731 74.4348858,270.413143 C74.2072623,270.752319 73.9796388,270.865378 73.5243918,270.978437 L62.4846524,274.144084 C62.1432171,269.395613 63.2813346,264.534083 65.785193,260.350906 Z M63.8503933,279.45785 L75.1177562,277.535849 C76.0282502,277.535849 76.9387442,278.101144 77.0525559,279.005614 C77.1663677,279.344791 77.1663677,279.797026 76.9387442,280.136203 L76.9387442,280.136203 L72.6138978,290.537616 C68.6304867,287.937263 65.4437578,283.980203 63.8503933,279.45785 Z M89.6856598,293.477146 C88.0922954,293.816322 86.4989309,294.04244 84.7917547,294.04244 C82.401708,294.04244 79.8978496,293.590205 77.6216147,292.911852 L83.1983903,282.849615 C83.767449,282.171262 84.677943,281.945144 85.4746252,282.39738 C85.8160604,282.623497 86.0436839,282.849615 86.3851192,283.188791 L86.3851192,283.188791 L91.848083,293.024911 C91.1652125,293.137969 90.482342,293.251028 89.6856598,293.477146 Z M103.570693,283.641027 C101.863517,286.354439 99.47347,288.728675 96.7419881,290.424557 L92.30333,279.797026 C92.0757065,278.892556 92.5309535,277.988085 93.3276357,277.648908 C93.6690709,277.535849 94.0105062,277.422791 94.3519414,277.422791 L105.733116,279.344791 C105.164057,280.927615 104.481187,282.39738 103.570693,283.641027 Z" id="Shape" fill="#FFFFFF" fill-rule="nonzero"></path>
            <g id="container-engine-button-icon" transform="translate(718.000000, 417.000000)" fill-rule="nonzero" fill="#FFFFFF">
                <path d="M97.442654,26.6521456 L52.5573461,0.686700448 C50.9744078,-0.228900149 49.0255923,-0.228900149 47.442654,0.686700448 L2.55734597,26.6521456 C0.97440758,27.5677462 0,29.2602776 0,31.0914788 L0,83.0242687 C0,84.8573696 0.97440758,86.5480015 2.55734597,87.4636018 L47.442654,113.430947 C49.0255923,114.346547 50.9744078,114.346547 52.5573461,113.430947 L97.442654,87.4636018 C99.0255927,86.5480015 100,84.8573696 100,83.0242687 L100,31.0914788 C100,29.2602776 99.0255927,27.5677462 97.442654,26.6521456 L97.442654,26.6521456 Z M91.2834127,78.0492522 L75.6246448,68.9901252 L75.6246448,45.1275218 L52.5004741,58.5044089 L52.5004741,85.2619814 L73.1241708,73.3287803 L88.784834,82.3879073 L50.0000001,104.825821 L11.2151659,82.3879073 L26.8758294,73.3287803 L47.4995261,85.2619814 L47.4995261,58.5044089 L24.3753555,45.1275218 L24.3753555,68.9901252 L8.71658767,78.0492522 L8.71658767,33.175325 L47.4995261,10.7374116 L47.4995261,28.8556657 L26.8758294,40.7869673 L50.0000001,54.1657538 L73.1241708,40.7869673 L52.5004741,28.8556657 L52.5004741,10.7374116 L91.2834127,33.175325 L91.2834127,78.0492522 L91.2834127,78.0492522 Z" id="Fill-4"></path>
            </g>
            <text id="Github" font-family="ProximaNova-Light, Proxima Nova" font-size="34" font-weight="300" fill="#FFFFFF">
                <tspan x="41.033" y="142">Github</tspan>
            </text>
            <g id="Group-4" transform="translate(718.000000, 217.000000)" fill="#FFFFFF">
                <path d="M50,0 C77.6061776,0 100,22.3938224 100,50 C100,77.6061776 77.6061776,100 50,100 C22.3938224,100 0,77.6061776 0,50 C0,22.3938224 22.3938224,0 50,0 Z M82.95876,65.2163822 C82.6143725,62.4655394 80.3184553,60.5670704 77.3720282,60.6058147 C72.9715203,60.6639311 69.2789202,62.9692149 66.8299418,64.4996133 C65.8733097,65.1001495 65.050606,65.5457085 64.3426982,65.8750348 C64.4957594,63.6278674 64.3618309,60.6833032 63.2138723,57.4481571 C61.8171893,53.5737305 59.9421903,51.1909582 58.6029053,49.8155368 C60.1526494,47.5296252 62.2763728,44.1976183 63.2712702,39.0446311 C64.1322391,34.647157 63.8643821,27.8087941 61.8937199,23.9731119 C61.4919344,23.1982266 60.8222919,22.6364347 59.9804556,22.4039691 C59.636068,22.3071085 58.9855581,22.1133871 57.703671,22.4814577 C55.7712741,18.432682 55.1016316,18.006495 54.5850502,17.6577966 C53.5136222,16.9603999 52.2508677,16.8054228 51.0646439,17.2509819 C49.4766345,17.8321458 48.1182168,19.3819164 46.8363297,22.1327593 C46.6450033,22.5395741 46.4728095,22.9270167 46.3197484,23.3144594 C43.8899027,23.4888086 40.063374,24.3799267 36.8299573,27.9250269 C36.4281718,28.370586 35.6437335,28.6999122 34.8210298,29.0098664 L34.8401624,29.0098664 C33.1564898,29.6104025 32.3911841,31.005196 31.4536846,33.5235733 C30.1526649,37.0493014 31.4919499,40.5169131 32.8121023,42.7640805 C31.0136338,44.3913397 28.6220534,46.9872054 27.359299,50.0286303 C25.7904222,53.786824 25.6182284,57.4675292 25.6756264,59.4628589 C24.3363413,60.8963967 22.2700159,63.5891231 22.0404242,66.6111758 C21.7343019,70.8343007 23.2457807,73.7013763 23.9154232,74.7474715 C24.1067496,75.0574256 24.3172087,75.3092633 24.5468004,75.5611011 C24.4702698,76.0841487 24.4511372,76.6459405 24.5659331,77.2271045 C24.8146574,78.5831538 25.6564937,79.6873653 26.9383808,80.3847621 C29.4638897,81.7408114 32.9842961,82.3219754 35.7011314,80.9465539 C36.6768962,81.9926491 38.456232,83 41.6896487,83 L41.8809751,83 C42.7036788,83 53.150102,82.4382082 56.1921922,81.682695 C57.5506099,81.3533687 58.4881094,80.7722047 59.100354,80.2491572 C61.0518836,79.6292489 66.447289,77.7695242 71.5365721,74.4375174 C75.133509,72.0741172 76.3771308,71.5704417 79.0557008,70.9117892 C81.6577403,70.2725089 83.284015,67.8703644 82.95876,65.2163822 Z" id="Combined-Shape" fill-rule="nonzero"></path>
                <text id="Yarn" font-family="ProximaNova-Light, Proxima Nova" font-size="34" font-weight="300">
                    <tspan x="18.21" y="142">Yarn</tspan>
                </text>
            </g>
            <text id="Visual-Code" font-family="ProximaNova-Light, Proxima Nova" font-size="34" font-weight="300" fill="#FFFFFF">
                <tspan x="0.005" y="569">Visual Code</tspan>
            </text>
            <text id="CircleCI" font-family="ProximaNova-Light, Proxima Nova" font-size="34" font-weight="300" fill="#FFFFFF">
                <tspan x="710.159" y="142">CircleCI</tspan>
            </text>
            <text id="Kubernetes" font-family="ProximaNova-Light, Proxima Nova" font-size="34" font-weight="300" fill="#FFFFFF">
                <tspan x="0.027" y="359">Kubernetes</tspan>
            </text>
            <text id="GKE" font-family="ProximaNova-Light, Proxima Nova" font-size="34" font-weight="300" fill="#FFFFFF">
                <tspan x="736.363" y="569">GKE</tspan>
            </text>
            <g id="Group-9" transform="translate(370.000000, 0.000000)" fill="#FFFFFF">
                <g id="Slack_Monochrome_White" transform="translate(6.000000, 0.000000)" fill-rule="nonzero">
                    <g id="Group">
                        <rect id="Rectangle-path" transform="translate(49.757794, 49.838841) rotate(-18.518296) translate(-49.757794, -49.838841) " x="42.7738308" y="43.0929681" width="13.9679257" height="13.4917464"></rect>
                        <g>
                            <rect id="Rectangle-path" transform="translate(49.757794, 49.838841) rotate(-18.518296) translate(-49.757794, -49.838841) " x="42.7738308" y="43.0929681" width="13.9679257" height="13.4917464"></rect>
                            <path d="M95.2380952,36.1111111 C85,1.98412698 70.2380952,-5.95238095 36.1111111,4.28571429 C1.98412698,14.5238095 -5.95238095,29.2857143 4.28571429,63.4126984 C14.5238095,97.5396825 29.2857143,105.47619 63.4126984,95.2380952 C97.5396825,85 105.47619,70.2380952 95.2380952,36.1111111 Z M78.015873,58.2539683 L71.5873016,60.3968254 L73.8095238,67.0634921 C74.6825397,69.7619048 73.2539683,72.6984127 70.5555556,73.5714286 C70,73.7301587 69.3650794,73.8888889 68.8095238,73.8095238 C66.7460317,73.7301587 64.7619048,72.3809524 64.047619,70.3174603 L61.8253968,63.6507937 L48.5714286,68.0952381 L50.7936508,74.7619048 C51.6666667,77.4603175 50.2380952,80.3968254 47.5396825,81.2698413 C46.984127,81.4285714 46.3492063,81.5873016 45.7936508,81.5079365 C43.7301587,81.4285714 41.7460317,80.0793651 41.031746,78.015873 L38.8095238,71.3492063 L32.3809524,73.4920635 C31.8253968,73.6507937 31.1904762,73.8095238 30.6349206,73.7301587 C28.5714286,73.6507937 26.5873016,72.3015873 25.8730159,70.2380952 C25,67.5396825 26.4285714,64.6031746 29.1269841,63.7301587 L35.5555556,61.5873016 L31.2698413,48.8095238 L24.8412698,50.952381 C24.2857143,51.1111111 23.6507937,51.2698413 23.0952381,51.1904762 C21.031746,51.1111111 19.047619,49.7619048 18.3333333,47.6984127 C17.4603175,45 18.8888889,42.0634921 21.5873016,41.1904762 L28.015873,39.047619 L25.7936508,32.3809524 C24.9206349,29.6825397 26.3492063,26.7460317 29.047619,25.8730159 C31.7460317,25 34.6825397,26.4285714 35.5555556,29.1269841 L37.7777778,35.7936508 L51.031746,31.3492063 L48.8095238,24.6825397 C47.9365079,21.984127 49.3650794,19.047619 52.0634921,18.1746032 C54.7619048,17.3015873 57.6984127,18.7301587 58.5714286,21.4285714 L60.7936508,28.0952381 L67.2222222,25.952381 C69.9206349,25.0793651 72.8571429,26.5079365 73.7301587,29.2063492 C74.6031746,31.9047619 73.1746032,34.8412698 70.4761905,35.7142857 L64.047619,37.8571429 L68.3333333,50.6349206 L74.7619048,48.4920635 C77.4603175,47.6190476 80.3968254,49.047619 81.2698413,51.7460317 C82.1428571,54.4444444 80.7142857,57.3809524 78.015873,58.2539683 Z" id="Shape"></path>
                        </g>
                    </g>
                </g>
                <g id="Group-3" transform="translate(19.000000, 216.000000)" fill-rule="nonzero">
                    <g id="Group-10">
                        <path d="M0.00254054256,25.1463327 C0.00254054256,25.1463327 -0.707082106,40.1412932 21.5933053,61.9708957 C43.8932202,83.8006885 46.4277203,92.6675555 45.2112919,98.7951807 L61.4295415,98.7951807 C61.4295415,98.7951807 62.9036277,73.4627172 37.7652223,55.6754245 C37.7652223,55.6754245 20.4600842,40.330314 17.6400339,28.1465628 C17.6400339,28.1465628 9.12125542,28.1421728 3.19418542,23.3891 C3.19418542,23.3891 -0.002188416,21.4781865 0.00254054256,25.1463327" id="path3962"></path>
                        <path d="M34.9230788,59.8119067 C39.3872005,62.987856 42.9954462,66.4065522 45.9344517,69.8795181 C48.0783793,67.5872843 50.4777502,65.127108 53.172621,62.4752276 C75.4032185,40.5947654 74.6962672,25.0962849 74.6962672,25.0962849 C74.7009493,21.4191624 71.5140649,23.4521338 71.5140649,23.4521338 C65.6054287,28.2163952 57.1131383,28.3378126 57.1131383,28.3378126 C54.3023205,40.5498682 37.0505108,56.1649845 37.0505108,56.1649845 C35.8826393,56.9960439 34.790645,57.8488112 33.7349398,58.7115523 C34.4824158,59.4179382 34.9230788,59.8119067 34.9230788,59.8119067" id="path3966"></path>
                        <path d="M34.939759,83.384807 C32.0142443,79.5966798 28.1121107,75.1623058 22.9502803,69.8795181 C12.4237977,85.0294865 13.2692043,100 13.2692043,100 L29.7567843,100 C29.0252833,96.1495642 29.6308674,91.2778343 34.939759,83.384807" id="path3970"></path>
                        <path d="M28.9602486,28.9247445 L45.2926509,28.9247445 C45.2926509,28.9247445 47.4265781,28.629264 46.9061915,31.4091319 C46.1662108,35.3624384 37.3494048,43.373494 37.3494048,43.373494 C37.3494048,43.373494 30.9029351,37.4837423 28.0319121,31.9514088 C28.0319121,31.9514088 26.8724503,28.9247445 28.9602486,28.9247445" id="path3974"></path>
                        <path d="M66.2650602,13.2532538 C66.2650602,17.2454911 63.0286271,20.4819277 59.0363901,20.4819277 C55.0441455,20.4819277 51.8072289,17.2454911 51.8072289,13.2532538 C51.8072289,9.26051793 55.0441455,6.02409639 59.0363901,6.02409639 C63.0286271,6.02409639 66.2650602,9.26051793 66.2650602,13.2532538" id="path3978"></path>
                        <path d="M24.0963855,13.2532538 C24.0963855,17.2454911 20.8599574,20.4819277 16.8677131,20.4819277 C12.8754688,20.4819277 9.63855422,17.2454911 9.63855422,13.2532538 C9.63855422,9.26051793 12.8754688,6.02409639 16.8677131,6.02409639 C20.8599574,6.02409639 24.0963855,9.26051793 24.0963855,13.2532538" id="path3982"></path>
                        <path d="M45.7831325,7.22917252 C45.7831325,11.2213947 42.5467056,14.4578313 38.5544609,14.4578313 C34.5622177,14.4578313 31.3253012,11.2213947 31.3253012,7.22917252 C31.3253012,3.23642154 34.5622177,0 38.5544609,0 C42.5467056,0 45.7831325,3.23642154 45.7831325,7.22917252" id="path3986"></path>
                    </g>
                </g>
                <text id="Slack" font-family="ProximaNova-Light, Proxima Nova" font-size="34" font-weight="300">
                    <tspan x="17.145" y="142">Slack</tspan>
                </text>
                <text id="Jira" font-family="ProximaNova-Light, Proxima Nova" font-size="34" font-weight="300">
                    <tspan x="30.126" y="359">Jira</tspan>
                </text>
                <text id="Docker" font-family="ProximaNova-Light, Proxima Nova" font-size="34" font-weight="300">
                    <tspan x="3.392" y="569">Docker</tspan>
                </text>
                <g id="Group-7" transform="translate(0.000000, 444.000000)" fill-rule="nonzero">
                    <g id="Group-6">
                        <path d="M96.9347628,30 C96.6337232,25.5 94.2254061,21.6 90.0108512,18.3 L88.505653,17.1 L87.3014945,18.6 C85.194217,21.9 84.2910981,26.1 84.5921378,29.7 C84.8931774,32.1 85.7962963,34.8 87.3014945,36.6 C86.0973359,37.5 82.1838207,39.3 77.0661468,39.3 L1.20415854,39.3 C-0.301039636,47.4 2.10727745,78 37.3289149,78 C63.5193632,78 84.8931774,66.3 94.8274854,41.7 C98.1389214,41.7 106.568031,42.3 110.782586,34.2 L111.986745,32.1 L110.481546,30.9 C107.77219,29.4 101.450357,28.8 96.9347628,30 Z" id="Shape" stroke="#FFFFFF" stroke-width="0.7"></path>
                        <rect id="Rectangle-3" x="49.9725796" y="0" width="11.7405458" height="10.8"></rect>
                        <rect id="Rectangle-3_1_" x="49.9725796" y="12.9" width="11.7405458" height="10.8"></rect>
                        <rect id="Rectangle-3_2_" x="36.1247563" y="12.9" width="11.7405458" height="10.8"></rect>
                        <rect id="Rectangle-3_3_" x="22.2769331" y="12.9" width="11.7405458" height="10.8"></rect>
                        <rect id="Rectangle-3_4_" x="8.42910981" y="25.5" width="11.7405458" height="10.8"></rect>
                        <rect id="Rectangle-3_5_" x="22.2769331" y="25.5" width="11.7405458" height="10.8"></rect>
                        <rect id="Rectangle-3_6_" x="36.1247563" y="25.5" width="11.7405458" height="10.8"></rect>
                        <rect id="Rectangle-3_7_" x="49.9725796" y="25.5" width="11.7405458" height="10.8"></rect>
                        <rect id="Rectangle-3_8_" x="63.8204029" y="25.5" width="11.7405458" height="10.8"></rect>
                    </g>
                </g>
            </g>
        </g>
    </g>
</svg>