<?xml version='1.0' encoding='UTF-8' standalone='no'?>
<!-- Created with Fritzing (http://www.fritzing.org/) -->
<svg xmlns:svg='http://www.w3.org/2000/svg' xmlns='http://www.w3.org/2000/svg' version='1.2' baseProfile='tiny' x='0in' y='0in' width='3.50994in' height='2.05556in' viewBox='0 0 252.716 148' >
<g partID='854343410'><g transform='translate(75.4806,40)' ><g  id="breadboardbreadboard">
 <g  id="background">
  <rect  fill="#D9D9D9" width="158.64" height="108"/>
 </g>
 <rect  y="50.375" fill="#CCC9C9" width="158.64" height="7.25"/>
 <g  id="text">
  <g transform="matrix(1, 0, 0, 1, 10.0596, 9.3945)">
   <text  font-size="4.6036" fill="#B3B0B0" font-family="'DroidSans'">1</text>
  </g>
  <g transform="matrix(1, 0, 0, 1, 38.7144, 9.3945)">
   <text  font-size="4.6036" fill="#B3B0B0" font-family="'DroidSans'">5</text>
  </g>
  <g transform="matrix(1, 0, 0, 1, 73.1099, 9.3945)">
   <text  font-size="4.6036" fill="#B3B0B0" font-family="'DroidSans'">10</text>
  </g>
  <g transform="matrix(1, 0, 0, 1, 109.119, 9.3945)">
   <text  font-size="4.6036" fill="#B3B0B0" font-family="'DroidSans'">15</text>
  </g>
  <g transform="matrix(1, 0, 0, 1, 145.296, 9.3945)">
   <text  font-size="4.6036" fill="#B3B0B0" font-family="'DroidSans'">20</text>
  </g>
  <g transform="matrix(1, 0, 0, 1, 10.0596, 100.795)">
   <text  font-size="4.6036" fill="#B3B0B0" font-family="'DroidSans'">1</text>
  </g>
  <g transform="matrix(1, 0, 0, 1, 38.7144, 100.795)">
   <text  font-size="4.6036" fill="#B3B0B0" font-family="'DroidSans'">5</text>
  </g>
  <g transform="matrix(1, 0, 0, 1, 73.1099, 100.795)">
   <text  font-size="4.6036" fill="#B3B0B0" font-family="'DroidSans'">10</text>
  </g>
  <g transform="matrix(1, 0, 0, 1, 109.119, 100.795)">
   <text  font-size="4.6036" fill="#B3B0B0" font-family="'DroidSans'">15</text>
  </g>
  <g transform="matrix(1, 0, 0, 1, 145.296, 100.795)">
   <text  font-size="4.6036" fill="#B3B0B0" font-family="'DroidSans'">20</text>
  </g>
  <g transform="matrix(1, 0, 0, 1, 3.2612, 15.6143)">
   <text  font-size="4.6036" fill="#B3B0B0" font-family="'DroidSans'">A</text>
  </g>
  <g transform="matrix(1, 0, 0, 1, 3.2612, 22.8672)">
   <text  font-size="4.6036" fill="#B3B0B0" font-family="'DroidSans'">B</text>
  </g>
  <g transform="matrix(1, 0, 0, 1, 3.3052, 30.1187)">
   <text  font-size="4.6036" fill="#B3B0B0" font-family="'DroidSans'">C</text>
  </g>
  <g transform="matrix(1, 0, 0, 1, 3.2197, 37.3696)">
   <text  font-size="4.6036" fill="#B3B0B0" font-family="'DroidSans'">D</text>
  </g>
  <g transform="matrix(1, 0, 0, 1, 3.4341, 44.6211)">
   <text  font-size="4.6036" fill="#B3B0B0" font-family="'DroidSans'">E</text>
  </g>
  <g transform="matrix(1, 0, 0, 1, 3.4756, 66.377)">
   <text  font-size="4.6036" fill="#B3B0B0" font-family="'DroidSans'">F</text>
  </g>
  <g transform="matrix(1, 0, 0, 1, 3.2612, 73.627)">
   <text  font-size="4.6036" fill="#B3B0B0" font-family="'DroidSans'">G</text>
  </g>
  <g transform="matrix(1, 0, 0, 1, 3.2612, 80.8789)">
   <text  font-size="4.6036" fill="#B3B0B0" font-family="'DroidSans'">H</text>
  </g>
  <g transform="matrix(1, 0, 0, 1, 3.9473, 88.1318)">
   <text  font-size="4.6036" fill="#B3B0B0" font-family="'DroidSans'">I</text>
  </g>
  <g transform="matrix(1, 0, 0, 1, 3.4756, 95.3828)">
   <text  font-size="4.6036" fill="#B3B0B0" font-family="'DroidSans'">J</text>
  </g>
 </g>
 <g  id="sockets">
  <g  id="A1pin">
   <path  fill="#BFBFBF" d="M8.526,14.4c0,-1.322,1.072,-2.394,2.394,-2.394s2.394,1.072,2.394,2.394"/>
   <path  fill="#E6E6E6" d="M13.313,14.4c0,1.322,-1.072,2.394,-2.394,2.394S8.526,15.722,8.526,14.4"/>
   <circle  fill="#383838" cx="10.92" cy="14.4" r="1.197"/>
  </g>
  <g  id="B1pin">
   <path  fill="#BFBFBF" d="M8.526,21.6c0,-1.322,1.072,-2.394,2.394,-2.394s2.394,1.072,2.394,2.394"/>
   <path  fill="#E6E6E6" d="M13.313,21.6c0,1.322,-1.072,2.394,-2.394,2.394S8.526,22.922,8.526,21.6l0,0"/>
   <circle  fill="#383838" cx="10.92" cy="21.6" r="1.197"/>
  </g>
  <g  id="C1pin">
   <path  fill="#BFBFBF" d="M8.526,28.8c0,-1.322,1.072,-2.394,2.394,-2.394s2.394,1.072,2.394,2.394"/>
   <path  fill="#E6E6E6" d="M13.313,28.8c0,1.322,-1.072,2.394,-2.394,2.394S8.526,30.122,8.526,28.8"/>
   <circle  fill="#383838" cx="10.92" cy="28.8" r="1.197"/>
  </g>
  <g  id="D1pin">
   <path  fill="#BFBFBF" d="M8.526,36c0,-1.322,1.072,-2.394,2.394,-2.394s2.394,1.072,2.394,2.394"/>
   <path  fill="#E6E6E6" d="M13.313,36c0,1.322,-1.072,2.394,-2.394,2.394S8.526,37.322,8.526,36l0,0"/>
   <circle  fill="#383838" cx="10.92" cy="36" r="1.197"/>
  </g>
  <g  id="E1pin">
   <path  fill="#BFBFBF" d="M8.526,43.2c0,-1.322,1.072,-2.394,2.394,-2.394s2.394,1.071,2.394,2.394"/>
   <path  fill="#E6E6E6" d="M13.313,43.2c0,1.322,-1.072,2.394,-2.394,2.394S8.526,44.522,8.526,43.2l0,0"/>
   <circle  fill="#383838" cx="10.92" cy="43.2" r="1.197"/>
  </g>
  <g  id="A2pin">
   <path  fill="#BFBFBF" d="M15.727,14.4c0,-1.322,1.071,-2.394,2.394,-2.394c1.322,0,2.394,1.072,2.394,2.394"/>
   <path  fill="#E6E6E6" d="M20.514,14.4c0,1.322,-1.07,2.395,-2.393,2.395c-1.322,0.001,-2.394,-1.07,-2.395,-2.392c0,-0.001,0,-0.002,0,-0.003"/>
   <circle  fill="#383838" cx="18.12" cy="14.4" r="1.197"/>
  </g>
  <g  id="B2pin">
   <path  fill="#BFBFBF" d="M15.727,21.6c0,-1.322,1.071,-2.394,2.394,-2.394c1.322,0,2.394,1.072,2.394,2.394"/>
   <path  fill="#E6E6E6" d="M20.514,21.6c0,1.322,-1.07,2.394,-2.393,2.395c-1.322,0,-2.394,-1.07,-2.395,-2.393c0,-0.001,0,-0.001,0,-0.002"/>
   <circle  fill="#383838" cx="18.12" cy="21.6" r="1.197"/>
  </g>
  <g  id="C2pin">
   <path  fill="#BFBFBF" d="M15.727,28.8c0,-1.322,1.071,-2.394,2.394,-2.394c1.322,0,2.394,1.072,2.394,2.394"/>
   <path  fill="#E6E6E6" d="M20.514,28.8c0,1.322,-1.07,2.395,-2.393,2.395c-1.322,0.001,-2.394,-1.07,-2.395,-2.392c0,-0.001,0,-0.002,0,-0.003"/>
   <circle  fill="#383838" cx="18.12" cy="28.8" r="1.197"/>
  </g>
  <g  id="D2pin">
   <path  fill="#BFBFBF" d="M15.727,36c0,-1.322,1.071,-2.394,2.394,-2.394c1.322,0,2.394,1.072,2.394,2.394"/>
   <path  fill="#E6E6E6" d="M20.514,36c0,1.322,-1.07,2.394,-2.393,2.395c-1.322,0,-2.394,-1.07,-2.395,-2.392c0,-0.001,0,-0.002,0,-0.003"/>
   <circle  fill="#383838" cx="18.12" cy="36" r="1.197"/>
  </g>
  <g  id="E2pin">
   <path  fill="#BFBFBF" d="M15.727,43.2c0,-1.322,1.071,-2.394,2.394,-2.394c1.322,0,2.394,1.071,2.394,2.394"/>
   <path  fill="#E6E6E6" d="M20.514,43.2c0,1.322,-1.07,2.394,-2.393,2.395c-1.322,0.001,-2.394,-1.07,-2.395,-2.392c0,-0.001,0,-0.002,0,-0.002"/>
   <circle  fill="#383838" cx="18.12" cy="43.2" r="1.197"/>
  </g>
  <g  id="A3pin">
   <path  fill="#BFBFBF" d="M22.926,14.4c0,-1.322,1.072,-2.394,2.394,-2.394c1.322,0,2.394,1.072,2.394,2.394"/>
   <path  fill="#E6E6E6" d="M27.713,14.4c0,1.322,-1.071,2.394,-2.394,2.394c-1.322,0,-2.394,-1.071,-2.394,-2.394l0,0"/>
   <circle  fill="#383838" cx="25.32" cy="14.4" r="1.197"/>
  </g>
  <g  id="B3pin">
   <path  fill="#BFBFBF" d="M22.926,21.6c0,-1.322,1.072,-2.394,2.394,-2.394c1.322,0,2.394,1.072,2.394,2.394"/>
   <path  fill="#E6E6E6" d="M27.713,21.6c0,1.322,-1.071,2.394,-2.394,2.394c-1.322,0,-2.394,-1.072,-2.394,-2.394"/>
   <circle  fill="#383838" cx="25.32" cy="21.6" r="1.197"/>
  </g>
  <g  id="C3pin">
   <path  fill="#BFBFBF" d="M22.926,28.8c0,-1.322,1.072,-2.394,2.394,-2.394c1.322,0,2.394,1.072,2.394,2.394"/>
   <path  fill="#E6E6E6" d="M27.713,28.8c0,1.322,-1.071,2.394,-2.394,2.394c-1.322,0,-2.394,-1.071,-2.394,-2.394l0,0"/>
   <circle  fill="#383838" cx="25.32" cy="28.8" r="1.197"/>
  </g>
  <g  id="D3pin">
   <path  fill="#BFBFBF" d="M22.926,36c0,-1.322,1.072,-2.394,2.394,-2.394c1.322,0,2.394,1.072,2.394,2.394"/>
   <path  fill="#E6E6E6" d="M27.713,36c0,1.322,-1.071,2.394,-2.394,2.394c-1.322,0,-2.394,-1.072,-2.394,-2.394"/>
   <circle  fill="#383838" cx="25.32" cy="36" r="1.197"/>
  </g>
  <g  id="E3pin">
   <path  fill="#BFBFBF" d="M22.926,43.2c0,-1.322,1.072,-2.394,2.394,-2.394c1.322,0,2.394,1.071,2.394,2.394"/>
   <path  fill="#E6E6E6" d="M27.713,43.2c0,1.322,-1.071,2.394,-2.394,2.394c-1.322,0,-2.394,-1.072,-2.394,-2.394"/>
   <circle  fill="#383838" cx="25.32" cy="43.2" r="1.197"/>
  </g>
  <g  id="A4pin">
   <path  fill="#BFBFBF" d="M30.126,14.4c0,-1.322,1.072,-2.394,2.394,-2.394s2.394,1.072,2.394,2.394"/>
   <path  fill="#E6E6E6" d="M34.914,14.4c0,1.322,-1.072,2.394,-2.394,2.394s-2.394,-1.071,-2.394,-2.394l0,0"/>
   <circle  fill="#383838" cx="32.52" cy="14.4" r="1.197"/>
  </g>
  <g  id="B4pin">
   <path  fill="#BFBFBF" d="M30.126,21.6c0,-1.322,1.072,-2.394,2.394,-2.394s2.394,1.072,2.394,2.394"/>
   <path  fill="#E6E6E6" d="M34.914,21.6c0,1.322,-1.072,2.394,-2.394,2.394s-2.394,-1.072,-2.394,-2.394"/>
   <circle  fill="#383838" cx="32.52" cy="21.6" r="1.197"/>
  </g>
  <g  id="C4pin">
   <path  fill="#BFBFBF" d="M30.126,28.8c0,-1.322,1.072,-2.394,2.394,-2.394s2.394,1.072,2.394,2.394"/>
   <path  fill="#E6E6E6" d="M34.914,28.8c0,1.322,-1.072,2.394,-2.394,2.394s-2.394,-1.071,-2.394,-2.394l0,0"/>
   <circle  fill="#383838" cx="32.52" cy="28.8" r="1.197"/>
  </g>
  <g  id="D4pin">
   <path  fill="#BFBFBF" d="M30.126,36c0,-1.322,1.072,-2.394,2.394,-2.394s2.394,1.072,2.394,2.394"/>
   <path  fill="#E6E6E6" d="M34.914,36c0,1.322,-1.072,2.394,-2.394,2.394S30.126,37.322,30.126,36"/>
   <circle  fill="#383838" cx="32.52" cy="36" r="1.197"/>
  </g>
  <g  id="E4pin">
   <path  fill="#BFBFBF" d="M30.126,43.2c0,-1.322,1.072,-2.394,2.394,-2.394s2.394,1.071,2.394,2.394"/>
   <path  fill="#E6E6E6" d="M34.914,43.2c0,1.322,-1.072,2.394,-2.394,2.394s-2.394,-1.072,-2.394,-2.394"/>
   <circle  fill="#383838" cx="32.52" cy="43.2" r="1.197"/>
  </g>
  <g  id="A5pin">
   <path  fill="#BFBFBF" d="M37.326,14.4c0,-1.322,1.072,-2.394,2.394,-2.394c1.322,0,2.394,1.072,2.394,2.394"/>
   <path  fill="#E6E6E6" d="M42.114,14.4c0,1.322,-1.072,2.394,-2.394,2.394c-1.322,0,-2.394,-1.071,-2.394,-2.394l0,0"/>
   <circle  fill="#383838" cx="39.72" cy="14.4" r="1.197"/>
  </g>
  <g  id="B5pin">
   <path  fill="#BFBFBF" d="M37.326,21.6c0,-1.322,1.072,-2.394,2.394,-2.394c1.322,0,2.394,1.072,2.394,2.394"/>
   <path  fill="#E6E6E6" d="M42.114,21.6c0,1.322,-1.072,2.394,-2.394,2.394c-1.322,0,-2.394,-1.072,-2.394,-2.394"/>
   <circle  fill="#383838" cx="39.72" cy="21.6" r="1.197"/>
  </g>
  <g  id="C5pin">
   <path  fill="#BFBFBF" d="M37.326,28.8c0,-1.322,1.072,-2.394,2.394,-2.394c1.322,0,2.394,1.072,2.394,2.394"/>
   <path  fill="#E6E6E6" d="M42.114,28.8c0,1.322,-1.072,2.394,-2.394,2.394c-1.322,0,-2.394,-1.071,-2.394,-2.394l0,0"/>
   <circle  fill="#383838" cx="39.72" cy="28.8" r="1.197"/>
  </g>
  <g  id="D5pin">
   <path  fill="#BFBFBF" d="M37.326,36c0,-1.322,1.072,-2.394,2.394,-2.394c1.322,0,2.394,1.072,2.394,2.394"/>
   <path  fill="#E6E6E6" d="M42.114,36c0,1.322,-1.072,2.394,-2.394,2.394c-1.322,0,-2.394,-1.072,-2.394,-2.394"/>
   <circle  fill="#383838" cx="39.72" cy="36" r="1.197"/>
  </g>
  <g  id="E5pin">
   <path  fill="#BFBFBF" d="M37.326,43.2c0,-1.322,1.072,-2.394,2.394,-2.394c1.322,0,2.394,1.071,2.394,2.394"/>
   <path  fill="#E6E6E6" d="M42.114,43.2c0,1.322,-1.072,2.394,-2.394,2.394c-1.322,0,-2.394,-1.072,-2.394,-2.394"/>
   <circle  fill="#383838" cx="39.72" cy="43.2" r="1.197"/>
  </g>
  <g  id="A6pin">
   <path  fill="#BFBFBF" d="M44.526,14.4c0,-1.322,1.072,-2.394,2.394,-2.394s2.394,1.072,2.394,2.394"/>
   <path  fill="#E6E6E6" d="M49.313,14.4c0,1.322,-1.072,2.394,-2.394,2.394s-2.394,-1.071,-2.394,-2.394l0,0"/>
   <circle  fill="#383838" cx="46.92" cy="14.4" r="1.197"/>
  </g>
  <g  id="B6pin">
   <path  fill="#BFBFBF" d="M44.526,21.6c0,-1.322,1.072,-2.394,2.394,-2.394s2.394,1.072,2.394,2.394"/>
   <path  fill="#E6E6E6" d="M49.313,21.6c0,1.322,-1.072,2.394,-2.394,2.394s-2.394,-1.072,-2.394,-2.394"/>
   <circle  fill="#383838" cx="46.92" cy="21.6" r="1.197"/>
  </g>
  <g  id="C6pin">
   <path  fill="#BFBFBF" d="M44.526,28.8c0,-1.322,1.072,-2.394,2.394,-2.394s2.394,1.072,2.394,2.394"/>
   <path  fill="#E6E6E6" d="M49.313,28.8c0,1.322,-1.072,2.394,-2.394,2.394s-2.394,-1.071,-2.394,-2.394l0,0"/>
   <circle  fill="#383838" cx="46.92" cy="28.8" r="1.197"/>
  </g>
  <g  id="D6pin">
   <path  fill="#BFBFBF" d="M44.526,36c0,-1.322,1.072,-2.394,2.394,-2.394s2.394,1.072,2.394,2.394"/>
   <path  fill="#E6E6E6" d="M49.313,36c0,1.322,-1.072,2.394,-2.394,2.394S44.526,37.322,44.526,36"/>
   <circle  fill="#383838" cx="46.92" cy="36" r="1.197"/>
  </g>
  <g  id="E6pin">
   <path  fill="#BFBFBF" d="M44.526,43.2c0,-1.322,1.072,-2.394,2.394,-2.394s2.394,1.071,2.394,2.394"/>
   <path  fill="#E6E6E6" d="M49.313,43.2c0,1.322,-1.072,2.394,-2.394,2.394s-2.394,-1.072,-2.394,-2.394"/>
   <circle  fill="#383838" cx="46.92" cy="43.2" r="1.197"/>
  </g>
  <g  id="A7pin">
   <path  fill="#BFBFBF" d="M51.727,14.4c0,-1.322,1.071,-2.394,2.394,-2.394c1.322,0,2.394,1.072,2.394,2.394"/>
   <path  fill="#E6E6E6" d="M56.514,14.4c0,1.322,-1.072,2.394,-2.394,2.394c-1.322,0,-2.394,-1.071,-2.394,-2.394l0,0"/>
   <circle  fill="#383838" cx="54.12" cy="14.4" r="1.197"/>
  </g>
  <g  id="B7pin">
   <path  fill="#BFBFBF" d="M51.727,21.6c0,-1.322,1.071,-2.394,2.394,-2.394c1.322,0,2.394,1.072,2.394,2.394"/>
   <path  fill="#E6E6E6" d="M56.514,21.6c0,1.322,-1.072,2.394,-2.394,2.394c-1.322,0,-2.394,-1.072,-2.394,-2.394"/>
   <circle  fill="#383838" cx="54.12" cy="21.6" r="1.197"/>
  </g>
  <g  id="C7pin">
   <path  fill="#BFBFBF" d="M51.727,28.8c0,-1.322,1.071,-2.394,2.394,-2.394c1.322,0,2.394,1.072,2.394,2.394"/>
   <path  fill="#E6E6E6" d="M56.514,28.8c0,1.322,-1.072,2.394,-2.394,2.394c-1.322,0,-2.394,-1.071,-2.394,-2.394l0,0"/>
   <circle  fill="#383838" cx="54.12" cy="28.8" r="1.197"/>
  </g>
  <g  id="D7pin">
   <path  fill="#BFBFBF" d="M51.727,36c0,-1.322,1.071,-2.394,2.394,-2.394c1.322,0,2.394,1.072,2.394,2.394"/>
   <path  fill="#E6E6E6" d="M56.514,36c0,1.322,-1.072,2.394,-2.394,2.394c-1.322,0,-2.394,-1.072,-2.394,-2.394"/>
   <circle  fill="#383838" cx="54.12" cy="36" r="1.197"/>
  </g>
  <g  id="E7pin">
   <path  fill="#BFBFBF" d="M51.727,43.2c0,-1.322,1.071,-2.394,2.394,-2.394c1.322,0,2.394,1.071,2.394,2.394"/>
   <path  fill="#E6E6E6" d="M56.514,43.2c0,1.322,-1.072,2.394,-2.394,2.394c-1.322,0,-2.394,-1.072,-2.394,-2.394"/>
   <circle  fill="#383838" cx="54.12" cy="43.2" r="1.197"/>
  </g>
  <g  id="A8pin">
   <path  fill="#BFBFBF" d="M58.926,14.4c0,-1.322,1.072,-2.394,2.394,-2.394c1.322,0,2.394,1.072,2.394,2.394"/>
   <path  fill="#E6E6E6" d="M63.713,14.4c0,1.322,-1.071,2.394,-2.394,2.394c-1.322,0,-2.394,-1.071,-2.394,-2.394l0,0"/>
   <circle  fill="#383838" cx="61.32" cy="14.4" r="1.197"/>
  </g>
  <g  id="B8pin">
   <path  fill="#BFBFBF" d="M58.926,21.6c0,-1.322,1.072,-2.394,2.394,-2.394c1.322,0,2.394,1.072,2.394,2.394"/>
   <path  fill="#E6E6E6" d="M63.713,21.6c0,1.322,-1.071,2.394,-2.394,2.394c-1.322,0,-2.394,-1.072,-2.394,-2.394"/>
   <circle  fill="#383838" cx="61.32" cy="21.6" r="1.197"/>
  </g>
  <g  id="C8pin">
   <path  fill="#BFBFBF" d="M58.926,28.8c0,-1.322,1.072,-2.394,2.394,-2.394c1.322,0,2.394,1.072,2.394,2.394"/>
   <path  fill="#E6E6E6" d="M63.713,28.8c0,1.322,-1.071,2.394,-2.394,2.394c-1.322,0,-2.394,-1.071,-2.394,-2.394l0,0"/>
   <circle  fill="#383838" cx="61.32" cy="28.8" r="1.197"/>
  </g>
  <g  id="D8pin">
   <path  fill="#BFBFBF" d="M58.926,36c0,-1.322,1.072,-2.394,2.394,-2.394c1.322,0,2.394,1.072,2.394,2.394"/>
   <path  fill="#E6E6E6" d="M63.713,36c0,1.322,-1.071,2.394,-2.394,2.394c-1.322,0,-2.394,-1.072,-2.394,-2.394"/>
   <circle  fill="#383838" cx="61.32" cy="36" r="1.197"/>
  </g>
  <g  id="E8pin">
   <path  fill="#BFBFBF" d="M58.926,43.2c0,-1.322,1.072,-2.394,2.394,-2.394c1.322,0,2.394,1.071,2.394,2.394"/>
   <path  fill="#E6E6E6" d="M63.713,43.2c0,1.322,-1.071,2.394,-2.394,2.394c-1.322,0,-2.394,-1.072,-2.394,-2.394"/>
   <circle  fill="#383838" cx="61.32" cy="43.2" r="1.197"/>
  </g>
  <g  id="A9pin">
   <path  fill="#BFBFBF" d="M66.126,14.4c0,-1.322,1.071,-2.394,2.394,-2.394c1.322,0,2.394,1.072,2.394,2.394"/>
   <path  fill="#E6E6E6" d="M70.914,14.4c0,1.322,-1.072,2.394,-2.394,2.394c-1.322,0,-2.394,-1.071,-2.394,-2.394l0,0"/>
   <circle  fill="#383838" cx="68.52" cy="14.4" r="1.197"/>
  </g>
  <g  id="B9pin">
   <path  fill="#BFBFBF" d="M66.126,21.6c0,-1.322,1.071,-2.394,2.394,-2.394c1.322,0,2.394,1.072,2.394,2.394"/>
   <path  fill="#E6E6E6" d="M70.914,21.6c0,1.322,-1.072,2.394,-2.394,2.394c-1.322,0,-2.394,-1.072,-2.394,-2.394"/>
   <circle  fill="#383838" cx="68.52" cy="21.6" r="1.197"/>
  </g>
  <g  id="C9pin">
   <path  fill="#BFBFBF" d="M66.126,28.8c0,-1.322,1.071,-2.394,2.394,-2.394c1.322,0,2.394,1.072,2.394,2.394"/>
   <path  fill="#E6E6E6" d="M70.914,28.8c0,1.322,-1.072,2.394,-2.394,2.394c-1.322,0,-2.394,-1.071,-2.394,-2.394l0,0"/>
   <circle  fill="#383838" cx="68.52" cy="28.8" r="1.197"/>
  </g>
  <g  id="D9pin">
   <path  fill="#BFBFBF" d="M66.126,36c0,-1.322,1.071,-2.394,2.394,-2.394c1.322,0,2.394,1.072,2.394,2.394"/>
   <path  fill="#E6E6E6" d="M70.914,36c0,1.322,-1.072,2.394,-2.394,2.394c-1.322,0,-2.394,-1.072,-2.394,-2.394"/>
   <circle  fill="#383838" cx="68.52" cy="36" r="1.197"/>
  </g>
  <g  id="E9pin">
   <path  fill="#BFBFBF" d="M66.126,43.2c0,-1.322,1.071,-2.394,2.394,-2.394c1.322,0,2.394,1.071,2.394,2.394"/>
   <path  fill="#E6E6E6" d="M70.914,43.2c0,1.322,-1.072,2.394,-2.394,2.394c-1.322,0,-2.394,-1.072,-2.394,-2.394"/>
   <circle  fill="#383838" cx="68.52" cy="43.2" r="1.197"/>
  </g>
  <g  id="A10pin">
   <path  fill="#BFBFBF" d="M73.326,14.4c0,-1.322,1.072,-2.394,2.394,-2.394c1.322,0,2.394,1.072,2.394,2.394"/>
   <path  fill="#E6E6E6" d="M78.113,14.4c0,1.322,-1.071,2.394,-2.394,2.394c-1.322,0,-2.394,-1.071,-2.394,-2.394l0,0"/>
   <circle  fill="#383838" cx="75.72" cy="14.4" r="1.197"/>
  </g>
  <g  id="B10pin">
   <path  fill="#BFBFBF" d="M73.326,21.6c0,-1.322,1.072,-2.394,2.394,-2.394c1.322,0,2.394,1.072,2.394,2.394"/>
   <path  fill="#E6E6E6" d="M78.113,21.6c0,1.322,-1.071,2.394,-2.394,2.394c-1.322,0,-2.394,-1.072,-2.394,-2.394"/>
   <circle  fill="#383838" cx="75.72" cy="21.6" r="1.197"/>
  </g>
  <g  id="C10pin">
   <path  fill="#BFBFBF" d="M73.326,28.8c0,-1.322,1.072,-2.394,2.394,-2.394c1.322,0,2.394,1.072,2.394,2.394"/>
   <path  fill="#E6E6E6" d="M78.113,28.8c0,1.322,-1.071,2.394,-2.394,2.394c-1.322,0,-2.394,-1.071,-2.394,-2.394l0,0"/>
   <circle  fill="#383838" cx="75.72" cy="28.8" r="1.197"/>
  </g>
  <g  id="D10pin">
   <path  fill="#BFBFBF" d="M73.326,36c0,-1.322,1.072,-2.394,2.394,-2.394c1.322,0,2.394,1.072,2.394,2.394"/>
   <path  fill="#E6E6E6" d="M78.113,36c0,1.322,-1.071,2.394,-2.394,2.394c-1.322,0,-2.394,-1.072,-2.394,-2.394"/>
   <circle  fill="#383838" cx="75.72" cy="36" r="1.197"/>
  </g>
  <g  id="E10pin">
   <path  fill="#BFBFBF" d="M73.326,43.2c0,-1.322,1.072,-2.394,2.394,-2.394c1.322,0,2.394,1.071,2.394,2.394"/>
   <path  fill="#E6E6E6" d="M78.113,43.2c0,1.322,-1.071,2.394,-2.394,2.394c-1.322,0,-2.394,-1.072,-2.394,-2.394"/>
   <circle  fill="#383838" cx="75.72" cy="43.2" r="1.197"/>
  </g>
  <g  id="A11pin">
   <path  fill="#BFBFBF" d="M80.527,14.4c0,-1.322,1.071,-2.394,2.393,-2.394c1.322,0,2.395,1.072,2.395,2.394"/>
   <path  fill="#E6E6E6" d="M85.314,14.4c0,1.322,-1.072,2.394,-2.395,2.394c-1.321,0,-2.393,-1.071,-2.393,-2.394l0,0"/>
   <circle  fill="#383838" cx="82.919" cy="14.4" r="1.197"/>
  </g>
  <g  id="B11pin">
   <path  fill="#BFBFBF" d="M80.527,21.6c0,-1.322,1.071,-2.394,2.393,-2.394c1.322,0,2.395,1.072,2.395,2.394"/>
   <path  fill="#E6E6E6" d="M85.314,21.6c0,1.322,-1.072,2.394,-2.395,2.394c-1.321,0,-2.393,-1.072,-2.393,-2.394"/>
   <circle  fill="#383838" cx="82.919" cy="21.6" r="1.197"/>
  </g>
  <g  id="C11pin">
   <path  fill="#BFBFBF" d="M80.527,28.8c0,-1.322,1.071,-2.394,2.393,-2.394c1.322,0,2.395,1.072,2.395,2.394"/>
   <path  fill="#E6E6E6" d="M85.314,28.8c0,1.322,-1.072,2.394,-2.395,2.394c-1.321,0,-2.393,-1.071,-2.393,-2.394l0,0"/>
   <circle  fill="#383838" cx="82.919" cy="28.8" r="1.197"/>
  </g>
  <g  id="D11pin">
   <path  fill="#BFBFBF" d="M80.527,36c0,-1.322,1.071,-2.394,2.393,-2.394c1.322,0,2.395,1.072,2.395,2.394"/>
   <path  fill="#E6E6E6" d="M85.314,36c0,1.322,-1.072,2.394,-2.395,2.394c-1.321,0,-2.393,-1.072,-2.393,-2.394"/>
   <circle  fill="#383838" cx="82.919" cy="36" r="1.197"/>
  </g>
  <g  id="E11pin">
   <path  fill="#BFBFBF" d="M80.527,43.2c0,-1.322,1.071,-2.394,2.393,-2.394c1.322,0,2.395,1.071,2.395,2.394"/>
   <path  fill="#E6E6E6" d="M85.314,43.2c0,1.322,-1.072,2.394,-2.395,2.394c-1.321,0,-2.393,-1.072,-2.393,-2.394"/>
   <circle  fill="#383838" cx="82.919" cy="43.2" r="1.197"/>
  </g>
  <g  id="A12pin">
   <path  fill="#BFBFBF" d="M87.726,14.4c0,-1.322,1.072,-2.394,2.394,-2.394c1.322,0,2.394,1.072,2.394,2.394"/>
   <path  fill="#E6E6E6" d="M92.513,14.4c0,1.322,-1.071,2.394,-2.394,2.394c-1.321,0,-2.394,-1.071,-2.394,-2.394l0,0"/>
   <circle  fill="#383838" cx="90.12" cy="14.4" r="1.197"/>
  </g>
  <g  id="B12pin">
   <path  fill="#BFBFBF" d="M87.726,21.6c0,-1.322,1.072,-2.394,2.394,-2.394c1.322,0,2.394,1.072,2.394,2.394"/>
   <path  fill="#E6E6E6" d="M92.513,21.6c0,1.322,-1.071,2.394,-2.394,2.394c-1.321,0,-2.394,-1.072,-2.394,-2.394"/>
   <circle  fill="#383838" cx="90.12" cy="21.6" r="1.197"/>
  </g>
  <g  id="C12pin">
   <path  fill="#BFBFBF" d="M87.726,28.8c0,-1.322,1.072,-2.394,2.394,-2.394c1.322,0,2.394,1.072,2.394,2.394"/>
   <path  fill="#E6E6E6" d="M92.513,28.8c0,1.322,-1.071,2.394,-2.394,2.394c-1.321,0,-2.394,-1.071,-2.394,-2.394l0,0"/>
   <circle  fill="#383838" cx="90.12" cy="28.8" r="1.197"/>
  </g>
  <g  id="D12pin">
   <path  fill="#BFBFBF" d="M87.726,36c0,-1.322,1.072,-2.394,2.394,-2.394c1.322,0,2.394,1.072,2.394,2.394"/>
   <path  fill="#E6E6E6" d="M92.513,36c0,1.322,-1.071,2.394,-2.394,2.394c-1.321,0,-2.394,-1.072,-2.394,-2.394"/>
   <circle  fill="#383838" cx="90.12" cy="36" r="1.197"/>
  </g>
  <g  id="E12pin">
   <path  fill="#BFBFBF" d="M87.726,43.2c0,-1.322,1.072,-2.394,2.394,-2.394c1.322,0,2.394,1.071,2.394,2.394"/>
   <path  fill="#E6E6E6" d="M92.513,43.2c0,1.322,-1.071,2.394,-2.394,2.394c-1.321,0,-2.394,-1.072,-2.394,-2.394"/>
   <circle  fill="#383838" cx="90.12" cy="43.2" r="1.197"/>
  </g>
  <g  id="A13pin">
   <path  fill="#BFBFBF" d="M94.926,14.4c0,-1.322,1.071,-2.394,2.394,-2.394s2.394,1.072,2.394,2.394"/>
   <path  fill="#E6E6E6" d="M99.713,14.4c0,1.322,-1.071,2.394,-2.394,2.394s-2.394,-1.071,-2.394,-2.394l0,0"/>
   <circle  fill="#383838" cx="97.32" cy="14.4" r="1.197"/>
  </g>
  <g  id="B13pin">
   <path  fill="#BFBFBF" d="M94.926,21.6c0,-1.322,1.071,-2.394,2.394,-2.394s2.394,1.072,2.394,2.394"/>
   <path  fill="#E6E6E6" d="M99.713,21.6c0,1.322,-1.071,2.394,-2.394,2.394s-2.394,-1.072,-2.394,-2.394"/>
   <circle  fill="#383838" cx="97.32" cy="21.6" r="1.197"/>
  </g>
  <g  id="C13pin">
   <path  fill="#BFBFBF" d="M94.926,28.8c0,-1.322,1.071,-2.394,2.394,-2.394s2.394,1.072,2.394,2.394"/>
   <path  fill="#E6E6E6" d="M99.713,28.8c0,1.322,-1.071,2.394,-2.394,2.394s-2.394,-1.071,-2.394,-2.394l0,0"/>
   <circle  fill="#383838" cx="97.32" cy="28.8" r="1.197"/>
  </g>
  <g  id="D13pin">
   <path  fill="#BFBFBF" d="M94.926,36c0,-1.322,1.071,-2.394,2.394,-2.394s2.394,1.072,2.394,2.394"/>
   <path  fill="#E6E6E6" d="M99.713,36c0,1.322,-1.071,2.394,-2.394,2.394S94.926,37.322,94.926,36"/>
   <circle  fill="#383838" cx="97.32" cy="36" r="1.197"/>
  </g>
  <g  id="E13pin">
   <path  fill="#BFBFBF" d="M94.926,43.2c0,-1.322,1.071,-2.394,2.394,-2.394s2.394,1.071,2.394,2.394"/>
   <path  fill="#E6E6E6" d="M99.713,43.2c0,1.322,-1.071,2.394,-2.394,2.394s-2.394,-1.072,-2.394,-2.394"/>
   <circle  fill="#383838" cx="97.32" cy="43.2" r="1.197"/>
  </g>
  <g  id="A14pin">
   <path  fill="#BFBFBF" d="M102.126,14.4c0,-1.322,1.071,-2.394,2.394,-2.394c1.321,0,2.394,1.072,2.394,2.394"/>
   <path  fill="#E6E6E6" d="M106.914,14.4c0,1.322,-1.072,2.394,-2.394,2.394c-1.322,0,-2.394,-1.071,-2.394,-2.394l0,0"/>
   <circle  fill="#383838" cx="104.52" cy="14.4" r="1.197"/>
  </g>
  <g  id="B14pin">
   <path  fill="#BFBFBF" d="M102.126,21.6c0,-1.322,1.071,-2.394,2.394,-2.394c1.321,0,2.394,1.072,2.394,2.394"/>
   <path  fill="#E6E6E6" d="M106.914,21.6c0,1.322,-1.072,2.394,-2.394,2.394c-1.322,0,-2.394,-1.072,-2.394,-2.394"/>
   <circle  fill="#383838" cx="104.52" cy="21.6" r="1.197"/>
  </g>
  <g  id="C14pin">
   <path  fill="#BFBFBF" d="M102.126,28.8c0,-1.322,1.071,-2.394,2.394,-2.394c1.321,0,2.394,1.072,2.394,2.394"/>
   <path  fill="#E6E6E6" d="M106.914,28.8c0,1.322,-1.072,2.394,-2.394,2.394c-1.322,0,-2.394,-1.071,-2.394,-2.394l0,0"/>
   <circle  fill="#383838" cx="104.52" cy="28.8" r="1.197"/>
  </g>
  <g  id="D14pin">
   <path  fill="#BFBFBF" d="M102.126,36c0,-1.322,1.071,-2.394,2.394,-2.394c1.321,0,2.394,1.072,2.394,2.394"/>
   <path  fill="#E6E6E6" d="M106.914,36c0,1.322,-1.072,2.394,-2.394,2.394c-1.322,0,-2.394,-1.072,-2.394,-2.394"/>
   <circle  fill="#383838" cx="104.52" cy="36" r="1.197"/>
  </g>
  <g  id="E14pin">
   <path  fill="#BFBFBF" d="M102.126,43.2c0,-1.322,1.071,-2.394,2.394,-2.394c1.321,0,2.394,1.071,2.394,2.394"/>
   <path  fill="#E6E6E6" d="M106.914,43.2c0,1.322,-1.072,2.394,-2.394,2.394c-1.322,0,-2.394,-1.072,-2.394,-2.394"/>
   <circle  fill="#383838" cx="104.52" cy="43.2" r="1.197"/>
  </g>
  <g  id="A15pin">
   <path  fill="#BFBFBF" d="M109.326,14.4c0.002,-1.322,1.076,-2.392,2.398,-2.39c1.318,0.002,2.387,1.071,2.389,2.39"/>
   <path  fill="#E6E6E6" d="M114.113,14.4c0.002,1.322,-1.067,2.396,-2.389,2.397c-1.322,0.002,-2.396,-1.068,-2.398,-2.39c0,-0.002,0,-0.005,0,-0.007"/>
   <circle  fill="#383838" cx="111.72" cy="14.4" r="1.197"/>
  </g>
  <g  id="B15pin">
   <path  fill="#BFBFBF" d="M109.326,21.6c0.002,-1.322,1.076,-2.392,2.398,-2.39c1.318,0.002,2.387,1.071,2.389,2.39"/>
   <path  fill="#E6E6E6" d="M114.113,21.6c0.002,1.322,-1.067,2.395,-2.389,2.397c-1.322,0.002,-2.396,-1.068,-2.398,-2.39c0,-0.002,0,-0.005,0,-0.007"/>
   <circle  fill="#383838" cx="111.72" cy="21.6" r="1.197"/>
  </g>
  <g  id="C15pin">
   <path  fill="#BFBFBF" d="M109.326,28.8c0.002,-1.322,1.076,-2.392,2.398,-2.39c1.318,0.002,2.387,1.071,2.389,2.39"/>
   <path  fill="#E6E6E6" d="M114.113,28.8c0.002,1.322,-1.067,2.396,-2.389,2.397c-1.322,0.002,-2.396,-1.068,-2.398,-2.39c0,-0.002,0,-0.005,0,-0.007"/>
   <circle  fill="#383838" cx="111.72" cy="28.8" r="1.197"/>
  </g>
  <g  id="D15pin">
   <path  fill="#BFBFBF" d="M109.326,36c0.002,-1.322,1.076,-2.392,2.398,-2.39c1.318,0.002,2.387,1.071,2.389,2.39"/>
   <path  fill="#E6E6E6" d="M114.113,36c0.002,1.322,-1.067,2.395,-2.389,2.397c-1.322,0.002,-2.396,-1.068,-2.398,-2.39c0,-0.002,0,-0.005,0,-0.007"/>
   <circle  fill="#383838" cx="111.72" cy="36" r="1.197"/>
  </g>
  <g  id="E15pin">
   <path  fill="#BFBFBF" d="M109.326,43.2c0.002,-1.322,1.076,-2.392,2.398,-2.39c1.318,0.002,2.387,1.071,2.389,2.39"/>
   <path  fill="#E6E6E6" d="M114.113,43.2c0.002,1.322,-1.067,2.395,-2.389,2.397c-1.322,0.002,-2.396,-1.068,-2.398,-2.39c0,-0.002,0,-0.005,0,-0.007"/>
   <circle  fill="#383838" cx="111.72" cy="43.2" r="1.197"/>
  </g>
  <g  id="A16pin">
   <path  fill="#BFBFBF" d="M116.527,14.4c0.002,-1.322,1.074,-2.392,2.396,-2.39c1.319,0.002,2.389,1.071,2.391,2.39"/>
   <path  fill="#E6E6E6" d="M121.314,14.4c0.002,1.322,-1.068,2.396,-2.391,2.397s-2.395,-1.068,-2.396,-2.39c0,-0.002,0,-0.005,0,-0.007"/>
   <circle  fill="#383838" cx="118.919" cy="14.4" r="1.197"/>
  </g>
  <g  id="B16pin">
   <path  fill="#BFBFBF" d="M116.527,21.6c0.002,-1.322,1.074,-2.392,2.396,-2.39c1.319,0.002,2.389,1.071,2.391,2.39"/>
   <path  fill="#E6E6E6" d="M121.314,21.6c0.002,1.322,-1.068,2.395,-2.391,2.397s-2.395,-1.068,-2.396,-2.39c0,-0.002,0,-0.005,0,-0.007"/>
   <circle  fill="#383838" cx="118.919" cy="21.6" r="1.197"/>
  </g>
  <g  id="C16pin">
   <path  fill="#BFBFBF" d="M116.527,28.8c0.002,-1.322,1.074,-2.392,2.396,-2.39c1.319,0.002,2.389,1.071,2.391,2.39"/>
   <path  fill="#E6E6E6" d="M121.314,28.8c0.002,1.322,-1.068,2.396,-2.391,2.397s-2.395,-1.068,-2.396,-2.39c0,-0.002,0,-0.005,0,-0.007"/>
   <circle  fill="#383838" cx="118.919" cy="28.8" r="1.197"/>
  </g>
  <g  id="D16pin">
   <path  fill="#BFBFBF" d="M116.527,36c0.002,-1.322,1.074,-2.392,2.396,-2.39c1.319,0.002,2.389,1.071,2.391,2.39"/>
   <path  fill="#E6E6E6" d="M121.314,36c0.002,1.322,-1.068,2.395,-2.391,2.397c-1.322,0.002,-2.395,-1.068,-2.396,-2.39c0,-0.002,0,-0.005,0,-0.007"/>
   <circle  fill="#383838" cx="118.919" cy="36" r="1.197"/>
  </g>
  <g  id="E16pin">
   <path  fill="#BFBFBF" d="M116.527,43.2c0.002,-1.322,1.074,-2.392,2.396,-2.39c1.319,0.002,2.389,1.071,2.391,2.39"/>
   <path  fill="#E6E6E6" d="M121.314,43.2c0.002,1.322,-1.068,2.395,-2.391,2.397s-2.395,-1.068,-2.396,-2.39c0,-0.002,0,-0.005,0,-0.007"/>
   <circle  fill="#383838" cx="118.919" cy="43.2" r="1.197"/>
  </g>
  <g  id="A17pin">
   <path  fill="#BFBFBF" d="M123.726,14.4c0.002,-1.322,1.075,-2.392,2.397,-2.39c1.319,0.002,2.388,1.071,2.39,2.39"/>
   <path  fill="#E6E6E6" d="M128.513,14.4c0.002,1.322,-1.068,2.396,-2.39,2.397c-1.322,0.002,-2.396,-1.068,-2.397,-2.39c0,-0.002,0,-0.005,0,-0.007"/>
   <circle  fill="#383838" cx="126.12" cy="14.4" r="1.197"/>
  </g>
  <g  id="B17pin">
   <path  fill="#BFBFBF" d="M123.726,21.6c0.002,-1.322,1.075,-2.392,2.397,-2.39c1.319,0.002,2.388,1.071,2.39,2.39"/>
   <path  fill="#E6E6E6" d="M128.513,21.6c0.002,1.322,-1.068,2.395,-2.39,2.397c-1.322,0.002,-2.396,-1.068,-2.397,-2.39c0,-0.002,0,-0.005,0,-0.007"/>
   <circle  fill="#383838" cx="126.12" cy="21.6" r="1.197"/>
  </g>
  <g  id="C17pin">
   <path  fill="#BFBFBF" d="M123.726,28.8c0.002,-1.322,1.075,-2.392,2.397,-2.39c1.319,0.002,2.388,1.071,2.39,2.39"/>
   <path  fill="#E6E6E6" d="M128.513,28.8c0.002,1.322,-1.068,2.396,-2.39,2.397c-1.322,0.002,-2.396,-1.068,-2.397,-2.39c0,-0.002,0,-0.005,0,-0.007"/>
   <circle  fill="#383838" cx="126.12" cy="28.8" r="1.197"/>
  </g>
  <g  id="D17pin">
   <path  fill="#BFBFBF" d="M123.726,36c0.002,-1.322,1.075,-2.392,2.397,-2.39c1.319,0.002,2.388,1.071,2.39,2.39"/>
   <path  fill="#E6E6E6" d="M128.513,36c0.002,1.322,-1.068,2.395,-2.39,2.397c-1.322,0.002,-2.396,-1.068,-2.397,-2.39c0,-0.002,0,-0.005,0,-0.007"/>
   <circle  fill="#383838" cx="126.12" cy="36" r="1.197"/>
  </g>
  <g  id="E17pin">
   <path  fill="#BFBFBF" d="M123.726,43.2c0.002,-1.322,1.075,-2.392,2.397,-2.39c1.319,0.002,2.388,1.071,2.39,2.39"/>
   <path  fill="#E6E6E6" d="M128.513,43.2c0.002,1.322,-1.068,2.395,-2.39,2.397c-1.322,0.002,-2.396,-1.068,-2.397,-2.39c0,-0.002,0,-0.005,0,-0.007"/>
   <circle  fill="#383838" cx="126.12" cy="43.2" r="1.197"/>
  </g>
  <g  id="A18pin">
   <path  fill="#BFBFBF" d="M130.926,14.4c0.002,-1.322,1.075,-2.392,2.397,-2.39c1.318,0.002,2.388,1.071,2.39,2.39"/>
   <path  fill="#E6E6E6" d="M135.713,14.4c0.002,1.322,-1.067,2.396,-2.39,2.397s-2.396,-1.068,-2.397,-2.39c0,-0.002,0,-0.005,0,-0.007"/>
   <circle  fill="#383838" cx="133.32" cy="14.4" r="1.197"/>
  </g>
  <g  id="B18pin">
   <path  fill="#BFBFBF" d="M130.926,21.6c0.002,-1.322,1.075,-2.392,2.397,-2.39c1.318,0.002,2.388,1.071,2.39,2.39"/>
   <path  fill="#E6E6E6" d="M135.713,21.6c0.002,1.322,-1.067,2.395,-2.39,2.397s-2.396,-1.068,-2.397,-2.39c0,-0.002,0,-0.005,0,-0.007"/>
   <circle  fill="#383838" cx="133.32" cy="21.6" r="1.197"/>
  </g>
  <g  id="C18pin">
   <path  fill="#BFBFBF" d="M130.926,28.8c0.002,-1.322,1.075,-2.392,2.397,-2.39c1.318,0.002,2.388,1.071,2.39,2.39"/>
   <path  fill="#E6E6E6" d="M135.713,28.8c0.002,1.322,-1.067,2.396,-2.39,2.397s-2.396,-1.068,-2.397,-2.39c0,-0.002,0,-0.005,0,-0.007"/>
   <circle  fill="#383838" cx="133.32" cy="28.8" r="1.197"/>
  </g>
  <g  id="D18pin">
   <path  fill="#BFBFBF" d="M130.926,36c0.002,-1.322,1.075,-2.392,2.397,-2.39c1.318,0.002,2.388,1.071,2.39,2.39"/>
   <path  fill="#E6E6E6" d="M135.713,36c0.002,1.322,-1.067,2.395,-2.39,2.397c-1.322,0.002,-2.396,-1.068,-2.397,-2.39c0,-0.002,0,-0.005,0,-0.007"/>
   <circle  fill="#383838" cx="133.32" cy="36" r="1.197"/>
  </g>
  <g  id="E18pin">
   <path  fill="#BFBFBF" d="M130.926,43.2c0.002,-1.322,1.075,-2.392,2.397,-2.39c1.318,0.002,2.388,1.071,2.39,2.39"/>
   <path  fill="#E6E6E6" d="M135.713,43.2c0.002,1.322,-1.067,2.395,-2.39,2.397s-2.396,-1.068,-2.397,-2.39c0,-0.002,0,-0.005,0,-0.007"/>
   <circle  fill="#383838" cx="133.32" cy="43.2" r="1.197"/>
  </g>
  <g  id="A19pin">
   <path  fill="#BFBFBF" d="M138.126,14.4c0.002,-1.322,1.075,-2.392,2.396,-2.39c1.319,0.002,2.389,1.071,2.391,2.39"/>
   <path  fill="#E6E6E6" d="M142.914,14.4c0.002,1.322,-1.068,2.396,-2.391,2.397c-1.321,0.002,-2.395,-1.068,-2.396,-2.39c0,-0.002,0,-0.005,0,-0.007"/>
   <circle  fill="#383838" cx="140.52" cy="14.4" r="1.197"/>
  </g>
  <g  id="B19pin">
   <path  fill="#BFBFBF" d="M138.126,21.6c0.002,-1.322,1.075,-2.392,2.396,-2.39c1.319,0.002,2.389,1.071,2.391,2.39"/>
   <path  fill="#E6E6E6" d="M142.914,21.6c0.002,1.322,-1.068,2.395,-2.391,2.397c-1.321,0.002,-2.395,-1.068,-2.396,-2.39c0,-0.002,0,-0.005,0,-0.007"/>
   <circle  fill="#383838" cx="140.52" cy="21.6" r="1.197"/>
  </g>
  <g  id="C19pin">
   <path  fill="#BFBFBF" d="M138.126,28.8c0.002,-1.322,1.075,-2.392,2.396,-2.39c1.319,0.002,2.389,1.071,2.391,2.39"/>
   <path  fill="#E6E6E6" d="M142.914,28.8c0.002,1.322,-1.068,2.396,-2.391,2.397c-1.321,0.002,-2.395,-1.068,-2.396,-2.39c0,-0.002,0,-0.005,0,-0.007"/>
   <circle  fill="#383838" cx="140.52" cy="28.8" r="1.197"/>
  </g>
  <g  id="D19pin">
   <path  fill="#BFBFBF" d="M138.126,36c0.002,-1.322,1.075,-2.392,2.396,-2.39c1.319,0.002,2.389,1.071,2.391,2.39"/>
   <path  fill="#E6E6E6" d="M142.914,36c0.002,1.322,-1.068,2.395,-2.391,2.397c-1.321,0.002,-2.395,-1.068,-2.396,-2.39c0,-0.002,0,-0.005,0,-0.007"/>
   <circle  fill="#383838" cx="140.52" cy="36" r="1.197"/>
  </g>
  <g  id="E19pin">
   <path  fill="#BFBFBF" d="M138.126,43.2c0.002,-1.322,1.075,-2.392,2.396,-2.39c1.319,0.002,2.389,1.071,2.391,2.39"/>
   <path  fill="#E6E6E6" d="M142.914,43.2c0.002,1.322,-1.068,2.395,-2.391,2.397c-1.321,0.002,-2.395,-1.068,-2.396,-2.39c0,-0.002,0,-0.005,0,-0.007"/>
   <circle  fill="#383838" cx="140.52" cy="43.2" r="1.197"/>
  </g>
  <g  id="A20pin">
   <path  fill="#BFBFBF" d="M145.326,14.4c0.002,-1.322,1.076,-2.392,2.397,-2.39c1.319,0.002,2.388,1.071,2.39,2.39"/>
   <path  fill="#E6E6E6" d="M150.113,14.4c0.002,1.322,-1.067,2.396,-2.39,2.397c-1.321,0.002,-2.396,-1.068,-2.397,-2.39c0,-0.002,0,-0.005,0,-0.007"/>
   <circle  fill="#383838" cx="147.72" cy="14.4" r="1.197"/>
  </g>
  <g  id="B20pin">
   <path  fill="#BFBFBF" d="M145.326,21.6c0.002,-1.322,1.076,-2.392,2.397,-2.39c1.319,0.002,2.388,1.071,2.39,2.39"/>
   <path  fill="#E6E6E6" d="M150.113,21.6c0.002,1.322,-1.067,2.395,-2.39,2.397c-1.321,0.002,-2.396,-1.068,-2.397,-2.39c0,-0.002,0,-0.005,0,-0.007"/>
   <circle  fill="#383838" cx="147.72" cy="21.6" r="1.197"/>
  </g>
  <g  id="C20pin">
   <path  fill="#BFBFBF" d="M145.326,28.8c0.002,-1.322,1.076,-2.392,2.397,-2.39c1.319,0.002,2.388,1.071,2.39,2.39"/>
   <path  fill="#E6E6E6" d="M150.113,28.8c0.002,1.322,-1.067,2.396,-2.39,2.397c-1.321,0.002,-2.396,-1.068,-2.397,-2.39c0,-0.002,0,-0.005,0,-0.007"/>
   <circle  fill="#383838" cx="147.72" cy="28.8" r="1.197"/>
  </g>
  <g  id="D20pin">
   <path  fill="#BFBFBF" d="M145.326,36c0.002,-1.322,1.076,-2.392,2.397,-2.39c1.319,0.002,2.388,1.071,2.39,2.39"/>
   <path  fill="#E6E6E6" d="M150.113,36c0.002,1.322,-1.067,2.395,-2.39,2.397c-1.321,0.002,-2.396,-1.068,-2.397,-2.39c0,-0.002,0,-0.005,0,-0.007"/>
   <circle  fill="#383838" cx="147.72" cy="36" r="1.197"/>
  </g>
  <g  id="E20pin">
   <path  fill="#BFBFBF" d="M145.326,43.2c0.002,-1.322,1.076,-2.392,2.397,-2.39c1.319,0.002,2.388,1.071,2.39,2.39"/>
   <path  fill="#E6E6E6" d="M150.113,43.2c0.002,1.322,-1.067,2.395,-2.39,2.397c-1.321,0.002,-2.396,-1.068,-2.397,-2.39c0,-0.002,0,-0.005,0,-0.007"/>
   <circle  fill="#383838" cx="147.72" cy="43.2" r="1.197"/>
  </g>
  <g  id="F1pin">
   <path  fill="#BFBFBF" d="M8.526,64.8c0,-1.321,1.072,-2.394,2.394,-2.394s2.394,1.072,2.394,2.394"/>
   <path  fill="#E6E6E6" d="M13.313,64.8c0,1.322,-1.072,2.394,-2.394,2.394S8.526,66.122,8.526,64.8l0,0"/>
   <circle  fill="#383838" cx="10.92" cy="64.8" r="1.196"/>
  </g>
  <g  id="G1pin">
   <path  fill="#BFBFBF" d="M8.526,72c0,-1.322,1.072,-2.394,2.394,-2.394s2.394,1.071,2.394,2.394"/>
   <path  fill="#E6E6E6" d="M13.313,72c0,1.322,-1.072,2.394,-2.394,2.394S8.526,73.322,8.526,72l0,0"/>
   <circle  fill="#383838" cx="10.92" cy="72" r="1.197"/>
  </g>
  <g  id="H1pin">
   <path  fill="#BFBFBF" d="M8.526,79.2c0,-1.322,1.072,-2.394,2.394,-2.394s2.394,1.071,2.394,2.394"/>
   <path  fill="#E6E6E6" d="M13.313,79.2c0,1.321,-1.072,2.394,-2.394,2.394S8.526,80.521,8.526,79.2"/>
   <circle  fill="#383838" cx="10.92" cy="79.2" r="1.197"/>
  </g>
  <g  id="I1pin">
   <path  fill="#BFBFBF" d="M8.526,86.4c0,-1.322,1.072,-2.395,2.394,-2.395s2.394,1.072,2.394,2.395"/>
   <path  fill="#E6E6E6" d="M13.313,86.4c0,1.321,-1.072,2.393,-2.394,2.393S8.526,87.722,8.526,86.4l0,0"/>
   <circle  fill="#383838" cx="10.92" cy="86.4" r="1.197"/>
  </g>
  <g  id="J1pin">
   <path  fill="#BFBFBF" d="M8.526,93.6c0,-1.322,1.072,-2.394,2.394,-2.394s2.394,1.071,2.394,2.394"/>
   <path  fill="#E6E6E6" d="M13.313,93.6c0,1.322,-1.072,2.395,-2.394,2.395S8.526,94.922,8.526,93.6l0,0"/>
   <circle  fill="#383838" cx="10.92" cy="93.6" r="1.197"/>
  </g>
  <g  id="F2pin">
   <path  fill="#BFBFBF" d="M15.727,64.8c0,-1.321,1.071,-2.394,2.394,-2.394c1.322,0,2.394,1.072,2.394,2.394"/>
   <path  fill="#E6E6E6" d="M20.514,64.8c0,1.322,-1.07,2.395,-2.393,2.396c-1.322,0,-2.394,-1.07,-2.395,-2.393c0,-0.001,0,-0.002,0,-0.003"/>
   <circle  fill="#383838" cx="18.12" cy="64.8" r="1.196"/>
  </g>
  <g  id="G2pin">
   <path  fill="#BFBFBF" d="M15.727,72c0,-1.322,1.071,-2.394,2.394,-2.394c1.322,0,2.394,1.071,2.394,2.394"/>
   <path  fill="#E6E6E6" d="M20.514,72c0,1.322,-1.07,2.395,-2.393,2.395c-1.322,0.001,-2.394,-1.07,-2.395,-2.393c0,0,0,-0.001,0,-0.002"/>
   <circle  fill="#383838" cx="18.12" cy="72" r="1.197"/>
  </g>
  <g  id="H2pin">
   <path  fill="#BFBFBF" d="M15.727,79.2c0,-1.322,1.071,-2.394,2.394,-2.394c1.322,0,2.394,1.071,2.394,2.394"/>
   <path  fill="#E6E6E6" d="M20.514,79.2c0,1.321,-1.07,2.394,-2.393,2.395c-1.322,0.001,-2.394,-1.07,-2.395,-2.392c0,-0.002,0,-0.002,0,-0.003"/>
   <circle  fill="#383838" cx="18.12" cy="79.2" r="1.197"/>
  </g>
  <g  id="I2pin">
   <path  fill="#BFBFBF" d="M15.727,86.4c0,-1.322,1.071,-2.395,2.394,-2.395c1.322,0,2.394,1.072,2.394,2.395"/>
   <path  fill="#E6E6E6" d="M20.514,86.4c0,1.321,-1.07,2.394,-2.393,2.395c-1.322,0,-2.394,-1.07,-2.395,-2.393L15.726,86.4"/>
   <circle  fill="#383838" cx="18.12" cy="86.4" r="1.197"/>
  </g>
  <g  id="J2pin">
   <path  fill="#BFBFBF" d="M15.727,93.6c0,-1.322,1.071,-2.394,2.394,-2.394c1.322,0,2.394,1.071,2.394,2.394"/>
   <path  fill="#E6E6E6" d="M20.514,93.6c0,1.322,-1.07,2.395,-2.393,2.396c-1.322,0.001,-2.394,-1.071,-2.395,-2.393c0,-0.001,0,-0.002,0,-0.003"/>
   <circle  fill="#383838" cx="18.12" cy="93.6" r="1.197"/>
  </g>
  <g  id="F3pin">
   <path  fill="#BFBFBF" d="M22.926,64.8c0,-1.321,1.072,-2.394,2.394,-2.394c1.322,0,2.394,1.072,2.394,2.394"/>
   <path  fill="#E6E6E6" d="M27.713,64.8c0,1.322,-1.071,2.394,-2.394,2.394c-1.322,0,-2.394,-1.071,-2.394,-2.394"/>
   <circle  fill="#383838" cx="25.32" cy="64.8" r="1.196"/>
  </g>
  <g  id="G3pin">
   <path  fill="#BFBFBF" d="M22.926,72c0,-1.322,1.072,-2.394,2.394,-2.394c1.322,0,2.394,1.071,2.394,2.394"/>
   <path  fill="#E6E6E6" d="M27.713,72c0,1.322,-1.071,2.394,-2.394,2.394c-1.322,0,-2.394,-1.071,-2.394,-2.394"/>
   <circle  fill="#383838" cx="25.32" cy="72" r="1.197"/>
  </g>
  <g  id="H3pin">
   <path  fill="#BFBFBF" d="M22.926,79.2c0,-1.322,1.072,-2.394,2.394,-2.394c1.322,0,2.394,1.071,2.394,2.394"/>
   <path  fill="#E6E6E6" d="M27.713,79.2c0,1.321,-1.071,2.394,-2.394,2.394c-1.322,0,-2.394,-1.072,-2.394,-2.394l0,0"/>
   <circle  fill="#383838" cx="25.32" cy="79.2" r="1.197"/>
  </g>
  <g  id="I3pin">
   <path  fill="#BFBFBF" d="M22.926,86.4c0,-1.322,1.072,-2.395,2.394,-2.395c1.322,0,2.394,1.072,2.394,2.395"/>
   <path  fill="#E6E6E6" d="M27.713,86.4c0,1.321,-1.071,2.393,-2.394,2.393c-1.322,0,-2.394,-1.071,-2.394,-2.393"/>
   <circle  fill="#383838" cx="25.32" cy="86.4" r="1.197"/>
  </g>
  <g  id="J3pin">
   <path  fill="#BFBFBF" d="M22.926,93.6c0,-1.322,1.072,-2.394,2.394,-2.394c1.322,0,2.394,1.071,2.394,2.394"/>
   <path  fill="#E6E6E6" d="M27.713,93.6c0,1.322,-1.071,2.395,-2.394,2.395c-1.322,0,-2.394,-1.072,-2.394,-2.395l0,0"/>
   <circle  fill="#383838" cx="25.32" cy="93.6" r="1.197"/>
  </g>
  <g  id="F4pin">
   <path  fill="#BFBFBF" d="M30.126,64.8c0,-1.321,1.072,-2.394,2.394,-2.394s2.394,1.072,2.394,2.394"/>
   <path  fill="#E6E6E6" d="M34.914,64.8c0,1.322,-1.072,2.394,-2.394,2.394s-2.394,-1.071,-2.394,-2.394"/>
   <circle  fill="#383838" cx="32.52" cy="64.8" r="1.196"/>
  </g>
  <g  id="G4pin">
   <path  fill="#BFBFBF" d="M30.126,72c0,-1.322,1.072,-2.394,2.394,-2.394s2.394,1.071,2.394,2.394"/>
   <path  fill="#E6E6E6" d="M34.914,72c0,1.322,-1.072,2.394,-2.394,2.394S30.126,73.322,30.126,72"/>
   <circle  fill="#383838" cx="32.52" cy="72" r="1.197"/>
  </g>
  <g  id="H4pin">
   <path  fill="#BFBFBF" d="M30.126,79.2c0,-1.322,1.072,-2.394,2.394,-2.394s2.394,1.071,2.394,2.394"/>
   <path  fill="#E6E6E6" d="M34.914,79.2c0,1.321,-1.072,2.394,-2.394,2.394s-2.394,-1.072,-2.394,-2.394l0,0"/>
   <circle  fill="#383838" cx="32.52" cy="79.2" r="1.197"/>
  </g>
  <g  id="I4pin">
   <path  fill="#BFBFBF" d="M30.126,86.4c0,-1.322,1.072,-2.395,2.394,-2.395s2.394,1.072,2.394,2.395"/>
   <path  fill="#E6E6E6" d="M34.914,86.4c0,1.321,-1.072,2.393,-2.394,2.393s-2.394,-1.071,-2.394,-2.393"/>
   <circle  fill="#383838" cx="32.52" cy="86.4" r="1.197"/>
  </g>
  <g  id="J4pin">
   <path  fill="#BFBFBF" d="M30.126,93.6c0,-1.322,1.072,-2.394,2.394,-2.394s2.394,1.071,2.394,2.394"/>
   <path  fill="#E6E6E6" d="M34.914,93.6c0,1.322,-1.072,2.395,-2.394,2.395s-2.394,-1.072,-2.394,-2.395l0,0"/>
   <circle  fill="#383838" cx="32.52" cy="93.6" r="1.197"/>
  </g>
  <g  id="F5pin">
   <path  fill="#BFBFBF" d="M37.326,64.8c0,-1.321,1.072,-2.394,2.394,-2.394c1.322,0,2.394,1.072,2.394,2.394"/>
   <path  fill="#E6E6E6" d="M42.114,64.8c0,1.322,-1.072,2.394,-2.394,2.394c-1.322,0,-2.394,-1.071,-2.394,-2.394"/>
   <circle  fill="#383838" cx="39.72" cy="64.8" r="1.196"/>
  </g>
  <g  id="G5pin">
   <path  fill="#BFBFBF" d="M37.326,72c0,-1.322,1.072,-2.394,2.394,-2.394c1.322,0,2.394,1.071,2.394,2.394"/>
   <path  fill="#E6E6E6" d="M42.114,72c0,1.322,-1.072,2.394,-2.394,2.394c-1.322,0,-2.394,-1.071,-2.394,-2.394"/>
   <circle  fill="#383838" cx="39.72" cy="72" r="1.197"/>
  </g>
  <g  id="H5pin">
   <path  fill="#BFBFBF" d="M37.326,79.2c0,-1.322,1.072,-2.394,2.394,-2.394c1.322,0,2.394,1.071,2.394,2.394"/>
   <path  fill="#E6E6E6" d="M42.114,79.2c0,1.321,-1.072,2.394,-2.394,2.394c-1.322,0,-2.394,-1.072,-2.394,-2.394l0,0"/>
   <circle  fill="#383838" cx="39.72" cy="79.2" r="1.197"/>
  </g>
  <g  id="I5pin">
   <path  fill="#BFBFBF" d="M37.326,86.4c0,-1.322,1.072,-2.395,2.394,-2.395c1.322,0,2.394,1.072,2.394,2.395"/>
   <path  fill="#E6E6E6" d="M42.114,86.4c0,1.321,-1.072,2.393,-2.394,2.393c-1.322,0,-2.394,-1.071,-2.394,-2.393"/>
   <circle  fill="#383838" cx="39.72" cy="86.4" r="1.197"/>
  </g>
  <g  id="J5pin">
   <path  fill="#BFBFBF" d="M37.326,93.6c0,-1.322,1.072,-2.394,2.394,-2.394c1.322,0,2.394,1.071,2.394,2.394"/>
   <path  fill="#E6E6E6" d="M42.114,93.6c0,1.322,-1.072,2.395,-2.394,2.395c-1.322,0,-2.394,-1.072,-2.394,-2.395l0,0"/>
   <circle  fill="#383838" cx="39.72" cy="93.6" r="1.197"/>
  </g>
  <g  id="F6pin">
   <path  fill="#BFBFBF" d="M44.526,64.8c0,-1.321,1.072,-2.394,2.394,-2.394s2.394,1.072,2.394,2.394"/>
   <path  fill="#E6E6E6" d="M49.313,64.8c0,1.322,-1.072,2.394,-2.394,2.394s-2.394,-1.071,-2.394,-2.394"/>
   <circle  fill="#383838" cx="46.92" cy="64.8" r="1.196"/>
  </g>
  <g  id="G6pin">
   <path  fill="#BFBFBF" d="M44.526,72c0,-1.322,1.072,-2.394,2.394,-2.394s2.394,1.071,2.394,2.394"/>
   <path  fill="#E6E6E6" d="M49.313,72c0,1.322,-1.072,2.394,-2.394,2.394S44.526,73.322,44.526,72"/>
   <circle  fill="#383838" cx="46.92" cy="72" r="1.197"/>
  </g>
  <g  id="H6pin">
   <path  fill="#BFBFBF" d="M44.526,79.2c0,-1.322,1.072,-2.394,2.394,-2.394s2.394,1.071,2.394,2.394"/>
   <path  fill="#E6E6E6" d="M49.313,79.2c0,1.321,-1.072,2.394,-2.394,2.394s-2.394,-1.072,-2.394,-2.394l0,0"/>
   <circle  fill="#383838" cx="46.92" cy="79.2" r="1.197"/>
  </g>
  <g  id="I6pin">
   <path  fill="#BFBFBF" d="M44.526,86.4c0,-1.322,1.072,-2.395,2.394,-2.395s2.394,1.072,2.394,2.395"/>
   <path  fill="#E6E6E6" d="M49.313,86.4c0,1.321,-1.072,2.393,-2.394,2.393s-2.394,-1.071,-2.394,-2.393"/>
   <circle  fill="#383838" cx="46.92" cy="86.4" r="1.197"/>
  </g>
  <g  id="J6pin">
   <path  fill="#BFBFBF" d="M44.526,93.6c0,-1.322,1.072,-2.394,2.394,-2.394s2.394,1.071,2.394,2.394"/>
   <path  fill="#E6E6E6" d="M49.313,93.6c0,1.322,-1.072,2.395,-2.394,2.395s-2.394,-1.072,-2.394,-2.395l0,0"/>
   <circle  fill="#383838" cx="46.92" cy="93.6" r="1.197"/>
  </g>
  <g  id="F7pin">
   <path  fill="#BFBFBF" d="M51.727,64.8c0,-1.321,1.071,-2.394,2.394,-2.394c1.322,0,2.394,1.072,2.394,2.394"/>
   <path  fill="#E6E6E6" d="M56.514,64.8c0,1.322,-1.072,2.394,-2.394,2.394c-1.322,0,-2.394,-1.071,-2.394,-2.394"/>
   <circle  fill="#383838" cx="54.12" cy="64.8" r="1.196"/>
  </g>
  <g  id="G7pin">
   <path  fill="#BFBFBF" d="M51.727,72c0,-1.322,1.071,-2.394,2.394,-2.394c1.322,0,2.394,1.071,2.394,2.394"/>
   <path  fill="#E6E6E6" d="M56.514,72c0,1.322,-1.072,2.394,-2.394,2.394c-1.322,0,-2.394,-1.071,-2.394,-2.394"/>
   <circle  fill="#383838" cx="54.12" cy="72" r="1.197"/>
  </g>
  <g  id="H7pin">
   <path  fill="#BFBFBF" d="M51.727,79.2c0,-1.322,1.071,-2.394,2.394,-2.394c1.322,0,2.394,1.071,2.394,2.394"/>
   <path  fill="#E6E6E6" d="M56.514,79.2c0,1.321,-1.072,2.394,-2.394,2.394c-1.322,0,-2.394,-1.072,-2.394,-2.394l0,0"/>
   <circle  fill="#383838" cx="54.12" cy="79.2" r="1.197"/>
  </g>
  <g  id="I7pin">
   <path  fill="#BFBFBF" d="M51.727,86.4c0,-1.322,1.071,-2.395,2.394,-2.395c1.322,0,2.394,1.072,2.394,2.395"/>
   <path  fill="#E6E6E6" d="M56.514,86.4c0,1.321,-1.072,2.393,-2.394,2.393c-1.322,0,-2.394,-1.071,-2.394,-2.393"/>
   <circle  fill="#383838" cx="54.12" cy="86.4" r="1.197"/>
  </g>
  <g  id="J7pin">
   <path  fill="#BFBFBF" d="M51.727,93.6c0,-1.322,1.071,-2.394,2.394,-2.394c1.322,0,2.394,1.071,2.394,2.394"/>
   <path  fill="#E6E6E6" d="M56.514,93.6c0,1.322,-1.072,2.395,-2.394,2.395c-1.322,0,-2.394,-1.072,-2.394,-2.395l0,0"/>
   <circle  fill="#383838" cx="54.12" cy="93.6" r="1.197"/>
  </g>
  <g  id="F8pin">
   <path  fill="#BFBFBF" d="M58.926,64.8c0,-1.321,1.072,-2.394,2.394,-2.394c1.322,0,2.394,1.072,2.394,2.394"/>
   <path  fill="#E6E6E6" d="M63.713,64.8c0,1.322,-1.071,2.394,-2.394,2.394c-1.322,0,-2.394,-1.071,-2.394,-2.394"/>
   <circle  fill="#383838" cx="61.32" cy="64.8" r="1.196"/>
  </g>
  <g  id="G8pin">
   <path  fill="#BFBFBF" d="M58.926,72c0,-1.322,1.072,-2.394,2.394,-2.394c1.322,0,2.394,1.071,2.394,2.394"/>
   <path  fill="#E6E6E6" d="M63.713,72c0,1.322,-1.071,2.394,-2.394,2.394c-1.322,0,-2.394,-1.071,-2.394,-2.394"/>
   <circle  fill="#383838" cx="61.32" cy="72" r="1.197"/>
  </g>
  <g  id="H8pin">
   <path  fill="#BFBFBF" d="M58.926,79.2c0,-1.322,1.072,-2.394,2.394,-2.394c1.322,0,2.394,1.071,2.394,2.394"/>
   <path  fill="#E6E6E6" d="M63.713,79.2c0,1.321,-1.071,2.394,-2.394,2.394c-1.322,0,-2.394,-1.072,-2.394,-2.394l0,0"/>
   <circle  fill="#383838" cx="61.32" cy="79.2" r="1.197"/>
  </g>
  <g  id="I8pin">
   <path  fill="#BFBFBF" d="M58.926,86.4c0,-1.322,1.072,-2.395,2.394,-2.395c1.322,0,2.394,1.072,2.394,2.395"/>
   <path  fill="#E6E6E6" d="M63.713,86.4c0,1.321,-1.071,2.393,-2.394,2.393c-1.322,0,-2.394,-1.071,-2.394,-2.393"/>
   <circle  fill="#383838" cx="61.32" cy="86.4" r="1.197"/>
  </g>
  <g  id="J8pin">
   <path  fill="#BFBFBF" d="M58.926,93.6c0,-1.322,1.072,-2.394,2.394,-2.394c1.322,0,2.394,1.071,2.394,2.394"/>
   <path  fill="#E6E6E6" d="M63.713,93.6c0,1.322,-1.071,2.395,-2.394,2.395c-1.322,0,-2.394,-1.072,-2.394,-2.395l0,0"/>
   <circle  fill="#383838" cx="61.32" cy="93.6" r="1.197"/>
  </g>
  <g  id="F9pin">
   <path  fill="#BFBFBF" d="M66.126,64.8c0,-1.321,1.071,-2.394,2.394,-2.394c1.322,0,2.394,1.072,2.394,2.394"/>
   <path  fill="#E6E6E6" d="M70.914,64.8c0,1.322,-1.072,2.394,-2.394,2.394c-1.322,0,-2.394,-1.071,-2.394,-2.394"/>
   <circle  fill="#383838" cx="68.52" cy="64.8" r="1.196"/>
  </g>
  <g  id="G9pin">
   <path  fill="#BFBFBF" d="M66.126,72c0,-1.322,1.071,-2.394,2.394,-2.394c1.322,0,2.394,1.071,2.394,2.394"/>
   <path  fill="#E6E6E6" d="M70.914,72c0,1.322,-1.072,2.394,-2.394,2.394c-1.322,0,-2.394,-1.071,-2.394,-2.394"/>
   <circle  fill="#383838" cx="68.52" cy="72" r="1.197"/>
  </g>
  <g  id="H9pin">
   <path  fill="#BFBFBF" d="M66.126,79.2c0,-1.322,1.071,-2.394,2.394,-2.394c1.322,0,2.394,1.071,2.394,2.394"/>
   <path  fill="#E6E6E6" d="M70.914,79.2c0,1.321,-1.072,2.394,-2.394,2.394c-1.322,0,-2.394,-1.072,-2.394,-2.394l0,0"/>
   <circle  fill="#383838" cx="68.52" cy="79.2" r="1.197"/>
  </g>
  <g  id="I9pin">
   <path  fill="#BFBFBF" d="M66.126,86.4c0,-1.322,1.071,-2.395,2.394,-2.395c1.322,0,2.394,1.072,2.394,2.395"/>
   <path  fill="#E6E6E6" d="M70.914,86.4c0,1.321,-1.072,2.393,-2.394,2.393c-1.322,0,-2.394,-1.071,-2.394,-2.393"/>
   <circle  fill="#383838" cx="68.52" cy="86.4" r="1.197"/>
  </g>
  <g  id="J9pin">
   <path  fill="#BFBFBF" d="M66.126,93.6c0,-1.322,1.071,-2.394,2.394,-2.394c1.322,0,2.394,1.071,2.394,2.394"/>
   <path  fill="#E6E6E6" d="M70.914,93.6c0,1.322,-1.072,2.395,-2.394,2.395c-1.322,0,-2.394,-1.072,-2.394,-2.395l0,0"/>
   <circle  fill="#383838" cx="68.52" cy="93.6" r="1.197"/>
  </g>
  <g  id="F10pin">
   <path  fill="#BFBFBF" d="M73.326,64.8c0,-1.321,1.072,-2.394,2.394,-2.394c1.322,0,2.394,1.072,2.394,2.394"/>
   <path  fill="#E6E6E6" d="M78.113,64.8c0,1.322,-1.071,2.394,-2.394,2.394c-1.322,0,-2.394,-1.071,-2.394,-2.394"/>
   <circle  fill="#383838" cx="75.72" cy="64.8" r="1.196"/>
  </g>
  <g  id="G10pin">
   <path  fill="#BFBFBF" d="M73.326,72c0,-1.322,1.072,-2.394,2.394,-2.394c1.322,0,2.394,1.071,2.394,2.394"/>
   <path  fill="#E6E6E6" d="M78.113,72c0,1.322,-1.071,2.394,-2.394,2.394c-1.322,0,-2.394,-1.071,-2.394,-2.394"/>
   <circle  fill="#383838" cx="75.72" cy="72" r="1.197"/>
  </g>
  <g  id="H10pin">
   <path  fill="#BFBFBF" d="M73.326,79.2c0,-1.322,1.072,-2.394,2.394,-2.394c1.322,0,2.394,1.071,2.394,2.394"/>
   <path  fill="#E6E6E6" d="M78.113,79.2c0,1.321,-1.071,2.394,-2.394,2.394c-1.322,0,-2.394,-1.072,-2.394,-2.394l0,0"/>
   <circle  fill="#383838" cx="75.72" cy="79.2" r="1.197"/>
  </g>
  <g  id="I10pin">
   <path  fill="#BFBFBF" d="M73.326,86.4c0,-1.322,1.072,-2.395,2.394,-2.395c1.322,0,2.394,1.072,2.394,2.395"/>
   <path  fill="#E6E6E6" d="M78.113,86.4c0,1.321,-1.071,2.393,-2.394,2.393c-1.322,0,-2.394,-1.071,-2.394,-2.393"/>
   <circle  fill="#383838" cx="75.72" cy="86.4" r="1.197"/>
  </g>
  <g  id="J10pin">
   <path  fill="#BFBFBF" d="M73.326,93.6c0,-1.322,1.072,-2.394,2.394,-2.394c1.322,0,2.394,1.071,2.394,2.394"/>
   <path  fill="#E6E6E6" d="M78.113,93.6c0,1.322,-1.071,2.395,-2.394,2.395c-1.322,0,-2.394,-1.072,-2.394,-2.395l0,0"/>
   <circle  fill="#383838" cx="75.72" cy="93.6" r="1.197"/>
  </g>
  <g  id="F11pin">
   <path  fill="#BFBFBF" d="M80.527,64.8c0,-1.321,1.071,-2.394,2.393,-2.394c1.322,0,2.395,1.072,2.395,2.394"/>
   <path  fill="#E6E6E6" d="M85.314,64.8c0,1.322,-1.072,2.394,-2.395,2.394c-1.321,0,-2.393,-1.071,-2.393,-2.394"/>
   <circle  fill="#383838" cx="82.919" cy="64.8" r="1.196"/>
  </g>
  <g  id="G11pin">
   <path  fill="#BFBFBF" d="M80.527,72c0,-1.322,1.071,-2.394,2.393,-2.394c1.322,0,2.395,1.071,2.395,2.394"/>
   <path  fill="#E6E6E6" d="M85.314,72c0,1.322,-1.072,2.394,-2.395,2.394c-1.321,0,-2.393,-1.071,-2.393,-2.394"/>
   <circle  fill="#383838" cx="82.919" cy="72" r="1.197"/>
  </g>
  <g  id="H11pin">
   <path  fill="#BFBFBF" d="M80.527,79.2c0,-1.322,1.071,-2.394,2.393,-2.394c1.322,0,2.395,1.071,2.395,2.394"/>
   <path  fill="#E6E6E6" d="M85.314,79.2c0,1.321,-1.072,2.394,-2.395,2.394c-1.321,0,-2.393,-1.072,-2.393,-2.394l0,0"/>
   <circle  fill="#383838" cx="82.919" cy="79.2" r="1.197"/>
  </g>
  <g  id="I11pin">
   <path  fill="#BFBFBF" d="M80.527,86.4c0,-1.322,1.071,-2.395,2.393,-2.395c1.322,0,2.395,1.072,2.395,2.395"/>
   <path  fill="#E6E6E6" d="M85.314,86.4c0,1.321,-1.072,2.393,-2.395,2.393c-1.321,0,-2.393,-1.071,-2.393,-2.393"/>
   <circle  fill="#383838" cx="82.919" cy="86.4" r="1.197"/>
  </g>
  <g  id="J11pin">
   <path  fill="#BFBFBF" d="M80.527,93.6c0,-1.322,1.071,-2.394,2.393,-2.394c1.322,0,2.395,1.071,2.395,2.394"/>
   <path  fill="#E6E6E6" d="M85.314,93.6c0,1.322,-1.072,2.395,-2.395,2.395c-1.321,0,-2.393,-1.072,-2.393,-2.395l0,0"/>
   <circle  fill="#383838" cx="82.919" cy="93.6" r="1.197"/>
  </g>
  <g  id="F12pin">
   <path  fill="#BFBFBF" d="M87.726,64.8c0,-1.321,1.072,-2.394,2.394,-2.394c1.322,0,2.394,1.072,2.394,2.394"/>
   <path  fill="#E6E6E6" d="M92.513,64.8c0,1.322,-1.071,2.394,-2.394,2.394c-1.321,0,-2.394,-1.071,-2.394,-2.394"/>
   <circle  fill="#383838" cx="90.12" cy="64.8" r="1.196"/>
  </g>
  <g  id="G12pin">
   <path  fill="#BFBFBF" d="M87.726,72c0,-1.322,1.072,-2.394,2.394,-2.394c1.322,0,2.394,1.071,2.394,2.394"/>
   <path  fill="#E6E6E6" d="M92.513,72c0,1.322,-1.071,2.394,-2.394,2.394c-1.321,0,-2.394,-1.071,-2.394,-2.394"/>
   <circle  fill="#383838" cx="90.12" cy="72" r="1.197"/>
  </g>
  <g  id="H12pin">
   <path  fill="#BFBFBF" d="M87.726,79.2c0,-1.322,1.072,-2.394,2.394,-2.394c1.322,0,2.394,1.071,2.394,2.394"/>
   <path  fill="#E6E6E6" d="M92.513,79.2c0,1.321,-1.071,2.394,-2.394,2.394c-1.321,0,-2.394,-1.072,-2.394,-2.394l0,0"/>
   <circle  fill="#383838" cx="90.12" cy="79.2" r="1.197"/>
  </g>
  <g  id="I12pin">
   <path  fill="#BFBFBF" d="M87.726,86.4c0,-1.322,1.072,-2.395,2.394,-2.395c1.322,0,2.394,1.072,2.394,2.395"/>
   <path  fill="#E6E6E6" d="M92.513,86.4c0,1.321,-1.071,2.393,-2.394,2.393c-1.321,0,-2.394,-1.071,-2.394,-2.393"/>
   <circle  fill="#383838" cx="90.12" cy="86.4" r="1.197"/>
  </g>
  <g  id="J12pin">
   <path  fill="#BFBFBF" d="M87.726,93.6c0,-1.322,1.072,-2.394,2.394,-2.394c1.322,0,2.394,1.071,2.394,2.394"/>
   <path  fill="#E6E6E6" d="M92.513,93.6c0,1.322,-1.071,2.395,-2.394,2.395c-1.321,0,-2.394,-1.072,-2.394,-2.395l0,0"/>
   <circle  fill="#383838" cx="90.12" cy="93.6" r="1.197"/>
  </g>
  <g  id="F13pin">
   <path  fill="#BFBFBF" d="M94.926,64.8c0,-1.321,1.071,-2.394,2.394,-2.394s2.394,1.072,2.394,2.394"/>
   <path  fill="#E6E6E6" d="M99.713,64.8c0,1.322,-1.071,2.394,-2.394,2.394s-2.394,-1.071,-2.394,-2.394"/>
   <circle  fill="#383838" cx="97.32" cy="64.8" r="1.196"/>
  </g>
  <g  id="G13pin">
   <path  fill="#BFBFBF" d="M94.926,72c0,-1.322,1.071,-2.394,2.394,-2.394s2.394,1.071,2.394,2.394"/>
   <path  fill="#E6E6E6" d="M99.713,72c0,1.322,-1.071,2.394,-2.394,2.394S94.926,73.322,94.926,72"/>
   <circle  fill="#383838" cx="97.32" cy="72" r="1.197"/>
  </g>
  <g  id="H13pin">
   <path  fill="#BFBFBF" d="M94.926,79.2c0,-1.322,1.071,-2.394,2.394,-2.394s2.394,1.071,2.394,2.394"/>
   <path  fill="#E6E6E6" d="M99.713,79.2c0,1.321,-1.071,2.394,-2.394,2.394s-2.394,-1.072,-2.394,-2.394l0,0"/>
   <circle  fill="#383838" cx="97.32" cy="79.2" r="1.197"/>
  </g>
  <g  id="I13pin">
   <path  fill="#BFBFBF" d="M94.926,86.4c0,-1.322,1.071,-2.395,2.394,-2.395s2.394,1.072,2.394,2.395"/>
   <path  fill="#E6E6E6" d="M99.713,86.4c0,1.321,-1.071,2.393,-2.394,2.393s-2.394,-1.071,-2.394,-2.393"/>
   <circle  fill="#383838" cx="97.32" cy="86.4" r="1.197"/>
  </g>
  <g  id="J13pin">
   <path  fill="#BFBFBF" d="M94.926,93.6c0,-1.322,1.071,-2.394,2.394,-2.394s2.394,1.071,2.394,2.394"/>
   <path  fill="#E6E6E6" d="M99.713,93.6c0,1.322,-1.071,2.395,-2.394,2.395s-2.394,-1.072,-2.394,-2.395l0,0"/>
   <circle  fill="#383838" cx="97.32" cy="93.6" r="1.197"/>
  </g>
  <g  id="F14pin">
   <path  fill="#BFBFBF" d="M102.126,64.8c0,-1.321,1.071,-2.394,2.394,-2.394c1.321,0,2.394,1.072,2.394,2.394"/>
   <path  fill="#E6E6E6" d="M106.914,64.8c0,1.322,-1.072,2.394,-2.394,2.394c-1.322,0,-2.394,-1.071,-2.394,-2.394"/>
   <circle  fill="#383838" cx="104.52" cy="64.8" r="1.196"/>
  </g>
  <g  id="G14pin">
   <path  fill="#BFBFBF" d="M102.126,72c0,-1.322,1.071,-2.394,2.394,-2.394c1.321,0,2.394,1.071,2.394,2.394"/>
   <path  fill="#E6E6E6" d="M106.914,72c0,1.322,-1.072,2.394,-2.394,2.394c-1.322,0,-2.394,-1.071,-2.394,-2.394"/>
   <circle  fill="#383838" cx="104.52" cy="72" r="1.197"/>
  </g>
  <g  id="H14pin">
   <path  fill="#BFBFBF" d="M102.126,79.2c0,-1.322,1.071,-2.394,2.394,-2.394c1.321,0,2.394,1.071,2.394,2.394"/>
   <path  fill="#E6E6E6" d="M106.914,79.2c0,1.321,-1.072,2.394,-2.394,2.394c-1.322,0,-2.394,-1.072,-2.394,-2.394l0,0"/>
   <circle  fill="#383838" cx="104.52" cy="79.2" r="1.197"/>
  </g>
  <g  id="I14pin">
   <path  fill="#BFBFBF" d="M102.126,86.4c0,-1.322,1.071,-2.395,2.394,-2.395c1.321,0,2.394,1.072,2.394,2.395"/>
   <path  fill="#E6E6E6" d="M106.914,86.4c0,1.321,-1.072,2.393,-2.394,2.393c-1.322,0,-2.394,-1.071,-2.394,-2.393"/>
   <circle  fill="#383838" cx="104.52" cy="86.4" r="1.197"/>
  </g>
  <g  id="J14pin">
   <path  fill="#BFBFBF" d="M102.126,93.6c0,-1.322,1.071,-2.394,2.394,-2.394c1.321,0,2.394,1.071,2.394,2.394"/>
   <path  fill="#E6E6E6" d="M106.914,93.6c0,1.322,-1.072,2.395,-2.394,2.395c-1.322,0,-2.394,-1.072,-2.394,-2.395l0,0"/>
   <circle  fill="#383838" cx="104.52" cy="93.6" r="1.197"/>
  </g>
  <g  id="F15pin">
   <path  fill="#BFBFBF" d="M109.326,64.8c0.002,-1.321,1.076,-2.392,2.398,-2.39c1.318,0.002,2.387,1.07,2.389,2.39"/>
   <path  fill="#E6E6E6" d="M114.113,64.8c0.002,1.322,-1.067,2.396,-2.389,2.397c-1.322,0.002,-2.396,-1.068,-2.398,-2.391c0,-0.002,0,-0.004,0,-0.007"/>
   <circle  fill="#383838" cx="111.72" cy="64.8" r="1.196"/>
  </g>
  <g  id="G15pin">
   <path  fill="#BFBFBF" d="M109.326,72c0.002,-1.322,1.076,-2.393,2.398,-2.391c1.318,0.002,2.387,1.071,2.389,2.391"/>
   <path  fill="#E6E6E6" d="M114.113,72c0.002,1.322,-1.067,2.395,-2.389,2.396c-1.322,0.002,-2.396,-1.067,-2.398,-2.39c0,-0.002,0,-0.005,0,-0.007"/>
   <circle  fill="#383838" cx="111.72" cy="72" r="1.197"/>
  </g>
  <g  id="H15pin">
   <path  fill="#BFBFBF" d="M109.326,79.2c0.002,-1.322,1.076,-2.392,2.398,-2.39c1.318,0.002,2.387,1.07,2.389,2.39"/>
   <path  fill="#E6E6E6" d="M114.113,79.2c0.002,1.321,-1.067,2.396,-2.389,2.397c-1.322,0.002,-2.396,-1.068,-2.398,-2.391c0,-0.002,0,-0.005,0,-0.007"/>
   <circle  fill="#383838" cx="111.72" cy="79.2" r="1.197"/>
  </g>
  <g  id="I15pin">
   <path  fill="#BFBFBF" d="M109.326,86.4c0.002,-1.322,1.076,-2.393,2.398,-2.391c1.318,0.002,2.387,1.07,2.389,2.391"/>
   <path  fill="#E6E6E6" d="M114.113,86.4c0.002,1.321,-1.067,2.395,-2.389,2.396c-1.322,0.002,-2.396,-1.068,-2.398,-2.39c0,-0.003,0,-0.005,0,-0.007"/>
   <circle  fill="#383838" cx="111.72" cy="86.4" r="1.197"/>
  </g>
  <g  id="J15pin">
   <path  fill="#BFBFBF" d="M109.326,93.6c0.002,-1.322,1.076,-2.392,2.398,-2.39c1.318,0.002,2.387,1.071,2.389,2.39"/>
   <path  fill="#E6E6E6" d="M114.113,93.6c0.002,1.322,-1.067,2.396,-2.389,2.397c-1.322,0.002,-2.396,-1.067,-2.398,-2.39c0,-0.003,0,-0.005,0,-0.008"/>
   <circle  fill="#383838" cx="111.72" cy="93.6" r="1.197"/>
  </g>
  <g  id="F16pin">
   <path  fill="#BFBFBF" d="M116.527,64.8c0.002,-1.321,1.074,-2.392,2.396,-2.39c1.319,0.002,2.389,1.07,2.391,2.39"/>
   <path  fill="#E6E6E6" d="M121.314,64.8c0.002,1.322,-1.068,2.396,-2.391,2.397s-2.395,-1.068,-2.396,-2.391c0,-0.002,0,-0.004,0,-0.007"/>
   <circle  fill="#383838" cx="118.919" cy="64.8" r="1.196"/>
  </g>
  <g  id="G16pin">
   <path  fill="#BFBFBF" d="M116.527,72c0.002,-1.322,1.074,-2.393,2.396,-2.391c1.319,0.002,2.389,1.071,2.391,2.391"/>
   <path  fill="#E6E6E6" d="M121.314,72c0.002,1.322,-1.068,2.395,-2.391,2.396s-2.395,-1.067,-2.396,-2.39c0,-0.002,0,-0.005,0,-0.007"/>
   <circle  fill="#383838" cx="118.919" cy="72" r="1.197"/>
  </g>
  <g  id="H16pin">
   <path  fill="#BFBFBF" d="M116.527,79.2c0.002,-1.322,1.074,-2.392,2.396,-2.39c1.319,0.002,2.389,1.07,2.391,2.39"/>
   <path  fill="#E6E6E6" d="M121.314,79.2c0.002,1.321,-1.068,2.396,-2.391,2.397s-2.395,-1.068,-2.396,-2.391c0,-0.002,0,-0.005,0,-0.007"/>
   <circle  fill="#383838" cx="118.919" cy="79.2" r="1.197"/>
  </g>
  <g  id="I16pin">
   <path  fill="#BFBFBF" d="M116.527,86.4c0.002,-1.322,1.074,-2.393,2.396,-2.391c1.319,0.002,2.389,1.07,2.391,2.391"/>
   <path  fill="#E6E6E6" d="M121.314,86.4c0.002,1.321,-1.068,2.395,-2.391,2.396s-2.395,-1.068,-2.396,-2.39c0,-0.003,0,-0.005,0,-0.007"/>
   <circle  fill="#383838" cx="118.919" cy="86.4" r="1.197"/>
  </g>
  <g  id="J16pin">
   <path  fill="#BFBFBF" d="M116.527,93.6c0.002,-1.322,1.074,-2.392,2.396,-2.39c1.319,0.002,2.389,1.071,2.391,2.39"/>
   <path  fill="#E6E6E6" d="M121.314,93.6c0.002,1.322,-1.068,2.396,-2.391,2.397s-2.395,-1.067,-2.396,-2.39c0,-0.003,0,-0.005,0,-0.008"/>
   <circle  fill="#383838" cx="118.919" cy="93.6" r="1.197"/>
  </g>
  <g  id="F17pin">
   <path  fill="#BFBFBF" d="M123.726,64.8c0.002,-1.321,1.075,-2.392,2.397,-2.39c1.319,0.002,2.388,1.07,2.39,2.39"/>
   <path  fill="#E6E6E6" d="M128.513,64.8c0.002,1.322,-1.068,2.396,-2.39,2.397c-1.322,0.002,-2.396,-1.068,-2.397,-2.391c0,-0.002,0,-0.004,0,-0.007"/>
   <circle  fill="#383838" cx="126.12" cy="64.8" r="1.196"/>
  </g>
  <g  id="G17pin">
   <path  fill="#BFBFBF" d="M123.726,72c0.002,-1.322,1.075,-2.393,2.397,-2.391c1.319,0.002,2.388,1.071,2.39,2.391"/>
   <path  fill="#E6E6E6" d="M128.513,72c0.002,1.322,-1.068,2.395,-2.39,2.396c-1.322,0.002,-2.396,-1.067,-2.397,-2.39c0,-0.002,0,-0.005,0,-0.007"/>
   <circle  fill="#383838" cx="126.12" cy="72" r="1.197"/>
  </g>
  <g  id="H17pin">
   <path  fill="#BFBFBF" d="M123.726,79.2c0.002,-1.322,1.075,-2.392,2.397,-2.39c1.319,0.002,2.388,1.07,2.39,2.39"/>
   <path  fill="#E6E6E6" d="M128.513,79.2c0.002,1.321,-1.068,2.396,-2.39,2.397c-1.322,0.002,-2.396,-1.068,-2.397,-2.391c0,-0.002,0,-0.005,0,-0.007"/>
   <circle  fill="#383838" cx="126.12" cy="79.2" r="1.197"/>
  </g>
  <g  id="I17pin">
   <path  fill="#BFBFBF" d="M123.726,86.4c0.002,-1.322,1.075,-2.393,2.397,-2.391c1.319,0.002,2.388,1.07,2.39,2.391"/>
   <path  fill="#E6E6E6" d="M128.513,86.4c0.002,1.321,-1.068,2.395,-2.39,2.396c-1.322,0.002,-2.396,-1.068,-2.397,-2.39c0,-0.003,0,-0.005,0,-0.007"/>
   <circle  fill="#383838" cx="126.12" cy="86.4" r="1.197"/>
  </g>
  <g  id="J17pin">
   <path  fill="#BFBFBF" d="M123.726,93.6c0.002,-1.322,1.075,-2.392,2.397,-2.39c1.319,0.002,2.388,1.071,2.39,2.39"/>
   <path  fill="#E6E6E6" d="M128.513,93.6c0.002,1.322,-1.068,2.396,-2.39,2.397c-1.322,0.002,-2.396,-1.067,-2.397,-2.39c0,-0.003,0,-0.005,0,-0.008"/>
   <circle  fill="#383838" cx="126.12" cy="93.6" r="1.197"/>
  </g>
  <g  id="F18pin">
   <path  fill="#BFBFBF" d="M130.926,64.8c0.002,-1.321,1.075,-2.392,2.397,-2.39c1.318,0.002,2.388,1.07,2.39,2.39"/>
   <path  fill="#E6E6E6" d="M135.713,64.8c0.002,1.322,-1.067,2.396,-2.39,2.397s-2.396,-1.068,-2.397,-2.391c0,-0.002,0,-0.004,0,-0.007"/>
   <circle  fill="#383838" cx="133.32" cy="64.8" r="1.196"/>
  </g>
  <g  id="G18pin">
   <path  fill="#BFBFBF" d="M130.926,72c0.002,-1.322,1.075,-2.393,2.397,-2.391c1.318,0.002,2.388,1.071,2.39,2.391"/>
   <path  fill="#E6E6E6" d="M135.713,72c0.002,1.322,-1.067,2.395,-2.39,2.396s-2.396,-1.067,-2.397,-2.39c0,-0.002,0,-0.005,0,-0.007"/>
   <circle  fill="#383838" cx="133.32" cy="72" r="1.197"/>
  </g>
  <g  id="H18pin">
   <path  fill="#BFBFBF" d="M130.926,79.2c0.002,-1.322,1.075,-2.392,2.397,-2.39c1.318,0.002,2.388,1.07,2.39,2.39"/>
   <path  fill="#E6E6E6" d="M135.713,79.2c0.002,1.321,-1.067,2.396,-2.39,2.397s-2.396,-1.068,-2.397,-2.391c0,-0.002,0,-0.005,0,-0.007"/>
   <circle  fill="#383838" cx="133.32" cy="79.2" r="1.197"/>
  </g>
  <g  id="I18pin">
   <path  fill="#BFBFBF" d="M130.926,86.4c0.002,-1.322,1.075,-2.393,2.397,-2.391c1.318,0.002,2.388,1.07,2.39,2.391"/>
   <path  fill="#E6E6E6" d="M135.713,86.4c0.002,1.321,-1.067,2.395,-2.39,2.396s-2.396,-1.068,-2.397,-2.39c0,-0.003,0,-0.005,0,-0.007"/>
   <circle  fill="#383838" cx="133.32" cy="86.4" r="1.197"/>
  </g>
  <g  id="J18pin">
   <path  fill="#BFBFBF" d="M130.926,93.6c0.002,-1.322,1.075,-2.392,2.397,-2.39c1.318,0.002,2.388,1.071,2.39,2.39"/>
   <path  fill="#E6E6E6" d="M135.713,93.6c0.002,1.322,-1.067,2.396,-2.39,2.397s-2.396,-1.067,-2.397,-2.39c0,-0.003,0,-0.005,0,-0.008"/>
   <circle  fill="#383838" cx="133.32" cy="93.6" r="1.197"/>
  </g>
  <g  id="F19pin">
   <path  fill="#BFBFBF" d="M138.126,64.8c0.002,-1.321,1.075,-2.392,2.396,-2.39c1.319,0.002,2.389,1.07,2.391,2.39"/>
   <path  fill="#E6E6E6" d="M142.914,64.8c0.002,1.322,-1.068,2.396,-2.391,2.397c-1.321,0.002,-2.395,-1.068,-2.396,-2.391c0,-0.002,0,-0.004,0,-0.007"/>
   <circle  fill="#383838" cx="140.52" cy="64.8" r="1.196"/>
  </g>
  <g  id="G19pin">
   <path  fill="#BFBFBF" d="M138.126,72c0.002,-1.322,1.075,-2.393,2.396,-2.391c1.319,0.002,2.389,1.071,2.391,2.391"/>
   <path  fill="#E6E6E6" d="M142.914,72c0.002,1.322,-1.068,2.395,-2.391,2.396c-1.321,0.002,-2.395,-1.067,-2.396,-2.39c0,-0.002,0,-0.005,0,-0.007"/>
   <circle  fill="#383838" cx="140.52" cy="72" r="1.197"/>
  </g>
  <g  id="H19pin">
   <path  fill="#BFBFBF" d="M138.126,79.2c0.002,-1.322,1.075,-2.392,2.396,-2.39c1.319,0.002,2.389,1.07,2.391,2.39"/>
   <path  fill="#E6E6E6" d="M142.914,79.2c0.002,1.321,-1.068,2.396,-2.391,2.397c-1.321,0.002,-2.395,-1.068,-2.396,-2.391c0,-0.002,0,-0.005,0,-0.007"/>
   <circle  fill="#383838" cx="140.52" cy="79.2" r="1.197"/>
  </g>
  <g  id="I19pin">
   <path  fill="#BFBFBF" d="M138.126,86.4c0.002,-1.322,1.075,-2.393,2.396,-2.391c1.319,0.002,2.389,1.07,2.391,2.391"/>
   <path  fill="#E6E6E6" d="M142.914,86.4c0.002,1.321,-1.068,2.395,-2.391,2.396c-1.321,0.002,-2.395,-1.068,-2.396,-2.39c0,-0.003,0,-0.005,0,-0.007"/>
   <circle  fill="#383838" cx="140.52" cy="86.4" r="1.197"/>
  </g>
  <g  id="J19pin">
   <path  fill="#BFBFBF" d="M138.126,93.6c0.002,-1.322,1.075,-2.392,2.396,-2.39c1.319,0.002,2.389,1.071,2.391,2.39"/>
   <path  fill="#E6E6E6" d="M142.914,93.6c0.002,1.322,-1.068,2.396,-2.391,2.397c-1.321,0.002,-2.395,-1.067,-2.396,-2.39c0,-0.003,0,-0.005,0,-0.008"/>
   <circle  fill="#383838" cx="140.52" cy="93.6" r="1.197"/>
  </g>
  <g  id="F20pin">
   <path  fill="#BFBFBF" d="M145.326,64.8c0.002,-1.321,1.076,-2.392,2.397,-2.39c1.319,0.002,2.388,1.07,2.39,2.39"/>
   <path  fill="#E6E6E6" d="M150.113,64.8c0.002,1.322,-1.067,2.396,-2.39,2.397c-1.321,0.002,-2.396,-1.068,-2.397,-2.391c0,-0.002,0,-0.004,0,-0.007"/>
   <circle  fill="#383838" cx="147.72" cy="64.8" r="1.196"/>
  </g>
  <g  id="G20pin">
   <path  fill="#BFBFBF" d="M145.326,72c0.002,-1.322,1.076,-2.393,2.397,-2.391c1.319,0.002,2.388,1.071,2.39,2.391"/>
   <path  fill="#E6E6E6" d="M150.113,72c0.002,1.322,-1.067,2.395,-2.39,2.396c-1.321,0.002,-2.396,-1.067,-2.397,-2.39c0,-0.002,0,-0.005,0,-0.007"/>
   <circle  fill="#383838" cx="147.72" cy="72" r="1.197"/>
  </g>
  <g  id="H20pin">
   <path  fill="#BFBFBF" d="M145.326,79.2c0.002,-1.322,1.076,-2.392,2.397,-2.39c1.319,0.002,2.388,1.07,2.39,2.39"/>
   <path  fill="#E6E6E6" d="M150.113,79.2c0.002,1.321,-1.067,2.396,-2.39,2.397c-1.321,0.002,-2.396,-1.068,-2.397,-2.391c0,-0.002,0,-0.005,0,-0.007"/>
   <circle  fill="#383838" cx="147.72" cy="79.2" r="1.197"/>
  </g>
  <g  id="I20pin">
   <path  fill="#BFBFBF" d="M145.326,86.4c0.002,-1.322,1.076,-2.393,2.397,-2.391c1.319,0.002,2.388,1.07,2.39,2.391"/>
   <path  fill="#E6E6E6" d="M150.113,86.4c0.002,1.321,-1.067,2.395,-2.39,2.396c-1.321,0.002,-2.396,-1.068,-2.397,-2.39c0,-0.003,0,-0.005,0,-0.007"/>
   <circle  fill="#383838" cx="147.72" cy="86.4" r="1.197"/>
  </g>
  <g  id="J20pin">
   <path  fill="#BFBFBF" d="M145.326,93.6c0.002,-1.322,1.076,-2.392,2.397,-2.39c1.319,0.002,2.388,1.071,2.39,2.39"/>
   <path  fill="#E6E6E6" d="M150.113,93.6c0.002,1.322,-1.067,2.396,-2.39,2.397c-1.321,0.002,-2.396,-1.067,-2.397,-2.39c0,-0.003,0,-0.005,0,-0.008"/>
   <circle  fill="#383838" cx="147.72" cy="93.6" r="1.197"/>
  </g>
 </g>
</g>
</g></g><path stroke='#8c8c8c' stroke-width='2.0952' stroke-linecap='round' stroke-linejoin='round' fill='none' d='M86.4,77.0426L86.4,75.995' />
<path stroke='#8c8c8c' stroke-width='2.0952' stroke-linecap='round' stroke-linejoin='round' fill='none' d='M86.4,103.752L86.4,104.8' />
<g partID='854344200'><g transform='translate(82.7676,105.848)' ><g transform='matrix(0,-1,1,0,0,0)'  ><g xmlns="http://www.w3.org/2000/svg" id="breadboard">
 <rect xmlns="http://www.w3.org/2000/svg" x="0.36" id="connector0pin" y="2.5848" fill="none" width="0.72" height="0.72"/>
 <rect xmlns="http://www.w3.org/2000/svg" x="29.8202" id="connector1pin" y="2.5848" fill="none" width="0.72" height="0.72"/>
 <line xmlns="http://www.w3.org/2000/svg" id="connector0leg" fill="none" y1="3.6324" y2="3.6324" stroke-width="2.0952" x1="1.0476" x2="2.0952" stroke="#8C8C8C" stroke-linecap="round"/>
 <line xmlns="http://www.w3.org/2000/svg" id="connector1leg" fill="none" y1="3.6324" y2="3.6324" stroke-width="2.0952" x1="29.8526" x2="28.805" stroke="#8C8C8C" stroke-linecap="round"/>
 <path xmlns="http://www.w3.org/2000/svg" fill="none" stroke-width="2.0952" stroke="#8C8C8C" d="M1.0476,3.6324l28.3666,0"/>
 <path xmlns="http://www.w3.org/2000/svg" id="body" fill="#D9B477" d="M10.2478,0.49536c-0.36,-0.1656,-0.9792,-0.2952,-1.3752,-0.2952l-1.9872,0c-0.396,0,-0.72,0.324,-0.72,0.72l0,5.35608c0,0.39672,0.324,0.72,0.72,0.72l1.9872,0c0.396,0,1.0152,-0.13608,1.3752,-0.2952l0.072,-0.03528c0.36,-0.1656,0.9792,-0.2952,1.3752,-0.2952l7.1856,0c0.39672,0,1.01448,0.13608,1.37448,0.2952l0.07272,0.03528c0.36,0.1656,0.97776,0.2952,1.3752,0.2952l1.9872,0c0.39744,0,0.72,-0.32328,0.72,-0.72L24.4102,0.92016c0,-0.396,-0.32256,-0.72,-0.72,-0.72l-1.9872,0c-0.39744,0,-1.0152,0.1368,-1.3752,0.2952l-0.07272,0.036c-0.36,0.1656,-0.97776,0.2952,-1.37448,0.2952l-7.1856,0c-0.396,0,-1.0152,-0.1368,-1.3752,-0.2952L10.2478,0.49536z"/>
 <rect xmlns="http://www.w3.org/2000/svg" x="22.019" id="gold_band" y="0.19368" fill="#ad9f4e" width="0.70272" height="6.79536"/>
 <rect xmlns="http://www.w3.org/2000/svg" x="16.1726" id="band_rd_multiplier" fill="#8a3d06" y="0.82656" width="1.8504" height="5.5368"/>
 <rect xmlns="http://www.w3.org/2000/svg" x="12.4726" id="band_2_nd" fill="#c40808" y="0.82656" width="1.8504" height="5.5368"/>
 <path xmlns="http://www.w3.org/2000/svg" id="band_1_st" fill="#c40808" d="M10.6286,0.63936c-0.1152,-0.036,-0.2232,-0.072,-0.3096,-0.1152l-0.072,-0.036c-0.36,-0.16488,-0.9792,-0.2952,-1.3752,-0.2952l-0.0864,0l0,6.79608l0.0864,0c0.396,0,1.0152,-0.13608,1.3752,-0.2952l0.072,-0.03528c0.0864,-0.04464,0.1944,-0.07992,0.3096,-0.1152L10.6286,0.63936z"/>
 <path xmlns="http://www.w3.org/2000/svg" id="Shadow" opacity="0.3" d="M23.711,4.0896L23.711,4.0896c0,0.37944,-0.13032,0.69912,-0.2952,0.69912l-1.9224,0c-0.38016,0,-0.97776,-0.05616,-1.33272,-0.1224L20.088,4.65048c-0.34488,-0.0648,-0.94896,-0.1224,-1.33344,-0.1224L11.808,4.52808c-0.3816,0,-0.9792,0.0576,-1.332,0.1224l-0.072,0.01512c-0.3456,0.06552,-0.9432,0.1224,-1.332,0.1224l-0.3168,0l-1.0008,0l-0.3096,0c-0.3816,0,-0.6984,0.29376,-0.6984,0.64512l0,0.24696L6.7464,5.8392l0,0.1728c0,0.36,0.3168,0.64512,0.6984,0.64512l1.62,0c0.3816,0,0.9792,-0.1224,1.332,-0.26712l0.072,-0.02808c0.3456,-0.14112,0.9504,-0.26496,1.332,-0.26496l6.94656,0c0.37944,0,0.97704,0.12384,1.33416,0.26568l0.07416,0.02808c0.34488,0.14472,0.94464,0.26712,1.33344,0.26712l2.2248,0c0.38088,0,0.69912,-0.2952,0.69912,-0.64512L24.413,5.472L24.413,4.49928L24.413,2.65536C24.1358,2.76336,23.711,3.06576,23.711,4.0896z"/>
 <rect xmlns="http://www.w3.org/2000/svg" x="22.019" id="ShadowExtra" y="3.48336" opacity="0.4" width="0.70272" height="3.15288"/>
 <path xmlns="http://www.w3.org/2000/svg" id="ReflexRight" fill="#FFFFFF" opacity="0.25" d="M19.751,1.08576c0.22968,0,0.49104,-0.1008,0.6624,-0.1728c0.2016,-0.0792,0.57672,-0.144,0.96624,-0.144l1.46088,0c0.22464,0,0.22464,0.2448,0.22464,0.3744c0,0.1296,-0.01512,0.3816,-0.22464,0.3816l-3.06,0c-0.10728,0,-0.2304,-0.1152,-0.2304,-0.22392C19.5566,1.21536,19.6286,1.08576,19.751,1.08576z"/>
 <circle xmlns="http://www.w3.org/2000/svg" id="ReflexLeft" fill="#FFFFFF" cx="6.99984" opacity="0.35" cy="1.13616" r="0.432"/>
 <rect xmlns="http://www.w3.org/2000/svg" x="22.019" id="Reflex_gold" y="0.42336" fill="#FFFF33" opacity="0.5" width="0.70272" height="1.62"/>
 <rect xmlns="http://www.w3.org/2000/svg" x="22.019" id="Reflex_extra" y="0.78336" fill="#FFFFFF" opacity="0.5" width="0.70272" height="0.7488"/>
</g>
</g></g></g><path stroke='#8c8c8c' stroke-width='2.15136' stroke-linecap='round' stroke-linejoin='round' fill='none' d='M93.6022,29.7836L93.6022,54.3997' />
<path stroke='#8c8c8c' stroke-width='2.15136' stroke-linecap='round' stroke-linejoin='round' fill='none' d='M86.4,29.7836L86.4,54.3997' />
<g partID='854347440'><g transform='translate(81.8734,0.5768)' ><g xmlns="http://www.w3.org/2000/svg" id="breadboard">
 <rect xmlns="http://www.w3.org/2000/svg" x="3.45096" id="connector0pin" y="25.421" fill="none" width="2.15208" height="0.72"/>
 <rect xmlns="http://www.w3.org/2000/svg" x="10.651" id="connector1pin" y="25.421" fill="none" width="2.15424" height="0.72"/>
 <g xmlns="http://www.w3.org/2000/svg" id="connector0leg" fill="none" y1="40.565" y2="74.754" stroke-width="2.15136" x1="6.287" x2="6.287" stroke="#8C8C8C" stroke-linecap="round"/>
 <g xmlns="http://www.w3.org/2000/svg" id="connector1leg" fill="none" y1="40.565" y2="74.754" stroke-width="2.15136" x1="16.29" x2="16.29" stroke="#8C8C8C" stroke-linecap="round"/>
 <rect xmlns="http://www.w3.org/2000/svg" x="3.45096" y="19.3795" fill="#8C8C8C" width="2.15136" height="9.82728"/>
 <path xmlns="http://www.w3.org/2000/svg" fill="#8C8C8C" d="M12.8045,29.2068c0,-1.1736,-1.06488,-2.1024,-2.088,-2.9916c-0.41616,-0.3672,-1.19952,-1.00152,-1.19952,-1.42488l0,-5.47056l-2.16144,0l0,5.78016c0,1.0584,0.94752,1.87848,1.94616,2.74824c0.44424,0.37584,1.34856,1.24992,1.34856,1.76976"/>
 <g xmlns="http://www.w3.org/2000/svg" id="g12">
  <path xmlns="http://www.w3.org/2000/svg" id="color_path14" fill="#e60000" opacity="0.3" d="M14.1732,13.001L14.1732,7.0884C14.1732,3.1752,11.0052,0,7.08768,0C3.1752,0,0,3.16944,0,7.0884l0,13.649c1.47384,1.65096,4.0968,2.75256,7.08768,2.75256c4.61952,0,8.36856,-2.61792,8.36856,-5.85936l0,-1.52352C15.4555,14.9645,14.9818,13.9032,14.1732,13.001z"/>
  <path xmlns="http://www.w3.org/2000/svg" id="path16" fill="#E6E6E6" opacity="0.5" d="M14.1732,13.001L14.1732,7.0884C14.1732,3.1752,11.0052,0,7.08768,0C3.1752,0,0,3.16944,0,7.0884l0,13.649c1.47384,1.65096,4.0968,2.75256,7.08768,2.75256c4.61952,0,8.36856,-2.61792,8.36856,-5.85936l0,-1.52352C15.4555,14.9645,14.9818,13.9032,14.1732,13.001z"/>
  <path xmlns="http://www.w3.org/2000/svg" id="path18" fill="#D1D1D1" opacity="0.9" d="M14.1732,13.001l0,3.10536c0,2.73888,-3.16584,4.96512,-7.08552,4.96512C3.1752,21.0715,0,18.8525,0,16.1064l0,3.10536L0,20.736c1.47384,1.65168,4.0968,2.75256,7.08768,2.75256c4.61952,0,8.36856,-2.61792,8.36856,-5.85864L15.4562,16.1064C15.4555,14.9645,14.9818,13.9032,14.1732,13.001z"/>
  <path xmlns="http://www.w3.org/2000/svg" id="color_path20" fill="#e60000" opacity="0.7" d="M14.1732,13.001l0,3.10536c0,2.73888,-3.16584,4.96512,-7.08552,4.96512C3.1752,21.0715,0,18.8525,0,16.1064l0,3.10536L0,20.736c1.47384,1.65168,4.0968,2.75256,7.08768,2.75256c4.61952,0,8.36856,-2.61792,8.36856,-5.85864L15.4562,16.1064C15.4555,14.9645,14.9818,13.9032,14.1732,13.001z"/>
  <path xmlns="http://www.w3.org/2000/svg" id="color_path22" fill="#e60000" opacity="0.25" d="M14.1732,13.001l0,3.10536c0,2.73888,-3.16584,4.96512,-7.08552,4.96512C3.1752,21.0715,0,18.8525,0,16.1064l0,3.10536c1.47384,1.65024,4.0968,2.75256,7.08768,2.75256c4.61952,0,8.36856,-2.61792,8.36856,-5.85864C15.4555,14.9645,14.9818,13.9032,14.1732,13.001z"/>
  <ellipse xmlns="http://www.w3.org/2000/svg" id="ellipse24" fill="#E6E6E6" cx="7.08768" opacity="0.25" cy="16.1064" rx="7.08696" ry="4.9608"/>
  <ellipse xmlns="http://www.w3.org/2000/svg" id="color_ellipse26" fill="#e60000" cx="7.08768" opacity="0.25" cy="16.1064" rx="7.08696" ry="4.9608"/>
  <polygon xmlns="http://www.w3.org/2000/svg" id="polygon28" fill="#666666" points="2.2032,9.648,2.2032,16.1071,3.19608,16.1071,3.19608,13.0946,6.0156,13.0946,10.0123,8.80488,3.40704,8.80488"/>
  <polygon xmlns="http://www.w3.org/2000/svg" id="polygon30" fill="#666666" points="10.7784,8.52408,11.2147,9.03384,7.41168,13.0946,11.0599,13.0946,11.0599,16.1071,11.9736,16.1071,11.9736,8.52408"/>
  <path xmlns="http://www.w3.org/2000/svg" id="color_path32" fill="#e60000" opacity="0.65" d="M14.1732,13.001L14.1732,7.0884C14.1732,3.1752,11.0052,0,7.08768,0C3.1752,0,0,3.16944,0,7.0884l0,13.649c1.47384,1.65096,4.0968,2.75256,7.08768,2.75256c4.61952,0,8.36856,-2.61792,8.36856,-5.85936l0,-1.52352C15.4555,14.9645,14.9818,13.9032,14.1732,13.001z"/>
  <path xmlns="http://www.w3.org/2000/svg" id="path34" fill="#FFFFFF" opacity="0.5" d="M10.3882,3.75408l1.4364,-0.2736c-0.84168,-1.13184,-2.08224,-1.95768,-3.54168,-2.23848l0.25416,1.08072C9.30096,2.59344,9.94392,3.1032,10.3882,3.75408z"/>
  <path xmlns="http://www.w3.org/2000/svg" id="path36" fill="#FFFFFF" opacity="0.5" d="M0.76824,19.926l0,1.51992c0.64872,0.5292,1.43352,0.97632,2.3076,1.31688l0,-1.52496C2.19744,20.9016,1.41912,20.4559,0.76824,19.926z"/>
  <path xmlns="http://www.w3.org/2000/svg" id="path38" fill="#FFFFFF" opacity="0.5" d="M11.0729,20.2097c-0.2556,0.1224,-0.52992,0.22968,-0.80568,0.32976c-0.05832,0.01944,-0.11736,0.04032,-0.17784,0.05832c-0.56376,0.17928,-1.16136,0.31896,-1.79496,0.39456c-0.07488,0.00936,-0.1512,0.01872,-0.22464,0.01944c-0.3204,0.03024,-0.64368,0.05832,-0.97056,0.05832c-0.14832,0,-0.30744,-0.01512,-0.4716,-0.02376c-1.20024,-0.05688,-2.33064,-0.31464,-3.2976,-0.73944L3.33,11.9174L3.33,7.092c0,-1.47096,0.84816,-2.72952,2.0736,-3.34944L5.38128,3.68928l-1.24776,-1.512c-1.66968,1.00296,-2.79,2.8224,-2.79,4.91184l0,11.9052c-0.04968,-0.04968,-0.30816,-0.30888,-0.48024,-0.52992l-0.30744,0.6876c1.40112,1.48176,3.8088,2.46168,6.54264,2.46168c1.67976,0,3.23712,-0.37368,4.51152,-1.00224l-0.52704,-0.40896C11.0729,20.2097,11.0729,20.2097,11.0729,20.2097z"/>
 </g>
</g>
</g></g><g partID='854351900'><line stroke-linecap='round' stroke='#000000' x1='136.8' y1='133.6' x2='108.121' y2='140.725' stroke-width='3.2' /><line stroke-linecap='round' stroke='#404040' x1='136.8' y1='133.6' x2='108.121' y2='140.725' stroke-width='1.6' /></g><g partID='854351970'><line stroke-linecap='round' stroke='#000000' x1='108.121' y1='140.725' x2='86.4006' y2='133.6' stroke-width='3.2' /><line stroke-linecap='round' stroke='#404040' x1='108.121' y1='140.725' x2='86.4006' y2='133.6' stroke-width='1.6' /></g><g partID='854352280'><line stroke-linecap='round' stroke='#d6d63a' x1='115.251' y1='39.8736' x2='93.6011' y2='61.6005' stroke-width='3.2' /><line stroke-linecap='round' stroke='#fff800' x1='115.251' y1='39.8736' x2='93.6011' y2='61.6005' stroke-width='1.6' /></g><g partID='854352170'><line stroke-linecap='round' stroke='#d6d63a' x1='144.001' y1='54.4' x2='115.251' y2='39.8736' stroke-width='3.2' /><line stroke-linecap='round' stroke='#fff800' x1='144.001' y1='54.4' x2='115.251' y2='39.8736' stroke-width='1.6' /></g><g partID='854349190'><g transform='translate(112,0)' ><g>
 <rect x="2.8" y="2.8" fill="#ffe9c8" stroke-width="5.6" stroke="#fabc4f" width="118.722" height="24.5065"/>
 <g font-size="6.675" fill="#000000" font-family="Droid Sans" stroke="none" text-anchor="left">
  <text x="8.8" y="15.475" fill="#000000">Long leg (anode) into GPIO4 (D2)</text>
 </g>
</g>
</g></g><g partID='854349210'><g transform='translate(0,78)' ><g>
 <rect x="2.8" y="2.8" fill="#ffe9c8" stroke-width="5.6" stroke="#fabc4f" width="65.2" height="29.6"/>
 <g font-size="6.675" fill="#000000" font-family="Droid Sans" stroke="none" text-anchor="left">
  <text x="8.8" y="15.475" fill="#000000">200&#x3a9; &lt; R &lt; 300&#x3a9;</text>
 </g>
 <g font-size="6.675" fill="#000000" font-family="Droid Sans" stroke="none" text-anchor="left">
  <text x="8.8" y="24.275" fill="#000000">recommended</text>
 </g>
</g>
</g></g></svg>