<?xml version="1.0" encoding="UTF-8"?>
<!-- Generator: Adobe Illustrator 16.0.0, SVG Export Plug-In . SVG Version: 6.00 Build 0)  -->
<!DOCTYPE svg PUBLIC "-//W3C//DTD SVG 1.0//EN" "http://www.w3.org/TR/2001/REC-SVG-20010904/DTD/svg10.dtd">
<svg version="1.0" id="Layer_1" xmlns="http://www.w3.org/2000/svg" xmlns:xlink="http://www.w3.org/1999/xlink" x="0px" y="0px" width="135px" height="27px" viewBox="0 0 135 27" enable-background="new 0 0 135 27" xml:space="preserve">
<g>
	<title>Layer 1</title>
	<path id="svg_1" fill="#FFFFFF" d="M11.234,8.458c2.862,0,3.881,2.723,3.881,5.272c0,1.933-0.5,5.177-3.849,5.177   c-3.502,0-3.88-3.621-3.88-5.177C7.386,12.145,7.759,8.458,11.234,8.458 M12.234,4.76c-2.143,0-3.835,0.828-4.914,2.398V5.21H2.724   v20.634h4.824v-5.591c1.094,1.478,2.922,2.349,4.945,2.349c5.114,0,7.443-4.533,7.443-8.742C19.937,9.662,17.92,4.76,12.234,4.76"/>
	<path id="svg_2" fill="#FFFFFF" d="M28.73,19.293c-1.833,0-2.688-0.641-2.688-2.009c0-1.495,1.045-2.017,2.612-2.339   c0.35-0.063,0.719-0.113,1.076-0.163c1.007-0.14,1.965-0.269,2.59-0.683v1.471C32.32,18.041,31.111,19.293,28.73,19.293    M37.143,18.316V9.628c0-3.23-2.505-4.868-7.444-4.868c-4.842,0-7.744,2.078-7.961,5.7l-0.007,0.129h4.82l0.009-0.11   c0.145-1.622,1.099-2.411,2.913-2.411c1.71,0,2.849,0.366,2.849,2.142c0,1.433-1.698,1.632-3.846,1.887   c-0.478,0.058-0.971,0.114-1.471,0.188c-2.858,0.391-5.783,1.313-5.783,5.191c0,3.159,2.222,5.125,5.799,5.125   c1.621,0,3.867-0.34,5.516-1.918c0.047,0.42,0.148,0.875,0.307,1.381l0.026,0.086h4.951l-0.114-0.184   C37.348,21.387,37.143,20.057,37.143,18.316"/>
	<path id="svg_3" fill="#FFFFFF" d="M50.366,4.76c-2.17,0-4.319,1.347-5.268,3.254V5.21h-4.597v16.94h4.822v-7.646   c0-2.39,0.763-5.241,4.398-5.241c0.548,0,1.214,0.065,1.618,0.161l0.148,0.034V4.954l-0.083-0.026   C51.096,4.825,50.698,4.76,50.366,4.76"/>
	<polygon id="svg_4" fill="#FFFFFF" points="69.575,5.21 63.807,5.21 58.202,11.039 58.202,1.311 53.38,1.311 53.38,22.15    58.202,22.15 58.202,16.333 59.833,14.762 64.371,22.15 70.213,22.15 63.142,11.486  "/>
	<path id="svg_5" fill="#FFFFFF" d="M80.626,11.867c-0.424-0.097-0.849-0.188-1.26-0.276c-2.062-0.433-3.841-0.809-3.841-2.091   c0-0.951,0.816-1.432,2.428-1.432c1.947,0,2.904,0.683,3.01,2.151l0.008,0.111h4.602l-0.012-0.132   c-0.389-4.494-4.281-5.438-7.478-5.438c-3.371,0-7.388,0.951-7.388,5.481c0,2.982,2.593,3.961,5.393,4.575   c3.163,0.684,5.102,1.168,5.102,2.468c0,1.483-1.551,2.01-2.881,2.01c-0.787,0-3.356-0.192-3.396-2.69v-0.117h-4.61l0.007,0.125   c0.238,5.408,5.653,5.992,7.969,5.992c2.328,0,7.734-0.578,7.734-5.934C86.012,13.536,83.423,12.509,80.626,11.867"/>
	<rect id="svg_6" x="88.095" y="5.21" fill="#FFFFFF" width="4.821" height="16.94"/>
	<path id="svg_7" fill="#FFFFFF" d="M104.163,8.456c3.319,0,3.815,3.244,3.815,5.177c0,1.971-0.496,5.274-3.815,5.274   c-2.702,0-3.914-2.634-3.914-5.241C100.249,12.099,100.63,8.456,104.163,8.456 M107.816,7.066   c-1.031-1.448-2.832-2.308-4.879-2.308c-5.16,0-7.512,4.55-7.512,8.777c0,4.514,2.354,9.066,7.606,9.066   c2.245,0,3.972-0.824,5.012-2.388v1.937h4.597V1.312h-4.824V7.066L107.816,7.066z"/>
	<path id="svg_8" fill="#FFFFFF" d="M122.982,8.456c1.998,0,3.05,0.993,3.504,3.313h-7.18   C119.419,10.481,120.297,8.456,122.982,8.456 M128.921,7.132c-1.456-1.552-3.465-2.374-5.808-2.374   c-5.006,0-8.641,3.76-8.641,8.939c0,5.326,3.473,8.902,8.641,8.902c4.018,0,6.684-1.916,7.924-5.699l0.052-0.157h-4.292   l-0.023,0.088c-0.282,1.003-1.754,2.075-3.498,2.075c-2.516,0-3.813-1.307-3.971-3.991h12.021l0.006-0.113   C131.523,11.764,130.645,8.97,128.921,7.132"/>
	<g id="svg_9">
	</g>
	<g id="svg_10">
	</g>
	<g id="svg_11">
	</g>
	<g id="svg_12">
	</g>
	<g id="svg_13">
	</g>
	<g id="svg_14">
	</g>
</g>
</svg>