<?xml version="1.0" encoding="utf-8"?>
<!-- Generator: Adobe Illustrator 19.1.0, SVG Export Plug-In . SVG Version: 6.00 Build 0)  -->
<svg version="1.1" id="Layer_1" xmlns="http://www.w3.org/2000/svg" xmlns:xlink="http://www.w3.org/1999/xlink" x="0px" y="0px"
	 viewBox="0 0 293.4 216.1" style="enable-background:new 0 0 293.4 216.1;" xml:space="preserve">
<g>
	<path d="M109.3,55.9c-11.6,0-19.6,3.8-24,11.5c-4.3,7.7-6.5,19.9-6.5,36.8c0,16.8,2.1,28.9,6.3,36.1c4.2,7.2,12.3,10.9,24.2,10.9
		s19.9-3.6,24.1-10.7c4.1-7.1,6.2-19.2,6.2-36.1c0-17-2.1-29.3-6.4-37C128.9,59.7,120.9,55.9,109.3,55.9z"/>
	<path d="M265.2,0H255H40.7v0L0,40.7v136.1v11.1v28.2h28.2h10.2h214.3v0l40.7-40.7V39.3V28.2V0H265.2z M156.3,186.3l-19.1,8.9
		l-16.5-27.1c-2.4,0.7-6.1,1.1-11.3,1.1c-19.3,0-32.8-5.2-40.4-15.6c-7.6-10.4-11.4-26.9-11.4-49.3c0-22.5,3.9-39.2,11.6-50.1
		c7.7-10.9,21.1-16.4,40.2-16.4c19.1,0,32.5,5.4,40.1,16.3c7.7,10.8,11.5,27.5,11.5,50.1c0,14.9-1.6,26.9-4.7,36
		c-3.2,9.2-8.3,16.2-15.5,21L156.3,186.3z M214.2,166.9c-10.5,0-17.7-2.4-21.6-7.2c-3.9-4.8-5.9-13.9-5.9-27.3V89.2h-14.2V72h14.2
		V45h20.1V72h25.6v17.3h-25.6v40.9c0,7.6,0.6,12.6,1.7,15c1.1,2.5,4,3.7,8.5,3.7l15.2-0.6l0.9,16.2
		C224.9,166.1,218.6,166.9,214.2,166.9z"/>
</g>
</svg>
