<?xml version="1.0" encoding="utf-8"?>
<!-- Generator: Adobe Illustrator 20.0.0, SVG Export Plug-In . SVG Version: 6.00 Build 0)  -->
<svg version="1.1" id="Layer_1" xmlns="http://www.w3.org/2000/svg" xmlns:xlink="http://www.w3.org/1999/xlink" x="0px" y="0px"
	 viewBox="0 0 293.4 216.1" style="enable-background:new 0 0 293.4 216.1;" xml:space="preserve">
<style type="text/css">
	.st0{fill:#41CD52;}
	.st1{fill:#FFFFFF;}
</style>
<g>
	<polygon class="st0" points="265.2,0 255,0 40.7,0 40.7,0 0,40.7 0,176.8 0,187.9 0,216.1 28.2,216.1 38.4,216.1 252.7,216.1 
		252.7,216.1 293.4,175.4 293.4,39.3 293.4,28.2 293.4,0 	"/>
	<path class="st1" d="M109.2,169.2c-19.3,0-32.8-5.2-40.4-15.6c-7.6-10.4-11.4-26.9-11.4-49.3c0-22.5,3.9-39.2,11.6-50.1
		c7.7-10.9,21.2-16.4,40.2-16.4c19.1,0,32.5,5.4,40.1,16.3c7.7,10.8,11.5,27.5,11.5,50.1c0,14.9-1.6,26.9-4.7,36
		c-3.2,9.2-8.3,16.2-15.5,21l15.6,25.1l-19.1,8.9l-16.5-27.1C118.2,168.9,114.4,169.2,109.2,169.2z M85.1,140.3
		c4.2,7.2,12.3,10.9,24.2,10.9s19.9-3.6,24.1-10.7c4.1-7.1,6.2-19.2,6.2-36.1c0-17-2.1-29.3-6.4-37S121,55.9,109.3,55.9
		c-11.6,0-19.6,3.8-24,11.5c-4.3,7.7-6.5,19.9-6.5,36.8C78.8,121,80.9,133.1,85.1,140.3z"/>
	<path class="st1" d="M232.4,89.2h-25.6v40.9c0,7.6,0.6,12.6,1.7,15.1s4,3.7,8.5,3.7l15.2-0.6l0.9,16.2c-8.3,1.6-14.6,2.4-19,2.4
		c-10.5,0-17.7-2.4-21.6-7.2c-3.9-4.8-5.9-13.9-5.9-27.3V89.3h-14.1V72h14.2V45.1h20.1V72h25.6V89.2z"/>
</g>
</svg>
