<?xml version="1.0" encoding="utf-8"?>
<!-- Generator: Adobe Illustrator 19.1.0, SVG Export Plug-In . SVG Version: 6.00 Build 0)  -->
<svg version="1.1" id="Layer_1" xmlns="http://www.w3.org/2000/svg" xmlns:xlink="http://www.w3.org/1999/xlink" x="0px" y="0px"
	 viewBox="0 0 157.7 116.2" style="enable-background:new 0 0 157.7 116.2;" xml:space="preserve">
<style type="text/css">
	.st0{fill:#FFFFFF;}
</style>
<g>
	<path class="st0" d="M142.6,0h-5.5H21.9v0L0,21.9V95v6v15.2h15.2h5.5h115.2v0l21.9-21.9V21.1v-6V0H142.6z M84,100.2L73.7,105
		l-8.9-14.6c-1.3,0.4-3.3,0.6-6.1,0.6c-10.4,0-17.6-2.8-21.7-8.4c-4.1-5.6-6.1-14.4-6.1-26.5c0-12.1,2.1-21.1,6.2-26.9
		c4.2-5.9,11.4-8.8,21.6-8.8c10.3,0,17.4,2.9,21.6,8.7c4.1,5.8,6.2,14.8,6.2,26.9c0,8-0.8,14.5-2.5,19.4c-1.7,4.9-4.5,8.7-8.3,11.3
		L84,100.2z M115.2,89.7c-5.7,0-9.5-1.3-11.6-3.9c-2.1-2.6-3.1-7.5-3.1-14.7V48h-7.6v-9.3h7.6V24.2h10.8v14.5H125V48h-13.8v22
		c0,4.1,0.3,6.8,0.9,8.1c0.6,1.3,2.1,2,4.6,2l8.2-0.3l0.5,8.7C120.9,89.3,117.5,89.7,115.2,89.7z"/>
	<path class="st0" d="M58.7,30c-6.3,0-10.6,2.1-12.9,6.2C43.5,40.4,42.4,47,42.4,56c0,9.1,1.1,15.5,3.4,19.4c2.3,3.9,6.6,5.8,13,5.8
		s10.7-1.9,12.9-5.7c2.2-3.8,3.3-10.3,3.3-19.4c0-9.1-1.1-15.7-3.4-19.9C69.3,32.1,65,30,58.7,30z"/>
</g>
</svg>
