<?xml version="1.0" encoding="UTF-8"?>
<!DOCTYPE svg PUBLIC "-//W3C//DTD SVG 1.1//EN" "http://www.w3.org/Graphics/SVG/1.1/DTD/svg11.dtd">
<!-- Creator: CorelDRAW X7 -->
<svg xmlns="http://www.w3.org/2000/svg" xml:space="preserve" width="33.024mm" height="12.737mm" version="1.1" style="shape-rendering:geometricPrecision; text-rendering:geometricPrecision; image-rendering:optimizeQuality; fill-rule:evenodd; clip-rule:evenodd"
viewBox="0 0 3302 1274"
 xmlns:xlink="http://www.w3.org/1999/xlink">
 <defs>
  <style type="text/css">
   <![CDATA[
    .fil1 {fill:#0E253F}
    .fil0 {fill:#14365B}
    .fil4 {fill:#FFD43B}
    .fil7 {fill:white}
    .fil2 {fill:white;fill-rule:nonzero}
    .fil5 {fill:#1A0000;fill-opacity:0.200000}
    .fil3 {fill:black;fill-opacity:0.301961}
    .fil6 {fill:black;fill-opacity:0.349020}
   ]]>
  </style>
 </defs>
 <g id="Capa_x0020_1">
  <metadata id="CorelCorpID_0Corel-Layer"/>
  <g id="_495024499744">
   <g>
    <path class="fil0" d="M639 0c334,1 606,258 633,584l-508 677c-42,8 -85,13 -129,13 -338,-2 -613,-265 -634,-597l512 -665c41,-8 83,-12 126,-12z"/>
    <path class="fil1" d="M568 46c24,-17 48,-33 71,-46 -259,-1 -496,157 -594,401 -34,84 -49,176 -44,267 1,26 4,52 8,77 11,-23 23,-45 35,-65 12,-19 26,-52 44,-65 24,-16 47,-11 68,5 34,27 114,102 155,106 17,2 25,-11 22,-25 -4,-17 -23,-37 -48,-57 -39,-32 -85,-66 -99,-82 -17,-18 -21,-33 -16,-50 6,-29 34,-70 47,-92 10,-16 22,-33 34,-50l0 0c83,-118 213,-257 286,-300l0 0 31 -24z"/>
    <path class="fil1" d="M706 1227c-24,18 -48,33 -71,47 259,1 496,-157 594,-401 33,-82 49,-173 44,-268 -1,-26 -4,-51 -8,-77 -11,23 -23,45 -35,66l-18 27c-11,17 -32,58 -47,69 -24,16 -47,11 -69,-5 -34,-27 -113,-102 -155,-106 -16,-2 -24,11 -21,25 4,17 23,37 47,57 40,32 85,66 100,82 26,28 20,47 4,82 -57,121 -237,322 -334,379l0 0 -31 23z"/>
    <path class="fil2" d="M1095 288c-3,-4 -3,-10 1,-13 5,-3 10,-3 14,1 34,46 63,96 83,151 20,53 33,109 37,168 11,164 -45,317 -144,432 -100,115 -244,191 -408,203 -163,11 -316,-45 -431,-145 -115,-99 -191,-243 -203,-407 -11,-163 45,-316 144,-431 100,-115 243,-191 406,-203l5 0c68,-5 134,3 197,20 65,18 127,47 182,86 4,3 5,9 2,13 -3,4 -9,5 -13,2 -53,-37 -113,-65 -176,-83 -62,-17 -127,-24 -194,-19 -159,11 -298,85 -394,196 -97,111 -151,259 -140,418 11,159 85,298 196,394 112,97 260,151 418,140 159,-11 298,-85 394,-197 97,-111 151,-259 140,-417 -4,-58 -16,-112 -35,-163 -20,-53 -48,-102 -81,-146z"/>
    <path class="fil3" d="M324 512l0 0c2,118 35,198 148,233 22,7 43,10 66,12 43,3 67,2 107,2 64,1 147,23 143,95 1,-4 2,-9 2,-13l0 -1 0 0c0,-1 0,-1 0,-2l0 -1 0 0 0 0 0 0c0,-1 0,-2 0,-3l0 0 0 -1 0 0 0 -1 0 0 0 0 0 -2 0 0 0 0 0 -1 0 0 0 0 0 0 0 -1 0 0 0 -1 0 0 0 0 0 -1 0 0 0 -1 0 0 0 0 0 -1 0 0 0 0 0 -1 0 0 0 -1 0 0 0 0 0 -1 0 0 0 0 0 -1 0 0 0 -1 0 0 0 0 0 -1 0 0 0 0 0 -1 0 0 0 0 0 -1 -1 0 0 -1 0 -1 0 0 0 -1 0 0 0 -1 0 0 0 0 0 0 0 -1 0 0 -1 -1 0 0 0 -1 0 0 0 0 0 -1 0 -1 0 0 0 0 0 -1 -1 -1 0 -1 0 0 0 0 0 -1 0 -1 0 0 -1 -1 0 0 0 -1 0 -1 0 0 -1 -1 0 -1 0 0 0 0 0 0 0 -1 0 0 -1 -1 0 0 0 -1 0 0 0 0 -1 -1 0 -1 0 0 0 0 0 -1 -1 -1 0 0 0 -1 -1 -1 0 0 0 0 0 -1 -1 -1 0 0 0 -1 0 0 0 0c0,-1 -1,-1 -1,-2l0 0 0 0 -1 -1 0 -1 0 0 -1 -1 0 0 0 -1 0 0 -1 -1 0 0 0 0 -1 -1 0 -1 0 0 0 0 -1 -1 0 0 0 -1 0 0 -1 0 0 -1 0 0 -1 -1 0 0 0 0 0 0 -1 -1 0 0 0 0 0 0 0 -1 0 0 -1 -1 0 0 0 0 0 0 -1 -1 0 0 0 0 0 0 -1 -1 0 0 0 -1 0 0 -1 0 0 0c0,-1 -1,-1 -1,-2l0 0c0,0 -1,0 -1,-1l0 0c0,0 -1,-1 -1,-1l0 0 -1 -1 0 0c-1,0 -1,-1 -1,-1l0 0c-1,-1 -1,-1 -2,-1l0 0c0,-1 0,-1 -1,-2l0 0c0,0 -1,0 -1,-1l0 0c0,0 -1,0 -1,-1l0 0c-1,0 -1,-1 -2,-1l0 0c0,0 0,-1 -1,-1l0 0c0,0 -1,-1 -1,-1l0 0c-1,0 -1,-1 -2,-1l0 0c0,-1 0,-1 -1,-1l0 0c0,-1 -1,-1 -1,-1l0 0c-1,-1 -1,-1 -2,-1l0 0c0,-1 -1,-1 -1,-1l0 0c-1,-1 -1,-1 -2,-1l0 0c0,-1 -1,-1 -1,-1l0 0c-1,-1 -1,-1 -2,-1l0 0c0,-1 -1,-1 -1,-1l0 0c-1,0 -1,-1 -2,-1l0 0c0,0 -1,-1 -2,-1l0 0c0,0 -1,-1 -1,-1l0 0c-1,0 -1,0 -2,-1l0 0c0,0 -1,0 -2,-1l0 0c0,0 -1,0 -1,0l0 0c-1,-1 -1,-1 -2,-1l0 0c-1,-1 -1,-1 -2,-1l0 0c0,0 -1,-1 -2,-1l0 0c0,0 -1,0 -1,-1l0 0c-1,0 -2,0 -2,0l0 0c-1,-1 -1,-1 -2,-1l0 0c-1,0 -1,-1 -2,-1l0 0c-1,0 -1,0 -2,-1l0 0c-1,0 -1,0 -2,0l0 0 -2 -1 0 0c-1,0 -1,0 -2,0l0 0c-1,-1 -1,-1 -2,-1l0 0c-1,0 -1,0 -2,-1l0 0c-1,0 -1,0 -2,0l0 0c-1,0 -1,-1 -2,-1l0 0c-1,0 -2,0 -2,0l0 0c-1,0 -2,-1 -2,-1l0 0c-1,0 -2,0 -3,0l0 0c0,0 -1,-1 -2,-1l0 0 -2 0 0 0c-1,0 -2,0 -2,-1l0 0c-1,0 -2,0 -3,0l0 0c-1,0 -1,0 -2,0l0 0c-1,0 -2,-1 -2,-1l0 0c-1,0 -2,0 -3,0l0 0c-1,0 -1,0 -2,0l0 0c-1,0 -2,-1 -3,-1l0 0 -2 0 0 0c-1,0 -2,0 -3,0l0 0c-1,0 -1,0 -2,0l0 0c-1,0 -2,0 -3,0l0 0c-1,-1 -1,-1 -2,-1l0 0c-1,0 -2,0 -3,0l0 0c-1,0 -2,0 -3,0l0 0c0,0 -1,0 -2,0l0 0c-1,0 -2,0 -3,0l0 0c-1,0 -2,0 -3,0l0 0 -2 0 0 0 -1 0 0 0 -2 0 0 0 -2 0 0 0 -2 0 -2 0 0 0 -1 0 -2 0 0 0 -2 0 -2 0 0 0 -1 0 -2 0 -2 0 -1 0 -2 0 0 0 -2 0 0 0 -1 0 -2 0 0 0 -1 0 0 0 -2 0 0 0 -2 0 -1 0 -2 0 0 0 -1 0 0 0 -2 0 0 0 -1 0 0 0 -2 0 -1 0 -2 0 -1 0 0 0 -2 0 0 0 -1 0 -2 0 0 0 -2 0 0 0 -1 0 0 0 -2 0 -1 0 0 0 -2 0 -1 0 0 0 -2 0 0 0 -1 0 0 0 -2 0 0 0 -2 0 0 0 -1 0 0 0 -2 0 0 0 -2 0 0 0 -1 0 -2 0 0 0 -2 -1 0 0 -1 0 0 0 -2 0 0 0 -2 0 -1 0 0 0 -2 0 0 0 -2 0 0 0 -2 0 0 0 -2 0 0 0 -2 0 -1 0 0 0 -2 -1 0 0 -2 0 0 0 -2 0 0 0 -2 0 0 0 -2 0 0 0 -1 0 0 0 -1 0 0 0 -1 0 0 0 -1 0 0 0 -1 -1 0 0 -2 0 -1 0 0 0 -1 0 0 0 -1 0 0 0 -1 0 -1 0 0 0 -1 0 0 0 -1 0 -1 -1 -1 0 -2 0 0 0 -1 0 0 0 -1 0 -1 0 0 0 -1 -1c-1,0 -2,0 -3,0l-1 0 0 0 -1 0 -1 -1 0 0 -1 0 -1 0 -1 0 0 0 -1 0 -2 -1 0 0 -1 0 0 0 -1 0 0 0 -1 0 -1 0 0 0 -2 -1 0 0 -1 0 -1 0 -1 0 0 0 -1 0 0 0 -1 -1 -1 0 -1 0 0 0 -1 0 0 0 -1 -1 -1 0 -1 0 0 0 -1 0 0 0 -1 -1 -1 0 -1 0 -1 0 -1 -1 -1 0 0 0 -1 0 -1 -1 -1 0 -1 0 -1 0 0 0 -1 -1 -1 0 -1 0c-2,-1 -4,-2 -5,-2l-2 -1c-1,0 -3,-1 -4,-1l-1 -1c-2,0 -4,-1 -5,-2l-2 0c-1,-1 -2,-1 -4,-2l-1 0c-2,-1 -3,-2 -5,-3l-1 0c-1,-1 -3,-1 -4,-2l-1 -1c-2,-1 -3,-1 -5,-2l-1 -1c-1,0 -2,-1 -4,-2l-1 -1c-1,-1 -3,-2 -4,-3l-1 0c-1,-1 -3,-2 -4,-2l-1 -1c-2,-1 -3,-2 -4,-3l-1 0c-1,-1 -2,-2 -4,-3l-1 -1c-1,-1 -2,-2 -3,-3l-1 -1c-2,-1 -3,-2 -4,-3l-1 -1c-1,-1 -2,-2 -3,-3l-1 -1c-2,-1 -3,-2 -4,-3l-1 -1c-1,-1 -2,-2 -3,-3l-1 -1c-1,-1 -2,-2 -4,-3l0 -1c-1,-1 -2,-2 -3,-3l-1 -2c-1,-1 -2,-2 -3,-3l-1 -1c-1,-1 -2,-2 -3,-3l-1 -2c-1,-1 -1,-2 -2,-3 0,0 -1,-1 -1,-1 -1,-1 -2,-2 -3,-4l-1 -1c-1,-1 -1,-2 -2,-3l-1 -2c-1,-1 -2,-2 -2,-4l-1 -1c-1,-1 -2,-2 -2,-3l-1 -2c-1,-1 -2,-2 -2,-4 -1,0 -1,-1 -1,-1 -1,-1 -1,-2 -2,-3l-1 -2c0,-1 -1,-2 -2,-4 0,0 0,-1 -1,-2 0,-1 -1,-2 -1,-3l-1 -2c0,-1 -1,-2 -1,-3 -1,-1 -1,-2 -1,-2 -1,-2 -1,-3 -2,-4 0,0 0,-1 0,-2 -1,-1 -1,-2 -2,-3 0,0 0,-1 0,-1 -1,-2 -1,-3 -2,-5 0,0 0,-1 0,-2 -1,-1 -1,-2 -1,-3 0,0 -1,-1 -1,-2 0,-1 -1,-3 -1,-4 0,-1 -1,-1 -1,-2 0,-1 0,-2 0,-3 -1,-1 -1,-1 -1,-2 0,-2 -1,-3 -1,-4 0,-1 0,-2 0,-3 -1,-1 -1,-2 -1,-2 0,-1 0,-2 0,-3 -1,-1 -1,-2 -1,-3 0,-1 0,-2 0,-3 -1,-1 -1,-2 -1,-3 0,-1 0,-2 0,-3 0,-1 0,-1 -1,-2 0,-1 0,-2 0,-4 0,-1 0,-2 0,-3 0,-1 0,-2 0,-2 0,-1 0,-2 -1,-3 0,-1 0,-2 0,-2l0 0zm-29 662c-12,-16 -9,-34 0,-51 3,-5 7,-10 11,-16 4,-5 8,-11 13,-16 29,-32 72,-94 100,-115l1 -1 0 0 0 -1 0 0 1 0 0 0 1 -1 0 0 1 0 0 0 0 -1 1 0 0 0 0 0 1 -1 0 0 1 0 0 0 1 -1 0 0 0 0 0 0 1 0c0,-1 0,-1 1,-1l0 0 1 0 0 0 0 -1 1 0 0 0 0 0 1 0 0 0 1 -1 0 0c0,0 1,0 1,0l0 0 1 0 0 0 1 -1 0 0c0,0 1,0 2,0l0 0c1,0 1,0 2,-1l0 0 1 0 0 0c8,-1 16,2 24,7l0 0c13,7 26,19 43,32 49,39 121,89 212,78 154,-19 291,-194 143,-367l0 0 0 1 0 0 0 0 1 0 0 0 0 0 0 0 0 0 0 0 0 0 0 0 0 1 0 0 0 0c1,1 1,1 2,2l0 0c6,10 11,20 16,31l0 1c5,11 8,22 11,33l0 0c0,1 0,2 0,3 0,1 1,2 1,3l0 0c0,1 0,2 0,3l0 0c1,1 1,2 1,3l0 0 0 1 0 0c0,1 1,2 1,3l0 0c0,2 0,3 0,5l0 0c0,1 1,3 1,4l0 0c0,1 0,2 0,3l0 0 0 2 0 1 0 0 0 2 0 0c0,1 0,2 1,3l0 0 0 1c0,1 0,2 0,3l0 0c0,1 0,2 0,3l0 0c0,2 0,4 0,5l0 2 0 0 0 1 0 0 0 2 0 1 0 2 0 0 -1 1 0 0 0 2 0 1 0 2 0 1 0 2 0 1 0 2 -1 1 0 2 0 1 0 2 0 1 -1 2 0 1 0 2 0 1 0 0 0 2 0 0 -1 1 0 2 0 1 0 0 -1 2 0 0 0 1 0 0 0 2 0 0 -1 1 0 0 0 2 0 0 0 1 0 0 -1 2 0 0 0 1 0 0c0,1 -1,3 -1,4l0 0c0,1 0,2 -1,3l0 0c0,1 0,2 -1,3l0 0c0,2 -1,4 -2,6 0,1 -1,3 -1,4 0,1 -1,2 -1,3 0,1 -1,2 -1,3 -1,1 -1,2 -2,3 0,2 -1,4 -2,6 -1,1 -1,2 -2,3l0 0c0,1 -1,2 -1,3 -1,1 -1,2 -2,3l0 0c-1,2 -2,4 -3,6 -1,2 -2,4 -3,6l0 0c-1,1 -1,2 -2,3l0 0c0,1 -1,2 -2,3 0,1 -1,2 -1,3 -2,1 -3,3 -4,5 -1,1 -2,2 -2,3l0 0c-1,1 -2,2 -2,3 -1,1 -2,1 -2,2 -1,1 -2,2 -2,3l0 0c-1,1 -2,2 -3,3 0,1 -1,1 -2,2l0 0c-1,1 -1,2 -2,3l0 0c-1,1 -2,2 -2,2 -1,1 -2,2 -3,3l0 0c-1,1 -1,2 -2,2l0 0c-1,1 -2,2 -3,3 -1,1 -1,1 -2,2 -1,1 -2,2 -3,3 -1,0 -2,1 -2,2 -1,1 -2,1 -3,2 -1,1 -2,2 -3,2l0 0c-1,1 -2,2 -2,3 -1,0 -2,1 -3,2l0 0c-1,0 -2,1 -3,2 -1,1 -2,1 -3,2 -1,1 -2,1 -3,2 -1,1 -2,1 -3,2l0 0c-1,1 -2,1 -3,2 -1,1 -2,1 -3,2l0 0c-1,1 -2,1 -3,2l0 0c-1,0 -2,1 -3,2 -1,0 -2,1 -3,1 -1,1 -3,2 -4,2l0 0c-1,1 -2,1 -3,2l0 0c-1,0 -2,1 -3,1l0 0c-1,1 -2,1 -4,2 -1,0 -2,1 -3,2l0 0c-1,0 -2,1 -4,1l0 0c-1,0 -2,1 -3,1l0 0c-1,1 -2,1 -4,2l0 0c-1,0 -2,1 -3,1l0 0c-1,1 -3,1 -4,1 -1,1 -2,1 -4,2l0 0c-1,0 -2,0 -3,1l0 0c-2,0 -3,1 -4,1l0 0c-1,0 -3,1 -4,1l0 0c-1,0 -3,1 -5,1l0 0c-1,1 -3,1 -4,1l0 0c-2,1 -3,1 -5,1l0 0c-1,0 -3,1 -4,1l0 0c-2,0 -3,1 -5,1l0 0c-1,0 -3,0 -4,0l0 0c-2,1 -3,1 -5,1l0 0c-1,0 -2,0 -4,0l0 0c-1,1 -3,1 -4,1 -2,0 -3,0 -4,0 -2,0 -3,0 -5,0 -1,0 -2,0 -4,0 -1,0 -3,0 -4,0 -1,0 -3,0 -4,0 -1,0 -3,0 -4,0 -1,0 -3,-1 -4,-1 -1,0 -3,0 -4,0 -1,0 -3,0 -4,-1l0 0c-1,0 -3,0 -4,0l0 0c-1,0 -2,-1 -4,-1 -1,0 -2,0 -4,-1 -1,0 -2,0 -3,0 -2,-1 -3,-1 -4,-1 -1,-1 -3,-1 -4,-1l0 0c-1,-1 -2,-1 -3,-1 -2,-1 -3,-1 -4,-1 -1,-1 -2,-1 -4,-2 -1,0 -2,0 -3,-1 -1,0 -3,-1 -4,-1 -1,-1 -2,-1 -3,-2 -1,0 -3,-1 -4,-1 -1,-1 -2,-1 -3,-2 -1,0 -3,-1 -4,-1l0 0c-1,-1 -2,-1 -3,-2 -1,0 -2,-1 -4,-1 -1,-1 -2,-2 -3,-2l0 0c-1,-1 -2,-1 -3,-2l0 0c-1,-1 -2,-1 -4,-2l0 0c-1,0 -2,-1 -3,-2 -1,0 -2,-1 -3,-2 -1,0 -2,-1 -3,-1 -2,-1 -3,-2 -4,-2 -2,-2 -4,-3 -6,-5 -1,0 -2,-1 -3,-2 -1,0 -2,-1 -3,-2l0 0c-2,-1 -3,-1 -4,-2 -1,-1 -2,-2 -3,-2l0 0c-1,-1 -2,-2 -3,-2l0 0c-1,-1 -2,-2 -3,-3l0 0c-1,-1 -2,-1 -3,-2l0 0c-2,-2 -4,-3 -6,-5l-3 -2 0 0c-3,-2 -6,-5 -10,-7l0 0c-2,-2 -4,-3 -6,-5l0 0c-2,-2 -4,-3 -6,-5l0 0c-3,-2 -6,-5 -9,-7l-2 -2 0 0 -3 -3 0 0c-31,-27 -61,-60 -100,-21l-1 1 0 0c0,0 0,1 -1,1l0 0 -1 1 0 0 -1 1 0 0 -1 1 0 0 -1 1 0 0 -1 1 0 0 -1 2 0 0 -1 1 0 0 -1 1 0 0 -1 1 0 0 -13 17 0 0 -102 127 -1 1 -6 7c-2,2 -3,4 -5,6 -1,2 -1,3 -2,4 0,1 0,1 0,1 0,0 0,0 0,0 -9,16 -6,34 5,48l13 12 13 8zm171 -593c-49,-85 31,-170 110,-125 45,26 79,69 121,92 63,34 149,42 215,-84l0 0 0 0 -1 1 0 0 0 0 -1 1 0 0 0 0 -1 1 0 0 0 1 0 0 -1 0 0 1 0 0 -1 1 0 0 0 1 -1 0 0 0 0 1 -2 2 -1 1 0 0 0 0 -1 1 0 1 0 0 -1 0 0 1 0 0 0 0 -1 1 0 0 0 0 0 1 -1 0 0 0 0 0 0 1 0 0 -1 0 0 1 0 0 0 0 -1 0 0 1 0 0 0 0 0 0 -1 1 0 0 0 0 0 0 -1 1 0 0 0 0 0 0 0 1 0 0 -1 0 0 0 0 0 0 1 0 0 0 0 -1 0 0 1 0 0 0 0 0 0 0 0 -1 0 0 0 0 1 0 0 0 0 0 0 0 0 -1 0 0 0 0 1c-68,61 -136,50 -202,6 -1,-1 -2,-2 -3,-2 -7,-5 -12,-10 -17,-14 -8,-7 -16,-12 -26,-20 -3,-3 -6,-5 -8,-7l0 0c-39,-31 -68,-62 -116,-54l0 0c-1,0 -1,1 -2,1l-1 0c0,0 -1,0 -2,0l-1 0 -1 1c-1,0 -2,0 -3,0l-1 1 -1 0 -2 1 -1 0 -1 0 -1 1 -2 0 -1 1 -1 0 -1 1 -2 0 -1 1 -1 0 -1 1 -1 0 -2 1 -1 1 -1 0 -1 1 -1 0 -1 1 -2 1 -1 0 -1 1 -1 1 -1 0 -1 1 0 0 -1 1 -1 1 -1 0 0 0 -1 1 0 0 -1 1 -1 1 -1 0 0 0 -1 1 0 0 -1 1 -1 1 -1 1 -1 1 0 0 -1 0 0 0 -1 1 -1 1 -1 1 0 0 0 1 -1 1 0 0c-2,1 -3,3 -5,5l0 1 -1 1 0 0 -1 1 -1 1c0,0 -1,1 -1,2 -1,1 -2,2 -2,3l0 0c-1,0 -1,1 -2,2l0 0c0,1 -1,2 -2,3 0,1 -1,2 -1,3l0 0c-3,4 -4,9 -6,13 0,1 -1,1 -1,2l0 0 0 1 0 0 -1 2c0,0 0,1 0,2l-1 1 0 1 0 0 0 2 -1 1 0 0 0 1 0 1 -1 2 0 0 0 1 0 0 0 1 0 0 0 1 0 0 0 2 -1 1 0 0 0 1 0 0 0 1 0 2 0 1 0 1 0 2 -1 1 0 1 0 0 0 1 0 2 0 1 0 0 0 1 0 0 0 2 0 1 0 0 0 1 1 2 0 0 0 1 0 1 0 2 0 1 0 1 0 2 0 1 0 0 1 1 0 2 0 1 0 1 1 2 0 1 0 1 1 1 0 2 0 1 0 1 1 0 0 1 0 1 0 1 1 1 0 0 0 0 0 1 0 0 1 1 0 1 0 0 0 1 0 0 0 1 0 0 1 0 0 0 0 1 0 0 0 1 1 1 0 0 0 1 0 0 0 0 0 0 1 1 0 0 0 1 0 0 0 1 1 0 0 1 0 1 1 1 0 0 0 0 1 1 0 1 0 0 0 1 0 0 1 0 0 1 1 1 0 0 0 1 1 0 0 1 0 0 0 1 0 0 1 0 0 0 0 1 1 1 0 0 0 1 0 0 1 0 0 1 0 0 1 1 0 0 0 0 1 1 0 0 0 1 0 0 0 0 1 1 0 1 0 0 1 0 1 1 0 1 0 0 1 0 0 1 0 0 1 0 0 1 1 1 0 0 1 1 0 1 1 0 0 1 1 0 0 0 0 1 0 0 0 0 0 0 0 0 0 0 1 0 0 0 0 0 0 1 0 0 0 0 0 0 0 0 1 0 0 0 0 0 0 0 0 0 0 1 0 0 0 0 0 0 0 0 0 0 0 0 1 0 0 0 0 0 0 0 0 0 0 0 0 0 0 0 0 0 0 1 0 0 0 0 0 0 0 0 1 0 0 0 0 0 0 0 0 0 0 0 0 0 0 0 0 0 0 0 0 0 0 1 0 0 0 0 0 0 0 0 1 0 0 0z"/>
    <path class="fil4" d="M279 1164c-25,-17 -27,-48 -8,-69l122 -152c21,-26 47,-38 77,-17 13,9 26,20 39,31 65,52 130,105 230,78 82,-22 134,-83 152,-152 8,-31 9,-64 2,-96 -7,-33 -21,-64 -44,-91 -113,-119 -222,-56 -344,-92 -16,-5 -32,-15 -44,-28 -12,-12 -21,-28 -26,-46 -8,-29 -3,-57 10,-80 14,-23 36,-41 64,-49 54,-14 85,19 126,52 13,11 30,24 47,38 68,54 148,65 209,-1 6,-6 41,-54 45,-56 5,-3 13,4 17,8 16,14 37,9 45,-11l24 -102c5,-20 11,-39 -4,-51 -2,-3 -5,-5 -7,-7l23 -29 41 2c6,0 11,-5 11,-11 1,-6 -4,-11 -10,-11l-39 -2 -10 -37c-1,-6 -7,-9 -13,-8 -6,2 -10,8 -8,14l11 39 -5 7 0 0 -18 23c-2,-2 -4,-3 -6,-5 -9,-8 -20,-9 -31,-6 -7,2 -13,6 -20,9l-94 47c-15,8 -22,29 -10,44 9,11 26,10 11,29l-21 27c-22,29 -44,24 -67,9 -16,-11 -31,-24 -46,-36 -68,-53 -127,-101 -236,-71 -57,15 -94,44 -121,91 -68,118 -9,271 121,311 22,6 43,10 66,12 43,3 67,2 107,2 59,0 98,19 120,45 11,12 18,27 21,43 4,16 3,32 -1,48 -9,34 -34,63 -75,74 -48,13 -92,-22 -135,-58 -24,-19 -49,-40 -77,-54 -30,-15 -60,-21 -91,-15 -18,3 -36,11 -53,23 -29,21 -51,54 -73,82 -25,31 -116,134 -125,162 -3,11 -5,22 -5,34 0,61 49,111 110,111 25,0 47,-8 65,-22l0 0 1 0 0 0c-13,-7 -19,-11 -31,-18 -7,-4 -13,-8 -19,-12zm650 -835c-9,1 -17,-7 -17,-16 0,-9 7,-17 16,-17 9,0 17,7 17,16 1,9 -7,17 -16,17z"/>
    <path class="fil5" d="M716 1018c-72,19 -126,-3 -175,-36 55,42 114,75 198,53 82,-22 134,-83 152,-152 8,-31 9,-65 2,-96 -5,-25 -15,-50 -30,-72 -4,-6 -9,-13 -14,-19 -14,-16 -30,-30 -49,-42 9,8 18,16 25,25 23,27 38,58 45,91 7,32 6,65 -2,96 -18,69 -70,130 -152,152zm197 -597c-48,66 -106,133 -198,92 24,13 50,21 74,22 36,1 71,-12 102,-45 0,0 0,0 0,0 0,0 0,0 0,0 0,0 0,0 0,-1 3,-3 11,-13 20,-24 11,-14 23,-30 25,-31 5,-3 13,4 17,8 16,14 37,9 45,-11l19 -80c0,-3 -31,89 -64,62 -13,-10 -28,-7 -40,8zm-478 109c-8,-29 -3,-57 10,-80 14,-23 36,-41 64,-49 39,-10 66,4 93,25 -59,-69 -143,-50 -178,4 -29,46 -21,116 48,157 -2,-2 -4,-4 -6,-6 -2,-2 -4,-3 -5,-5 -12,-12 -21,-28 -26,-46zm570 -287l-11 15 17 13 11 -14c-5,1 -15,-7 -17,-14zm-739 859c1,-2 3,-5 5,-7l6 -7 116 -145c20,-25 44,-37 71,-21 -6,-4 -11,-9 -17,-13 -30,-21 -56,-9 -77,17l-114 142 -8 10c-1,2 -2,3 -3,4 -14,18 -12,42 3,58 3,3 5,5 8,7 1,1 2,2 3,2 5,4 11,8 17,13 -19,-16 -23,-41 -10,-60z"/>
    <path class="fil6" d="M387 351c28,13 42,20 64,36 2,-24 -3,-47 -11,-71 -21,9 -38,21 -53,35zm311 104c27,-5 51,-18 71,-36 0,0 0,0 0,0 -4,-2 -9,-4 -13,-7 -13,-9 -25,-19 -38,-29 -2,30 -8,48 -20,72zm-51 266c23,0 42,3 59,8 -2,-4 -3,-7 -4,-11 -9,-22 -11,-39 -13,-61 -16,13 -29,30 -38,49 -2,5 -4,10 -6,15 1,0 2,0 2,0zm-96 -1c24,1 42,1 61,1 -13,-23 -17,-41 -21,-68 -19,19 -33,41 -40,67zm-77 -13c13,4 25,6 38,9 -1,-5 -2,-9 -3,-14 -4,-21 -4,-37 -2,-58 -20,12 -36,29 -48,48 -2,2 -3,5 -5,7 7,3 13,6 20,8zm-149 -192c26,-12 44,-16 69,-19 -17,-20 -40,-33 -65,-41 -4,19 -6,38 -5,57 0,1 0,2 1,3zm13 -88c28,1 43,0 69,6 -8,-24 -20,-42 -39,-60 -5,7 -11,15 -15,23 -6,10 -11,21 -15,31zm-49 586c-4,-26 -18,-51 -34,-70 -14,16 -28,32 -41,49 13,1 27,3 38,6 13,3 24,8 37,15zm-20 -87l14 -17c8,-10 17,-22 25,-33 16,20 32,46 36,71 -24,-12 -44,-18 -75,-21zm253 -94c-3,31 -9,50 -20,74 27,-5 51,-18 70,-36 -16,-13 -33,-27 -50,-38l0 0zm70 54c-1,31 -7,49 -17,73 27,-5 50,-20 69,-38 -18,-9 -35,-22 -52,-35zm194 -24c-6,19 -18,37 -36,51 31,1 54,3 78,14 -5,-26 -20,-49 -42,-65zm-159 -459c27,-4 53,-18 73,-35 -18,-13 -34,-26 -52,-37 -3,30 -9,48 -21,72z"/>
   </g>
   <path class="fil7" d="M1706 562c0,35 -13,63 -38,83 -26,20 -59,30 -99,30 -32,0 -63,-9 -92,-26 -15,-9 -27,-22 -36,-39 -10,-16 -14,-35 -14,-56l65 -3c0,18 8,33 25,43 16,11 33,16 53,16 43,0 65,-15 65,-46 0,-25 -15,-40 -44,-44l-61 -7c-30,-4 -54,-15 -72,-32 -18,-17 -27,-42 -27,-74 0,-32 13,-58 38,-79 26,-21 58,-32 97,-32 39,0 70,10 94,30 24,20 35,45 35,76l-64 3c-6,-30 -27,-45 -62,-45 -21,0 -38,4 -50,13 -12,9 -18,20 -18,32 0,13 5,23 13,30 9,7 20,11 33,13l59 6c67,9 100,45 100,108zm1238 110l-82 0c-73,0 -89,-21 -89,-91l0 -281 73 0 0 268c0,22 8,39 31,39l88 0 -21 65zm355 0l-76 0 -21 -64 -116 0 -21 64 -75 0 115 -341c4,-12 11,-20 17,-24 7,-5 15,-7 24,-7 9,0 17,2 23,6 5,4 11,13 15,25l115 341zm-113 -126l-40 -147 -42 147 82 0zm-1684 479c0,3 -2,5 -5,5l-66 0 0 -190c0,-2 0,-4 1,-5 1,0 2,-1 5,-1 3,0 8,0 16,0l0 175 49 0 0 16zm352 -89c0,41 0,70 -1,87 -11,6 -24,9 -41,9 -8,0 -14,-1 -20,-3 -5,-2 -10,-6 -13,-12 -4,-6 -5,-15 -5,-27 0,-18 3,-30 10,-37 7,-6 16,-9 27,-9 9,0 16,1 21,3l0 -22c0,-6 -2,-10 -5,-13 -2,-2 -7,-4 -13,-4 -14,0 -27,3 -37,7 -2,-4 -3,-8 -3,-13 0,-4 1,-6 3,-8 3,-2 8,-3 16,-5 8,-2 17,-2 27,-2 12,0 21,2 26,7 6,6 8,15 8,27l0 15zm-22 27c-4,-1 -8,-2 -14,-2 -6,0 -11,2 -15,5 -4,4 -6,12 -6,23 0,10 2,16 5,19 3,4 8,5 14,5 6,0 11,-1 15,-4 0,-7 1,-22 1,-46zm46 -129c0,-4 1,-6 2,-7 1,-2 3,-3 6,-3 3,0 7,0 15,0l0 72c8,-6 18,-9 30,-9 11,0 20,4 25,12 6,9 9,23 9,43 0,36 -5,60 -16,72 -10,12 -23,18 -38,18 -15,0 -26,-2 -33,-8l0 -190zm23 175c3,2 7,3 13,3 7,0 13,-4 18,-13 5,-10 8,-27 8,-52 0,-15 -2,-25 -5,-31 -3,-6 -8,-9 -15,-9 -8,0 -14,3 -19,8l0 94zm-306 -73c0,41 0,70 -1,87 -11,7 -24,10 -41,10 -8,0 -14,-1 -20,-3 -5,-2 -10,-7 -13,-13 -4,-6 -5,-15 -5,-27 0,-18 3,-30 10,-36 7,-7 16,-10 27,-10 9,0 16,1 21,4l0 -22c0,-7 -2,-11 -5,-14 -2,-2 -7,-3 -13,-3 -14,0 -27,2 -37,6 -2,-4 -3,-8 -3,-13 0,-4 1,-6 3,-8 3,-1 8,-3 16,-5 8,-1 17,-2 27,-2 12,0 21,3 26,8 6,5 8,14 8,26l0 15zm-22 28c-4,-2 -8,-3 -14,-3 -6,0 -12,2 -15,6 -4,4 -6,11 -6,23 0,9 2,15 5,19 3,3 8,5 14,5 6,0 11,-2 15,-5 0,-6 1,-21 1,-45zm179 61c0,2 0,3 -1,4 0,0 -2,1 -6,1 -4,0 -9,0 -15,0l0 -95 -45 0 0 90c0,2 0,3 -1,4 -1,0 -3,1 -7,1 -3,0 -8,0 -15,0l0 -192c0,-2 1,-3 1,-3 1,-1 3,-1 7,-1 4,0 9,0 15,0l0 80 45 0 0 -76c0,-2 0,-3 1,-3 1,-1 3,-1 6,-1 4,0 9,0 15,0l0 191zm310 -89c0,41 -1,70 -2,87 -11,7 -24,10 -41,10 -7,0 -14,-1 -20,-3 -5,-2 -10,-7 -13,-13 -3,-6 -5,-15 -5,-27 0,-18 3,-30 10,-36 7,-7 16,-10 27,-10 9,0 16,1 21,4l0 -22c0,-7 -2,-11 -4,-14 -3,-2 -8,-3 -14,-3 -14,0 -26,2 -37,6 -2,-4 -3,-8 -3,-13 0,-4 1,-6 3,-8 3,-1 8,-3 16,-5 8,-1 17,-2 27,-2 12,0 21,3 26,8 6,5 9,14 9,26l0 15zm-23 28c-4,-2 -8,-3 -13,-3 -7,0 -12,2 -16,6 -4,4 -6,11 -6,23 0,9 2,15 5,19 3,3 8,5 14,5 7,0 12,-2 15,-5 1,-6 1,-21 1,-45zm46 -68c5,-2 12,-4 21,-6 8,-2 16,-3 23,-3 15,0 25,3 31,8 5,6 8,16 8,29l0 101c0,2 0,3 -1,4 0,0 -3,1 -7,1 -3,0 -9,0 -15,0l0 -99c0,-9 -1,-16 -3,-19 -3,-4 -7,-5 -14,-5 -8,0 -15,1 -21,5l0 113c0,2 0,3 -1,4 -1,0 -3,1 -7,1 -3,0 -8,0 -14,0l0 -134zm183 40c0,41 0,70 -1,87 -11,7 -24,10 -41,10 -8,0 -14,-1 -20,-3 -5,-2 -10,-7 -13,-13 -4,-6 -6,-15 -6,-27 0,-18 4,-30 11,-36 7,-7 16,-10 27,-10 9,0 16,1 20,4l0 -22c0,-7 -1,-11 -4,-14 -3,-2 -7,-3 -13,-3 -14,0 -27,2 -37,6 -2,-4 -3,-8 -3,-13 0,-4 1,-6 3,-8 3,-1 8,-3 16,-5 8,-1 17,-2 27,-2 12,0 21,3 26,8 5,5 8,14 8,26l0 15zm-23 28c-3,-2 -7,-3 -13,-3 -6,0 -12,2 -15,6 -4,4 -6,11 -6,23 0,9 2,15 5,19 3,3 7,5 14,5 6,0 11,-2 15,-5 0,-6 0,-21 0,-45zm46 51c0,-5 1,-8 4,-11 2,-2 6,-4 10,-4 10,0 15,6 15,17 0,6 -1,12 -4,19 -3,6 -6,12 -10,16 -3,5 -6,7 -8,7 -5,0 -8,-2 -9,-7 3,-5 5,-9 6,-12 1,-3 2,-7 2,-12 -4,-3 -6,-7 -6,-13zm147 -184c9,0 16,1 20,4 4,3 6,7 6,11 0,5 -1,10 -3,14 -6,-5 -12,-7 -19,-7 -7,0 -13,2 -18,7 -5,4 -9,12 -13,25 -3,12 -5,30 -5,54 0,18 2,32 4,42 2,10 5,17 9,21 4,4 9,6 15,6 6,0 11,-1 15,-3 5,-2 9,-4 12,-6 2,5 3,9 3,14 0,5 -3,10 -10,14 -6,4 -15,6 -25,6 -10,0 -18,-3 -25,-7 -7,-4 -12,-13 -16,-27 -3,-13 -5,-33 -5,-59 0,-30 2,-53 8,-69 5,-16 12,-27 20,-32 8,-5 17,-8 27,-8zm128 192c-12,6 -26,10 -42,10 -11,0 -19,-2 -25,-5 -6,-4 -11,-9 -13,-15 -2,-7 -4,-16 -4,-27l0 -92c0,-1 1,-3 1,-3 1,-1 3,-1 7,-1 4,0 9,0 16,0l0 98c0,10 1,16 3,20 3,3 8,5 16,5 7,0 13,-2 19,-5l0 -114c0,-1 0,-3 1,-3 0,-1 3,-1 6,-1 4,0 9,0 15,0l0 133zm26 -189c0,-3 1,-6 2,-7 1,-2 3,-2 6,-3 3,0 8,0 15,0l0 73c8,-7 18,-10 30,-10 11,0 20,4 26,13 5,8 8,22 8,42 0,36 -5,60 -15,72 -11,13 -24,19 -39,19 -15,0 -26,-3 -33,-9l0 -190zm23 175c3,2 7,4 13,4 7,0 13,-5 18,-14 5,-9 8,-27 8,-52 0,-15 -2,-25 -5,-31 -3,-6 -8,-9 -15,-9 -7,0 -14,3 -19,8l0 94zm161 -73c0,41 -1,70 -2,87 -10,7 -24,10 -40,10 -8,0 -15,-1 -20,-3 -6,-2 -10,-7 -14,-13 -3,-6 -5,-15 -5,-27 0,-18 3,-30 10,-36 7,-7 16,-10 28,-10 8,0 15,1 20,4l0 -22c0,-7 -1,-11 -4,-14 -3,-2 -7,-3 -13,-3 -15,0 -27,2 -38,6 -2,-4 -3,-8 -3,-13 0,-4 1,-6 3,-8 3,-1 9,-3 17,-5 8,-1 16,-2 26,-2 12,0 21,3 27,8 5,5 8,14 8,26l0 15zm-23 28c-4,-2 -8,-3 -13,-3 -7,0 -12,2 -16,6 -4,4 -6,11 -6,23 0,9 2,15 5,19 3,3 8,5 14,5 7,0 12,-2 15,-5 1,-6 1,-21 1,-45zm45 51c0,-5 1,-8 4,-11 3,-2 6,-4 10,-4 11,0 16,6 16,17 0,6 -2,12 -5,19 -2,6 -6,12 -9,16 -4,5 -6,7 -8,7 -5,0 -8,-2 -9,-7 3,-5 5,-9 6,-12 1,-3 1,-7 2,-12 -5,-3 -7,-7 -7,-13zm89 15c-1,-2 -2,-5 -2,-7 0,-4 1,-7 2,-9 1,-2 2,-6 5,-11 7,-11 18,-25 32,-42 11,-13 20,-24 25,-33 5,-8 8,-17 8,-25 0,-13 -8,-20 -22,-20 -7,0 -15,1 -23,3 -7,2 -13,4 -18,7 -2,-4 -3,-10 -3,-16 0,-3 2,-5 7,-7 5,-3 11,-5 18,-6 8,-2 16,-2 25,-2 15,0 26,3 32,9 6,6 9,16 9,29 0,8 -1,16 -5,23 -3,8 -7,15 -11,21 -5,7 -12,15 -21,26 -13,15 -23,28 -30,39l38 0c6,0 13,-1 20,-1 7,-1 11,-1 13,-1 0,9 0,15 0,18 -1,3 -2,5 -4,5l-95 0zm116 -83c0,-29 4,-50 12,-64 8,-14 21,-21 39,-21 17,0 30,6 38,19 8,13 12,32 12,59 0,32 -4,55 -12,70 -8,15 -21,22 -40,22 -18,0 -31,-7 -38,-20 -8,-14 -11,-36 -11,-65zm24 2c0,15 1,28 2,37 2,9 5,16 8,20 4,4 9,6 16,6 10,0 17,-6 21,-17 4,-11 6,-30 6,-55 0,-20 -2,-35 -6,-44 -3,-10 -10,-14 -19,-14 -10,0 -18,5 -22,16 -4,12 -6,28 -6,51zm129 -64c-9,1 -22,4 -31,6 -2,-4 -4,-11 -4,-17 0,-1 4,-3 11,-5 7,-2 15,-4 24,-6 9,-2 15,-3 18,-3 3,0 5,1 6,2 0,50 0,102 0,152 0,3 1,14 -1,15 -1,1 -2,1 -3,1 -6,0 -16,0 -19,0l-1 -145zm146 -24c0,2 0,5 0,8 0,5 0,9 -1,12 -22,45 -34,91 -34,141 0,9 -5,8 -14,8 -4,0 -5,0 -9,0 0,-53 9,-97 30,-146 -13,0 -36,0 -65,0 -4,0 -4,-9 -4,-23l97 0zm-1382 -298l62 -1c-1,3 -1,8 -1,15 -1,8 -1,13 -1,15 0,3 -1,7 -1,12 -1,6 -2,10 -3,13 -1,2 -2,6 -3,10 -6,18 -23,33 -51,43 -18,6 -37,9 -56,9 -19,0 -37,-3 -53,-9 -15,-7 -28,-15 -37,-24 -20,-22 -31,-62 -31,-122 0,-59 11,-100 31,-121 9,-10 22,-18 37,-24 16,-7 34,-10 53,-10 37,0 66,10 85,28 20,19 30,45 30,79l-62 0c0,-16 -4,-27 -11,-34 -8,-8 -22,-12 -43,-12 -21,0 -35,7 -41,20 -7,13 -11,32 -11,58l0 27c0,41 8,67 24,76 8,5 17,7 29,7 12,0 22,-1 29,-3 8,-3 13,-7 16,-12 4,-6 6,-11 7,-17 1,-5 2,-13 2,-23zm153 -304c17,0 27,3 32,8 5,5 8,16 8,32 0,16 -3,27 -8,32 -5,5 -16,7 -32,7 -16,0 -27,-2 -32,-8 -5,-5 -7,-15 -7,-31 0,-17 2,-27 7,-32 5,-5 16,-8 32,-8zm34 413l-68 0 0 -288 68 0 0 288z"/>
   <path class="fil4" d="M2410 332c21,21 32,53 32,94 0,42 -11,73 -32,94 -22,22 -52,33 -91,33l-72 0 0 119 -72 0 0 -372 144 0c39,0 69,10 91,32zm-41 94c0,-41 -18,-62 -54,-62l-68 0 0 123 68 0c18,0 31,-4 40,-14 9,-9 14,-25 14,-47zm356 -53l-114 332c-5,15 -12,27 -20,35 -14,14 -34,21 -59,21l-47 0 0 -61 36 0c10,0 17,-2 22,-5 5,-3 9,-10 12,-19l5 -15 -89 -288 71 0 53 208 58 -208 72 0z"/>
  </g>
 </g>
</svg>
