<svg id="Layer_1" data-name="Layer 1" xmlns="http://www.w3.org/2000/svg" viewBox="0 0 224 96"><defs><style>.cls-1{fill:#fff;}</style></defs><title>Logo-White</title><path class="cls-1" d="M80,80H16V16H80ZM51.56,72.89H72.89V23.11H51.56v7.11a17.78,17.78,0,0,1,0,35.56Zm-28.45,0H44.44V65.78a17.78,17.78,0,0,1,0-35.56V23.11H23.11ZM51.56,37.33V58.67a10.67,10.67,0,0,0,0-21.34Zm-7.12,0a10.67,10.67,0,0,0,0,21.34Z"/><path class="cls-1" d="M99.31,34.1h19.51v6.62H107.23v5.71h9.93v6.62h-9.93V64H99.31Z"/><path class="cls-1" d="M124,34.1h7.91V57.38H143.2V64H124Z"/><path class="cls-1" d="M146.32,49.55V34.1h7.92V50.47c0,5.34,1.38,7.27,4.51,7.27s4.6-1.93,4.6-7.27V34.1H171V49.55c0,10.22-3.86,15-12.23,15S146.32,59.77,146.32,49.55Z"/><path class="cls-1" d="M182.21,48.63,174.57,34.1h8.83l2,4.87c.64,1.38,1.28,3,2.11,5h.19c.64-1.93,1.28-3.59,1.84-5l1.74-4.87h8.47L192.14,49l8.1,15h-8.83L189,58.66c-.73-1.56-1.38-3.12-2.11-5h-.19c-.64,1.85-1.28,3.41-1.93,5L182.57,64h-8.46Z"/></svg>